<?xml version="1.0" encoding="utf-8"?>
<!-- Generator: Adobe Illustrator 23.1.1, SVG Export Plug-In . SVG Version: 6.00 Build 0)  -->
<svg version="1.1" id="Capa_1" xmlns="http://www.w3.org/2000/svg" xmlns:xlink="http://www.w3.org/1999/xlink" x="0px" y="0px"
	 viewBox="0 0 182 46" style="enable-background:new 0 0 182 46;" xml:space="preserve">
<style type="text/css">
	.st0{fill:#008BFC;}
	.st1{fill:#FFFFFF;}
</style>
<g>
	<g>
		<g>
			<path class="st0" d="M126.87,19.71v-8.86h-1.7V9.47h4.86v1.38h-1.7v8.86H126.87z"/>
			<path class="st0" d="M132.02,19.71V9.47h4.37v1.38h-2.91v3.01h2.53v1.38h-2.53v3.01h2.91v1.47H132.02z"/>
			<path class="st0" d="M143.35,16.79v0.63c0,0.32-0.06,0.62-0.18,0.9c-0.12,0.28-0.29,0.53-0.5,0.76c-0.21,0.22-0.46,0.4-0.74,0.53
				c-0.28,0.13-0.59,0.19-0.91,0.19c-0.28,0-0.56-0.04-0.85-0.12s-0.55-0.21-0.78-0.4c-0.23-0.19-0.42-0.44-0.57-0.74
				c-0.15-0.3-0.22-0.69-0.22-1.16v-5.64c0-0.34,0.06-0.65,0.17-0.94c0.12-0.29,0.28-0.54,0.49-0.75c0.21-0.21,0.46-0.38,0.76-0.5
				c0.29-0.12,0.62-0.18,0.97-0.18c0.69,0,1.25,0.23,1.68,0.68c0.21,0.22,0.38,0.48,0.5,0.78c0.12,0.3,0.18,0.63,0.18,0.99v0.58
				h-1.47v-0.49c0-0.29-0.08-0.54-0.24-0.75c-0.16-0.21-0.38-0.32-0.66-0.32c-0.36,0-0.61,0.11-0.73,0.34
				c-0.12,0.23-0.18,0.51-0.18,0.86v5.24c0,0.3,0.06,0.55,0.19,0.75c0.13,0.2,0.36,0.3,0.7,0.3c0.1,0,0.2-0.02,0.31-0.05
				c0.11-0.03,0.21-0.09,0.31-0.17c0.09-0.08,0.16-0.18,0.22-0.32c0.06-0.13,0.09-0.3,0.09-0.5v-0.5H143.35z"/>
			<path class="st0" d="M145.88,19.71V9.47h1.47v4.39h1.81V9.47h1.47v10.24h-1.47v-4.56h-1.81v4.56H145.88z"/>
			<path class="st0" d="M130.27,27.58h-1.47v-0.33c0-0.34-0.08-0.63-0.24-0.87c-0.16-0.24-0.42-0.37-0.8-0.37
				c-0.2,0-0.36,0.04-0.49,0.12c-0.12,0.08-0.23,0.17-0.3,0.29c-0.08,0.12-0.13,0.27-0.16,0.42c-0.03,0.16-0.04,0.32-0.04,0.5
				c0,0.2,0.01,0.37,0.02,0.5s0.05,0.25,0.11,0.36c0.06,0.11,0.14,0.2,0.25,0.27c0.11,0.08,0.26,0.15,0.45,0.23l1.12,0.45
				c0.33,0.12,0.59,0.27,0.79,0.44c0.2,0.17,0.36,0.36,0.48,0.58c0.11,0.23,0.18,0.49,0.22,0.78c0.04,0.29,0.06,0.63,0.06,1
				c0,0.43-0.04,0.83-0.13,1.2c-0.09,0.37-0.23,0.68-0.42,0.94c-0.2,0.27-0.47,0.48-0.79,0.63c-0.33,0.15-0.72,0.23-1.19,0.23
				c-0.35,0-0.69-0.06-0.99-0.19c-0.31-0.12-0.57-0.3-0.79-0.52c-0.22-0.22-0.4-0.48-0.53-0.77c-0.13-0.29-0.19-0.61-0.19-0.96
				v-0.55h1.47v0.46c0,0.27,0.08,0.51,0.24,0.73c0.16,0.22,0.42,0.32,0.8,0.32c0.25,0,0.44-0.04,0.58-0.11
				c0.14-0.07,0.25-0.18,0.32-0.31c0.08-0.13,0.12-0.3,0.14-0.48c0.01-0.19,0.02-0.4,0.02-0.63c0-0.27-0.01-0.49-0.03-0.66
				c-0.02-0.17-0.06-0.31-0.12-0.42c-0.07-0.11-0.16-0.19-0.27-0.26c-0.11-0.07-0.26-0.14-0.44-0.22l-1.05-0.43
				c-0.63-0.26-1.06-0.6-1.27-1.03c-0.22-0.43-0.32-0.96-0.32-1.6c0-0.38,0.05-0.75,0.16-1.09c0.11-0.35,0.26-0.64,0.47-0.89
				c0.2-0.25,0.46-0.45,0.77-0.6c0.31-0.15,0.68-0.22,1.12-0.22c0.36,0,0.7,0.07,1,0.2c0.3,0.13,0.56,0.31,0.78,0.53
				c0.44,0.46,0.66,0.99,0.66,1.58V27.58z"/>
			<path class="st0" d="M132.7,34.87V24.63h4.37v1.38h-2.91v3.01h2.53v1.38h-2.53v3.01h2.91v1.47H132.7z"/>
			<path class="st0" d="M139.36,34.87V24.63h2.36c1.73,0,2.59,1,2.59,3.01c0,0.6-0.09,1.12-0.28,1.54
				c-0.19,0.42-0.52,0.76-0.99,1.02l1.58,4.68h-1.55l-1.37-4.37h-0.88v4.37H139.36z M140.83,26.01v3.19h0.83
				c0.26,0,0.47-0.04,0.62-0.11c0.15-0.07,0.27-0.18,0.36-0.31c0.08-0.13,0.13-0.3,0.16-0.5c0.03-0.2,0.04-0.42,0.04-0.68
				s-0.01-0.49-0.04-0.68c-0.03-0.2-0.09-0.37-0.17-0.51c-0.18-0.27-0.53-0.4-1.04-0.4H140.83z"/>
			<path class="st0" d="M151.8,24.63l-2.1,10.24h-1.29l-2.09-10.24h1.55l1.17,7.15h0.03l1.18-7.15H151.8z"/>
			<path class="st0" d="M154.06,34.87V24.63h1.47v10.24H154.06z"/>
			<path class="st0" d="M162.95,31.95v0.63c0,0.32-0.06,0.62-0.18,0.9c-0.12,0.28-0.29,0.53-0.5,0.76c-0.21,0.22-0.46,0.4-0.74,0.53
				c-0.28,0.13-0.59,0.19-0.91,0.19c-0.28,0-0.56-0.04-0.85-0.12c-0.29-0.08-0.55-0.21-0.78-0.4c-0.23-0.19-0.42-0.44-0.57-0.74
				c-0.15-0.3-0.22-0.69-0.22-1.16V26.9c0-0.34,0.06-0.65,0.17-0.94c0.12-0.29,0.28-0.54,0.49-0.75c0.21-0.21,0.46-0.38,0.76-0.5
				c0.29-0.12,0.62-0.18,0.97-0.18c0.69,0,1.25,0.23,1.68,0.68c0.21,0.22,0.38,0.48,0.5,0.78c0.12,0.3,0.18,0.63,0.18,0.99v0.58
				h-1.47v-0.49c0-0.29-0.08-0.54-0.24-0.75c-0.16-0.21-0.38-0.32-0.66-0.32c-0.36,0-0.61,0.11-0.73,0.34
				c-0.12,0.23-0.18,0.51-0.18,0.86v5.24c0,0.3,0.06,0.55,0.19,0.75c0.13,0.2,0.36,0.3,0.7,0.3c0.1,0,0.2-0.02,0.31-0.05
				c0.11-0.03,0.21-0.09,0.31-0.17c0.09-0.08,0.16-0.18,0.22-0.32c0.06-0.13,0.09-0.3,0.09-0.5v-0.5H162.95z"/>
			<path class="st0" d="M165.49,34.87V24.63h4.37v1.38h-2.91v3.01h2.53v1.38h-2.53v3.01h2.91v1.47H165.49z"/>
			<path class="st0" d="M176.89,27.58h-1.47v-0.33c0-0.34-0.08-0.63-0.24-0.87c-0.16-0.24-0.42-0.37-0.8-0.37
				c-0.2,0-0.36,0.04-0.49,0.12c-0.12,0.08-0.23,0.17-0.3,0.29c-0.08,0.12-0.13,0.27-0.16,0.42c-0.03,0.16-0.04,0.32-0.04,0.5
				c0,0.2,0.01,0.37,0.02,0.5c0.01,0.13,0.05,0.25,0.11,0.36c0.06,0.11,0.14,0.2,0.25,0.27c0.11,0.08,0.26,0.15,0.45,0.23l1.12,0.45
				c0.33,0.12,0.59,0.27,0.79,0.44c0.2,0.17,0.36,0.36,0.47,0.58c0.11,0.23,0.18,0.49,0.22,0.78c0.04,0.29,0.06,0.63,0.06,1
				c0,0.43-0.04,0.83-0.13,1.2c-0.09,0.37-0.23,0.68-0.42,0.94c-0.2,0.27-0.47,0.48-0.79,0.63c-0.33,0.15-0.72,0.23-1.19,0.23
				c-0.35,0-0.69-0.06-0.99-0.19c-0.31-0.12-0.57-0.3-0.79-0.52c-0.22-0.22-0.4-0.48-0.53-0.77c-0.13-0.29-0.19-0.61-0.19-0.96
				v-0.55h1.47v0.46c0,0.27,0.08,0.51,0.24,0.73c0.16,0.22,0.42,0.32,0.8,0.32c0.25,0,0.44-0.04,0.58-0.11
				c0.14-0.07,0.25-0.18,0.32-0.31c0.08-0.13,0.12-0.3,0.14-0.48c0.01-0.19,0.02-0.4,0.02-0.63c0-0.27-0.01-0.49-0.03-0.66
				c-0.02-0.17-0.06-0.31-0.12-0.42c-0.07-0.11-0.16-0.19-0.27-0.26c-0.11-0.07-0.26-0.14-0.44-0.22l-1.05-0.43
				c-0.63-0.26-1.06-0.6-1.27-1.03c-0.22-0.43-0.32-0.96-0.32-1.6c0-0.38,0.05-0.75,0.16-1.09c0.11-0.35,0.26-0.64,0.47-0.89
				c0.2-0.25,0.46-0.45,0.77-0.6c0.31-0.15,0.68-0.22,1.12-0.22c0.36,0,0.7,0.07,1,0.2c0.3,0.13,0.56,0.31,0.78,0.53
				c0.44,0.46,0.66,0.99,0.66,1.58V27.58z"/>
		</g>
		<g>
			<path class="st0" d="M46.88,15.26c0-1.04,0.18-1.95,0.54-2.75c0.36-0.8,0.84-1.46,1.45-1.99c0.58-0.51,1.24-0.89,1.97-1.16
				c0.74-0.27,1.48-0.4,2.23-0.4c0.75,0,1.49,0.13,2.23,0.4c0.74,0.27,1.41,0.65,2.01,1.16c0.58,0.53,1.05,1.19,1.41,1.99
				c0.36,0.8,0.54,1.71,0.54,2.75v13.61c0,1.09-0.18,2.01-0.54,2.79c-0.36,0.77-0.83,1.41-1.41,1.92c-0.6,0.53-1.27,0.93-2.01,1.19
				c-0.74,0.27-1.48,0.4-2.23,0.4c-0.75,0-1.49-0.13-2.23-0.4c-0.74-0.27-1.39-0.66-1.97-1.19c-0.6-0.51-1.09-1.15-1.45-1.92
				c-0.36-0.77-0.54-1.7-0.54-2.79V15.26z M50.57,28.87c0,0.89,0.25,1.55,0.74,1.97c0.49,0.42,1.08,0.63,1.76,0.63
				c0.68,0,1.26-0.21,1.76-0.63c0.49-0.42,0.74-1.08,0.74-1.97V15.26c0-0.89-0.25-1.55-0.74-1.97c-0.49-0.42-1.08-0.63-1.76-0.63
				c-0.68,0-1.26,0.21-1.76,0.63c-0.5,0.42-0.74,1.08-0.74,1.97V28.87z"/>
			<path class="st0" d="M65.23,34.95V9.18h3.55l4.74,13.65h0.07L78.3,9.18h3.58v25.77h-3.69V19.28h-0.07l-3.66,11.08h-1.85
				l-3.62-11.08h-0.07v15.67H65.23z"/>
			<path class="st0" d="M88.07,34.95V9.18h5.39c1.18,0,2.19,0.18,3.02,0.54c0.83,0.36,1.51,0.84,2.05,1.45
				c0.53,0.6,0.91,1.3,1.14,2.08c0.23,0.78,0.34,1.6,0.34,2.44v0.94c0,0.7-0.05,1.29-0.16,1.77c-0.11,0.48-0.27,0.91-0.49,1.27
				c-0.41,0.68-1.04,1.25-1.88,1.74c0.87,0.41,1.51,1.01,1.92,1.81c0.41,0.8,0.62,1.88,0.62,3.26v1.45c0,2.27-0.55,4.01-1.65,5.21
				c-1.1,1.21-2.85,1.81-5.27,1.81H88.07z M91.76,12.66v7.1h1.67c1.23,0,2.06-0.31,2.48-0.92c0.42-0.62,0.63-1.51,0.63-2.7
				c0-1.16-0.24-2.03-0.71-2.61c-0.47-0.58-1.32-0.87-2.55-0.87H91.76z M91.76,23.01v8.25h1.59c0.75,0,1.33-0.11,1.76-0.33
				c0.42-0.22,0.74-0.52,0.96-0.9c0.22-0.39,0.35-0.84,0.4-1.38c0.05-0.53,0.07-1.11,0.07-1.74c0-0.65-0.04-1.22-0.11-1.7
				c-0.07-0.48-0.22-0.89-0.43-1.23c-0.24-0.34-0.57-0.59-0.98-0.74c-0.41-0.16-0.95-0.24-1.63-0.24H91.76z"/>
			<path class="st0" d="M118.15,9.18v19.98c0,0.85-0.15,1.62-0.45,2.33c-0.3,0.71-0.73,1.35-1.29,1.9c-0.56,0.56-1.19,0.99-1.92,1.3
				c-0.72,0.31-1.5,0.47-2.32,0.47c-0.82,0-1.59-0.16-2.3-0.47c-0.71-0.31-1.35-0.75-1.9-1.3c-0.56-0.56-0.99-1.19-1.3-1.9
				c-0.31-0.71-0.47-1.49-0.47-2.33V9.18h3.69V28.8c0,0.92,0.22,1.59,0.65,2.03c0.43,0.43,0.98,0.65,1.63,0.65s1.19-0.22,1.63-0.65
				c0.43-0.43,0.65-1.11,0.65-2.03V9.18H118.15z"/>
		</g>
		<g>
			<path class="st0" d="M35.01,35.07c-1.65,1.65-3.57,2.95-5.72,3.85c-2.21,0.94-4.57,1.41-7,1.41c-2.43,0-4.78-0.47-7-1.41
				c-2.14-0.9-4.06-2.2-5.71-3.85c-1.65-1.65-2.95-3.57-3.85-5.72c-0.94-2.21-1.41-4.57-1.41-7c0-2.43,0.47-4.78,1.41-7
				c0.9-2.14,2.2-4.06,3.85-5.71C11.24,8,13.16,6.7,15.3,5.8c2.21-0.94,4.57-1.41,7-1.41c2.43,0,4.78,0.47,7,1.41
				c2.14,0.91,4.06,2.2,5.71,3.85c1.65,1.65,2.95,3.57,3.85,5.71c0.94,2.21,1.41,4.57,1.41,7c0,2.43-0.47,4.78-1.41,7
				C37.96,31.5,36.66,33.42,35.01,35.07z"/>
			<g>
				<path class="st1" d="M30.87,25.97h-4.6l-0.86,0.86v1.89h1.18c0.84,0,1.53,0.69,1.53,1.53c0,0.84-0.69,1.53-1.53,1.53h-8.57
					c-0.84,0-1.53-0.69-1.53-1.53c0-0.84,0.69-1.53,1.53-1.53h1.99v-1.89l-0.86-0.86h-5.41c-1.68,0-3.06-1.38-3.06-3.06
					c0-1.58,1.22-2.9,2.76-3.04c-0.01-0.09-0.01-0.17-0.01-0.26c0-1.69,1.37-3.06,3.06-3.06c0.24,0,0.48,0.03,0.71,0.08
					c0.69-2.16,2.71-3.72,5.1-3.72c2.38,0,4.4,1.56,5.1,3.71c1.37,0.3,2.4,1.52,2.4,2.99c0,0.08,0,0.16-0.01,0.25h1.08
					c1.68,0,3.06,1.38,3.06,3.06C33.93,24.6,32.55,25.97,30.87,25.97z"/>
				<path class="st0" d="M24.46,22.22h0.7v1.74l-1.78,1.78c-0.09,0.09-0.13,0.2-0.13,0.32v3.79c0,0.25,0.21,0.46,0.46,0.46
					c0.25,0,0.46-0.2,0.46-0.46v-3.6l1.78-1.78c0.09-0.09,0.14-0.2,0.14-0.33v-1.93h0.81v-2.29h-2.43L24.46,22.22L24.46,22.22z"/>
				<path class="st0" d="M22.69,17.32V17.3l-1.45,2.59h1.02v3.75c0,0.29,0.21,0.52,0.46,0.52c0.25,0,0.46-0.23,0.46-0.52v-3.75h1.1
					L22.69,17.32z"/>
				<path class="st0" d="M20.25,23.89v-2.73c0.49-0.18,0.84-0.63,0.84-1.15c0-0.68-0.59-1.24-1.31-1.24s-1.31,0.55-1.31,1.24
					c0,0.53,0.36,0.99,0.86,1.16v2.92c0,0.12,0.05,0.24,0.13,0.32l1.78,1.78v2.81c0,0.25,0.21,0.46,0.46,0.46
					c0.25,0,0.46-0.21,0.46-0.46v-3c0-0.12-0.05-0.24-0.13-0.32L20.25,23.89z"/>
			</g>
		</g>
	</g>
</g>
</svg>
