<?xml version="1.0" encoding="utf-8"?>
<!-- Generator: Adobe Illustrator 23.1.1, SVG Export Plug-In . SVG Version: 6.00 Build 0)  -->
<svg version="1.1" id="Capa_1" xmlns="http://www.w3.org/2000/svg" xmlns:xlink="http://www.w3.org/1999/xlink" x="0px" y="0px"
	 viewBox="0 0 227 100" style="enable-background:new 0 0 227 100;" xml:space="preserve">
<style type="text/css">
	.st0{fill:#008BFC;}
	.st1{fill:#FFFFFF;}
</style>
<g>
	<g>
		<path class="st0" d="M85.02,82.39c-4.29,4.29-9.28,7.66-14.85,10.01C64.42,94.83,58.3,96.06,52,96.06
			c-6.31,0-12.42-1.23-18.18-3.67c-5.56-2.35-10.56-5.72-14.85-10.01c-4.29-4.29-7.66-9.29-10.01-14.85
			c-2.43-5.75-3.67-11.87-3.67-18.18c0-6.31,1.23-12.42,3.67-18.18c2.35-5.56,5.72-10.56,10.01-14.85
			c4.29-4.29,9.28-7.66,14.85-10.01C39.57,3.89,45.69,2.66,52,2.66c6.31,0,12.42,1.23,18.18,3.67c5.56,2.35,10.56,5.72,14.85,10.01
			c4.29,4.29,7.66,9.28,10.01,14.85c2.43,5.75,3.67,11.87,3.67,18.18c0,6.31-1.23,12.42-3.67,18.18
			C92.68,73.1,89.31,78.09,85.02,82.39z"/>
		<g>
			<path class="st1" d="M74.26,58.75H62.31l-2.24,2.24v4.91h3.06c2.19,0,3.97,1.79,3.97,3.98c0,2.18-1.79,3.98-3.97,3.98H40.87
				c-2.19,0-3.97-1.79-3.97-3.98c0-2.19,1.79-3.98,3.97-3.98h5.17v-4.91l-2.24-2.24H29.74c-4.37,0-7.95-3.58-7.95-7.95
				c0-4.11,3.17-7.52,7.18-7.91c-0.02-0.22-0.03-0.45-0.03-0.67c0-4.39,3.56-7.95,7.95-7.95c0.64,0,1.25,0.08,1.85,0.22
				c1.79-5.61,7.04-9.68,13.25-9.68c6.2,0,11.44,4.05,13.24,9.65c3.57,0.78,6.23,3.96,6.23,7.76c0,0.22-0.01,0.43-0.03,0.64h2.81
				c4.37,0,7.95,3.58,7.95,7.95C82.21,55.17,78.63,58.75,74.26,58.75z"/>
			<path class="st0" d="M57.6,49.01h1.81v4.52l-4.62,4.62c-0.22,0.22-0.35,0.53-0.35,0.84v9.86c0,0.66,0.53,1.19,1.19,1.19
				c0.66,0,1.19-0.53,1.19-1.19v-9.37l4.62-4.62c0.22-0.22,0.35-0.53,0.35-0.85v-5.01h2.11v-5.95H57.6L57.6,49.01L57.6,49.01z"/>
			<path class="st0" d="M53,36.26v-0.04l-3.76,6.73h2.66v9.75c0,0.75,0.53,1.35,1.19,1.35c0.66,0,1.19-0.61,1.19-1.35v-9.75h2.86
				L53,36.26z"/>
			<path class="st0" d="M46.67,53.32v-7.1c1.28-0.46,2.19-1.63,2.19-2.99c0-1.77-1.53-3.21-3.41-3.21s-3.41,1.44-3.41,3.21
				c0,1.39,0.94,2.56,2.24,3.01v7.57c0,0.31,0.12,0.62,0.35,0.84l4.62,4.62v7.3c0,0.66,0.53,1.19,1.19,1.19
				c0.66,0,1.19-0.53,1.19-1.19v-7.79c0-0.32-0.12-0.62-0.35-0.84L46.67,53.32z"/>
		</g>
	</g>
	<g>
		<path class="st0" d="M111.86,15.68c0-0.9,0.16-1.69,0.47-2.38s0.73-1.26,1.25-1.72c0.5-0.44,1.07-0.77,1.71-1
			c0.64-0.23,1.28-0.34,1.93-0.34c0.65,0,1.29,0.11,1.93,0.34c0.64,0.23,1.22,0.56,1.74,1c0.5,0.46,0.91,1.03,1.22,1.72
			s0.47,1.48,0.47,2.38v11.77c0,0.94-0.16,1.74-0.47,2.41s-0.72,1.22-1.22,1.66c-0.52,0.46-1.1,0.8-1.74,1.03
			c-0.64,0.23-1.28,0.34-1.93,0.34c-0.65,0-1.29-0.12-1.93-0.34c-0.64-0.23-1.21-0.57-1.71-1.03c-0.52-0.44-0.94-0.99-1.25-1.66
			s-0.47-1.47-0.47-2.41V15.68z M115.05,27.46c0,0.77,0.21,1.34,0.64,1.71s0.93,0.55,1.52,0.55c0.58,0,1.09-0.18,1.52-0.55
			c0.43-0.37,0.64-0.93,0.64-1.71V15.68c0-0.77-0.21-1.34-0.64-1.71c-0.43-0.37-0.93-0.55-1.52-0.55c-0.58,0-1.09,0.18-1.52,0.55
			s-0.64,0.93-0.64,1.71V27.46z"/>
		<path class="st0" d="M127.73,32.72v-22.3h3.07l4.1,11.81h0.06l4.07-11.81h3.1v22.3h-3.19V19.16h-0.06l-3.16,9.58h-1.6l-3.13-9.58
			h-0.06v13.56H127.73z"/>
		<path class="st0" d="M147.49,32.72v-22.3h4.67c1.02,0,1.89,0.16,2.62,0.47s1.31,0.73,1.77,1.25c0.46,0.52,0.79,1.12,0.99,1.8
			c0.2,0.68,0.3,1.38,0.3,2.11v0.81c0,0.61-0.05,1.12-0.14,1.53c-0.09,0.42-0.23,0.78-0.42,1.1c-0.35,0.58-0.9,1.09-1.63,1.5
			c0.75,0.36,1.3,0.88,1.66,1.57c0.36,0.69,0.53,1.63,0.53,2.82v1.25c0,1.96-0.48,3.47-1.43,4.51c-0.95,1.04-2.47,1.57-4.56,1.57
			H147.49z M150.69,13.43v6.14h1.44c1.07,0,1.78-0.27,2.15-0.8c0.37-0.53,0.55-1.31,0.55-2.33c0-1-0.2-1.75-0.61-2.25
			s-1.14-0.75-2.21-0.75H150.69z M150.69,22.39v7.14h1.38c0.65,0,1.15-0.09,1.52-0.28c0.37-0.19,0.64-0.45,0.83-0.78
			c0.19-0.33,0.3-0.73,0.34-1.19s0.06-0.96,0.06-1.5c0-0.56-0.03-1.05-0.09-1.47s-0.19-0.77-0.38-1.06
			c-0.21-0.29-0.49-0.51-0.85-0.64c-0.36-0.13-0.83-0.2-1.41-0.2H150.69z"/>
		<path class="st0" d="M173.52,10.42v17.29c0,0.73-0.13,1.4-0.39,2.02c-0.26,0.62-0.63,1.16-1.11,1.64
			c-0.48,0.48-1.03,0.86-1.66,1.13c-0.63,0.27-1.29,0.41-2,0.41s-1.37-0.14-1.99-0.41c-0.62-0.27-1.16-0.65-1.64-1.13
			c-0.48-0.48-0.86-1.03-1.13-1.64c-0.27-0.62-0.41-1.29-0.41-2.02V10.42h3.19V27.4c0,0.79,0.19,1.38,0.56,1.75
			c0.38,0.38,0.85,0.56,1.41,0.56c0.56,0,1.03-0.19,1.41-0.56c0.38-0.38,0.56-0.96,0.56-1.75V10.42H173.52z"/>
		<path class="st0" d="M114.14,61V41.71h-3.7v-3.01h10.58v3.01h-3.7V61H114.14z"/>
		<path class="st0" d="M124.79,61v-22.3h9.52v3.01h-6.33v6.54h5.51v3.01h-5.51v6.54h6.33V61H124.79z"/>
		<path class="st0" d="M148.87,54.65v1.38c0,0.69-0.13,1.34-0.39,1.96c-0.26,0.62-0.62,1.16-1.08,1.64c-0.46,0.48-1,0.86-1.61,1.14
			c-0.62,0.28-1.28,0.42-1.99,0.42c-0.61,0-1.22-0.08-1.85-0.25c-0.63-0.17-1.19-0.46-1.69-0.88c-0.5-0.42-0.91-0.96-1.24-1.61
			c-0.32-0.66-0.49-1.5-0.49-2.52V43.66c0-0.73,0.12-1.41,0.38-2.04c0.25-0.62,0.6-1.17,1.06-1.63c0.46-0.46,1.01-0.82,1.64-1.08
			c0.64-0.26,1.34-0.39,2.11-0.39c1.5,0,2.72,0.49,3.66,1.47c0.46,0.48,0.82,1.05,1.08,1.71s0.39,1.37,0.39,2.15v1.25h-3.19v-1.06
			c0-0.63-0.18-1.17-0.53-1.63c-0.36-0.46-0.83-0.69-1.44-0.69c-0.79,0-1.32,0.25-1.58,0.74c-0.26,0.49-0.39,1.11-0.39,1.86v11.4
			c0,0.65,0.14,1.19,0.42,1.63c0.28,0.44,0.79,0.66,1.52,0.66c0.21,0,0.43-0.04,0.67-0.11s0.46-0.19,0.67-0.36
			c0.19-0.17,0.34-0.4,0.47-0.69c0.12-0.29,0.19-0.66,0.19-1.1v-1.1H148.87z"/>
		<path class="st0" d="M153.82,61v-22.3h3.19v9.55h3.95v-9.55h3.19V61h-3.19v-9.93h-3.95V61H153.82z"/>
		<path class="st0" d="M122.38,73.41h-3.19v-0.72c0-0.73-0.17-1.36-0.52-1.89c-0.34-0.53-0.92-0.8-1.74-0.8
			c-0.44,0-0.79,0.08-1.07,0.25s-0.49,0.38-0.66,0.63c-0.17,0.27-0.28,0.58-0.34,0.92s-0.09,0.71-0.09,1.08
			c0,0.44,0.02,0.8,0.05,1.1c0.03,0.29,0.11,0.55,0.24,0.78c0.12,0.23,0.31,0.43,0.55,0.59c0.24,0.17,0.57,0.33,0.99,0.5l2.44,0.97
			c0.71,0.27,1.28,0.59,1.72,0.96s0.78,0.79,1.03,1.27c0.23,0.5,0.39,1.07,0.47,1.71s0.13,1.36,0.13,2.18
			c0,0.94-0.09,1.81-0.28,2.62s-0.49,1.49-0.91,2.05c-0.44,0.58-1.01,1.04-1.72,1.38c-0.71,0.33-1.58,0.5-2.6,0.5
			c-0.77,0-1.49-0.14-2.16-0.41c-0.67-0.27-1.24-0.65-1.72-1.13c-0.48-0.48-0.86-1.04-1.14-1.68c-0.28-0.64-0.42-1.33-0.42-2.08V83
			h3.19v1c0,0.58,0.17,1.11,0.52,1.58s0.92,0.71,1.74,0.71c0.54,0,0.96-0.08,1.27-0.24s0.54-0.38,0.71-0.67
			c0.17-0.29,0.27-0.64,0.3-1.05c0.03-0.41,0.05-0.86,0.05-1.36c0-0.58-0.02-1.06-0.06-1.44c-0.04-0.38-0.13-0.68-0.25-0.91
			c-0.15-0.23-0.34-0.42-0.58-0.56c-0.24-0.15-0.56-0.3-0.96-0.47l-2.29-0.94c-1.38-0.56-2.3-1.31-2.77-2.24
			c-0.47-0.93-0.71-2.09-0.71-3.49c0-0.83,0.11-1.63,0.34-2.38c0.23-0.75,0.57-1.4,1.03-1.94c0.44-0.54,1-0.98,1.68-1.3
			c0.68-0.32,1.49-0.49,2.43-0.49c0.79,0,1.52,0.15,2.18,0.44c0.66,0.29,1.23,0.68,1.71,1.16c0.96,1,1.44,2.15,1.44,3.45V73.41z"/>
		<path class="st0" d="M127.11,89.29v-22.3h9.52V70h-6.33v6.54h5.51v3.01h-5.51v6.54h6.33v3.19H127.11z"/>
		<path class="st0" d="M141.04,89.29v-22.3h5.14c3.76,0,5.64,2.18,5.64,6.54c0,1.32-0.2,2.43-0.61,3.35
			c-0.41,0.92-1.12,1.66-2.14,2.22l3.44,10.18h-3.38l-2.98-9.52h-1.91v9.52H141.04z M144.24,70v6.95h1.82
			c0.56,0,1.01-0.08,1.35-0.23s0.59-0.38,0.78-0.67c0.17-0.29,0.28-0.65,0.34-1.08c0.06-0.43,0.09-0.92,0.09-1.49
			s-0.03-1.06-0.09-1.49c-0.06-0.43-0.19-0.8-0.38-1.11C147.75,70.29,147,70,145.9,70H144.24z"/>
		<path class="st0" d="M167.57,66.99L163,89.29h-2.82l-4.54-22.3h3.38l2.54,15.56h0.06l2.57-15.56H167.57z"/>
		<path class="st0" d="M171.92,89.29v-22.3h3.19v22.3H171.92z"/>
		<path class="st0" d="M190.71,82.93v1.38c0,0.69-0.13,1.34-0.39,1.96c-0.26,0.62-0.62,1.16-1.08,1.64c-0.46,0.48-1,0.86-1.61,1.14
			c-0.62,0.28-1.28,0.42-1.99,0.42c-0.61,0-1.22-0.08-1.85-0.25c-0.63-0.17-1.19-0.46-1.69-0.88c-0.5-0.42-0.91-0.96-1.24-1.61
			c-0.32-0.66-0.49-1.5-0.49-2.52V71.94c0-0.73,0.12-1.41,0.38-2.04c0.25-0.63,0.6-1.17,1.06-1.63c0.46-0.46,1.01-0.82,1.64-1.08
			c0.64-0.26,1.34-0.39,2.11-0.39c1.5,0,2.72,0.49,3.66,1.47c0.46,0.48,0.82,1.05,1.08,1.71c0.26,0.66,0.39,1.37,0.39,2.14v1.25
			h-3.19v-1.07c0-0.63-0.18-1.17-0.53-1.63c-0.36-0.46-0.83-0.69-1.44-0.69c-0.79,0-1.32,0.25-1.58,0.74
			c-0.26,0.49-0.39,1.11-0.39,1.86V84c0,0.65,0.14,1.19,0.42,1.63c0.28,0.44,0.79,0.66,1.52,0.66c0.21,0,0.43-0.04,0.67-0.11
			c0.24-0.07,0.46-0.19,0.67-0.36c0.19-0.17,0.34-0.4,0.47-0.69c0.12-0.29,0.19-0.66,0.19-1.1v-1.1H190.71z"/>
		<path class="st0" d="M195.66,89.29v-22.3h9.52V70h-6.33v6.54h5.51v3.01h-5.51v6.54h6.33v3.19H195.66z"/>
		<path class="st0" d="M219.93,73.41h-3.19v-0.72c0-0.73-0.17-1.36-0.52-1.89c-0.34-0.53-0.92-0.8-1.74-0.8
			c-0.44,0-0.79,0.08-1.07,0.25s-0.49,0.38-0.66,0.63c-0.17,0.27-0.28,0.58-0.34,0.92s-0.09,0.71-0.09,1.08
			c0,0.44,0.02,0.8,0.05,1.1c0.03,0.29,0.11,0.55,0.24,0.78c0.12,0.23,0.31,0.43,0.55,0.59c0.24,0.17,0.57,0.33,0.99,0.5l2.44,0.97
			c0.71,0.27,1.28,0.59,1.72,0.96s0.78,0.79,1.03,1.27c0.23,0.5,0.39,1.07,0.47,1.71s0.13,1.36,0.13,2.18
			c0,0.94-0.09,1.81-0.28,2.62s-0.49,1.49-0.91,2.05c-0.44,0.58-1.01,1.04-1.72,1.38c-0.71,0.33-1.58,0.5-2.6,0.5
			c-0.77,0-1.49-0.14-2.16-0.41c-0.67-0.27-1.24-0.65-1.72-1.13c-0.48-0.48-0.86-1.04-1.14-1.68c-0.28-0.64-0.42-1.33-0.42-2.08V83
			h3.19v1c0,0.58,0.17,1.11,0.52,1.58s0.92,0.71,1.74,0.71c0.54,0,0.96-0.08,1.27-0.24s0.54-0.38,0.71-0.67
			c0.17-0.29,0.27-0.64,0.3-1.05c0.03-0.41,0.05-0.86,0.05-1.36c0-0.58-0.02-1.06-0.06-1.44c-0.04-0.38-0.13-0.68-0.25-0.91
			c-0.15-0.23-0.34-0.42-0.58-0.56c-0.24-0.15-0.56-0.3-0.96-0.47l-2.29-0.94c-1.38-0.56-2.3-1.31-2.77-2.24
			c-0.47-0.93-0.71-2.09-0.71-3.49c0-0.83,0.11-1.63,0.34-2.38c0.23-0.75,0.57-1.4,1.03-1.94c0.44-0.54,1-0.98,1.68-1.3
			c0.68-0.32,1.49-0.49,2.43-0.49c0.79,0,1.52,0.15,2.18,0.44c0.66,0.29,1.23,0.68,1.71,1.16c0.96,1,1.44,2.15,1.44,3.45V73.41z"/>
	</g>
</g>
</svg>
