<?xml version="1.0" encoding="utf-8"?>
<!-- Generator: Adobe Illustrator 23.1.1, SVG Export Plug-In . SVG Version: 6.00 Build 0)  -->
<svg version="1.1" id="Capa_1" xmlns="http://www.w3.org/2000/svg" xmlns:xlink="http://www.w3.org/1999/xlink" x="0px" y="0px"
	 viewBox="0 0 136 140" style="enable-background:new 0 0 136 140;" xml:space="preserve">
<style type="text/css">
	.st0{fill:#28348A;}
	.st1{fill:#FFFAFC;}
	.st2{fill:none;stroke:#3BC9FF;stroke-width:0.8329;stroke-miterlimit:10;}
</style>
<g>
	<g>
		
			<ellipse transform="matrix(0.9732 -0.2298 0.2298 0.9732 -14.097 17.5774)" class="st0" cx="68.43" cy="69.33" rx="63.99" ry="63.99"/>
	</g>
	<g>
		<g>
			<g>
				<path class="st1" d="M76.91,84.01c-0.65,0.57-1.39,1.05-2.19,1.42c-2.03,0.92-4.28,1.38-6.71,1.38c-2.2,0-4.24-0.39-6.06-1.14
					c-0.94-0.39-1.8-0.93-2.54-1.59c-0.33-0.29-0.87-0.03-0.81,0.41c0,0,0,0.01,0,0.01L58.98,87c0.04,0.26,0.19,0.5,0.41,0.64
					c1.35,0.88,4.57,2.64,8.76,2.64c4.19,0,7.42-1.76,8.76-2.64c0.22-0.15,0.37-0.38,0.41-0.64l0.38-2.51
					c0.01-0.04,0.01-0.09,0.01-0.13C77.73,83.94,77.22,83.74,76.91,84.01z"/>
			</g>
		</g>
		<g>
			<g>
				<path class="st1" d="M75.45,89.6c-1.76,0.84-4.28,1.67-7.3,1.67c-3.02,0-5.54-0.83-7.3-1.67c-0.68-0.32-1.44,0.25-1.33,0.99l0,0
					c0.04,0.28,0.21,0.52,0.45,0.67c1.58,0.92,4.51,2.28,8.18,2.28s6.61-1.35,8.18-2.28c0.24-0.14,0.41-0.39,0.45-0.67
					C76.9,89.85,76.13,89.28,75.45,89.6z"/>
			</g>
		</g>
		<g>
			<g>
				<path class="st1" d="M74.95,93.08c-1.73,0.75-4.05,1.44-6.8,1.44c-2.74,0-5.07-0.69-6.8-1.44c-0.68-0.3-1.41,0.28-1.3,1.01
					l0.01,0.06c0.04,0.29,0.22,0.55,0.48,0.69c1.66,0.89,4.34,1.96,7.6,1.96s5.94-1.07,7.6-1.96c0.26-0.14,0.44-0.39,0.48-0.69
					l0.01-0.06C76.36,93.36,75.63,92.78,74.95,93.08z"/>
			</g>
		</g>
		<g>
			<g>
				<path class="st1" d="M73.89,96.75c-1.58,0.57-3.52,1.02-5.74,1.02c-2.22,0-4.16-0.45-5.74-1.02c-0.85-0.31-1.59,0.66-1.09,1.42
					c1.07,1.64,2.81,2.81,4.84,3.11c0.6,0.09,1.26,0.14,1.99,0.14c0.72,0,1.38-0.05,1.99-0.14c2.03-0.29,3.77-1.46,4.84-3.11
					C75.48,97.41,74.74,96.44,73.89,96.75z"/>
			</g>
		</g>
		<g>
			<g>
				<g>
					<path class="st2" d="M67.64,34.57c-11.43,0.27-20.7,9.69-20.79,21.12c-0.04,5.55,2.04,10.62,5.49,14.43
						c1.45,1.61,2.66,3.42,3.51,5.41l2.06,4.83c0.85,1.98,2.42,3.56,4.41,4.39c1.22,0.51,2.77,0.92,4.66,1.04v-3.78
						c-1.1-1.95-6.14-11.12-6.14-14.52c0-4.03,3.28-7.3,7.3-7.3c4.03,0,7.3,3.28,7.3,7.3c0,3.4-5.04,12.57-6.14,14.52v3.76
						c2.06-0.16,3.72-0.67,5-1.25c1.86-0.84,3.31-2.38,4.12-4.26l2.04-4.77c0.84-1.97,2.04-3.76,3.48-5.35
						c3.42-3.78,5.5-8.78,5.5-14.28C89.45,43.93,79.64,34.29,67.64,34.57z"/>
				</g>
			</g>
			<g>
				<g>
					<path class="st2" d="M68.15,62.52c-2.74,0-4.98,2.23-4.98,4.98c0,1.61,1.89,5.83,3.81,9.59v-5.12c0-0.64,0.52-1.16,1.16-1.16
						c0.64,0,1.16,0.52,1.16,1.16v5.12c1.92-3.76,3.81-7.98,3.81-9.59C73.13,64.75,70.9,62.52,68.15,62.52z"/>
				</g>
			</g>
		</g>
	</g>
</g>
</svg>
