<?xml version="1.0" encoding="utf-8"?>
<!-- Generator: Adobe Illustrator 23.1.1, SVG Export Plug-In . SVG Version: 6.00 Build 0)  -->
<svg version="1.1" id="Capa_1" xmlns="http://www.w3.org/2000/svg" xmlns:xlink="http://www.w3.org/1999/xlink" x="0px" y="0px"
	 viewBox="0 0 136 140" style="enable-background:new 0 0 136 140;" xml:space="preserve">
<style type="text/css">
	.st0{fill:#28348A;}
	.st1{fill:none;stroke:#3BC9FF;stroke-width:0.812;stroke-miterlimit:10;}
	.st2{fill:none;stroke:#FFFAFC;stroke-width:0.609;stroke-miterlimit:10;}
	.st3{opacity:0.1;}
	.st4{fill:#231F20;}
</style>
<g>
	<g>
		<circle class="st0" cx="68.17" cy="68.86" r="63.99"/>
	</g>
	<g>
		<g>
			<g>
				<path class="st1" d="M89.79,77.48l-9.4-4.33l-0.14,0.01v-0.04l-3.91-2.94c0,0,0,0.01,0,0.03c-0.13-0.51-0.34-0.94-0.67-1.26
					c0,0-0.02,0.02-0.05,0.06v-4.85c1.32-1.96,2.17-3.87,2.41-4.44c0.59-0.39,2.48-1.87,2.57-4.43c0.08-2.3-0.69-2.86-1.38-2.87
					c0.17-1.6,0.99-13.22-10.85-13.22c-12.71,0-10.91,13.41-10.91,13.41l0,0c-0.67,0.09-1.38,0.58-1.26,2.68
					c0.14,2.56,1.98,4.04,2.57,4.43c0.24,0.57,1.08,2.47,2.4,4.42v4.85c-0.3,0.31-0.51,0.73-0.63,1.22l-3.89,2.93v0.17l-9.11,4.2
					c-1.76,0.81-3.03,2.42-3.4,4.32l-1.61,8.16c0,0,1.55,3.91,26.14,3.91s26.14-3.91,26.14-3.91L93.2,81.8
					C92.82,79.9,91.55,78.29,89.79,77.48z"/>
			</g>
		</g>
		<g>
			<g>
				<path class="st2" d="M53.72,59.67c0.11-1.01,0.63-8.37-6.86-8.37c-8.05,0-6.9,8.48-6.9,8.48c-0.42,0.05-0.87,0.37-0.8,1.7
					c0.09,1.62,1.25,2.56,1.62,2.8c0.15,0.36,0.68,1.56,1.52,2.8v3.07c-0.19,0.2-0.32,0.46-0.4,0.77l-2.46,1.85v0.11l-5.76,2.66
					c-1.11,0.51-1.92,1.53-2.15,2.73l-1.02,5.16c0,0,0.76,1.91,11.53,2.37l0.84-4.26c0.46-2.3,2-4.27,4.13-5.25l7.53-3.47
					l-0.08-0.03l-0.09,0v-0.02l-2.47-1.86c0,0,0,0.01,0,0.02c-0.08-0.32-0.22-0.6-0.42-0.8c0,0-0.01,0.01-0.03,0.04V67.1
					c0.84-1.24,1.37-2.45,1.52-2.81c0.37-0.24,1.57-1.18,1.62-2.8C54.64,60.03,54.15,59.68,53.72,59.67z"/>
			</g>
		</g>
		<g>
			<g>
				<path class="st2" d="M103.12,75.54l-5.95-2.74l-0.09,0v-0.02l-2.47-1.86c0,0,0,0.01,0,0.02c-0.08-0.32-0.22-0.6-0.42-0.8
					c0,0-0.01,0.01-0.03,0.04V67.1c0.84-1.24,1.37-2.45,1.52-2.81c0.37-0.24,1.57-1.18,1.62-2.8c0.05-1.46-0.44-1.81-0.87-1.82
					c0.11-1.01,0.63-8.37-6.86-8.37c-8.05,0-6.9,8.48-6.9,8.48c-0.42,0.05-0.87,0.37-0.8,1.7c0.09,1.62,1.25,2.56,1.62,2.8
					c0.15,0.36,0.68,1.56,1.52,2.8v3.07c-0.19,0.2-0.32,0.46-0.4,0.77l-2.25,1.7l7.98,3.68c2.13,0.98,3.68,2.95,4.13,5.25l0.84,4.23
					c10.25-0.5,10.98-2.35,10.98-2.35l-1.02-5.16C105.03,77.07,104.23,76.05,103.12,75.54z"/>
			</g>
		</g>
		<g class="st3">
			<g>
				<path class="st4" d="M94.47,81.55l0.84,4.23c10.25-0.5,10.98-2.35,10.98-2.35l-1.02-5.16c-0.24-1.2-1.04-2.22-2.15-2.73
					l-5.95-2.74l-0.09,0v-0.02l-2.47-1.86c0,0,0,0.01,0,0.02c-0.08-0.32-0.22-0.6-0.42-0.8c0,0-0.01,0.01-0.03,0.04V67.1
					c0.84-1.24,1.37-2.45,1.52-2.81c0.37-0.24,1.57-1.18,1.62-2.8c0.05-1.46-0.44-1.81-0.87-1.82c0.11-1.01,0.63-8.37-6.86-8.37
					c-0.01,0-0.02,0-0.03,0v24.63l0.79,0.37C92.47,77.29,94.01,79.25,94.47,81.55z"/>
			</g>
		</g>
		<g class="st3">
			<g>
				<path class="st4" d="M46.56,76.53c0.15-0.08,0.3-0.16,0.45-0.23l7.53-3.47l-0.08-0.03l-0.09,0v-0.02l-2.47-1.86
					c0,0,0,0.01,0,0.02c-0.08-0.32-0.22-0.6-0.42-0.8c0,0-0.01,0.01-0.03,0.04V67.1c0.84-1.24,1.37-2.45,1.52-2.81
					c0.37-0.24,1.57-1.18,1.62-2.8c0.05-1.46-0.44-1.81-0.87-1.82c0.11-1.01,0.63-8.37-6.86-8.37c-0.1,0-0.2,0.01-0.3,0.01V76.53z"
					/>
			</g>
		</g>
	</g>
</g>
</svg>
