<?xml version="1.0" encoding="utf-8"?>
<!-- Generator: Adobe Illustrator 23.1.1, SVG Export Plug-In . SVG Version: 6.00 Build 0)  -->
<svg version="1.1" id="Capa_1" xmlns="http://www.w3.org/2000/svg" xmlns:xlink="http://www.w3.org/1999/xlink" x="0px" y="0px"
	 viewBox="0 0 224.9 101.8" style="enable-background:new 0 0 224.9 101.8;" xml:space="preserve">
<style type="text/css">
	.st0{fill:#020202;}
</style>
<g>
	<path class="st0" d="M93.3,32.2c-2.4-5.6-5.7-10.6-10-14.8C79,13,74,9.6,68.4,7.3c-5.8-2.4-11.9-3.7-18.2-3.7
		c-6.3,0-12.4,1.2-18.2,3.7c-5.6,2.4-10.6,5.7-14.8,10c-4.3,4.3-7.7,9.3-10,14.8C4.8,37.9,3.6,44,3.6,50.3c0,6.3,1.2,12.4,3.7,18.2
		c2.4,5.6,5.7,10.6,10,14.9c4.3,4.3,9.3,7.7,14.8,10C37.8,95.8,44,97,50.3,97c6.3,0,12.4-1.2,18.2-3.7C74,91,79,87.6,83.3,83.4
		c4.3-4.3,7.7-9.3,10-14.9c2.4-5.8,3.7-11.9,3.7-18.2C97,44,95.7,37.9,93.3,32.2z M72.5,59.7H60.6L58.3,62v4.9h3.1c2.2,0,4,1.8,4,4
		c0,2.2-1.8,4-4,4H39.1c-2.2,0-4-1.8-4-4c0-2.2,1.8-4,4-4h5.2V62l-2.2-2.2H28c-4.4,0-7.9-3.6-7.9-8c0-4.1,3.2-7.5,7.2-7.9
		c0-0.2,0-0.4,0-0.7c0-4.4,3.6-8,8-8c0.6,0,1.3,0.1,1.9,0.2c1.8-5.6,7-9.7,13.3-9.7c6.2,0,11.4,4.1,13.2,9.6c3.6,0.8,6.2,4,6.2,7.8
		c0,0.2,0,0.4,0,0.6h2.8c4.4,0,8,3.6,8,7.9C80.5,56.1,76.9,59.7,72.5,59.7z"/>
	<path class="st0" d="M55.9,50h1.8v4.5l-4.6,4.6c-0.2,0.2-0.3,0.5-0.3,0.8v9.9c0,0.7,0.5,1.2,1.2,1.2c0.7,0,1.2-0.5,1.2-1.2v-9.4
		l4.6-4.6c0.2-0.2,0.4-0.5,0.4-0.8v-5h2.1V44h-6.3L55.9,50z"/>
	<path class="st0" d="M51.3,37.2L51.3,37.2l-3.8,6.7h2.7v9.8c0,0.7,0.5,1.4,1.2,1.4c0.7,0,1.2-0.6,1.2-1.4v-9.8h2.9L51.3,37.2z"/>
	<path class="st0" d="M44.9,54.3v-7.1c1.3-0.5,2.2-1.6,2.2-3c0-1.8-1.5-3.2-3.4-3.2c-1.9,0-3.4,1.4-3.4,3.2c0,1.4,0.9,2.6,2.2,3v7.6
		c0,0.3,0.1,0.6,0.3,0.8l4.6,4.6v7.3c0,0.7,0.5,1.2,1.2,1.2c0.7,0,1.2-0.5,1.2-1.2v-7.8c0-0.3-0.1-0.6-0.3-0.8L44.9,54.3z"/>
</g>
<g>
	<path class="st0" d="M108.1,16.7c0-0.9,0.2-1.7,0.5-2.4s0.7-1.3,1.3-1.7c0.5-0.4,1.1-0.8,1.7-1c0.6-0.2,1.3-0.3,1.9-0.3
		c0.6,0,1.3,0.1,1.9,0.3c0.6,0.2,1.2,0.6,1.7,1c0.5,0.5,0.9,1,1.2,1.7s0.5,1.5,0.5,2.4v11.8c0,0.9-0.2,1.7-0.5,2.4s-0.7,1.2-1.2,1.7
		c-0.5,0.5-1.1,0.8-1.7,1c-0.6,0.2-1.3,0.3-1.9,0.3c-0.6,0-1.3-0.1-1.9-0.3c-0.6-0.2-1.2-0.6-1.7-1c-0.5-0.4-0.9-1-1.3-1.7
		s-0.5-1.5-0.5-2.4V16.7z M111.3,28.4c0,0.8,0.2,1.3,0.6,1.7s0.9,0.5,1.5,0.5c0.6,0,1.1-0.2,1.5-0.5c0.4-0.4,0.6-0.9,0.6-1.7V16.7
		c0-0.8-0.2-1.3-0.6-1.7c-0.4-0.4-0.9-0.5-1.5-0.5c-0.6,0-1.1,0.2-1.5,0.5s-0.6,0.9-0.6,1.7V28.4z"/>
	<path class="st0" d="M124,33.7V11.4h3.1l4.1,11.8h0.1l4.1-11.8h3.1v22.3h-3.2V20.1h-0.1l-3.2,9.6h-1.6l-3.1-9.6h-0.1v13.6H124z"/>
	<path class="st0" d="M143.8,33.7V11.4h4.7c1,0,1.9,0.2,2.6,0.5s1.3,0.7,1.8,1.3c0.5,0.5,0.8,1.1,1,1.8c0.2,0.7,0.3,1.4,0.3,2.1v0.8
		c0,0.6,0,1.1-0.1,1.5c-0.1,0.4-0.2,0.8-0.4,1.1c-0.4,0.6-0.9,1.1-1.6,1.5c0.8,0.4,1.3,0.9,1.7,1.6c0.4,0.7,0.5,1.6,0.5,2.8v1.3
		c0,2-0.5,3.5-1.4,4.5c-1,1-2.5,1.6-4.6,1.6H143.8z M147,14.4v6.1h1.4c1.1,0,1.8-0.3,2.1-0.8c0.4-0.5,0.5-1.3,0.5-2.3
		c0-1-0.2-1.8-0.6-2.3s-1.1-0.8-2.2-0.8H147z M147,23.4v7.1h1.4c0.6,0,1.2-0.1,1.5-0.3c0.4-0.2,0.6-0.4,0.8-0.8
		c0.2-0.3,0.3-0.7,0.3-1.2s0.1-1,0.1-1.5c0-0.6,0-1.1-0.1-1.5s-0.2-0.8-0.4-1.1c-0.2-0.3-0.5-0.5-0.8-0.6c-0.4-0.1-0.8-0.2-1.4-0.2
		H147z"/>
	<path class="st0" d="M169.8,11.4v17.3c0,0.7-0.1,1.4-0.4,2c-0.3,0.6-0.6,1.2-1.1,1.6c-0.5,0.5-1,0.9-1.7,1.1
		c-0.6,0.3-1.3,0.4-2,0.4s-1.4-0.1-2-0.4c-0.6-0.3-1.2-0.6-1.6-1.1c-0.5-0.5-0.9-1-1.1-1.6c-0.3-0.6-0.4-1.3-0.4-2V11.4h3.2v17
		c0,0.8,0.2,1.4,0.6,1.8c0.4,0.4,0.8,0.6,1.4,0.6c0.6,0,1-0.2,1.4-0.6c0.4-0.4,0.6-1,0.6-1.8v-17H169.8z"/>
	<path class="st0" d="M112.4,62V42.7h-3.7v-3h10.6v3h-3.7V62H112.4z"/>
	<path class="st0" d="M123.1,62V39.7h9.5v3h-6.3v6.5h5.5v3h-5.5v6.5h6.3V62H123.1z"/>
	<path class="st0" d="M147.1,55.6V57c0,0.7-0.1,1.3-0.4,2c-0.3,0.6-0.6,1.2-1.1,1.6c-0.5,0.5-1,0.9-1.6,1.1c-0.6,0.3-1.3,0.4-2,0.4
		c-0.6,0-1.2-0.1-1.8-0.3c-0.6-0.2-1.2-0.5-1.7-0.9c-0.5-0.4-0.9-1-1.2-1.6c-0.3-0.7-0.5-1.5-0.5-2.5V44.6c0-0.7,0.1-1.4,0.4-2
		c0.2-0.6,0.6-1.2,1.1-1.6c0.5-0.5,1-0.8,1.6-1.1c0.6-0.3,1.3-0.4,2.1-0.4c1.5,0,2.7,0.5,3.7,1.5c0.5,0.5,0.8,1,1.1,1.7
		s0.4,1.4,0.4,2.1v1.3h-3.2V45c0-0.6-0.2-1.2-0.5-1.6c-0.4-0.5-0.8-0.7-1.4-0.7c-0.8,0-1.3,0.2-1.6,0.7c-0.3,0.5-0.4,1.1-0.4,1.9
		v11.4c0,0.6,0.1,1.2,0.4,1.6c0.3,0.4,0.8,0.7,1.5,0.7c0.2,0,0.4,0,0.7-0.1s0.5-0.2,0.7-0.4c0.2-0.2,0.3-0.4,0.5-0.7
		c0.1-0.3,0.2-0.7,0.2-1.1v-1.1H147.1z"/>
	<path class="st0" d="M152.1,62V39.7h3.2v9.6h3.9v-9.6h3.2V62h-3.2V52h-3.9V62H152.1z"/>
	<path class="st0" d="M120.6,74.4h-3.2v-0.7c0-0.7-0.2-1.4-0.5-1.9c-0.3-0.5-0.9-0.8-1.7-0.8c-0.4,0-0.8,0.1-1.1,0.2
		s-0.5,0.4-0.7,0.6c-0.2,0.3-0.3,0.6-0.3,0.9s-0.1,0.7-0.1,1.1c0,0.4,0,0.8,0,1.1c0,0.3,0.1,0.6,0.2,0.8c0.1,0.2,0.3,0.4,0.5,0.6
		c0.2,0.2,0.6,0.3,1,0.5l2.4,1c0.7,0.3,1.3,0.6,1.7,1s0.8,0.8,1,1.3c0.2,0.5,0.4,1.1,0.5,1.7s0.1,1.4,0.1,2.2c0,0.9-0.1,1.8-0.3,2.6
		s-0.5,1.5-0.9,2.1c-0.4,0.6-1,1-1.7,1.4c-0.7,0.3-1.6,0.5-2.6,0.5c-0.8,0-1.5-0.1-2.2-0.4c-0.7-0.3-1.2-0.6-1.7-1.1
		c-0.5-0.5-0.9-1-1.1-1.7c-0.3-0.6-0.4-1.3-0.4-2.1V84h3.2v1c0,0.6,0.2,1.1,0.5,1.6s0.9,0.7,1.7,0.7c0.5,0,1-0.1,1.3-0.2
		s0.5-0.4,0.7-0.7c0.2-0.3,0.3-0.6,0.3-1c0-0.4,0-0.9,0-1.4c0-0.6,0-1.1-0.1-1.4c0-0.4-0.1-0.7-0.3-0.9c-0.1-0.2-0.3-0.4-0.6-0.6
		c-0.2-0.1-0.6-0.3-1-0.5l-2.3-0.9c-1.4-0.6-2.3-1.3-2.8-2.2c-0.5-0.9-0.7-2.1-0.7-3.5c0-0.8,0.1-1.6,0.3-2.4c0.2-0.8,0.6-1.4,1-1.9
		c0.4-0.5,1-1,1.7-1.3c0.7-0.3,1.5-0.5,2.4-0.5c0.8,0,1.5,0.1,2.2,0.4c0.7,0.3,1.2,0.7,1.7,1.2c1,1,1.4,2.2,1.4,3.4V74.4z"/>
	<path class="st0" d="M125.4,90.3V68h9.5v3h-6.3v6.5h5.5v3h-5.5v6.5h6.3v3.2H125.4z"/>
	<path class="st0" d="M139.3,90.3V68h5.1c3.8,0,5.6,2.2,5.6,6.5c0,1.3-0.2,2.4-0.6,3.4c-0.4,0.9-1.1,1.7-2.1,2.2l3.4,10.2h-3.4
		l-3-9.5h-1.9v9.5H139.3z M142.5,71v7h1.8c0.6,0,1-0.1,1.3-0.2s0.6-0.4,0.8-0.7c0.2-0.3,0.3-0.7,0.3-1.1c0.1-0.4,0.1-0.9,0.1-1.5
		s0-1.1-0.1-1.5c-0.1-0.4-0.2-0.8-0.4-1.1c-0.4-0.6-1.1-0.9-2.3-0.9H142.5z"/>
	<path class="st0" d="M165.8,68l-4.6,22.3h-2.8L153.9,68h3.4l2.5,15.6h0.1l2.6-15.6H165.8z"/>
	<path class="st0" d="M170.2,90.3V68h3.2v22.3H170.2z"/>
	<path class="st0" d="M189,83.9v1.4c0,0.7-0.1,1.3-0.4,2c-0.3,0.6-0.6,1.2-1.1,1.6c-0.5,0.5-1,0.9-1.6,1.1c-0.6,0.3-1.3,0.4-2,0.4
		c-0.6,0-1.2-0.1-1.8-0.2c-0.6-0.2-1.2-0.5-1.7-0.9c-0.5-0.4-0.9-1-1.2-1.6c-0.3-0.7-0.5-1.5-0.5-2.5V72.9c0-0.7,0.1-1.4,0.4-2
		c0.2-0.6,0.6-1.2,1.1-1.6c0.5-0.5,1-0.8,1.6-1.1c0.6-0.3,1.3-0.4,2.1-0.4c1.5,0,2.7,0.5,3.7,1.5c0.5,0.5,0.8,1,1.1,1.7
		c0.3,0.7,0.4,1.4,0.4,2.1v1.3h-3.2v-1.1c0-0.6-0.2-1.2-0.5-1.6c-0.4-0.5-0.8-0.7-1.4-0.7c-0.8,0-1.3,0.2-1.6,0.7
		c-0.3,0.5-0.4,1.1-0.4,1.9V85c0,0.6,0.1,1.2,0.4,1.6c0.3,0.4,0.8,0.7,1.5,0.7c0.2,0,0.4,0,0.7-0.1c0.2-0.1,0.5-0.2,0.7-0.4
		c0.2-0.2,0.3-0.4,0.5-0.7c0.1-0.3,0.2-0.7,0.2-1.1v-1.1H189z"/>
	<path class="st0" d="M193.9,90.3V68h9.5v3h-6.3v6.5h5.5v3h-5.5v6.5h6.3v3.2H193.9z"/>
	<path class="st0" d="M218.2,74.4H215v-0.7c0-0.7-0.2-1.4-0.5-1.9c-0.3-0.5-0.9-0.8-1.7-0.8c-0.4,0-0.8,0.1-1.1,0.2
		s-0.5,0.4-0.7,0.6c-0.2,0.3-0.3,0.6-0.3,0.9s-0.1,0.7-0.1,1.1c0,0.4,0,0.8,0,1.1c0,0.3,0.1,0.6,0.2,0.8c0.1,0.2,0.3,0.4,0.5,0.6
		c0.2,0.2,0.6,0.3,1,0.5l2.4,1c0.7,0.3,1.3,0.6,1.7,1s0.8,0.8,1,1.3c0.2,0.5,0.4,1.1,0.5,1.7s0.1,1.4,0.1,2.2c0,0.9-0.1,1.8-0.3,2.6
		s-0.5,1.5-0.9,2.1c-0.4,0.6-1,1-1.7,1.4c-0.7,0.3-1.6,0.5-2.6,0.5c-0.8,0-1.5-0.1-2.2-0.4c-0.7-0.3-1.2-0.6-1.7-1.1
		c-0.5-0.5-0.9-1-1.1-1.7c-0.3-0.6-0.4-1.3-0.4-2.1V84h3.2v1c0,0.6,0.2,1.1,0.5,1.6s0.9,0.7,1.7,0.7c0.5,0,1-0.1,1.3-0.2
		s0.5-0.4,0.7-0.7c0.2-0.3,0.3-0.6,0.3-1c0-0.4,0-0.9,0-1.4c0-0.6,0-1.1-0.1-1.4c0-0.4-0.1-0.7-0.3-0.9c-0.1-0.2-0.3-0.4-0.6-0.6
		c-0.2-0.1-0.6-0.3-1-0.5l-2.3-0.9c-1.4-0.6-2.3-1.3-2.8-2.2c-0.5-0.9-0.7-2.1-0.7-3.5c0-0.8,0.1-1.6,0.3-2.4c0.2-0.8,0.6-1.4,1-1.9
		c0.4-0.5,1-1,1.7-1.3c0.7-0.3,1.5-0.5,2.4-0.5c0.8,0,1.5,0.1,2.2,0.4c0.7,0.3,1.2,0.7,1.7,1.2c1,1,1.4,2.2,1.4,3.4V74.4z"/>
</g>
</svg>
