<?xml version="1.0" encoding="utf-8"?>
<!-- Generator: Adobe Illustrator 23.1.1, SVG Export Plug-In . SVG Version: 6.00 Build 0)  -->
<svg version="1.1" id="Capa_1" xmlns="http://www.w3.org/2000/svg" xmlns:xlink="http://www.w3.org/1999/xlink" x="0px" y="0px"
	 viewBox="0 0 136 140" style="enable-background:new 0 0 136 140;" xml:space="preserve">
<style type="text/css">
	.st0{fill:#28348A;}
	.st1{fill:none;stroke:#3BC9FF;stroke-width:0.801;stroke-miterlimit:10;}
	.st2{fill:none;stroke:#FFFAFC;stroke-width:0.25;stroke-miterlimit:10;}
	.st3{opacity:0.1;}
	.st4{fill:#231F20;}
</style>
<g>
	<g>
		
			<ellipse transform="matrix(0.2298 -0.9732 0.9732 0.2298 -14.5076 119.3867)" class="st0" cx="68.17" cy="68.86" rx="63.99" ry="63.99"/>
	</g>
</g>
<g>
	<g>
		<g>
			<g>
				<path class="st1" d="M81.97,62.09l-5.69,0.12c-0.48-1.92-1.28-3.72-2.34-5.32l3.94-4.11c0.3-0.31,0.29-0.8-0.02-1.1l-4.4-4.22
					c-0.31-0.3-0.8-0.29-1.1,0.02l-3.94,4.11c-1.65-0.99-3.47-1.72-5.41-2.11l-0.12-5.69c-0.01-0.43-0.37-0.77-0.8-0.76l-6.1,0.13
					c-0.43,0.01-0.77,0.37-0.76,0.8l0.12,5.69c-1.92,0.48-3.72,1.28-5.32,2.34l-4.11-3.94c-0.31-0.3-0.8-0.29-1.1,0.02l-4.22,4.4
					c-0.3,0.31-0.29,0.8,0.02,1.1l4.11,3.94c-0.99,1.65-1.72,3.47-2.11,5.41l-5.69,0.12c-0.43,0.01-0.77,0.37-0.76,0.8l0.13,6.1
					c0.01,0.43,0.37,0.77,0.8,0.76l5.69-0.12c0.48,1.92,1.28,3.72,2.34,5.32L41.17,80c-0.3,0.31-0.29,0.8,0.02,1.1l4.4,4.22
					c0.31,0.3,0.8,0.29,1.1-0.02l3.94-4.11c1.65,0.99,3.47,1.72,5.41,2.11l0.12,5.69c0.01,0.43,0.37,0.77,0.8,0.76l6.1-0.13
					c0.43-0.01,0.77-0.37,0.76-0.8l-0.12-5.69c1.92-0.48,3.72-1.28,5.32-2.34l4.11,3.94c0.31,0.3,0.8,0.29,1.1-0.02l4.22-4.4
					c0.3-0.31,0.29-0.8-0.02-1.1l-4.11-3.94c0.99-1.65,1.72-3.47,2.11-5.41l5.69-0.12c0.43-0.01,0.77-0.37,0.76-0.8l-0.13-6.1
					C82.76,62.42,82.4,62.08,81.97,62.09z M59.77,77.86c-6.33,0.13-11.57-4.89-11.71-11.23c-0.13-6.33,4.89-11.57,11.23-11.71
					c6.33-0.13,11.57,4.89,11.71,11.23C71.13,72.48,66.1,77.72,59.77,77.86z"/>
			</g>
		</g>
	</g>
	<g>
		<g>
			<path class="st2" d="M93.66,72.79c-0.76-0.28-1.55-0.41-2.35-0.4c-2.66,0.06-4.98,1.71-5.9,4.2c-1.22,3.32,0.48,7.02,3.81,8.25
				c0.76,0.28,1.55,0.41,2.35,0.4c2.66-0.06,4.98-1.71,5.9-4.2c0.59-1.61,0.52-3.35-0.2-4.91C96.55,74.57,95.27,73.39,93.66,72.79z
				 M95.89,80.46c-0.68,1.85-2.39,3.06-4.35,3.11c-0.59,0.01-1.18-0.09-1.74-0.29c-2.46-0.9-3.72-3.64-2.81-6.09
				c0.68-1.85,2.39-3.06,4.35-3.11c0.59-0.01,1.18,0.09,1.74,0.29c1.19,0.44,2.14,1.31,2.67,2.46
				C96.28,77.98,96.33,79.27,95.89,80.46z"/>
		</g>
		<g>
			<path class="st2" d="M102.66,80.08l-2-0.73c0.03-0.59,0.01-1.18-0.07-1.77l1.93-0.89c0.3-0.14,0.52-0.38,0.63-0.69
				c0.11-0.31,0.1-0.64-0.04-0.93l-1.24-2.69c-0.2-0.44-0.65-0.72-1.13-0.71c-0.17,0-0.33,0.04-0.49,0.11l-1.93,0.89
				c-0.39-0.44-0.83-0.84-1.3-1.2l0.73-2c0.11-0.31,0.1-0.64-0.04-0.93c-0.14-0.3-0.38-0.52-0.69-0.63l-2.79-1.03
				c-0.14-0.05-0.29-0.08-0.45-0.07c-0.51,0.01-0.94,0.32-1.12,0.8l-0.73,2c-0.59-0.03-1.18-0.01-1.77,0.07l-0.89-1.93
				c-0.2-0.44-0.65-0.72-1.13-0.71c-0.17,0-0.33,0.04-0.49,0.11l-2.7,1.24c-0.61,0.28-0.88,1.01-0.6,1.62l0.89,1.93
				c-0.44,0.39-0.84,0.83-1.2,1.3l-2-0.73c-0.14-0.05-0.29-0.08-0.45-0.07c-0.51,0.01-0.94,0.32-1.12,0.8L79.49,76
				c-0.11,0.31-0.1,0.64,0.04,0.93c0.14,0.3,0.38,0.52,0.69,0.63l2,0.73c-0.03,0.59-0.01,1.18,0.07,1.77l-1.93,0.89
				c-0.61,0.28-0.88,1.01-0.6,1.62l1.24,2.7c0.2,0.44,0.65,0.72,1.13,0.71c0.17,0,0.33-0.04,0.49-0.11l1.93-0.89
				c0.39,0.44,0.83,0.84,1.3,1.2l-0.73,2c-0.23,0.63,0.09,1.33,0.72,1.57l2.79,1.03c0.14,0.05,0.29,0.08,0.45,0.07
				c0.51-0.01,0.94-0.32,1.12-0.8l0.73-2c0.59,0.03,1.18,0.01,1.77-0.07l0.89,1.93c0.2,0.44,0.65,0.72,1.13,0.71
				c0.17,0,0.33-0.04,0.49-0.11l2.7-1.24c0.3-0.14,0.52-0.38,0.63-0.69c0.11-0.31,0.1-0.64-0.04-0.93l-0.89-1.93
				c0.44-0.39,0.84-0.83,1.2-1.3l2,0.73c0.14,0.05,0.29,0.08,0.45,0.07h0c0.51-0.01,0.94-0.32,1.12-0.8l1.03-2.79
				c0.11-0.31,0.1-0.64-0.04-0.93C103.21,80.41,102.97,80.19,102.66,80.08z M100.94,83.42l-2.8-1.03l-0.36,0.56
				c-0.47,0.72-1.05,1.35-1.73,1.87l-0.53,0.41l1.25,2.71l-1.86,0.86l-1.25-2.71l-0.66,0.14c-0.83,0.18-1.7,0.21-2.54,0.1
				l-0.67-0.09l-1.03,2.8l-1.92-0.71l1.03-2.8l-0.56-0.36c-0.72-0.47-1.35-1.05-1.87-1.73l-0.41-0.53l-2.71,1.25l-0.86-1.86
				l2.71-1.25l-0.14-0.66c-0.18-0.84-0.21-1.7-0.1-2.54l0.09-0.66l-2.8-1.03l0.71-1.92l2.8,1.03l0.37-0.56
				c0.47-0.72,1.05-1.35,1.73-1.87l0.53-0.41l-1.25-2.71l1.86-0.86l1.25,2.71l0.66-0.14c0.83-0.18,1.7-0.21,2.54-0.1l0.67,0.09
				l1.03-2.8l1.92,0.71L95,72.11l0.56,0.37c0.72,0.47,1.35,1.05,1.87,1.73l0.41,0.53l2.71-1.25l0.86,1.86L98.7,76.6l0.14,0.66
				c0.18,0.84,0.21,1.69,0.1,2.54l-0.09,0.66l2.8,1.03L100.94,83.42z"/>
		</g>
	</g>
	<g class="st3">
		<g>
			<path class="st4" d="M102.66,80.08l-2-0.73c0.03-0.59,0.01-1.18-0.07-1.77l1.93-0.89c0.3-0.14,0.52-0.38,0.63-0.69
				c0.11-0.31,0.1-0.64-0.04-0.93l-1.24-2.69c-0.2-0.44-0.65-0.72-1.13-0.71c-0.17,0-0.33,0.04-0.49,0.11l-1.93,0.89
				c-0.39-0.44-0.83-0.84-1.3-1.2l0.73-2c0.11-0.31,0.1-0.64-0.04-0.93c-0.14-0.3-0.38-0.52-0.69-0.63l-2.79-1.03
				c-0.14-0.05-0.29-0.08-0.45-0.07c-0.51,0.01-0.94,0.32-1.12,0.8l-0.73,2c-0.17-0.01-0.35-0.01-0.52-0.01v1.68
				c0.33,0,0.65,0.01,0.97,0.06l0.67,0.09l1.03-2.8l1.92,0.71L95,72.11l0.56,0.37c0.72,0.47,1.35,1.05,1.87,1.73l0.41,0.53
				l2.71-1.25l0.86,1.86L98.7,76.6l0.14,0.66c0.18,0.84,0.21,1.69,0.1,2.54l-0.09,0.66l2.8,1.03l-0.71,1.92l-2.8-1.03l-0.37,0.56
				c-0.47,0.72-1.05,1.35-1.73,1.87l-0.53,0.41l1.25,2.71l-1.86,0.86l-1.25-2.71l-0.66,0.14c-0.52,0.11-1.04,0.16-1.57,0.16v1.68
				c0.42,0,0.84-0.03,1.25-0.08l0.89,1.93c0.2,0.44,0.65,0.72,1.13,0.71c0.17,0,0.33-0.04,0.49-0.11l2.7-1.24
				c0.3-0.14,0.52-0.38,0.63-0.69c0.11-0.31,0.1-0.64-0.04-0.93l-0.89-1.93c0.44-0.39,0.84-0.83,1.2-1.3l2,0.73
				c0.14,0.05,0.29,0.08,0.45,0.07l0,0c0.51-0.01,0.94-0.32,1.12-0.8l1.03-2.79c0.11-0.31,0.1-0.64-0.04-0.93
				C103.21,80.41,102.97,80.19,102.66,80.08z"/>
		</g>
		<g>
			<path class="st4" d="M93.66,72.79c-0.72-0.26-1.46-0.39-2.22-0.39v1.68c0.56,0,1.11,0.09,1.64,0.29
				c1.19,0.44,2.14,1.31,2.67,2.46c0.53,1.15,0.58,2.44,0.14,3.63c-0.68,1.85-2.39,3.06-4.35,3.11c-0.03,0-0.07,0-0.1,0v1.68
				c0.04,0,0.09,0,0.13,0c2.66-0.06,4.98-1.71,5.9-4.2c0.59-1.61,0.52-3.35-0.2-4.91C96.55,74.57,95.27,73.39,93.66,72.79z"/>
		</g>
	</g>
	<g class="st3">
		<g>
			<path class="st4" d="M81.97,62.09l-5.69,0.12c-0.48-1.92-1.28-3.72-2.34-5.32l3.94-4.11c0.3-0.31,0.29-0.8-0.02-1.1l-4.4-4.22
				c-0.31-0.3-0.8-0.29-1.1,0.02l-3.94,4.11c-1.65-0.99-3.47-1.72-5.41-2.11l-0.12-5.69c-0.01-0.43-0.37-0.77-0.8-0.76l-2.56,0.05
				v11.85c6.22,0,11.34,4.97,11.47,11.23c0.13,6.33-4.89,11.57-11.23,11.71c-0.08,0-0.16,0-0.24,0V89.7l3.54-0.07
				c0.43-0.01,0.77-0.37,0.76-0.8l-0.12-5.69c1.92-0.48,3.72-1.28,5.32-2.34l4.11,3.94c0.31,0.3,0.8,0.29,1.1-0.02l4.22-4.4
				c0.3-0.31,0.29-0.8-0.02-1.1l-4.11-3.94c0.99-1.65,1.72-3.47,2.11-5.41l5.69-0.12c0.43-0.01,0.77-0.37,0.76-0.8l-0.13-6.1
				C82.76,62.42,82.4,62.08,81.97,62.09z"/>
		</g>
	</g>
</g>
</svg>
