<?xml version="1.0" encoding="utf-8"?>
<!-- Generator: Adobe Illustrator 23.1.1, SVG Export Plug-In . SVG Version: 6.00 Build 0)  -->
<svg version="1.1" id="Capa_1" xmlns="http://www.w3.org/2000/svg" xmlns:xlink="http://www.w3.org/1999/xlink" x="0px" y="0px"
	 viewBox="0 0 74 75" style="enable-background:new 0 0 74 75;" xml:space="preserve">
<style type="text/css">
	.st0{fill:none;stroke:#28348A;stroke-width:1.3911;stroke-miterlimit:10;}
	.st1{fill:#74CBF3;stroke:#28348A;stroke-width:1.3911;stroke-miterlimit:10;}
</style>
<g>
	<g>
		<path class="st0" d="M31.47,58.26v7.51h25.25V49.71c11.36-13.89,6.22-27.94,6.22-27.94c-5.99-17.53-31.46-9.61-31.46-9.61
			s-9.68,1.6-10.2,13.07c0,0-0.51,4.84-2.29,7.65l-4.59,6.88c0,0-1.28,2.04,4.08,2.8c0,0,1.87,0.42,1.78,2.12v8.67
			c0,0-1.53,5.91,5.48,5.95l14.02-2.72c0,0,3.19-0.77,3.44-4.59"/>
	</g>
	<g>
		<path class="st1" d="M55.01,31.77c0-0.39-0.02-0.77-0.06-1.15l2.57-0.67l-1.15-4.4l-2.62,0.68c-0.55-1.15-1.27-2.2-2.12-3.13
			l1.68-2.18l-3.6-2.78l-1.7,2.2c-1.1-0.56-2.29-0.97-3.55-1.19v-2.8h-4.54v2.8c-1.19,0.21-2.33,0.59-3.38,1.11l-1.67-2.23
			l-3.64,2.73l1.65,2.2c-0.63,0.66-1.19,1.39-1.66,2.18l-2.55-0.94l-1.57,4.27l2.5,0.92c-0.14,0.77-0.23,1.56-0.23,2.38
			c0,0.28,0.01,0.56,0.03,0.83l-2.54,0.67l1.15,4.4l2.49-0.65c0.54,1.2,1.26,2.3,2.12,3.27l-1.55,2l3.6,2.78l1.52-1.97
			c1.15,0.61,2.4,1.05,3.72,1.28v2.48h4.54v-2.48c1.26-0.23,2.45-0.63,3.56-1.2l1.49,2l3.64-2.72l-1.51-2.02
			c0.64-0.7,1.21-1.47,1.68-2.3l2.4,0.88l1.57-4.27l-2.45-0.9C54.95,33.17,55.01,32.47,55.01,31.77z M42.19,38.57
			c-3.84,0-6.96-3.12-6.96-6.97c0-3.85,3.12-6.97,6.96-6.97c3.85,0,6.97,3.12,6.97,6.97C49.16,35.45,46.04,38.57,42.19,38.57z"/>
		<path class="st0" d="M32.76,30.96c0-4.97,4.03-9,9-9"/>
	</g>
</g>
</svg>
