<?xml version="1.0" encoding="utf-8"?>
<!-- Generator: Adobe Illustrator 23.1.1, SVG Export Plug-In . SVG Version: 6.00 Build 0)  -->
<svg version="1.1" id="Capa_1" xmlns="http://www.w3.org/2000/svg" xmlns:xlink="http://www.w3.org/1999/xlink" x="0px" y="0px"
	 viewBox="0 0 74 75" style="enable-background:new 0 0 74 75;" xml:space="preserve">
<style type="text/css">
	.st0{fill:none;stroke:#28348A;stroke-width:1.6099;stroke-miterlimit:10;}
	.st1{fill:#74CBF3;stroke:#28348A;stroke-width:1.6099;stroke-miterlimit:10;}
</style>
<g>
	<g>
		<path class="st0" d="M35.03,56.6c1.02,6.85-14.89,7.06-16.24-3.3c-6.54,1.83-11.06-4.48-7.9-10.07
			c-3.79-2.59-3.72-10.15,0.23-12.41C8.1,27.6,11.76,18.59,19.07,20.2c-2-7.24,8.57-13.14,16-7.37L35.03,56.6z"/>
		<path class="st0" d="M18.85,18.59c0.54,3.21,3.37,5.7,6.6,6.28"/>
		<path class="st0" d="M25.45,16.17c-0.75,4.8,7.31,6.82,9.5,3.7"/>
		<path class="st0" d="M21.42,23.26c-0.01,1.68-2.27,3.84-3.54,4.35"/>
		<path class="st0" d="M16.43,33.08c1.98,1,2.03,3.89,4.18,4.53c2.25,0.67,3.48-1.82,4.38-3.55c1.38-2.63,3.43-3.7,6.41-3.23
			c0.97,0.15,2.66,0.83,3.22,1.12"/>
		<path class="st0" d="M14.18,32.92c1.54,1.91,4.02-0.91,2.42-2.57"/>
		<path class="st0" d="M35.11,42.9c-2.11-2.11-5.41,0.27-6.12,2.55c-0.84,2.69,1.71,4.88,0.81,7.49c-0.54,1.59-1.79,2.29-3.39,2.03"
			/>
		<path class="st0" d="M18.85,54.65c-2.48-6.49,9.82-4.67,4.51-14.49"/>
		<path class="st0" d="M10.8,43.54c0.88-1.44,2.99-1.55,4.52-1.45c1.39,0.09,2.94,1.13,3.53,1.29"/>
	</g>
	<g>
		<path class="st0" d="M67.06,40.16l0.23-7.08L63,32.94c-0.26-1.47-0.67-2.89-1.21-4.24l3.94-2.16l-3.41-6.21l-4.19,2.3
			c-0.9-1.06-1.9-2.03-2.99-2.9l2.5-4.23l-6.1-3.61l-2.58,4.36c-1.25-0.45-2.56-0.8-3.91-1.02V10.1h-3.5v51.36h3.5v-3.17
			c1.33-0.22,2.63-0.55,3.87-1l1.51,2.84l6.26-3.32l-1.58-2.98c1.17-0.93,2.24-1.98,3.2-3.13l2.96,1.88l3.81-5.98l-3.18-2.03
			c0.55-1.44,0.96-2.96,1.2-4.53L67.06,40.16z"/>
		<path class="st1" d="M41.55,20.29v4.88c5.84,0.02,10.57,4.76,10.57,10.61c0,5.85-4.73,10.59-10.57,10.61v4.89
			C50.09,51.25,57,44.32,57,35.78S50.09,20.31,41.55,20.29z"/>
	</g>
</g>
</svg>
