<?xml version="1.0" encoding="utf-8"?>
<!-- Generator: Adobe Illustrator 23.1.1, SVG Export Plug-In . SVG Version: 6.00 Build 0)  -->
<svg version="1.1" id="Capa_1" xmlns="http://www.w3.org/2000/svg" xmlns:xlink="http://www.w3.org/1999/xlink" x="0px" y="0px"
	 viewBox="0 0 75 80" style="enable-background:new 0 0 75 80;" xml:space="preserve">
<style type="text/css">
	.st0{opacity:0.6;}
	.st1{fill:#74CBF3;}
	.st2{filter:url(#Adobe_OpacityMaskFilter);}
	.st3{fill:url(#SVGID_2_);}
	.st4{fill:url(#SVGID_3_);}
	.st5{fill:url(#SVGID_4_);}
	.st6{fill:url(#SVGID_5_);}
	.st7{fill:url(#SVGID_6_);}
	.st8{fill:url(#SVGID_7_);}
	.st9{fill:url(#SVGID_8_);}
	.st10{fill:url(#SVGID_9_);}
	.st11{fill:url(#SVGID_10_);}
	.st12{fill:url(#SVGID_11_);}
	.st13{mask:url(#SVGID_1_);}
	.st14{fill:#28348A;}
	.st15{filter:url(#Adobe_OpacityMaskFilter_1_);}
	.st16{fill:url(#SVGID_13_);}
	.st17{fill:url(#SVGID_14_);}
	.st18{fill:url(#SVGID_15_);}
	.st19{fill:url(#SVGID_16_);}
	.st20{fill:url(#SVGID_17_);}
	.st21{fill:url(#SVGID_18_);}
	.st22{fill:url(#SVGID_19_);}
	.st23{fill:url(#SVGID_20_);}
	.st24{fill:url(#SVGID_21_);}
	.st25{fill:url(#SVGID_22_);}
	.st26{mask:url(#SVGID_12_);}
</style>
<g>
	<g>
		<g class="st0">
			<g>
				<path class="st1" d="M17.46,63.25c-0.1,0-0.17-0.08-0.17-0.17V13.64c0-0.1,0.08-0.17,0.17-0.17s0.17,0.08,0.17,0.17v49.43
					C17.63,63.17,17.55,63.25,17.46,63.25z"/>
			</g>
			<g>
				<path class="st1" d="M25.52,63.25c-0.1,0-0.17-0.08-0.17-0.17V13.64c0-0.1,0.08-0.17,0.17-0.17c0.1,0,0.17,0.08,0.17,0.17v49.43
					C25.69,63.17,25.62,63.25,25.52,63.25z"/>
			</g>
			<g>
				<path class="st1" d="M33.58,63.25c-0.1,0-0.17-0.08-0.17-0.17V13.64c0-0.1,0.08-0.17,0.17-0.17c0.1,0,0.17,0.08,0.17,0.17v49.43
					C33.75,63.17,33.68,63.25,33.58,63.25z"/>
			</g>
			<g>
				<path class="st1" d="M41.64,63.25c-0.1,0-0.17-0.08-0.17-0.17V13.64c0-0.1,0.08-0.17,0.17-0.17c0.1,0,0.17,0.08,0.17,0.17v49.43
					C41.81,63.17,41.74,63.25,41.64,63.25z"/>
			</g>
			<g>
				<path class="st1" d="M49.7,63.25c-0.1,0-0.17-0.08-0.17-0.17V13.64c0-0.1,0.08-0.17,0.17-0.17c0.1,0,0.17,0.08,0.17,0.17v49.43
					C49.87,63.17,49.8,63.25,49.7,63.25z"/>
			</g>
			<g>
				<path class="st1" d="M57.76,63.25c-0.1,0-0.17-0.08-0.17-0.17V13.64c0-0.1,0.08-0.17,0.17-0.17c0.1,0,0.17,0.08,0.17,0.17v49.43
					C57.93,63.17,57.86,63.25,57.76,63.25z"/>
			</g>
			<g>
				<path class="st1" d="M60.24,18.38H14.98c-0.1,0-0.17-0.08-0.17-0.17s0.08-0.17,0.17-0.17h45.26c0.1,0,0.17,0.08,0.17,0.17
					S60.33,18.38,60.24,18.38z"/>
			</g>
			<g>
				<path class="st1" d="M60.24,26.44H14.98c-0.1,0-0.17-0.08-0.17-0.17s0.08-0.17,0.17-0.17h45.26c0.1,0,0.17,0.08,0.17,0.17
					S60.33,26.44,60.24,26.44z"/>
			</g>
			<g>
				<path class="st1" d="M60.24,34.5H14.98c-0.1,0-0.17-0.08-0.17-0.17s0.08-0.17,0.17-0.17h45.26c0.1,0,0.17,0.08,0.17,0.17
					S60.33,34.5,60.24,34.5z"/>
			</g>
			<g>
				<path class="st1" d="M60.24,42.56H14.98c-0.1,0-0.17-0.08-0.17-0.17s0.08-0.17,0.17-0.17h45.26c0.1,0,0.17,0.08,0.17,0.17
					S60.33,42.56,60.24,42.56z"/>
			</g>
			<g>
				<path class="st1" d="M60.24,50.62H14.98c-0.1,0-0.17-0.08-0.17-0.17s0.08-0.17,0.17-0.17h45.26c0.1,0,0.17,0.08,0.17,0.17
					S60.33,50.62,60.24,50.62z"/>
			</g>
			<g>
				<path class="st1" d="M60.24,58.68H14.98c-0.1,0-0.17-0.08-0.17-0.17s0.08-0.17,0.17-0.17h45.26c0.1,0,0.17,0.08,0.17,0.17
					S60.33,58.68,60.24,58.68z"/>
			</g>
		</g>
		<g>
			<polygon class="st1" points="9.71,16.56 11.04,16.56 11.04,10.49 17.1,10.49 17.1,9.17 9.71,9.17 			"/>
			<polygon class="st1" points="58.12,9.17 58.12,10.49 64.18,10.49 64.18,16.56 65.51,16.56 65.51,9.17 			"/>
			<polygon class="st1" points="64.18,66.23 58.12,66.23 58.12,67.55 65.51,67.55 65.51,60.16 64.18,60.16 			"/>
			<polygon class="st1" points="11.04,60.16 9.71,60.16 9.71,67.55 17.1,67.55 17.1,66.23 11.04,66.23 			"/>
		</g>
	</g>
	<g>
		<defs>
			<filter id="Adobe_OpacityMaskFilter" filterUnits="userSpaceOnUse" x="20.87" y="16.43" width="33.48" height="43.85">
				<feColorMatrix  type="matrix" values="1 0 0 0 0  0 1 0 0 0  0 0 1 0 0  0 0 0 1 0"/>
			</filter>
		</defs>
		<mask maskUnits="userSpaceOnUse" x="20.87" y="16.43" width="33.48" height="43.85" id="SVGID_1_">
			<g class="st2">
				<g>
					<g>
						<radialGradient id="SVGID_2_" cx="37.6946" cy="40.0631" r="22.2166" gradientUnits="userSpaceOnUse">
							<stop  offset="0" style="stop-color:#FFFFFF"/>
							<stop  offset="1" style="stop-color:#FFFFFF"/>
						</radialGradient>
						<path class="st3" d="M25.39,26.48c-0.11,0-0.23-0.03-0.34-0.09c-0.34-0.19-0.46-0.61-0.27-0.94
							c2.08-3.75,6.17-8.05,11.43-8.87c3.28-0.51,6.81,0.32,9.44,2.22c0.31,0.22,0.38,0.66,0.16,0.97
							c-0.22,0.31-0.66,0.38-0.97,0.16c-2.31-1.66-5.53-2.42-8.42-1.97c-4.76,0.74-8.51,4.71-10.43,8.17
							C25.87,26.35,25.63,26.48,25.39,26.48z"/>
					</g>
					<g>
						<radialGradient id="SVGID_3_" cx="37.6946" cy="40.063" r="22.2165" gradientUnits="userSpaceOnUse">
							<stop  offset="0" style="stop-color:#FFFFFF"/>
							<stop  offset="1" style="stop-color:#FFFFFF"/>
						</radialGradient>
						<path class="st4" d="M37.58,60.28c-0.84,0-1.69-0.07-2.55-0.22c-5.56-0.95-10.32-4.7-12.43-9.79
							C20,44,20.35,35.72,23.56,27.56c0.14-0.36,0.54-0.53,0.9-0.39c0.36,0.14,0.53,0.54,0.39,0.9c-3.08,7.82-3.43,15.72-0.97,21.67
							c1.93,4.66,6.29,8.09,11.39,8.96c4.01,0.68,7.79-0.41,10.92-3.17c4.38-3.86,7.03-10.6,6.76-17.18
							c-0.55-12.99-6.28-16.61-6.34-16.65c-0.33-0.2-0.43-0.62-0.24-0.95c0.2-0.33,0.62-0.44,0.95-0.24
							c0.26,0.16,6.43,3.96,7.01,17.78c0.29,6.98-2.54,14.16-7.22,18.28C44.32,59.02,41.07,60.28,37.58,60.28z"/>
					</g>
					<g>
						<radialGradient id="SVGID_4_" cx="37.6945" cy="40.063" r="22.2165" gradientUnits="userSpaceOnUse">
							<stop  offset="0" style="stop-color:#FFFFFF"/>
							<stop  offset="1" style="stop-color:#FFFFFF"/>
						</radialGradient>
						<path class="st5" d="M28.09,53.42c-0.19,0-0.38-0.08-0.51-0.23c-4.75-5.23-4.21-12.9-3.39-18.22
							c1.19-7.68,6.59-15.84,14.26-15.84c0,0,0,0,0,0c7.36,0,10.89,7.76,11.04,8.09c0.16,0.35,0,0.76-0.35,0.91
							c-0.35,0.16-0.76,0-0.92-0.35c-0.03-0.07-3.32-7.27-9.77-7.27c-6.65,0-11.78,7.45-12.89,14.66
							c-0.78,5.03-1.31,12.28,3.05,17.07c0.26,0.28,0.24,0.72-0.05,0.98C28.42,53.37,28.26,53.42,28.09,53.42z"/>
					</g>
					<g>
						<radialGradient id="SVGID_5_" cx="37.6946" cy="40.063" r="22.2165" gradientUnits="userSpaceOnUse">
							<stop  offset="0" style="stop-color:#FFFFFF"/>
							<stop  offset="1" style="stop-color:#FFFFFF"/>
						</radialGradient>
						<path class="st6" d="M49.68,48.18c-0.08,0-0.16-0.01-0.24-0.04c-0.36-0.13-0.54-0.53-0.41-0.89
							c3.41-9.35,0.08-17.18,0.05-17.26c-0.15-0.35,0.01-0.76,0.36-0.91c0.35-0.15,0.76,0.01,0.91,0.36
							c0.15,0.34,3.59,8.4-0.02,18.29C50.23,48.01,49.96,48.18,49.68,48.18z"/>
					</g>
					<g>
						<radialGradient id="SVGID_6_" cx="37.6946" cy="40.063" r="22.2166" gradientUnits="userSpaceOnUse">
							<stop  offset="0" style="stop-color:#FFFFFF"/>
							<stop  offset="1" style="stop-color:#FFFFFF"/>
						</radialGradient>
						<path class="st7" d="M37.06,57.84c-2.98,0-5.53-1.03-7.76-3.11c-0.28-0.26-0.29-0.7-0.03-0.98c0.26-0.28,0.7-0.29,0.98-0.03
							c2.72,2.54,5.88,3.28,9.95,2.35c5.62-1.28,7.72-6.53,7.74-6.58c0.14-0.36,0.54-0.53,0.9-0.4c0.36,0.14,0.53,0.54,0.4,0.89
							c-0.09,0.24-2.37,5.98-8.72,7.43C39.3,57.7,38.15,57.84,37.06,57.84z"/>
					</g>
					<g>
						<radialGradient id="SVGID_7_" cx="37.6946" cy="40.063" r="22.2165" gradientUnits="userSpaceOnUse">
							<stop  offset="0" style="stop-color:#FFFFFF"/>
							<stop  offset="1" style="stop-color:#FFFFFF"/>
						</radialGradient>
						<path class="st8" d="M37.17,55.19c-1.43,0-2.85-0.35-4.21-1.07c-4.73-2.49-7.33-8.77-6.47-15.63c0.05-0.38,0.4-0.65,0.77-0.6
							c0.38,0.05,0.65,0.39,0.6,0.77c-0.91,7.27,2.23,12.39,5.74,14.23c3.1,1.63,6.63,1.01,9.69-1.7
							c5.14-4.56,5.91-13.77,3.69-20.03c-0.92-2.59-3.16-6.96-7.92-7.17c-8.2-0.38-10.93,12.3-10.95,12.43
							c-0.08,0.37-0.44,0.61-0.82,0.54c-0.37-0.08-0.62-0.44-0.54-0.82c0.12-0.57,3-13.96,12.37-13.53c4.07,0.18,7.4,3.14,9.16,8.1
							c2.37,6.7,1.5,16.59-4.08,21.53C42.02,54.19,39.58,55.19,37.17,55.19z"/>
					</g>
					<g>
						<radialGradient id="SVGID_8_" cx="37.6946" cy="40.063" r="22.2165" gradientUnits="userSpaceOnUse">
							<stop  offset="0" style="stop-color:#FFFFFF"/>
							<stop  offset="1" style="stop-color:#FFFFFF"/>
						</radialGradient>
						<path class="st9" d="M37.42,52.8c-0.36,0-0.67-0.28-0.69-0.65c-0.02-0.38,0.27-0.71,0.65-0.73c0.38-0.02,8.71-0.71,8.34-12.55
							c-0.15-4.88-1.33-8.3-3.5-10.16c-1.87-1.6-3.9-1.49-4.49-1.42c-4.47,0.55-6.64,6.74-7.22,10.3
							c-0.42,2.59-1.29,11.2,5.15,13.48c0.36,0.13,0.55,0.52,0.42,0.89c-0.13,0.36-0.52,0.55-0.89,0.42
							c-7.46-2.65-6.52-12.16-6.06-15.01c0.8-4.9,3.48-10.84,8.42-11.45c0.72-0.09,3.26-0.23,5.56,1.74
							c2.48,2.12,3.82,5.88,3.98,11.17c0.41,13.24-9.55,13.97-9.65,13.98C37.44,52.8,37.43,52.8,37.42,52.8z"/>
					</g>
					<g>
						<radialGradient id="SVGID_9_" cx="37.6946" cy="40.063" r="22.2165" gradientUnits="userSpaceOnUse">
							<stop  offset="0" style="stop-color:#FFFFFF"/>
							<stop  offset="1" style="stop-color:#FFFFFF"/>
						</radialGradient>
						<path class="st10" d="M37.15,50.05c-0.37,0-0.67-0.29-0.69-0.66c-0.02-0.38,0.28-0.71,0.66-0.72
							c0.24-0.01,5.79-0.42,5.79-8.38c0-4.32-0.97-7.55-2.74-9.09c-0.84-0.73-1.82-1.05-2.83-0.91c-1.21,0.16-4.23,3.22-4.68,7.64
							c-0.04,0.38-0.38,0.65-0.76,0.62c-0.38-0.04-0.66-0.38-0.62-0.76c0.5-4.93,3.86-8.61,5.87-8.88c1.4-0.19,2.8,0.25,3.93,1.24
							c1.46,1.28,3.21,4.08,3.21,10.13c0,9.32-7.04,9.76-7.11,9.76C37.17,50.05,37.16,50.05,37.15,50.05z"/>
					</g>
					<g>
						<radialGradient id="SVGID_10_" cx="37.6946" cy="40.063" r="22.2165" gradientUnits="userSpaceOnUse">
							<stop  offset="0" style="stop-color:#FFFFFF"/>
							<stop  offset="1" style="stop-color:#FFFFFF"/>
						</radialGradient>
						<path class="st11" d="M35.15,49.5c-0.1,0-0.21-0.02-0.31-0.07c-4.47-2.23-3.71-8.94-3.67-9.22c0.05-0.38,0.4-0.65,0.77-0.6
							c0.38,0.05,0.65,0.39,0.6,0.77c-0.01,0.06-0.68,6.02,2.91,7.81c0.34,0.17,0.48,0.59,0.31,0.93
							C35.65,49.36,35.41,49.5,35.15,49.5z"/>
					</g>
					<g>
						<radialGradient id="SVGID_11_" cx="37.6946" cy="40.0631" r="22.2165" gradientUnits="userSpaceOnUse">
							<stop  offset="0" style="stop-color:#FFFFFF"/>
							<stop  offset="1" style="stop-color:#FFFFFF"/>
						</radialGradient>
						<path class="st12" d="M38.65,47.45c-0.23,0-0.45-0.11-0.58-0.31c-0.21-0.32-0.12-0.75,0.2-0.96c1.42-0.94,2.13-3.25,2.32-5.1
							c0.25-2.41-0.26-5.88-1.52-7.28c-0.34-0.38-0.71-0.57-1.11-0.57c-1.34,0-2.93,3.58-3.31,5.89c-0.44,2.69,0.27,5.47,1.21,6.15
							c0.24,0.17,0.47,0.19,0.76,0.04c0.8-0.41,1.4-1.79,1.59-3.69c0.23-2.24-0.16-4.18-0.5-4.79c-1.26,1.57-1.11,5.15-0.54,6.4
							c0.16,0.35,0.01,0.76-0.34,0.92c-0.35,0.16-0.76,0.01-0.92-0.34c-0.73-1.59-0.98-5.93,0.83-7.98
							c0.55-0.62,1.11-0.52,1.33-0.44c1.13,0.38,1.45,2.55,1.54,3.81c0.2,2.73-0.3,6.3-2.38,7.35c-0.76,0.39-1.54,0.33-2.2-0.16
							c-1.67-1.22-2.2-4.77-1.76-7.5c0.23-1.4,1.78-7.06,4.68-7.06c0.8,0,1.54,0.35,2.14,1.02c1.79,1.99,2.09,6.18,1.87,8.35
							c-0.14,1.35-0.71,4.64-2.94,6.11C38.91,47.41,38.78,47.45,38.65,47.45z"/>
					</g>
				</g>
			</g>
		</mask>
		<g class="st13">
			<g>
				<path class="st14" d="M25.39,26.48c-0.11,0-0.23-0.03-0.34-0.09c-0.34-0.19-0.46-0.61-0.27-0.94c2.08-3.75,6.17-8.05,11.43-8.87
					c3.28-0.51,6.81,0.32,9.44,2.22c0.31,0.22,0.38,0.66,0.16,0.97c-0.22,0.31-0.66,0.38-0.97,0.16c-2.31-1.66-5.53-2.42-8.42-1.97
					c-4.76,0.74-8.51,4.71-10.43,8.17C25.87,26.35,25.63,26.48,25.39,26.48z"/>
			</g>
			<g>
				<path class="st14" d="M37.58,60.28c-0.84,0-1.69-0.07-2.55-0.22c-5.56-0.95-10.32-4.7-12.43-9.79C20,44,20.35,35.72,23.56,27.56
					c0.14-0.36,0.54-0.53,0.9-0.39c0.36,0.14,0.53,0.54,0.39,0.9c-3.08,7.82-3.43,15.72-0.97,21.67c1.93,4.66,6.29,8.09,11.39,8.96
					c4.01,0.68,7.79-0.41,10.92-3.17c4.38-3.86,7.03-10.6,6.76-17.18c-0.55-12.99-6.28-16.61-6.34-16.65
					c-0.33-0.2-0.43-0.62-0.24-0.95c0.2-0.33,0.62-0.44,0.95-0.24c0.26,0.16,6.43,3.96,7.01,17.78c0.29,6.98-2.54,14.16-7.22,18.28
					C44.32,59.02,41.07,60.28,37.58,60.28z"/>
			</g>
			<g>
				<path class="st14" d="M28.09,53.42c-0.19,0-0.38-0.08-0.51-0.23c-4.75-5.23-4.21-12.9-3.39-18.22
					c1.19-7.68,6.59-15.84,14.26-15.84c0,0,0,0,0,0c7.36,0,10.89,7.76,11.04,8.09c0.16,0.35,0,0.76-0.35,0.91
					c-0.35,0.16-0.76,0-0.92-0.35c-0.03-0.07-3.32-7.27-9.77-7.27c-6.65,0-11.78,7.45-12.89,14.66c-0.78,5.03-1.31,12.28,3.05,17.07
					c0.26,0.28,0.24,0.72-0.05,0.98C28.42,53.37,28.26,53.42,28.09,53.42z"/>
			</g>
			<g>
				<path class="st14" d="M49.68,48.18c-0.08,0-0.16-0.01-0.24-0.04c-0.36-0.13-0.54-0.53-0.41-0.89
					c3.41-9.35,0.08-17.18,0.05-17.26c-0.15-0.35,0.01-0.76,0.36-0.91c0.35-0.15,0.76,0.01,0.91,0.36c0.15,0.34,3.59,8.4-0.02,18.29
					C50.23,48.01,49.96,48.18,49.68,48.18z"/>
			</g>
			<g>
				<path class="st14" d="M37.06,57.84c-2.98,0-5.53-1.03-7.76-3.11c-0.28-0.26-0.29-0.7-0.03-0.98c0.26-0.28,0.7-0.29,0.98-0.03
					c2.72,2.54,5.88,3.28,9.95,2.35c5.62-1.28,7.72-6.53,7.74-6.58c0.14-0.36,0.54-0.53,0.9-0.4c0.36,0.14,0.53,0.54,0.4,0.89
					c-0.09,0.24-2.37,5.98-8.72,7.43C39.3,57.7,38.15,57.84,37.06,57.84z"/>
			</g>
			<g>
				<path class="st14" d="M37.17,55.19c-1.43,0-2.85-0.35-4.21-1.07c-4.73-2.49-7.33-8.77-6.47-15.63c0.05-0.38,0.4-0.65,0.77-0.6
					c0.38,0.05,0.65,0.39,0.6,0.77c-0.91,7.27,2.23,12.39,5.74,14.23c3.1,1.63,6.63,1.01,9.69-1.7c5.14-4.56,5.91-13.77,3.69-20.03
					c-0.92-2.59-3.16-6.96-7.92-7.17c-8.2-0.38-10.93,12.3-10.95,12.43c-0.08,0.37-0.44,0.61-0.82,0.54
					c-0.37-0.08-0.62-0.44-0.54-0.82c0.12-0.57,3-13.96,12.37-13.53c4.07,0.18,7.4,3.14,9.16,8.1c2.37,6.7,1.5,16.59-4.08,21.53
					C42.02,54.19,39.58,55.19,37.17,55.19z"/>
			</g>
			<g>
				<path class="st14" d="M37.42,52.8c-0.36,0-0.67-0.28-0.69-0.65c-0.02-0.38,0.27-0.71,0.65-0.73c0.38-0.02,8.71-0.71,8.34-12.55
					c-0.15-4.88-1.33-8.3-3.5-10.16c-1.87-1.6-3.9-1.49-4.49-1.42c-4.47,0.55-6.64,6.74-7.22,10.3c-0.42,2.59-1.29,11.2,5.15,13.48
					c0.36,0.13,0.55,0.52,0.42,0.89c-0.13,0.36-0.52,0.55-0.89,0.42c-7.46-2.65-6.52-12.16-6.06-15.01
					c0.8-4.9,3.48-10.84,8.42-11.45c0.72-0.09,3.26-0.23,5.56,1.74c2.48,2.12,3.82,5.88,3.98,11.17
					c0.41,13.24-9.55,13.97-9.65,13.98C37.44,52.8,37.43,52.8,37.42,52.8z"/>
			</g>
			<g>
				<path class="st14" d="M37.15,50.05c-0.37,0-0.67-0.29-0.69-0.66c-0.02-0.38,0.28-0.71,0.66-0.72c0.24-0.01,5.79-0.42,5.79-8.38
					c0-4.32-0.97-7.55-2.74-9.09c-0.84-0.73-1.82-1.05-2.83-0.91c-1.21,0.16-4.23,3.22-4.68,7.64c-0.04,0.38-0.38,0.65-0.76,0.62
					c-0.38-0.04-0.66-0.38-0.62-0.76c0.5-4.93,3.86-8.61,5.87-8.88c1.4-0.19,2.8,0.25,3.93,1.24c1.46,1.28,3.21,4.08,3.21,10.13
					c0,9.32-7.04,9.76-7.11,9.76C37.17,50.05,37.16,50.05,37.15,50.05z"/>
			</g>
			<g>
				<path class="st14" d="M35.15,49.5c-0.1,0-0.21-0.02-0.31-0.07c-4.47-2.23-3.71-8.94-3.67-9.22c0.05-0.38,0.4-0.65,0.77-0.6
					c0.38,0.05,0.65,0.39,0.6,0.77c-0.01,0.06-0.68,6.02,2.91,7.81c0.34,0.17,0.48,0.59,0.31,0.93
					C35.65,49.36,35.41,49.5,35.15,49.5z"/>
			</g>
			<g>
				<path class="st14" d="M38.65,47.45c-0.23,0-0.45-0.11-0.58-0.31c-0.21-0.32-0.12-0.75,0.2-0.96c1.42-0.94,2.13-3.25,2.32-5.1
					c0.25-2.41-0.26-5.88-1.52-7.28c-0.34-0.38-0.71-0.57-1.11-0.57c-1.34,0-2.93,3.58-3.31,5.89c-0.44,2.69,0.27,5.47,1.21,6.15
					c0.24,0.17,0.47,0.19,0.76,0.04c0.8-0.41,1.4-1.79,1.59-3.69c0.23-2.24-0.16-4.18-0.5-4.79c-1.26,1.57-1.11,5.15-0.54,6.4
					c0.16,0.35,0.01,0.76-0.34,0.92c-0.35,0.16-0.76,0.01-0.92-0.34c-0.73-1.59-0.98-5.93,0.83-7.98c0.55-0.62,1.11-0.52,1.33-0.44
					c1.13,0.38,1.45,2.55,1.54,3.81c0.2,2.73-0.3,6.3-2.38,7.35c-0.76,0.39-1.54,0.33-2.2-0.16c-1.67-1.22-2.2-4.77-1.76-7.5
					c0.23-1.4,1.78-7.06,4.68-7.06c0.8,0,1.54,0.35,2.14,1.02c1.79,1.99,2.09,6.18,1.87,8.35c-0.14,1.35-0.71,4.64-2.94,6.11
					C38.91,47.41,38.78,47.45,38.65,47.45z"/>
			</g>
		</g>
		<defs>
			<filter id="Adobe_OpacityMaskFilter_1_" filterUnits="userSpaceOnUse" x="20.87" y="16.43" width="33.48" height="43.85">
				<feColorMatrix  type="matrix" values="1 0 0 0 0  0 1 0 0 0  0 0 1 0 0  0 0 0 1 0"/>
			</filter>
		</defs>
		<mask maskUnits="userSpaceOnUse" x="20.87" y="16.43" width="33.48" height="43.85" id="SVGID_12_">
			<g class="st15">
				<g>
					<g>
						<radialGradient id="SVGID_13_" cx="37.6946" cy="40.0631" r="22.2166" gradientUnits="userSpaceOnUse">
							<stop  offset="0" style="stop-color:#FFFFFF"/>
							<stop  offset="1" style="stop-color:#000000"/>
						</radialGradient>
						<path class="st16" d="M25.39,26.48c-0.11,0-0.23-0.03-0.34-0.09c-0.34-0.19-0.46-0.61-0.27-0.94
							c2.08-3.75,6.17-8.05,11.43-8.87c3.28-0.51,6.81,0.32,9.44,2.22c0.31,0.22,0.38,0.66,0.16,0.97
							c-0.22,0.31-0.66,0.38-0.97,0.16c-2.31-1.66-5.53-2.42-8.42-1.97c-4.76,0.74-8.51,4.71-10.43,8.17
							C25.87,26.35,25.63,26.48,25.39,26.48z"/>
					</g>
					<g>
						<radialGradient id="SVGID_14_" cx="37.6946" cy="40.063" r="22.2165" gradientUnits="userSpaceOnUse">
							<stop  offset="0" style="stop-color:#FFFFFF"/>
							<stop  offset="1" style="stop-color:#000000"/>
						</radialGradient>
						<path class="st17" d="M37.58,60.28c-0.84,0-1.69-0.07-2.55-0.22c-5.56-0.95-10.32-4.7-12.43-9.79
							C20,44,20.35,35.72,23.56,27.56c0.14-0.36,0.54-0.53,0.9-0.39c0.36,0.14,0.53,0.54,0.39,0.9c-3.08,7.82-3.43,15.72-0.97,21.67
							c1.93,4.66,6.29,8.09,11.39,8.96c4.01,0.68,7.79-0.41,10.92-3.17c4.38-3.86,7.03-10.6,6.76-17.18
							c-0.55-12.99-6.28-16.61-6.34-16.65c-0.33-0.2-0.43-0.62-0.24-0.95c0.2-0.33,0.62-0.44,0.95-0.24
							c0.26,0.16,6.43,3.96,7.01,17.78c0.29,6.98-2.54,14.16-7.22,18.28C44.32,59.02,41.07,60.28,37.58,60.28z"/>
					</g>
					<g>
						<radialGradient id="SVGID_15_" cx="37.6945" cy="40.063" r="22.2165" gradientUnits="userSpaceOnUse">
							<stop  offset="0" style="stop-color:#FFFFFF"/>
							<stop  offset="1" style="stop-color:#000000"/>
						</radialGradient>
						<path class="st18" d="M28.09,53.42c-0.19,0-0.38-0.08-0.51-0.23c-4.75-5.23-4.21-12.9-3.39-18.22
							c1.19-7.68,6.59-15.84,14.26-15.84c0,0,0,0,0,0c7.36,0,10.89,7.76,11.04,8.09c0.16,0.35,0,0.76-0.35,0.91
							c-0.35,0.16-0.76,0-0.92-0.35c-0.03-0.07-3.32-7.27-9.77-7.27c-6.65,0-11.78,7.45-12.89,14.66
							c-0.78,5.03-1.31,12.28,3.05,17.07c0.26,0.28,0.24,0.72-0.05,0.98C28.42,53.37,28.26,53.42,28.09,53.42z"/>
					</g>
					<g>
						<radialGradient id="SVGID_16_" cx="37.6946" cy="40.063" r="22.2165" gradientUnits="userSpaceOnUse">
							<stop  offset="0" style="stop-color:#FFFFFF"/>
							<stop  offset="1" style="stop-color:#000000"/>
						</radialGradient>
						<path class="st19" d="M49.68,48.18c-0.08,0-0.16-0.01-0.24-0.04c-0.36-0.13-0.54-0.53-0.41-0.89
							c3.41-9.35,0.08-17.18,0.05-17.26c-0.15-0.35,0.01-0.76,0.36-0.91c0.35-0.15,0.76,0.01,0.91,0.36
							c0.15,0.34,3.59,8.4-0.02,18.29C50.23,48.01,49.96,48.18,49.68,48.18z"/>
					</g>
					<g>
						<radialGradient id="SVGID_17_" cx="37.6946" cy="40.063" r="22.2166" gradientUnits="userSpaceOnUse">
							<stop  offset="0" style="stop-color:#FFFFFF"/>
							<stop  offset="1" style="stop-color:#000000"/>
						</radialGradient>
						<path class="st20" d="M37.06,57.84c-2.98,0-5.53-1.03-7.76-3.11c-0.28-0.26-0.29-0.7-0.03-0.98c0.26-0.28,0.7-0.29,0.98-0.03
							c2.72,2.54,5.88,3.28,9.95,2.35c5.62-1.28,7.72-6.53,7.74-6.58c0.14-0.36,0.54-0.53,0.9-0.4c0.36,0.14,0.53,0.54,0.4,0.89
							c-0.09,0.24-2.37,5.98-8.72,7.43C39.3,57.7,38.15,57.84,37.06,57.84z"/>
					</g>
					<g>
						<radialGradient id="SVGID_18_" cx="37.6946" cy="40.063" r="22.2165" gradientUnits="userSpaceOnUse">
							<stop  offset="0" style="stop-color:#FFFFFF"/>
							<stop  offset="1" style="stop-color:#000000"/>
						</radialGradient>
						<path class="st21" d="M37.17,55.19c-1.43,0-2.85-0.35-4.21-1.07c-4.73-2.49-7.33-8.77-6.47-15.63c0.05-0.38,0.4-0.65,0.77-0.6
							c0.38,0.05,0.65,0.39,0.6,0.77c-0.91,7.27,2.23,12.39,5.74,14.23c3.1,1.63,6.63,1.01,9.69-1.7
							c5.14-4.56,5.91-13.77,3.69-20.03c-0.92-2.59-3.16-6.96-7.92-7.17c-8.2-0.38-10.93,12.3-10.95,12.43
							c-0.08,0.37-0.44,0.61-0.82,0.54c-0.37-0.08-0.62-0.44-0.54-0.82c0.12-0.57,3-13.96,12.37-13.53c4.07,0.18,7.4,3.14,9.16,8.1
							c2.37,6.7,1.5,16.59-4.08,21.53C42.02,54.19,39.58,55.19,37.17,55.19z"/>
					</g>
					<g>
						<radialGradient id="SVGID_19_" cx="37.6946" cy="40.063" r="22.2165" gradientUnits="userSpaceOnUse">
							<stop  offset="0" style="stop-color:#FFFFFF"/>
							<stop  offset="1" style="stop-color:#000000"/>
						</radialGradient>
						<path class="st22" d="M37.42,52.8c-0.36,0-0.67-0.28-0.69-0.65c-0.02-0.38,0.27-0.71,0.65-0.73
							c0.38-0.02,8.71-0.71,8.34-12.55c-0.15-4.88-1.33-8.3-3.5-10.16c-1.87-1.6-3.9-1.49-4.49-1.42c-4.47,0.55-6.64,6.74-7.22,10.3
							c-0.42,2.59-1.29,11.2,5.15,13.48c0.36,0.13,0.55,0.52,0.42,0.89c-0.13,0.36-0.52,0.55-0.89,0.42
							c-7.46-2.65-6.52-12.16-6.06-15.01c0.8-4.9,3.48-10.84,8.42-11.45c0.72-0.09,3.26-0.23,5.56,1.74
							c2.48,2.12,3.82,5.88,3.98,11.17c0.41,13.24-9.55,13.97-9.65,13.98C37.44,52.8,37.43,52.8,37.42,52.8z"/>
					</g>
					<g>
						<radialGradient id="SVGID_20_" cx="37.6946" cy="40.063" r="22.2165" gradientUnits="userSpaceOnUse">
							<stop  offset="0" style="stop-color:#FFFFFF"/>
							<stop  offset="1" style="stop-color:#000000"/>
						</radialGradient>
						<path class="st23" d="M37.15,50.05c-0.37,0-0.67-0.29-0.69-0.66c-0.02-0.38,0.28-0.71,0.66-0.72
							c0.24-0.01,5.79-0.42,5.79-8.38c0-4.32-0.97-7.55-2.74-9.09c-0.84-0.73-1.82-1.05-2.83-0.91c-1.21,0.16-4.23,3.22-4.68,7.64
							c-0.04,0.38-0.38,0.65-0.76,0.62c-0.38-0.04-0.66-0.38-0.62-0.76c0.5-4.93,3.86-8.61,5.87-8.88c1.4-0.19,2.8,0.25,3.93,1.24
							c1.46,1.28,3.21,4.08,3.21,10.13c0,9.32-7.04,9.76-7.11,9.76C37.17,50.05,37.16,50.05,37.15,50.05z"/>
					</g>
					<g>
						<radialGradient id="SVGID_21_" cx="37.6946" cy="40.063" r="22.2165" gradientUnits="userSpaceOnUse">
							<stop  offset="0" style="stop-color:#FFFFFF"/>
							<stop  offset="1" style="stop-color:#000000"/>
						</radialGradient>
						<path class="st24" d="M35.15,49.5c-0.1,0-0.21-0.02-0.31-0.07c-4.47-2.23-3.71-8.94-3.67-9.22c0.05-0.38,0.4-0.65,0.77-0.6
							c0.38,0.05,0.65,0.39,0.6,0.77c-0.01,0.06-0.68,6.02,2.91,7.81c0.34,0.17,0.48,0.59,0.31,0.93
							C35.65,49.36,35.41,49.5,35.15,49.5z"/>
					</g>
					<g>
						<radialGradient id="SVGID_22_" cx="37.6946" cy="40.0631" r="22.2165" gradientUnits="userSpaceOnUse">
							<stop  offset="0" style="stop-color:#FFFFFF"/>
							<stop  offset="1" style="stop-color:#000000"/>
						</radialGradient>
						<path class="st25" d="M38.65,47.45c-0.23,0-0.45-0.11-0.58-0.31c-0.21-0.32-0.12-0.75,0.2-0.96c1.42-0.94,2.13-3.25,2.32-5.1
							c0.25-2.41-0.26-5.88-1.52-7.28c-0.34-0.38-0.71-0.57-1.11-0.57c-1.34,0-2.93,3.58-3.31,5.89c-0.44,2.69,0.27,5.47,1.21,6.15
							c0.24,0.17,0.47,0.19,0.76,0.04c0.8-0.41,1.4-1.79,1.59-3.69c0.23-2.24-0.16-4.18-0.5-4.79c-1.26,1.57-1.11,5.15-0.54,6.4
							c0.16,0.35,0.01,0.76-0.34,0.92c-0.35,0.16-0.76,0.01-0.92-0.34c-0.73-1.59-0.98-5.93,0.83-7.98
							c0.55-0.62,1.11-0.52,1.33-0.44c1.13,0.38,1.45,2.55,1.54,3.81c0.2,2.73-0.3,6.3-2.38,7.35c-0.76,0.39-1.54,0.33-2.2-0.16
							c-1.67-1.22-2.2-4.77-1.76-7.5c0.23-1.4,1.78-7.06,4.68-7.06c0.8,0,1.54,0.35,2.14,1.02c1.79,1.99,2.09,6.18,1.87,8.35
							c-0.14,1.35-0.71,4.64-2.94,6.11C38.91,47.41,38.78,47.45,38.65,47.45z"/>
					</g>
				</g>
			</g>
		</mask>
		<g class="st26">
			<g>
				<path class="st14" d="M25.39,26.48c-0.11,0-0.23-0.03-0.34-0.09c-0.34-0.19-0.46-0.61-0.27-0.94c2.08-3.75,6.17-8.05,11.43-8.87
					c3.28-0.51,6.81,0.32,9.44,2.22c0.31,0.22,0.38,0.66,0.16,0.97c-0.22,0.31-0.66,0.38-0.97,0.16c-2.31-1.66-5.53-2.42-8.42-1.97
					c-4.76,0.74-8.51,4.71-10.43,8.17C25.87,26.35,25.63,26.48,25.39,26.48z"/>
			</g>
			<g>
				<path class="st14" d="M37.58,60.28c-0.84,0-1.69-0.07-2.55-0.22c-5.56-0.95-10.32-4.7-12.43-9.79C20,44,20.35,35.72,23.56,27.56
					c0.14-0.36,0.54-0.53,0.9-0.39c0.36,0.14,0.53,0.54,0.39,0.9c-3.08,7.82-3.43,15.72-0.97,21.67c1.93,4.66,6.29,8.09,11.39,8.96
					c4.01,0.68,7.79-0.41,10.92-3.17c4.38-3.86,7.03-10.6,6.76-17.18c-0.55-12.99-6.28-16.61-6.34-16.65
					c-0.33-0.2-0.43-0.62-0.24-0.95c0.2-0.33,0.62-0.44,0.95-0.24c0.26,0.16,6.43,3.96,7.01,17.78c0.29,6.98-2.54,14.16-7.22,18.28
					C44.32,59.02,41.07,60.28,37.58,60.28z"/>
			</g>
			<g>
				<path class="st14" d="M28.09,53.42c-0.19,0-0.38-0.08-0.51-0.23c-4.75-5.23-4.21-12.9-3.39-18.22
					c1.19-7.68,6.59-15.84,14.26-15.84c0,0,0,0,0,0c7.36,0,10.89,7.76,11.04,8.09c0.16,0.35,0,0.76-0.35,0.91
					c-0.35,0.16-0.76,0-0.92-0.35c-0.03-0.07-3.32-7.27-9.77-7.27c-6.65,0-11.78,7.45-12.89,14.66c-0.78,5.03-1.31,12.28,3.05,17.07
					c0.26,0.28,0.24,0.72-0.05,0.98C28.42,53.37,28.26,53.42,28.09,53.42z"/>
			</g>
			<g>
				<path class="st14" d="M49.68,48.18c-0.08,0-0.16-0.01-0.24-0.04c-0.36-0.13-0.54-0.53-0.41-0.89
					c3.41-9.35,0.08-17.18,0.05-17.26c-0.15-0.35,0.01-0.76,0.36-0.91c0.35-0.15,0.76,0.01,0.91,0.36c0.15,0.34,3.59,8.4-0.02,18.29
					C50.23,48.01,49.96,48.18,49.68,48.18z"/>
			</g>
			<g>
				<path class="st14" d="M37.06,57.84c-2.98,0-5.53-1.03-7.76-3.11c-0.28-0.26-0.29-0.7-0.03-0.98c0.26-0.28,0.7-0.29,0.98-0.03
					c2.72,2.54,5.88,3.28,9.95,2.35c5.62-1.28,7.72-6.53,7.74-6.58c0.14-0.36,0.54-0.53,0.9-0.4c0.36,0.14,0.53,0.54,0.4,0.89
					c-0.09,0.24-2.37,5.98-8.72,7.43C39.3,57.7,38.15,57.84,37.06,57.84z"/>
			</g>
			<g>
				<path class="st14" d="M37.17,55.19c-1.43,0-2.85-0.35-4.21-1.07c-4.73-2.49-7.33-8.77-6.47-15.63c0.05-0.38,0.4-0.65,0.77-0.6
					c0.38,0.05,0.65,0.39,0.6,0.77c-0.91,7.27,2.23,12.39,5.74,14.23c3.1,1.63,6.63,1.01,9.69-1.7c5.14-4.56,5.91-13.77,3.69-20.03
					c-0.92-2.59-3.16-6.96-7.92-7.17c-8.2-0.38-10.93,12.3-10.95,12.43c-0.08,0.37-0.44,0.61-0.82,0.54
					c-0.37-0.08-0.62-0.44-0.54-0.82c0.12-0.57,3-13.96,12.37-13.53c4.07,0.18,7.4,3.14,9.16,8.1c2.37,6.7,1.5,16.59-4.08,21.53
					C42.02,54.19,39.58,55.19,37.17,55.19z"/>
			</g>
			<g>
				<path class="st14" d="M37.42,52.8c-0.36,0-0.67-0.28-0.69-0.65c-0.02-0.38,0.27-0.71,0.65-0.73c0.38-0.02,8.71-0.71,8.34-12.55
					c-0.15-4.88-1.33-8.3-3.5-10.16c-1.87-1.6-3.9-1.49-4.49-1.42c-4.47,0.55-6.64,6.74-7.22,10.3c-0.42,2.59-1.29,11.2,5.15,13.48
					c0.36,0.13,0.55,0.52,0.42,0.89c-0.13,0.36-0.52,0.55-0.89,0.42c-7.46-2.65-6.52-12.16-6.06-15.01
					c0.8-4.9,3.48-10.84,8.42-11.45c0.72-0.09,3.26-0.23,5.56,1.74c2.48,2.12,3.82,5.88,3.98,11.17
					c0.41,13.24-9.55,13.97-9.65,13.98C37.44,52.8,37.43,52.8,37.42,52.8z"/>
			</g>
			<g>
				<path class="st14" d="M37.15,50.05c-0.37,0-0.67-0.29-0.69-0.66c-0.02-0.38,0.28-0.71,0.66-0.72c0.24-0.01,5.79-0.42,5.79-8.38
					c0-4.32-0.97-7.55-2.74-9.09c-0.84-0.73-1.82-1.05-2.83-0.91c-1.21,0.16-4.23,3.22-4.68,7.64c-0.04,0.38-0.38,0.65-0.76,0.62
					c-0.38-0.04-0.66-0.38-0.62-0.76c0.5-4.93,3.86-8.61,5.87-8.88c1.4-0.19,2.8,0.25,3.93,1.24c1.46,1.28,3.21,4.08,3.21,10.13
					c0,9.32-7.04,9.76-7.11,9.76C37.17,50.05,37.16,50.05,37.15,50.05z"/>
			</g>
			<g>
				<path class="st14" d="M35.15,49.5c-0.1,0-0.21-0.02-0.31-0.07c-4.47-2.23-3.71-8.94-3.67-9.22c0.05-0.38,0.4-0.65,0.77-0.6
					c0.38,0.05,0.65,0.39,0.6,0.77c-0.01,0.06-0.68,6.02,2.91,7.81c0.34,0.17,0.48,0.59,0.31,0.93
					C35.65,49.36,35.41,49.5,35.15,49.5z"/>
			</g>
			<g>
				<path class="st14" d="M38.65,47.45c-0.23,0-0.45-0.11-0.58-0.31c-0.21-0.32-0.12-0.75,0.2-0.96c1.42-0.94,2.13-3.25,2.32-5.1
					c0.25-2.41-0.26-5.88-1.52-7.28c-0.34-0.38-0.71-0.57-1.11-0.57c-1.34,0-2.93,3.58-3.31,5.89c-0.44,2.69,0.27,5.47,1.21,6.15
					c0.24,0.17,0.47,0.19,0.76,0.04c0.8-0.41,1.4-1.79,1.59-3.69c0.23-2.24-0.16-4.18-0.5-4.79c-1.26,1.57-1.11,5.15-0.54,6.4
					c0.16,0.35,0.01,0.76-0.34,0.92c-0.35,0.16-0.76,0.01-0.92-0.34c-0.73-1.59-0.98-5.93,0.83-7.98c0.55-0.62,1.11-0.52,1.33-0.44
					c1.13,0.38,1.45,2.55,1.54,3.81c0.2,2.73-0.3,6.3-2.38,7.35c-0.76,0.39-1.54,0.33-2.2-0.16c-1.67-1.22-2.2-4.77-1.76-7.5
					c0.23-1.4,1.78-7.06,4.68-7.06c0.8,0,1.54,0.35,2.14,1.02c1.79,1.99,2.09,6.18,1.87,8.35c-0.14,1.35-0.71,4.64-2.94,6.11
					C38.91,47.41,38.78,47.45,38.65,47.45z"/>
			</g>
		</g>
	</g>
</g>
</svg>
