<?xml version="1.0" encoding="utf-8"?>
<!-- Generator: Adobe Illustrator 23.1.1, SVG Export Plug-In . SVG Version: 6.00 Build 0)  -->
<svg version="1.1" id="Capa_1" xmlns="http://www.w3.org/2000/svg" xmlns:xlink="http://www.w3.org/1999/xlink" x="0px" y="0px"
	 viewBox="0 0 75 80" style="enable-background:new 0 0 75 80;" xml:space="preserve">
<style type="text/css">
	.st0{fill:#74CBF3;}
	.st1{fill:#28348A;}
	.st2{fill:#FFFFFF;}
</style>
<g>
	<g>
		<path class="st0" d="M58.58,24.71c-0.96-5.79-5.99-10.2-12.05-10.2c-1.84,0-3.58,0.41-5.14,1.13c-2.07-3.79-6.1-6.35-10.72-6.35
			c-6.75,0-12.21,5.47-12.21,12.21c0,1.08,0.14,2.13,0.4,3.13c-4.59,1.44-7.94,5.75-7.94,10.8v0c0,6.22,5.09,11.31,11.31,11.31
			h32.73c6.22,0,11.31-5.09,11.31-11.31v0C66.29,30.47,63.05,26.22,58.58,24.71z"/>
		<path class="st1" d="M54.98,47.64H22.24c-6.73,0-12.21-5.48-12.21-12.21c0-2.64,0.84-5.16,2.43-7.29
			c1.37-1.83,3.25-3.26,5.36-4.09c-0.17-0.84-0.25-1.69-0.25-2.55c0-7.23,5.88-13.11,13.11-13.11c4.52,0,8.7,2.32,11.09,6.12
			c1.52-0.59,3.12-0.89,4.77-0.89c3.12,0,6.15,1.12,8.52,3.14c2.21,1.89,3.73,4.46,4.32,7.28c4.7,1.82,7.81,6.33,7.81,11.39
			C67.19,42.16,61.71,47.64,54.98,47.64z M30.68,10.19c-6.24,0-11.32,5.08-11.32,11.32c0,0.98,0.13,1.96,0.38,2.9
			c0.12,0.46-0.14,0.94-0.6,1.08c-2.07,0.65-3.93,1.98-5.24,3.73c-1.36,1.81-2.07,3.96-2.07,6.21c0,5.74,4.67,10.42,10.42,10.42
			h32.73c5.74,0,10.42-4.67,10.42-10.42c0-4.46-2.85-8.43-7.1-9.87c-0.31-0.11-0.54-0.38-0.6-0.7c-0.43-2.61-1.79-5-3.81-6.73
			c-2.05-1.75-4.66-2.71-7.35-2.71c-1.66,0-3.26,0.35-4.76,1.05c-0.43,0.2-0.94,0.03-1.16-0.38C38.62,12.44,34.82,10.19,30.68,10.19
			z"/>
	</g>
	<g>
		<circle class="st2" cx="26.53" cy="36.83" r="2.41"/>
		<path class="st1" d="M26.53,40.14c-1.83,0-3.31-1.48-3.31-3.31c0-1.83,1.48-3.31,3.31-3.31s3.31,1.48,3.31,3.31
			C29.84,38.65,28.36,40.14,26.53,40.14z M26.53,35.31c-0.84,0-1.52,0.68-1.52,1.52c0,0.84,0.68,1.52,1.52,1.52s1.52-0.68,1.52-1.52
			C28.05,35.99,27.37,35.31,26.53,35.31z"/>
	</g>
	<g>
		<circle class="st2" cx="32.9" cy="25.17" r="2.41"/>
		<path class="st1" d="M32.9,28.48c-1.83,0-3.31-1.48-3.31-3.31s1.48-3.31,3.31-3.31c1.83,0,3.31,1.48,3.31,3.31
			S34.72,28.48,32.9,28.48z M32.9,23.66c-0.84,0-1.52,0.68-1.52,1.52c0,0.84,0.68,1.52,1.52,1.52s1.52-0.68,1.52-1.52
			C34.41,24.34,33.73,23.66,32.9,23.66z"/>
	</g>
	<g>
		<circle class="st2" cx="50.69" cy="32.21" r="2.41"/>
		<path class="st1" d="M50.69,35.52c-1.83,0-3.31-1.48-3.31-3.31c0-1.83,1.48-3.31,3.31-3.31c1.83,0,3.31,1.48,3.31,3.31
			C54,34.03,52.51,35.52,50.69,35.52z M50.69,30.69c-0.84,0-1.52,0.68-1.52,1.52c0,0.84,0.68,1.52,1.52,1.52
			c0.84,0,1.52-0.68,1.52-1.52C52.2,31.37,51.52,30.69,50.69,30.69z"/>
	</g>
	<g>
		<path class="st1" d="M26.53,70.32c-0.5,0-0.9-0.4-0.9-0.9V39.24c0-0.5,0.4-0.9,0.9-0.9s0.9,0.4,0.9,0.9v30.19
			C27.43,69.92,27.03,70.32,26.53,70.32z"/>
	</g>
	<g>
		<path class="st1" d="M44.04,40.14c-0.21,0-0.42-0.07-0.59-0.22c-0.37-0.33-0.41-0.89-0.08-1.27l4.23-4.83
			c0.33-0.37,0.89-0.41,1.27-0.08c0.37,0.33,0.41,0.89,0.08,1.27l-4.23,4.83C44.54,40.03,44.29,40.14,44.04,40.14z"/>
	</g>
	<g>
		<path class="st1" d="M44.04,70.32c-0.5,0-0.9-0.4-0.9-0.9V39.24c0-0.5,0.4-0.9,0.9-0.9c0.5,0,0.9,0.4,0.9,0.9v30.19
			C44.94,69.92,44.54,70.32,44.04,70.32z"/>
	</g>
	<g>
		<path class="st1" d="M35.31,32.15c-0.39,0-0.75-0.25-0.86-0.64l-1.18-4.01c-0.14-0.48,0.13-0.97,0.61-1.11
			c0.47-0.14,0.97,0.13,1.11,0.61L36.17,31c0.14,0.48-0.13,0.97-0.61,1.11C35.48,32.14,35.39,32.15,35.31,32.15z"/>
	</g>
	<g>
		<path class="st1" d="M35.31,70.32c-0.5,0-0.9-0.4-0.9-0.9V31.25c0-0.5,0.4-0.9,0.9-0.9c0.5,0,0.9,0.4,0.9,0.9v38.17
			C36.21,69.92,35.8,70.32,35.31,70.32z"/>
	</g>
</g>
</svg>
