<?xml version="1.0" encoding="utf-8"?>
<!-- Generator: Adobe Illustrator 23.1.1, SVG Export Plug-In . SVG Version: 6.00 Build 0)  -->
<svg version="1.1" id="Capa_1" xmlns="http://www.w3.org/2000/svg" xmlns:xlink="http://www.w3.org/1999/xlink" x="0px" y="0px"
	 viewBox="0 0 125 113" style="enable-background:new 0 0 125 113;" xml:space="preserve">
<style type="text/css">
	.st0{fill:#74CBF3;}
	.st1{fill:#28348A;}
</style>
<g>
	<g>
		<g>
			<path class="st0" d="M53.63,79.54H51v-1.32h2.63V79.54z M48.37,79.54h-2.63v-1.32h2.63V79.54z M43.1,79.54h-2.63v-1.32h2.63
				V79.54z M64.46,75.52l-0.94-0.92l1.85-1.88l0.94,0.92L64.46,75.52z M85.81,72.98H84.5v-2.63h1.32V72.98z M68.16,71.77l-0.94-0.92
				l1.85-1.87L70,69.89L68.16,71.77z M34.95,73.15h-1.32v-2.63h1.32V73.15z M71.85,68.01l-0.94-0.92l1.85-1.88l0.94,0.92
				L71.85,68.01z M85.81,67.71H84.5v-2.63h1.32V67.71z M34.95,67.88h-1.32v-2.63h1.32V67.88z M75.55,64.26l-0.94-0.92l1.85-1.87
				l0.94,0.92L75.55,64.26z M85.81,62.45H84.5v-2.63h1.32V62.45z M79.25,60.51l-0.94-0.92l1.85-1.88l0.94,0.92L79.25,60.51z
				 M34.95,62.61h-1.32v-2.63h1.32V62.61z M53.33,54.11H50.7v-1.32h2.63V54.11z M48.06,54.11h-2.63v-1.32h2.63V54.11z M42.8,54.11
				h-2.63v-1.32h2.63V54.11z M64.54,49.91l-0.93-0.93l1.86-1.86l0.93,0.93L64.54,49.91z M68.27,46.18l-0.93-0.93l1.86-1.86
				l0.93,0.93L68.27,46.18z M71.99,42.46l-0.93-0.93l1.86-1.86l0.93,0.93L71.99,42.46z M75.72,38.73l-0.93-0.93l1.86-1.86l0.93,0.93
				L75.72,38.73z M79.44,35.01l-0.93-0.93l1.86-1.86l0.93,0.93L79.44,35.01z M78.79,28.67h-2.63v-1.32h2.63V28.67z M73.52,28.67
				h-2.63v-1.32h2.63V28.67z M68.26,28.67h-2.63v-1.32h2.63V28.67z M53.36,28.67h-2.63v-1.32h2.63V28.67z M48.09,28.67h-2.63v-1.32
				h2.63V28.67z M42.82,28.67h-2.63v-1.32h2.63V28.67z"/>
		</g>
		<path class="st1" d="M37.83,28.02c0,1.95-1.58,3.54-3.54,3.54s-3.54-1.58-3.54-3.54s1.58-3.54,3.54-3.54S37.83,26.06,37.83,28.02z
			"/>
		<path class="st1" d="M63.26,28.02c0,1.95-1.58,3.54-3.54,3.54s-3.54-1.58-3.54-3.54s1.58-3.54,3.54-3.54S63.26,26.06,63.26,28.02z
			"/>
		<circle class="st1" cx="85.15" cy="28.02" r="3.54"/>
		<path class="st1" d="M34.29,56.99c-1.95,0-3.54-1.58-3.54-3.54s1.58-3.54,3.54-3.54s3.54,1.58,3.54,3.54S36.25,56.99,34.29,56.99z
			"/>
		<path class="st1" d="M34.29,82.42c-1.95,0-3.54-1.58-3.54-3.54s1.58-3.54,3.54-3.54s3.54,1.58,3.54,3.54S36.25,82.42,34.29,82.42z
			"/>
		<path class="st1" d="M59.72,56.99c-1.95,0-3.54-1.58-3.54-3.54s1.58-3.54,3.54-3.54s3.54,1.58,3.54,3.54S61.68,56.99,59.72,56.99z
			"/>
		<path class="st1" d="M59.72,82.42c-1.95,0-3.54-1.58-3.54-3.54s1.58-3.54,3.54-3.54s3.54,1.58,3.54,3.54S61.68,82.42,59.72,82.42z
			"/>
		
			<ellipse transform="matrix(0.3827 -0.9239 0.9239 0.3827 3.1892 111.6666)" class="st1" cx="85.15" cy="53.45" rx="3.54" ry="3.54"/>
		<path class="st1" d="M85.15,82.42c-1.95,0-3.54-1.58-3.54-3.54s1.58-3.54,3.54-3.54s3.54,1.58,3.54,3.54S87.11,82.42,85.15,82.42z
			"/>
	</g>
	<g>
		<polygon class="st0" points="88.42,12 88.42,15.74 97.43,15.74 97.43,24.05 101.17,24.05 101.17,12 		"/>
		<polygon class="st0" points="18.28,12 18.28,24.05 22.02,24.05 22.02,15.74 31.03,15.74 31.03,12 		"/>
		<polygon class="st0" points="97.43,91.15 88.42,91.15 88.42,94.89 101.17,94.89 101.17,82.84 97.43,82.84 		"/>
		<polygon class="st0" points="22.02,91.15 22.02,82.84 18.28,82.84 18.28,94.89 31.03,94.89 31.03,91.15 		"/>
	</g>
</g>
</svg>
