<?xml version="1.0" encoding="utf-8"?>
<!-- Generator: Adobe Illustrator 23.1.1, SVG Export Plug-In . SVG Version: 6.00 Build 0)  -->
<svg version="1.1" id="Capa_1" xmlns="http://www.w3.org/2000/svg" xmlns:xlink="http://www.w3.org/1999/xlink" x="0px" y="0px"
	 viewBox="0 0 89 93" style="enable-background:new 0 0 89 93;" xml:space="preserve">
<style type="text/css">
	.st0{fill:url(#SVGID_1_);}
	.st1{fill:url(#SVGID_2_);}
	.st2{fill:url(#SVGID_3_);}
	.st3{fill:url(#SVGID_4_);}
	.st4{fill:url(#SVGID_5_);}
	.st5{fill:url(#SVGID_6_);}
</style>
<g>
	<g>
		<g>
			<linearGradient id="SVGID_1_" gradientUnits="userSpaceOnUse" x1="5.3457" y1="46.8085" x2="84.7398" y2="46.8085">
				<stop  offset="0" style="stop-color:#047CFF"/>
				<stop  offset="1" style="stop-color:#7F5EFF"/>
			</linearGradient>
			<path class="st0" d="M82.82,61.38c-1.43-0.83-3.18-0.61-4.38,0.4l-8.46-5.12c0.45-1.07,0.7-2.24,0.7-3.46
				c0-4.48-3.31-8.2-7.67-8.84c0-0.03,0-0.07,0-0.1c0-1.4-0.23-2.74-0.65-4l16.04-8.46c0.7,0.61,1.59,0.96,2.51,0.96
				c0.65,0,1.31-0.16,1.91-0.51c1.83-1.06,2.46-3.41,1.4-5.24c-1.06-1.83-3.41-2.46-5.24-1.4c-1.43,0.82-2.11,2.43-1.85,3.97
				l-15.82,8.35c-2.21-3.84-6.34-6.44-11.08-6.44c-1.32,0-2.61,0.22-3.83,0.6V14.62c1.48-0.53,2.56-1.93,2.56-3.6
				c0-2.11-1.72-3.83-3.83-3.83c-2.11,0-3.83,1.72-3.83,3.83c0,1.66,1.07,3.07,2.56,3.6V33.2c-1.36,0.79-2.59,1.82-3.6,3.09
				c-1.26-0.65-2.64-0.98-4.07-0.98c-2.81,0-5.32,1.3-6.96,3.33l-16.28-9.05c0.27-1.55-0.41-3.17-1.84-4
				c-1.83-1.06-4.18-0.43-5.24,1.4s-0.43,4.18,1.4,5.24c0.6,0.35,1.26,0.51,1.91,0.51c0.91,0,1.79-0.34,2.49-0.94l16.25,9.03
				c-0.44,1.05-0.68,2.2-0.68,3.41c0,0.03,0,0.06,0,0.09c-4.33,0.62-7.67,4.36-7.67,8.86c0,1.22,0.25,2.39,0.7,3.46l-8.61,5.13
				c-1.2-1.01-2.95-1.23-4.38-0.4c-1.83,1.06-2.46,3.41-1.4,5.24c0.71,1.23,2,1.92,3.33,1.92c0.65,0,1.31-0.16,1.91-0.51
				c1.45-0.83,2.13-2.47,1.84-4.03l8.64-5.15c1.64,2.01,4.14,3.3,6.93,3.3h15.34v16.85c-1.48,0.53-2.56,1.93-2.56,3.6
				c0,2.11,1.72,3.83,3.83,3.83c2.11,0,3.83-1.72,3.83-3.83c0-1.66-1.07-3.07-2.56-3.6V62.14h15.34c2.79,0,5.28-1.29,6.93-3.29
				l8.49,5.14c-0.29,1.56,0.39,3.2,1.83,4.03c0.6,0.35,1.26,0.51,1.91,0.51c1.33,0,2.62-0.69,3.33-1.92
				C85.28,64.79,84.65,62.44,82.82,61.38z M80.27,27.81c0.2-0.12,0.42-0.17,0.64-0.17c0.44,0,0.87,0.23,1.11,0.64
				c0.35,0.61,0.14,1.39-0.47,1.75c-0.61,0.35-1.39,0.14-1.75-0.47C79.45,28.94,79.66,28.16,80.27,27.81z M10.29,29.56
				c-0.35,0.61-1.14,0.82-1.75,0.47c-0.61-0.35-0.82-1.13-0.47-1.75c0.24-0.41,0.67-0.64,1.11-0.64c0.22,0,0.44,0.05,0.64,0.17
				C10.43,28.16,10.64,28.94,10.29,29.56z M9.82,65.81c-0.61,0.35-1.39,0.14-1.74-0.47c-0.35-0.61-0.14-1.39,0.47-1.75
				c0.2-0.12,0.42-0.17,0.64-0.17c0.44,0,0.87,0.23,1.11,0.64C10.64,64.67,10.43,65.45,9.82,65.81z M45.12,9.75
				c0.7,0,1.28,0.57,1.28,1.28s-0.57,1.28-1.28,1.28c-0.7,0-1.28-0.57-1.28-1.28S44.42,9.75,45.12,9.75z M45.12,83.87
				c-0.7,0-1.28-0.57-1.28-1.28s0.57-1.28,1.28-1.28c0.7,0,1.28,0.57,1.28,1.28C46.4,83.3,45.83,83.87,45.12,83.87z M61.74,59.59
				H28.51c-3.52,0-6.39-2.87-6.39-6.39c0-3.52,2.87-6.39,6.35-6.39l1.67,0.03l-0.26-1.52c-0.07-0.39-0.1-0.74-0.1-1.07
				c0-3.52,2.87-6.39,6.39-6.39c1.32,0,2.59,0.41,3.68,1.17l1.09,0.77l0.72-1.11c1.9-2.92,5.1-4.66,8.57-4.66
				c5.64,0,10.22,4.59,10.22,10.22c0,0.39-0.03,0.77-0.07,1.14l-0.08,1.41h1.43c3.52,0,6.39,2.87,6.39,6.39
				C68.13,56.72,65.26,59.59,61.74,59.59z M82.01,65.34c-0.35,0.61-1.14,0.82-1.75,0.47c-0.61-0.35-0.82-1.13-0.47-1.75
				c0.24-0.41,0.67-0.64,1.11-0.64c0.22,0,0.44,0.05,0.64,0.17C82.16,63.95,82.37,64.73,82.01,65.34z"/>
		</g>
	</g>
	<g>
		<g>
			<linearGradient id="SVGID_2_" gradientUnits="userSpaceOnUse" x1="50.2344" y1="40.4185" x2="57.9024" y2="40.4185">
				<stop  offset="0" style="stop-color:#047CFF"/>
				<stop  offset="1" style="stop-color:#7F5EFF"/>
			</linearGradient>
			<path class="st1" d="M50.23,36.58v2.56c2.82,0,5.11,2.29,5.11,5.11h2.56C57.9,40.02,54.46,36.58,50.23,36.58z"/>
		</g>
	</g>
	<g>
		<g>
			<linearGradient id="SVGID_3_" gradientUnits="userSpaceOnUse" x1="61.7364" y1="53.1985" x2="65.5704" y2="53.1985">
				<stop  offset="0" style="stop-color:#047CFF"/>
				<stop  offset="1" style="stop-color:#7F5EFF"/>
			</linearGradient>
			<path class="st2" d="M61.74,49.36v2.56c0.7,0,1.28,0.57,1.28,1.28c0,0.7-0.57,1.28-1.28,1.28v2.56c2.11,0,3.83-1.72,3.83-3.83
				C65.57,51.08,63.85,49.36,61.74,49.36z"/>
		</g>
	</g>
	<g>
		<g>
			<linearGradient id="SVGID_4_" gradientUnits="userSpaceOnUse" x1="56.6244" y1="55.7545" x2="59.1804" y2="55.7545">
				<stop  offset="0" style="stop-color:#047CFF"/>
				<stop  offset="1" style="stop-color:#7F5EFF"/>
			</linearGradient>
			<rect x="56.62" y="54.48" class="st3" width="2.56" height="2.56"/>
		</g>
	</g>
	<g>
		<g>
			<linearGradient id="SVGID_5_" gradientUnits="userSpaceOnUse" x1="34.8984" y1="55.7545" x2="46.4004" y2="55.7545">
				<stop  offset="0" style="stop-color:#047CFF"/>
				<stop  offset="1" style="stop-color:#7F5EFF"/>
			</linearGradient>
			<rect x="34.9" y="54.48" class="st4" width="11.5" height="2.56"/>
		</g>
	</g>
	<g>
		<g>
			<linearGradient id="SVGID_6_" gradientUnits="userSpaceOnUse" x1="29.7864" y1="55.7545" x2="32.3424" y2="55.7545">
				<stop  offset="0" style="stop-color:#047CFF"/>
				<stop  offset="1" style="stop-color:#7F5EFF"/>
			</linearGradient>
			<rect x="29.79" y="54.48" class="st5" width="2.56" height="2.56"/>
		</g>
	</g>
</g>
</svg>
