<?xml version="1.0" encoding="utf-8"?>
<!-- Generator: Adobe Illustrator 23.1.1, SVG Export Plug-In . SVG Version: 6.00 Build 0)  -->
<svg version="1.1" id="Capa_1" xmlns="http://www.w3.org/2000/svg" xmlns:xlink="http://www.w3.org/1999/xlink" x="0px" y="0px"
	 viewBox="0 0 70 73" style="enable-background:new 0 0 70 73;" xml:space="preserve">
<style type="text/css">
	.st0{fill:#3BC9FF;}
</style>
<g>
	<g>
		<g>
			<g>
				<g>
					<path class="st0" d="M35.48,62.98c-3.15,0-6.23-0.55-9.16-1.63c-0.26-0.1-0.39-0.38-0.3-0.64c0.1-0.26,0.38-0.39,0.64-0.3
						c2.82,1.04,5.78,1.57,8.81,1.57c2.25,0,4.48-0.29,6.64-0.88c0.27-0.07,0.54,0.09,0.61,0.35c0.07,0.27-0.09,0.54-0.35,0.61
						C40.14,62.67,37.82,62.98,35.48,62.98z M44.79,61.26c-0.2,0-0.39-0.12-0.47-0.32c-0.1-0.26,0.03-0.55,0.29-0.65
						c4.94-1.9,9.12-5.24,12.07-9.67c0.15-0.23,0.46-0.29,0.69-0.14c0.23,0.15,0.29,0.46,0.14,0.69c-3.07,4.6-7.41,8.07-12.55,10.04
						C44.91,61.25,44.85,61.26,44.79,61.26z M24.04,60.33c-0.07,0-0.15-0.02-0.22-0.05c-4.95-2.43-8.96-6.28-11.6-11.12
						c-0.13-0.24-0.04-0.55,0.2-0.68c0.24-0.13,0.55-0.04,0.68,0.2c2.51,4.59,6.47,8.4,11.17,10.7c0.25,0.12,0.35,0.42,0.23,0.67
						C24.4,60.23,24.23,60.33,24.04,60.33z M58.46,49.11c-0.08,0-0.16-0.02-0.23-0.06c-0.24-0.13-0.34-0.43-0.21-0.68
						c1.92-3.63,2.93-7.74,2.93-11.87c0-1.12-0.07-2.25-0.22-3.35c-0.04-0.27,0.16-0.53,0.43-0.56c0.28-0.04,0.53,0.16,0.56,0.43
						c0.15,1.15,0.23,2.32,0.23,3.48c0,4.3-1.05,8.56-3.05,12.34C58.82,49.02,58.64,49.11,58.46,49.11z M11.5,47.01
						c-0.2,0-0.38-0.12-0.46-0.31C9.69,43.47,9,40.04,9,36.5c0-1.96,0.22-3.91,0.64-5.81c0.06-0.27,0.33-0.44,0.6-0.38
						c0.27,0.06,0.44,0.33,0.38,0.6C10.21,32.74,10,34.62,10,36.5c0,3.4,0.66,6.7,1.96,9.82c0.11,0.25-0.01,0.55-0.27,0.66
						C11.63,47,11.57,47.01,11.5,47.01z M35.48,42.99c-3.58,0-6.49-2.91-6.49-6.48c0-2.42,1.33-4.62,3.47-5.75
						c0.24-0.13,0.55-0.03,0.68,0.21c0.13,0.24,0.03,0.55-0.21,0.68c-1.81,0.95-2.94,2.81-2.94,4.86c0,3.02,2.46,5.48,5.49,5.48
						l0.1,0c0,0,0.01,0,0.01,0c0.27,0,0.5,0.22,0.5,0.49c0.01,0.28-0.22,0.5-0.49,0.51L35.48,42.99z M38.16,42.35
						c-0.18,0-0.36-0.1-0.45-0.28c-0.12-0.25-0.02-0.55,0.22-0.67c1.87-0.94,3.02-2.81,3.02-4.9c0-3.03-2.46-5.49-5.48-5.49
						c-0.07,0-0.14,0-0.21,0c-0.28,0-0.51-0.21-0.52-0.48c-0.01-0.28,0.21-0.51,0.48-0.52c0.08,0,0.16,0,0.24,0
						c3.57,0,6.48,2.91,6.48,6.49c0,2.47-1.37,4.69-3.58,5.8C38.31,42.34,38.24,42.35,38.16,42.35z M20.44,42.35
						c-0.1,0-0.2-0.03-0.29-0.09l-7.53-5.35c-0.13-0.09-0.21-0.25-0.21-0.41c0-0.16,0.08-0.31,0.21-0.41l5.54-3.93
						c0.23-0.16,0.54-0.11,0.7,0.12c0.16,0.23,0.11,0.54-0.12,0.7l-4.96,3.52l6.95,4.94c0.23,0.16,0.28,0.47,0.12,0.7
						C20.75,42.28,20.6,42.35,20.44,42.35z M52.51,40.94c-0.16,0-0.31-0.07-0.41-0.21c-0.16-0.23-0.11-0.54,0.12-0.7l4.96-3.52
						l-6.95-4.94c-0.22-0.16-0.28-0.47-0.12-0.7c0.16-0.22,0.47-0.28,0.7-0.12l7.53,5.35c0.13,0.09,0.21,0.25,0.21,0.41
						c0,0.16-0.08,0.31-0.21,0.41l-5.54,3.93C52.71,40.91,52.61,40.94,52.51,40.94z M20.63,31.53c-0.16,0-0.31-0.07-0.41-0.21
						c-0.16-0.22-0.11-0.54,0.12-0.7l3.57-2.54c0.23-0.16,0.54-0.11,0.7,0.12c0.16,0.22,0.11,0.54-0.12,0.7l-3.57,2.54
						C20.83,31.5,20.73,31.53,20.63,31.53z M60.75,30.96c-0.23,0-0.43-0.15-0.49-0.38c-1.23-5.15-3.99-9.73-7.99-13.24
						c-0.21-0.18-0.23-0.5-0.05-0.71c0.18-0.21,0.5-0.23,0.71-0.05c4.16,3.65,7.03,8.41,8.31,13.76c0.06,0.27-0.1,0.54-0.37,0.6
						C60.82,30.96,60.79,30.96,60.75,30.96z M10.84,28.73c-0.05,0-0.11-0.01-0.16-0.03c-0.26-0.09-0.4-0.37-0.32-0.63
						c1.75-5.22,5.04-9.7,9.5-12.96c0.22-0.16,0.54-0.11,0.7,0.11c0.16,0.22,0.11,0.54-0.11,0.7c-4.3,3.14-7.46,7.45-9.14,12.47
						C11.25,28.6,11.05,28.73,10.84,28.73z M50.5,15.81c-0.1,0-0.2-0.03-0.29-0.09c-4.32-3.07-9.41-4.69-14.73-4.69c0,0,0,0,0,0
						c-4.51,0-8.95,1.2-12.83,3.46c-0.24,0.14-0.55,0.06-0.68-0.18c-0.14-0.24-0.06-0.55,0.18-0.68c4.03-2.35,8.64-3.6,13.33-3.6
						c0,0,0,0,0,0c5.53,0,10.82,1.69,15.31,4.88c0.23,0.16,0.28,0.47,0.12,0.7C50.81,15.74,50.66,15.81,50.5,15.81z"/>
				</g>
			</g>
			<g>
				<path class="st0" d="M35.21,48.46c-4.08,0-7.87-1.1-10.67-3.09l-1.43-1.01c-0.23-0.16-0.28-0.47-0.12-0.7
					c0.16-0.23,0.47-0.28,0.7-0.12l1.43,1.01c2.64,1.87,6.22,2.9,10.1,2.9c1.07,0,2.15-0.08,3.21-0.24
					c0.27-0.04,0.53,0.15,0.57,0.42c0.04,0.27-0.15,0.53-0.42,0.57C37.46,48.38,36.33,48.46,35.21,48.46z M41.11,47.66
					c-0.22,0-0.42-0.14-0.48-0.37c-0.07-0.27,0.08-0.54,0.35-0.62c2.06-0.58,3.91-1.44,5.5-2.57l7.95-5.65
					c0.23-0.16,0.54-0.11,0.7,0.12c0.16,0.23,0.11,0.54-0.12,0.7l-7.95,5.65c-1.68,1.19-3.63,2.11-5.81,2.72
					C41.2,47.65,41.15,47.66,41.11,47.66z M21.22,42.91c-0.1,0-0.2-0.03-0.29-0.09l-8.31-5.9c-0.13-0.09-0.21-0.25-0.21-0.41
					c0-0.16,0.08-0.31,0.21-0.41l4.75-3.38c0.22-0.16,0.54-0.11,0.7,0.12c0.16,0.23,0.11,0.54-0.12,0.7l-4.18,2.97L21.51,42
					c0.23,0.16,0.28,0.47,0.12,0.7C21.53,42.83,21.38,42.91,21.22,42.91z M56.89,37.82c-0.16,0-0.31-0.07-0.41-0.21
					c-0.16-0.23-0.11-0.54,0.12-0.7l0.58-0.41l-11.34-8.05c-2.36-1.68-5.56-2.7-9-2.88c-0.28-0.01-0.49-0.25-0.47-0.53
					c0.01-0.28,0.25-0.49,0.53-0.47c3.63,0.19,7.01,1.27,9.53,3.06l11.91,8.46c0.13,0.09,0.21,0.25,0.21,0.41
					c0,0.16-0.08,0.31-0.21,0.41l-1.15,0.82C57.09,37.79,56.99,37.82,56.89,37.82z M19.85,32.08c-0.16,0-0.31-0.07-0.41-0.21
					c-0.16-0.23-0.11-0.54,0.12-0.7l4.35-3.09c2.78-1.98,6.42-3.21,10.25-3.48c0.28-0.01,0.52,0.19,0.53,0.46
					c0.02,0.28-0.19,0.52-0.46,0.53c-3.65,0.25-7.11,1.42-9.74,3.29l-4.35,3.09C20.05,32.05,19.95,32.08,19.85,32.08z"/>
			</g>
			<g>
				<path class="st0" d="M35.21,48.46c-0.54,0-1.09-0.02-1.63-0.06c-0.28-0.02-0.48-0.26-0.46-0.54c0.02-0.28,0.27-0.47,0.54-0.46
					c4.67,0.34,9.45-0.9,12.82-3.29l1.79-1.27c0.23-0.16,0.54-0.11,0.7,0.12c0.16,0.23,0.11,0.54-0.12,0.7l-1.79,1.27
					C43.84,47.2,39.64,48.46,35.21,48.46z M30.97,48.04c-0.03,0-0.07,0-0.1-0.01c-2.39-0.49-4.58-1.41-6.33-2.65l-4.38-3.11
					c-0.08-0.06-0.15-0.14-0.18-0.24c-0.45-1.27-0.75-2.6-0.88-3.96c-0.03-0.28,0.18-0.52,0.45-0.55c0.27-0.02,0.52,0.18,0.55,0.45
					c0.11,1.22,0.37,2.42,0.77,3.57l4.25,3.02c1.64,1.16,3.7,2.02,5.96,2.49c0.27,0.06,0.45,0.32,0.39,0.59
					C31.41,47.87,31.2,48.04,30.97,48.04z M50.6,42.11c-0.05,0-0.11-0.01-0.16-0.03c-0.26-0.09-0.4-0.37-0.31-0.64
					c0.54-1.59,0.81-3.25,0.81-4.94c0-1.73-0.28-3.42-0.84-5.03l-4.25-3.02c-2.63-1.87-6.22-2.9-10.09-2.9
					c-0.79,0-1.59,0.04-2.38,0.13c-0.27,0.04-0.52-0.17-0.55-0.44c-0.03-0.27,0.17-0.52,0.44-0.55c0.83-0.09,1.67-0.14,2.49-0.14
					c4.08,0,7.87,1.1,10.67,3.09l4.38,3.12c0.08,0.06,0.15,0.14,0.18,0.24c0.63,1.76,0.95,3.62,0.95,5.51c0,1.8-0.29,3.57-0.86,5.26
					C51,41.98,50.81,42.11,50.6,42.11z M19.56,35.85c-0.01,0-0.02,0-0.04,0c-0.28-0.02-0.48-0.26-0.46-0.54
					c0.11-1.48,0.41-2.94,0.91-4.32c0.03-0.1,0.1-0.18,0.18-0.24l3.76-2.67c1.87-1.33,4.18-2.34,6.65-2.93
					c0.27-0.06,0.54,0.1,0.6,0.37c0.06,0.27-0.1,0.54-0.37,0.6c-2.35,0.56-4.53,1.52-6.3,2.77l-3.63,2.58
					c-0.43,1.26-0.7,2.57-0.8,3.91C20.04,35.65,19.82,35.85,19.56,35.85z"/>
			</g>
			<g>
				<path class="st0" d="M35.48,42.99c-3.58,0-6.49-2.91-6.49-6.48c0-2.42,1.33-4.62,3.47-5.75c0.24-0.13,0.55-0.03,0.68,0.21
					c0.13,0.24,0.03,0.55-0.21,0.68c-1.81,0.95-2.94,2.81-2.94,4.86c0,3.02,2.46,5.48,5.49,5.48l0.1,0c0,0,0.01,0,0.01,0
					c0.27,0,0.5,0.22,0.5,0.49c0.01,0.28-0.22,0.5-0.49,0.51L35.48,42.99z M38.16,42.35c-0.18,0-0.36-0.1-0.45-0.28
					c-0.12-0.25-0.02-0.55,0.22-0.67c1.87-0.94,3.02-2.81,3.02-4.9c0-3.03-2.46-5.49-5.48-5.49c-0.07,0-0.14,0-0.21,0
					c-0.28,0-0.51-0.21-0.52-0.48c-0.01-0.28,0.21-0.51,0.48-0.52c0.08,0,0.16,0,0.24,0c3.57,0,6.48,2.91,6.48,6.49
					c0,2.47-1.37,4.69-3.58,5.8C38.31,42.34,38.24,42.35,38.16,42.35z"/>
			</g>
			<g>
				<g>
					<path class="st0" d="M35.48,62.98c-3.14,0-6.19-2.13-8.58-5.99c-0.15-0.23-0.07-0.54,0.16-0.69c0.23-0.15,0.54-0.07,0.69,0.16
						c2.2,3.56,4.95,5.52,7.73,5.52c1.64,0,3.23-0.65,4.74-1.93c0.21-0.18,0.53-0.15,0.71,0.06c0.18,0.21,0.15,0.53-0.06,0.71
						C39.18,62.25,37.36,62.98,35.48,62.98z M42.39,59c-0.11,0-0.22-0.04-0.31-0.11c-0.22-0.17-0.25-0.49-0.08-0.7
						c2.52-3.17,4.39-7.97,5.32-13.6c-0.14-0.01-0.28-0.08-0.37-0.21c-0.16-0.23-0.11-0.54,0.12-0.7l0.61-0.43
						c0.16-0.12,0.38-0.12,0.55-0.02c0.17,0.1,0.26,0.3,0.23,0.5c-0.89,6.23-2.91,11.59-5.68,15.08C42.69,58.93,42.54,59,42.39,59z
						 M26.06,54.88c-0.19,0-0.37-0.11-0.45-0.29c-1.46-3.07-2.53-6.83-3.11-10.86c-0.03-0.2,0.06-0.39,0.24-0.5
						c0.17-0.1,0.39-0.1,0.55,0.02l2.65,1.83c0.1,0.06,0.18,0.11,0.27,0.16c0.12,0.07,0.22,0.13,0.32,0.18l0.76,0.38
						c0.25,0.12,0.36,0.42,0.24,0.67c-0.12,0.25-0.41,0.36-0.67,0.24l-0.8-0.4c-0.13-0.07-0.23-0.13-0.33-0.19
						c-0.08-0.04-0.19-0.11-0.31-0.18l-0.86-0.56l-0.88-0.63c0.59,3.49,1.57,6.72,2.84,9.41c0.12,0.25,0.01,0.55-0.24,0.67
						C26.2,54.86,26.13,54.88,26.06,54.88z M35.3,48.46l-0.75-0.01c-0.13,0-0.25-0.01-0.38-0.01l-0.78-0.05
						c-0.1-0.01-0.24-0.02-0.37-0.03l-0.75-0.09c-0.09-0.01-0.2-0.03-0.31-0.04l-0.42-0.07c-0.07-0.01-0.14-0.02-0.21-0.04
						l-0.53-0.1c-0.16-0.04-0.27-0.06-0.38-0.09c-0.1-0.02-0.22-0.05-0.35-0.08c-0.09-0.02-0.21-0.05-0.33-0.08l-0.31-0.08
						c-0.27-0.07-0.43-0.35-0.35-0.61c0.07-0.27,0.34-0.43,0.61-0.35l0.29,0.08c0.13,0.04,0.22,0.06,0.33,0.08
						c0.13,0.04,0.24,0.06,0.35,0.08c0.12,0.03,0.21,0.05,0.3,0.07l1.1,0.2c0.14,0.02,0.24,0.04,0.34,0.05l0.39,0.05l0,0l0.34,0.03
						c0.11,0.01,0.23,0.02,0.34,0.03l0.74,0.05c0.13,0.01,0.23,0.01,0.35,0.01l0.74,0.01l0.74-0.02c0.12,0,0.23-0.01,0.34-0.02
						l1.12-0.08c0.07-0.01,0.18-0.02,0.28-0.04l0.08-0.01c0.12-0.01,0.22-0.03,0.33-0.04l0.39-0.05c0.13-0.02,0.24-0.04,0.34-0.06
						c0.14-0.02,0.26-0.05,0.37-0.07c0.12-0.02,0.21-0.04,0.3-0.06L39.64,47c0.11-0.02,0.22-0.05,0.33-0.08
						c0.13-0.03,0.25-0.05,0.36-0.08l0.13-0.03c0.07-0.02,0.14-0.04,0.22-0.06c0.11-0.03,0.18-0.04,0.24-0.06l0.13-0.04
						c0.08-0.02,0.15-0.04,0.23-0.07l0.79-0.25c0.05-0.02,0.11-0.04,0.18-0.07l0.15-0.06c0.1-0.04,0.19-0.07,0.27-0.1l0.07-0.03
						c0.1-0.04,0.21-0.08,0.32-0.13c0.13-0.05,0.23-0.09,0.33-0.14l0.66-0.29c0.05-0.03,0.12-0.06,0.19-0.1l0.12-0.06
						c0.1-0.05,0.2-0.1,0.29-0.15l0.22-0.12c0.24-0.13,0.55-0.04,0.68,0.21c0.13,0.24,0.04,0.55-0.21,0.68l-0.19,0.1
						c-0.14,0.07-0.24,0.13-0.34,0.18l-0.12,0.06c-0.06,0.03-0.12,0.06-0.18,0.09l-0.7,0.31c-0.12,0.05-0.24,0.1-0.36,0.15
						c-0.1,0.04-0.22,0.09-0.34,0.14l-0.08,0.03c-0.09,0.04-0.19,0.07-0.28,0.1l-1.19,0.39c-0.08,0.02-0.17,0.05-0.26,0.07
						l-0.11,0.03c-0.09,0.03-0.18,0.05-0.27,0.07c-0.05,0.02-0.14,0.04-0.23,0.06l-0.11,0.03c-0.12,0.03-0.25,0.06-0.38,0.09
						c-0.11,0.03-0.23,0.06-0.36,0.08l-0.07,0.01c-0.11,0.02-0.22,0.04-0.32,0.06c-0.1,0.02-0.24,0.05-0.37,0.07
						c-0.09,0.02-0.22,0.04-0.34,0.06l-0.39,0.05c-0.15,0.02-0.27,0.04-0.4,0.05l-0.07,0.01c-0.09,0.01-0.18,0.02-0.26,0.03
						l-1.17,0.09c-0.12,0.01-0.27,0.02-0.4,0.02L35.3,48.46z M47.97,29.84c-0.1,0-0.2-0.03-0.29-0.09l-1.84-1.3
						c-0.09-0.07-0.17-0.12-0.24-0.17c-0.12-0.08-0.21-0.14-0.3-0.2l-0.11-0.07c-0.05-0.03-0.1-0.06-0.15-0.09l-0.3-0.18
						c-0.09-0.05-0.19-0.11-0.28-0.16l-0.6-0.31c-0.05-0.03-0.11-0.05-0.17-0.08l-0.24-0.11c-0.06-0.03-0.13-0.06-0.19-0.08
						l-0.14-0.06c-0.05-0.02-0.1-0.05-0.16-0.07l-1.07-0.39c-0.08-0.03-0.15-0.05-0.23-0.07c-0.13-0.04-0.24-0.07-0.34-0.1
						c-0.13-0.04-0.24-0.07-0.34-0.1l-0.14-0.04c-0.07-0.02-0.14-0.04-0.21-0.06L39.6,25.9c-0.1-0.01-0.23-0.04-0.36-0.06
						l-0.34-0.05c-0.12-0.02-0.22-0.04-0.33-0.04l-0.11-0.01c-0.27-0.04-0.46-0.3-0.42-0.57c0.04-0.27,0.29-0.46,0.57-0.42
						l0.08,0.01c0.1,0.01,0.22,0.03,0.34,0.05l0.38,0.06c0.13,0.03,0.25,0.05,0.36,0.06l1.46,0.33c0.13,0.03,0.25,0.07,0.37,0.11
						c0.1,0.03,0.22,0.06,0.34,0.1c0.07,0.02,0.16,0.05,0.26,0.08l1.1,0.4c0.07,0.02,0.14,0.06,0.22,0.09l0.11,0.05
						c0.07,0.03,0.15,0.06,0.22,0.1l0.24,0.11c0.07,0.03,0.14,0.06,0.21,0.1l0.64,0.33c0.09,0.05,0.2,0.11,0.3,0.17l0.3,0.18
						c0.05,0.03,0.12,0.07,0.18,0.11l0.1,0.06c0.12,0.08,0.22,0.14,0.31,0.21c0.08,0.05,0.19,0.12,0.3,0.2l0.85,0.6
						c-0.25-1.47-0.56-2.89-0.94-4.25c-0.07-0.27,0.08-0.54,0.35-0.62c0.27-0.07,0.54,0.08,0.62,0.35c0.49,1.75,0.88,3.61,1.15,5.54
						c0.03,0.2-0.06,0.39-0.23,0.5C48.15,29.82,48.06,29.84,47.97,29.84z M22.99,29.84c-0.09,0-0.18-0.02-0.26-0.07
						c-0.17-0.1-0.26-0.3-0.24-0.5c0.1-0.73,0.23-1.45,0.36-2.16c0.05-0.27,0.32-0.45,0.59-0.4c0.27,0.05,0.45,0.31,0.4,0.59
						c-0.06,0.31-0.12,0.63-0.17,0.94l0.24-0.17c0.05-0.03,0.1-0.07,0.15-0.1c0.04-0.03,0.09-0.06,0.13-0.09
						c0.1-0.06,0.17-0.11,0.24-0.16l0.5-0.32c0.08-0.05,0.15-0.09,0.23-0.13c0.07-0.04,0.16-0.09,0.25-0.14
						c0.13-0.07,0.21-0.12,0.29-0.16l0.09-0.05c0.02-0.01,0.04-0.02,0.05-0.03c0.05-0.03,0.11-0.06,0.17-0.09l0.11-0.06
						c0.11-0.06,0.23-0.12,0.36-0.17l0.26-0.12c0.03-0.02,0.05-0.03,0.08-0.04c0.1-0.04,0.21-0.09,0.31-0.14l0.43-0.18
						c0.08-0.03,0.17-0.07,0.25-0.11c0.12-0.04,0.2-0.07,0.28-0.1l0.46-0.16c0.11-0.04,0.23-0.08,0.36-0.12
						c0.06-0.02,0.13-0.04,0.2-0.06l0.31-0.1c0.06-0.02,0.12-0.04,0.18-0.06l0.75-0.2c0.02,0,0.03-0.01,0.05-0.01l0.1-0.02
						c0.08-0.02,0.16-0.04,0.24-0.05c0.12-0.02,0.23-0.05,0.34-0.08l1.52-0.27c0.1-0.02,0.22-0.03,0.32-0.04L33,24.72
						c0.11-0.02,0.24-0.03,0.38-0.04l0.68-0.06c0.03-0.01,0.06-0.01,0.08-0.01l0.74-0.04c0.13-0.01,0.27-0.01,0.4-0.01
						c0.1-0.01,0.24-0.01,0.37-0.01h0.37c0.28,0,0.5,0.22,0.5,0.5c0,0.28-0.22,0.5-0.5,0.5h-0.37c-0.11,0-0.23,0-0.34,0.01
						c-0.14,0-0.26,0-0.37,0.01l-0.67,0.04c-0.02,0.01-0.05,0.01-0.07,0.01l-0.72,0.06c-0.12,0.01-0.24,0.02-0.35,0.04l-0.09,0.01
						c-0.09,0.01-0.19,0.02-0.28,0.03L31.32,26c-0.1,0.03-0.23,0.06-0.37,0.08c-0.07,0.01-0.14,0.03-0.2,0.05l-0.14,0.03
						c-0.01,0-0.01,0-0.02,0l-0.69,0.18c-0.04,0.01-0.11,0.04-0.19,0.06l-0.49,0.15c-0.12,0.04-0.23,0.07-0.34,0.11l-0.44,0.15
						c-0.09,0.03-0.18,0.07-0.27,0.1c-0.05,0.03-0.15,0.07-0.24,0.1l-0.42,0.17c-0.07,0.03-0.16,0.07-0.25,0.11
						c-0.02,0.01-0.04,0.02-0.06,0.03l-0.33,0.15c-0.11,0.05-0.2,0.09-0.3,0.15l-0.13,0.07c-0.06,0.03-0.12,0.06-0.18,0.09
						c-0.02,0.01-0.03,0.02-0.05,0.02l-0.04,0.02c-0.07,0.04-0.14,0.08-0.22,0.12l-0.07,0.04c-0.08,0.04-0.15,0.08-0.23,0.13
						c-0.09,0.05-0.15,0.09-0.22,0.13l-0.46,0.29c-0.07,0.05-0.15,0.1-0.23,0.15c-0.02,0.02-0.08,0.06-0.14,0.1l-1.34,0.95
						C23.2,29.81,23.09,29.84,22.99,29.84z M23.93,25.1c-0.04,0-0.08-0.01-0.13-0.02c-0.27-0.07-0.43-0.34-0.36-0.61
						c1.73-6.7,4.83-11.64,8.51-13.56c0.25-0.13,0.55-0.03,0.68,0.21c0.13,0.25,0.03,0.55-0.21,0.68c-3.43,1.79-6.35,6.5-8.01,12.92
						C24.36,24.95,24.16,25.1,23.93,25.1z M46.02,21.83c-0.21,0-0.4-0.13-0.47-0.33c-2.36-6.56-6.13-10.47-10.07-10.47
						c-0.23,0-0.47,0.01-0.7,0.04c-0.27,0.03-0.52-0.17-0.55-0.44c-0.03-0.27,0.17-0.52,0.44-0.55c0.27-0.03,0.54-0.05,0.81-0.05
						c4.38,0,8.5,4.16,11.01,11.13c0.09,0.26-0.04,0.55-0.3,0.64C46.14,21.82,46.08,21.83,46.02,21.83z"/>
				</g>
			</g>
			<g>
				<path class="st0" d="M42.61,26.72c-0.06,0-0.12-0.01-0.17-0.03c-3.97-1.46-9.09-1.49-13.35-0.08c-0.26,0.09-0.55-0.06-0.63-0.32
					c-0.09-0.26,0.06-0.55,0.32-0.63c4.43-1.47,9.74-1.45,13.89,0.05c0.65-0.09,1.29-0.2,1.92-0.32c0.27-0.06,0.53,0.13,0.58,0.4
					c0.05,0.27-0.13,0.53-0.4,0.58c-0.68,0.13-1.39,0.25-2.09,0.35C42.66,26.72,42.63,26.72,42.61,26.72z M26.31,26.38
					c-0.03,0-0.06,0-0.09-0.01c-4.85-0.91-9.03-2.52-12.1-4.64c-0.11-0.08-0.19-0.19-0.21-0.33c-0.02-0.13,0.01-0.27,0.09-0.38
					c0.63-0.88,1.32-1.72,2.06-2.51c0.19-0.2,0.5-0.21,0.71-0.03c0.2,0.19,0.21,0.5,0.03,0.71c-0.59,0.63-1.15,1.31-1.67,2
					c2.91,1.9,6.79,3.35,11.28,4.19c0.27,0.05,0.45,0.31,0.4,0.58C26.75,26.21,26.54,26.38,26.31,26.38z M47.28,25.8
					c-0.22,0-0.43-0.15-0.48-0.38c-0.07-0.27,0.09-0.54,0.36-0.61c3.39-0.87,6.37-2.11,8.68-3.62c-1.05-1.4-2.25-2.69-3.57-3.85
					c-0.21-0.18-0.23-0.5-0.05-0.71c0.18-0.21,0.5-0.23,0.71-0.05c1.5,1.32,2.86,2.81,4.03,4.43c0.08,0.11,0.11,0.25,0.09,0.38
					c-0.02,0.13-0.1,0.25-0.21,0.33c-2.45,1.7-5.71,3.1-9.43,4.05C47.37,25.79,47.32,25.8,47.28,25.8z M18.33,17.49
					c-0.14,0-0.28-0.06-0.38-0.17c-0.18-0.21-0.16-0.52,0.05-0.71c4.15-3.65,9.24-5.88,14.72-6.45c0.28-0.03,0.52,0.17,0.55,0.45
					c0.03,0.28-0.17,0.52-0.45,0.55c-5.27,0.55-10.17,2.69-14.17,6.2C18.57,17.45,18.45,17.49,18.33,17.49z M50.5,15.81
					c-0.1,0-0.2-0.03-0.29-0.09c-4.32-3.07-9.41-4.69-14.73-4.69c-0.28,0-0.52-0.22-0.52-0.5c0-0.28,0.21-0.5,0.48-0.5
					c0.01,0,0.06,0,0.07,0c5.5,0,10.79,1.69,15.28,4.88c0.23,0.16,0.28,0.47,0.12,0.7C50.82,15.74,50.66,15.81,50.5,15.81z"/>
			</g>
			<g>
				<path class="st0" d="M35.49,62.98C35.49,62.98,35.48,62.98,35.49,62.98c-3.48,0-6.85-0.66-10.04-1.97
					c-0.26-0.11-0.38-0.4-0.27-0.65c0.1-0.26,0.4-0.38,0.65-0.27c3.06,1.26,6.31,1.89,9.65,1.89c0,0,0.01,0,0.01,0
					c1.94,0,3.88-0.22,5.76-0.66c0.27-0.06,0.54,0.1,0.6,0.37c0.06,0.27-0.1,0.54-0.37,0.6C39.52,62.75,37.51,62.98,35.49,62.98z
					 M43.93,61.57c-0.21,0-0.4-0.13-0.47-0.34c-0.09-0.26,0.05-0.55,0.31-0.64c4.88-1.68,9.09-4.76,12.17-8.91
					c-0.04-0.14-0.02-0.29,0.07-0.42c0.16-0.23,0.47-0.28,0.7-0.13l0.16,0.11c0.11,0.08,0.19,0.19,0.21,0.33
					c0.02,0.13-0.01,0.27-0.09,0.38c-3.23,4.49-7.69,7.81-12.89,9.6C44.03,61.57,43.98,61.57,43.93,61.57z M23.22,59.91
					c-0.08,0-0.16-0.02-0.24-0.06c-3.54-1.9-6.66-4.63-9.02-7.9c-0.08-0.11-0.11-0.25-0.09-0.38c0.02-0.13,0.1-0.25,0.21-0.33
					c1.09-0.75,2.33-1.45,3.7-2.08c0.25-0.11,0.55,0,0.66,0.25c0.11,0.25,0,0.55-0.25,0.66c-1.14,0.52-2.19,1.09-3.12,1.7
					c2.23,2.96,5.11,5.44,8.37,7.19c0.24,0.13,0.34,0.43,0.2,0.68C23.58,59.81,23.4,59.91,23.22,59.91z M54.12,50.69
					c-0.08,0-0.16-0.02-0.23-0.06c-3.13-1.61-7.05-2.79-11.36-3.4c-1.02,0.36-2.1,0.65-3.23,0.86c-0.02,0-0.03,0.01-0.05,0.01
					l-0.39,0.07c-0.27,0.05-0.53-0.14-0.58-0.41c-0.04-0.27,0.14-0.53,0.41-0.58l0.34-0.06c0.02,0,0.03-0.01,0.05-0.01
					c1.13-0.2,2.21-0.49,3.22-0.86c0.08-0.03,0.16-0.04,0.24-0.03c4.47,0.63,8.55,1.84,11.8,3.52c0.25,0.13,0.34,0.43,0.22,0.67
					C54.47,50.59,54.3,50.69,54.12,50.69z M20.48,49.13c-0.21,0-0.4-0.13-0.47-0.33c-0.09-0.26,0.04-0.55,0.3-0.64
					c2.4-0.85,5.05-1.49,7.87-1.9c0.07-0.01,0.15-0.01,0.23,0.02c0.15,0.06,0.27,0.1,0.38,0.13c0.02,0,0.09,0.03,0.1,0.04
					c0.08,0.02,0.18,0.06,0.29,0.09l0.72,0.21c0.11,0.03,0.23,0.06,0.36,0.09l0.2,0.05c0,0,0.07,0.01,0.07,0.01
					c0.09,0.02,0.17,0.04,0.26,0.06L30.85,47c0.12,0.03,0.17,0.03,0.22,0.04c0.16,0.04,0.28,0.06,0.4,0.08l0.07,0.01
					c0.15,0.03,0.27,0.05,0.38,0.07l0.27,0.04c0.01,0,0.06,0.01,0.07,0.01c0.1,0.01,0.2,0.03,0.3,0.04
					c0.27,0.03,0.47,0.06,0.67,0.08l0.07,0.01c0.34,0.03,0.69,0.05,1.05,0.07c0.26,0.01,0.47,0.01,0.67,0.01l0.68,0
					c0.13,0,0.26,0,0.4-0.01c0.28-0.02,0.51,0.2,0.52,0.48c0.01,0.28-0.2,0.51-0.48,0.52c-0.14,0.01-0.28,0.01-0.43,0.01l-0.63,0
					c-0.28,0-0.5-0.01-0.71-0.01c0,0-0.07,0-0.07,0c-0.37-0.02-0.73-0.04-1.08-0.07l-0.07-0.01c-0.21-0.02-0.43-0.05-0.64-0.07
					c-0.16-0.02-0.28-0.03-0.39-0.05l-0.31-0.05c-0.16-0.03-0.29-0.05-0.42-0.07l-0.06-0.01c-0.17-0.03-0.31-0.06-0.45-0.09
					c-0.07-0.01-0.14-0.03-0.22-0.05l-0.1-0.02c-0.1-0.02-0.2-0.04-0.3-0.07l-0.25-0.06c-0.13-0.03-0.27-0.07-0.4-0.1l-0.74-0.22
					c-0.14-0.05-0.22-0.08-0.3-0.1c-0.02-0.01-0.05-0.02-0.07-0.02c-0.1-0.04-0.2-0.07-0.29-0.1c-2.71,0.4-5.25,1.02-7.55,1.83
					C20.59,49.12,20.53,49.13,20.48,49.13z"/>
			</g>
			<g>
				<path class="st0" d="M61.45,37h-3.41c-0.28,0-0.5-0.22-0.5-0.5c0-0.28,0.22-0.5,0.5-0.5h3.41c0.28,0,0.5,0.22,0.5,0.5
					C61.95,36.78,61.73,37,61.45,37z M12.91,37H9.5C9.22,37,9,36.78,9,36.5C9,36.23,9.22,36,9.5,36h3.41c0.28,0,0.5,0.22,0.5,0.5
					C13.41,36.78,13.19,37,12.91,37z"/>
			</g>
			<g>
				<path class="st0" d="M35.48,62.98c-0.28,0-0.5-0.22-0.5-0.5V47.95c0-0.28,0.22-0.5,0.5-0.5c0.28,0,0.5,0.22,0.5,0.5v14.53
					C35.98,62.75,35.76,62.98,35.48,62.98z M35.48,25.55c-0.28,0-0.5-0.22-0.5-0.5V10.52c0-0.28,0.22-0.5,0.5-0.5
					c0.28,0,0.5,0.22,0.5,0.5v14.52C35.98,25.33,35.76,25.55,35.48,25.55z"/>
			</g>
		</g>
	</g>
</g>
</svg>
