<?xml version="1.0" encoding="utf-8"?>
<!-- Generator: Adobe Illustrator 23.1.1, SVG Export Plug-In . SVG Version: 6.00 Build 0)  -->
<svg version="1.1" id="Capa_1" xmlns="http://www.w3.org/2000/svg" xmlns:xlink="http://www.w3.org/1999/xlink" x="0px" y="0px"
	 viewBox="0 0 98 92" style="enable-background:new 0 0 98 92;" xml:space="preserve">
<style type="text/css">
	.st0{fill:url(#SVGID_1_);}
	.st1{fill:url(#SVGID_2_);}
	.st2{fill:url(#SVGID_3_);}
	.st3{fill:url(#SVGID_4_);}
	.st4{fill:url(#SVGID_5_);}
	.st5{fill:url(#SVGID_6_);}
</style>
<g>
	<linearGradient id="SVGID_1_" gradientUnits="userSpaceOnUse" x1="10.1294" y1="45.617" x2="87.9557" y2="45.617">
		<stop  offset="0" style="stop-color:#047CFF"/>
		<stop  offset="1" style="stop-color:#7F5EFF"/>
	</linearGradient>
	<path class="st0" d="M55.32,55.08v-8.96c3.37,2.1,7.3,3.26,11.3,3.26c11.77,0,21.34-9.57,21.34-21.34S78.38,6.7,66.62,6.7
		c-10.78,0-19.7,8.05-21.12,18.45c-2.31-1.48-4.93-2.52-7.75-3.03v-6.63c0-2.08-1.69-3.77-3.77-3.77H18.92
		c-2.08,0-3.77,1.69-3.77,3.77v10.04c0,1.71,1.16,3.15,2.73,3.6c-3.35,3.86-5.24,8.81-5.24,13.97v11.98
		c-1.54,1.38-2.51,3.38-2.51,5.6c0,4.15,3.38,7.53,7.53,7.53v10.04c0,3.46,2.82,6.28,6.28,6.28h20.08c3.46,0,6.28-2.82,6.28-6.28
		V68.21c4.15,0,7.53-3.38,7.53-7.53C57.83,58.46,56.86,56.46,55.32,55.08z M66.62,9.21c2.8,0,5.34,3,6.96,7.53H59.65
		C61.28,12.21,63.81,9.21,66.62,9.21L66.62,9.21z M74.35,19.26c0.58,2.29,0.94,4.84,1.02,7.53H57.86c0.09-2.69,0.44-5.25,1.02-7.53
		H74.35z M85.38,26.79h-7.5c-0.08-2.69-0.4-5.22-0.94-7.53h6.32C84.46,21.53,85.2,24.08,85.38,26.79L85.38,26.79z M66.62,46.87
		c-2.8,0-5.34-3-6.96-7.53h13.92C71.96,43.88,69.42,46.87,66.62,46.87L66.62,46.87z M54.98,39.34H57c0.83,2.56,1.93,4.76,3.25,6.43
		c-1.75-0.63-3.41-1.54-4.93-2.68C55.32,41.81,55.2,40.56,54.98,39.34L54.98,39.34z M58.89,36.83c-0.58-2.29-0.94-4.84-1.02-7.53
		h17.51c-0.09,2.69-0.44,5.25-1.02,7.53H58.89z M77.88,29.3h7.5c-0.18,2.71-0.92,5.26-2.13,7.53h-6.32
		C77.48,34.52,77.8,31.98,77.88,29.3L77.88,29.3z M55.35,26.79h-7.5c0.18-2.71,0.92-5.26,2.13-7.53h6.32
		C55.76,21.57,55.43,24.1,55.35,26.79z M55.35,29.3c0.08,2.69,0.4,5.22,0.94,7.53h-1.94c-0.86-2.79-2.28-5.35-4.13-7.53H55.35z
		 M73.02,45.73c1.3-1.67,2.4-3.85,3.22-6.39h5.41C79.46,42.23,76.48,44.47,73.02,45.73z M81.64,16.75h-5.41
		c-0.83-2.54-1.92-4.72-3.22-6.39C76.48,11.62,79.46,13.85,81.64,16.75z M60.22,10.36c-1.3,1.67-2.4,3.85-3.22,6.39h-5.41
		C53.77,13.85,56.75,11.62,60.22,10.36z M17.66,15.49c0-0.69,0.56-1.26,1.26-1.26h15.06c0.69,0,1.26,0.56,1.26,1.26v10.04
		c0,0.69-0.56,1.26-1.26,1.26h-8.79v4.72c0,0.28-0.44,0.38-0.56,0.13l-2.43-4.86h-3.29c-0.69,0-1.26-0.56-1.26-1.26V15.49z
		 M15.15,43.11c0-5.08,2.07-9.91,5.68-13.44l1.55,3.1c0.48,0.96,1.44,1.55,2.51,1.55c1.55,0,2.81-1.26,2.81-2.81V29.3h6.28
		c2.08,0,3.77-1.69,3.77-3.77v-0.87c8.68,1.76,15.06,9.44,15.06,18.44v10.48c-0.79-0.28-1.63-0.44-2.51-0.44V43.11
		c0-3.46-2.82-6.28-6.28-6.28H23.94c-3.46,0-6.28,2.82-6.28,6.28v10.04c-0.88,0-1.72,0.16-2.51,0.44V43.11z M30.21,58.17
		c0-2.08,1.69-3.77,3.77-3.77s3.77,1.69,3.77,3.77s-1.69,3.77-3.77,3.77S30.21,60.25,30.21,58.17z M33.98,64.45
		c0.79,0,1.56,0.12,2.29,0.31l-2.29,2.75l-2.29-2.75C32.42,64.56,33.19,64.45,33.98,64.45z M29.3,65.81l4.68,5.62l4.68-5.62
		c2.46,1.56,4.1,4.3,4.1,7.42v1.26H25.19v-1.26C25.19,70.11,26.84,67.37,29.3,65.81L29.3,65.81z M38.22,62.77
		c1.24-1.15,2.04-2.78,2.04-4.6c0-3.46-2.82-6.28-6.28-6.28s-6.28,2.82-6.28,6.28c0,1.82,0.79,3.45,2.04,4.6
		c-4.13,1.68-7.06,5.74-7.06,10.47v1.26h-2.51V49.38h27.62v25.11h-2.51v-1.26C45.28,68.5,42.35,64.45,38.22,62.77L38.22,62.77z
		 M47.79,46.87H20.17v-3.77c0-2.08,1.69-3.77,3.77-3.77h20.08c2.08,0,3.77,1.69,3.77,3.77V46.87z M12.64,60.68
		c0-2.77,2.25-5.02,5.02-5.02V65.7C14.89,65.7,12.64,63.45,12.64,60.68z M44.02,82.02H23.94c-2.08,0-3.77-1.69-3.77-3.77V77h27.62
		v1.26C47.79,80.33,46.1,82.02,44.02,82.02z M50.3,65.7V55.66c2.77,0,5.02,2.25,5.02,5.02C55.32,63.45,53.07,65.7,50.3,65.7z"/>
	<linearGradient id="SVGID_2_" gradientUnits="userSpaceOnUse" x1="30.2136" y1="43.1065" x2="37.7452" y2="43.1065">
		<stop  offset="0" style="stop-color:#047CFF"/>
		<stop  offset="1" style="stop-color:#7F5EFF"/>
	</linearGradient>
	<path class="st1" d="M30.21,41.85h7.53v2.51h-7.53V41.85z"/>
	<linearGradient id="SVGID_3_" gradientUnits="userSpaceOnUse" x1="20.1715" y1="20.5117" x2="22.682" y2="20.5117">
		<stop  offset="0" style="stop-color:#047CFF"/>
		<stop  offset="1" style="stop-color:#7F5EFF"/>
	</linearGradient>
	<path class="st2" d="M20.17,19.26h2.51v2.51h-2.51V19.26z"/>
	<linearGradient id="SVGID_4_" gradientUnits="userSpaceOnUse" x1="25.1925" y1="20.5117" x2="27.7031" y2="20.5117">
		<stop  offset="0" style="stop-color:#047CFF"/>
		<stop  offset="1" style="stop-color:#7F5EFF"/>
	</linearGradient>
	<path class="st3" d="M25.19,19.26h2.51v2.51h-2.51V19.26z"/>
	<linearGradient id="SVGID_5_" gradientUnits="userSpaceOnUse" x1="30.2136" y1="20.5117" x2="32.7241" y2="20.5117">
		<stop  offset="0" style="stop-color:#047CFF"/>
		<stop  offset="1" style="stop-color:#7F5EFF"/>
	</linearGradient>
	<path class="st4" d="M30.21,19.26h2.51v2.51h-2.51V19.26z"/>
	<linearGradient id="SVGID_6_" gradientUnits="userSpaceOnUse" x1="60.3399" y1="70.7223" x2="87.9557" y2="70.7223">
		<stop  offset="0" style="stop-color:#047CFF"/>
		<stop  offset="1" style="stop-color:#7F5EFF"/>
	</linearGradient>
	<path class="st5" d="M80.42,82.02h-2.51V56.91h-7.53v25.11h-2.51V61.94h-7.53v22.59h27.62V66.96h-7.53V82.02z M65.36,82.02h-2.51
		V64.45h2.51V82.02z M72.89,59.42h2.51v22.59h-2.51V59.42z M82.93,69.47h2.51v12.55h-2.51V69.47z"/>
</g>
</svg>
