<?xml version="1.0" encoding="utf-8"?>
<!-- Generator: Adobe Illustrator 23.1.1, SVG Export Plug-In . SVG Version: 6.00 Build 0)  -->
<svg version="1.1" id="Capa_1" xmlns="http://www.w3.org/2000/svg" xmlns:xlink="http://www.w3.org/1999/xlink" x="0px" y="0px"
	 viewBox="0 0 70 73" style="enable-background:new 0 0 70 73;" xml:space="preserve">
<style type="text/css">
	.st0{fill:#3BC9FF;}
</style>
<g>
	<g>
		<g>
			<path class="st0" d="M44.35,41.73c-0.26,0-0.51-0.1-0.7-0.3c-0.38-0.39-0.37-1.01,0.02-1.39l13.1-12.79
				c0.39-0.38,1.01-0.37,1.39,0.02c0.38,0.39,0.37,1.01-0.02,1.39l-13.1,12.79C44.84,41.64,44.59,41.73,44.35,41.73z"/>
		</g>
		<g>
			<path class="st0" d="M38.86,41.86c-0.23,0-0.47-0.08-0.65-0.25l-10.26-9.13c-0.41-0.36-0.44-0.98-0.08-1.39
				c0.36-0.41,0.98-0.44,1.39-0.08l10.26,9.13c0.41,0.36,0.44,0.98,0.08,1.39C39.41,41.75,39.14,41.86,38.86,41.86z"/>
		</g>
		<g>
			<path class="st0" d="M12.35,46.46c-0.22,0-0.44-0.08-0.63-0.23c-0.42-0.35-0.48-0.97-0.13-1.39l11.07-13.34
				c0.35-0.42,0.97-0.48,1.39-0.13c0.42,0.35,0.47,0.97,0.13,1.39L13.1,46.1C12.91,46.34,12.63,46.46,12.35,46.46z"/>
		</g>
		<g>
			<path class="st0" d="M9.96,53.08c-2.61,0-4.73-2.12-4.73-4.72c0-2.61,2.12-4.73,4.73-4.73c2.61,0,4.73,2.12,4.73,4.73
				C14.68,50.96,12.56,53.08,9.96,53.08z M9.96,45.59c-1.52,0-2.76,1.24-2.76,2.76c0,1.52,1.24,2.75,2.76,2.75
				c1.52,0,2.76-1.23,2.76-2.75C12.72,46.83,11.48,45.59,9.96,45.59z"/>
		</g>
		<g>
			<path class="st0" d="M25.81,33.98c-2.61,0-4.73-2.12-4.73-4.72c0-2.61,2.12-4.73,4.73-4.73c2.61,0,4.73,2.12,4.73,4.73
				C30.54,31.86,28.42,33.98,25.81,33.98z M25.81,26.49c-1.52,0-2.77,1.24-2.77,2.76c0,1.52,1.24,2.75,2.77,2.75
				c1.52,0,2.76-1.23,2.76-2.75C28.57,27.73,27.33,26.49,25.81,26.49z"/>
		</g>
		<g>
			<path class="st0" d="M41.66,48.09c-2.61,0-4.73-2.12-4.73-4.73c0-2.6,2.12-4.72,4.73-4.72c2.61,0,4.73,2.12,4.73,4.72
				C46.39,45.97,44.27,48.09,41.66,48.09z M41.66,40.61c-1.52,0-2.76,1.24-2.76,2.75c0,1.52,1.24,2.76,2.76,2.76
				c1.52,0,2.76-1.24,2.76-2.76C44.43,41.84,43.19,40.61,41.66,40.61z"/>
		</g>
		<g>
			<path class="st0" d="M60.12,30.08c-2.61,0-4.73-2.12-4.73-4.73c0-2.6,2.12-4.72,4.73-4.72c2.61,0,4.73,2.12,4.73,4.72
				C64.86,27.95,62.73,30.08,60.12,30.08z M60.12,22.59c-1.52,0-2.76,1.24-2.76,2.75c0,1.52,1.24,2.76,2.76,2.76
				c1.53,0,2.76-1.24,2.76-2.76C62.89,23.83,61.65,22.59,60.12,22.59z"/>
		</g>
	</g>
</g>
</svg>
