<?xml version="1.0" encoding="utf-8"?>
<!-- Generator: Adobe Illustrator 23.1.1, SVG Export Plug-In . SVG Version: 6.00 Build 0)  -->
<svg version="1.1" id="Capa_1" xmlns="http://www.w3.org/2000/svg" xmlns:xlink="http://www.w3.org/1999/xlink" x="0px" y="0px"
	 viewBox="0 0 125 113" style="enable-background:new 0 0 125 113;" xml:space="preserve">
<style type="text/css">
	.st0{fill:#74CBF3;}
	.st1{fill:#28348A;}
	.st2{fill:#FFFFFF;}
</style>
<g>
	<g>
		<path class="st0" d="M89.37,36.58c-1.32-7.91-8.19-13.95-16.48-13.95c-2.51,0-4.89,0.55-7.03,1.55
			c-2.84-5.18-8.34-8.69-14.66-8.69c-9.23,0-16.71,7.48-16.71,16.71c0,1.48,0.19,2.91,0.55,4.28c-6.28,1.97-10.87,7.86-10.87,14.77
			v0c0,8.51,6.97,15.48,15.48,15.48h44.78c8.51,0,15.48-6.97,15.48-15.48v0C99.91,44.45,95.48,38.65,89.37,36.58z"/>
		<path class="st1" d="M84.43,67.95H39.65c-9.21,0-16.7-7.49-16.7-16.7c0-3.62,1.15-7.06,3.32-9.97c1.87-2.5,4.44-4.46,7.33-5.59
			c-0.23-1.15-0.34-2.31-0.34-3.49c0-9.89,8.05-17.94,17.94-17.94c6.18,0,11.9,3.18,15.17,8.37c2.07-0.81,4.26-1.22,6.52-1.22
			c4.27,0,8.41,1.53,11.65,4.3c3.02,2.58,5.1,6.1,5.9,9.96c6.42,2.49,10.69,8.66,10.69,15.58C101.14,60.45,93.64,67.95,84.43,67.95z
			 M51.2,16.71c-8.54,0-15.48,6.95-15.48,15.48c0,1.34,0.17,2.68,0.51,3.97c0.17,0.63-0.19,1.29-0.82,1.48
			c-2.83,0.89-5.38,2.7-7.17,5.1c-1.85,2.48-2.83,5.42-2.83,8.5c0,7.86,6.39,14.25,14.25,14.25h44.78c7.86,0,14.25-6.39,14.25-14.25
			c0-6.11-3.9-11.53-9.71-13.5c-0.43-0.15-0.74-0.51-0.82-0.96c-0.59-3.57-2.45-6.84-5.21-9.21c-2.8-2.39-6.37-3.71-10.06-3.71
			c-2.27,0-4.46,0.48-6.51,1.43c-0.59,0.27-1.28,0.04-1.59-0.52C62.06,19.8,56.86,16.71,51.2,16.71z"/>
	</g>
	<g>
		<circle class="st2" cx="45.52" cy="53.15" r="3.3"/>
		<path class="st1" d="M45.52,57.68c-2.5,0-4.53-2.03-4.53-4.53s2.03-4.53,4.53-4.53c2.5,0,4.53,2.03,4.53,4.53
			S48.02,57.68,45.52,57.68z M45.52,51.08c-1.14,0-2.07,0.93-2.07,2.07c0,1.14,0.93,2.07,2.07,2.07c1.14,0,2.07-0.93,2.07-2.07
			C47.6,52.01,46.67,51.08,45.52,51.08z"/>
	</g>
	<g>
		<circle class="st2" cx="54.23" cy="37.21" r="3.3"/>
		<path class="st1" d="M54.23,41.74c-2.5,0-4.53-2.03-4.53-4.53c0-2.5,2.03-4.53,4.53-4.53c2.5,0,4.53,2.03,4.53,4.53
			C58.75,39.71,56.72,41.74,54.23,41.74z M54.23,35.13c-1.14,0-2.07,0.93-2.07,2.07c0,1.14,0.93,2.07,2.07,2.07
			c1.14,0,2.07-0.93,2.07-2.07C56.3,36.06,55.37,35.13,54.23,35.13z"/>
	</g>
	<g>
		<circle class="st2" cx="78.56" cy="46.83" r="3.3"/>
		<path class="st1" d="M78.56,51.36c-2.5,0-4.53-2.03-4.53-4.53c0-2.5,2.03-4.53,4.53-4.53c2.5,0,4.53,2.03,4.53,4.53
			C83.09,49.33,81.06,51.36,78.56,51.36z M78.56,44.76c-1.14,0-2.07,0.93-2.07,2.07c0,1.14,0.93,2.07,2.07,2.07
			c1.14,0,2.07-0.93,2.07-2.07C80.64,45.69,79.71,44.76,78.56,44.76z"/>
	</g>
	<g>
		<path class="st1" d="M45.52,98.98c-0.68,0-1.23-0.55-1.23-1.23v-41.3c0-0.68,0.55-1.23,1.23-1.23c0.68,0,1.23,0.55,1.23,1.23v41.3
			C46.75,98.43,46.2,98.98,45.52,98.98z"/>
	</g>
	<g>
		<path class="st1" d="M69.47,57.68c-0.29,0-0.58-0.1-0.81-0.3c-0.51-0.45-0.56-1.22-0.11-1.73l5.79-6.6
			c0.45-0.51,1.22-0.56,1.73-0.11c0.51,0.45,0.56,1.22,0.11,1.73l-5.79,6.6C70.15,57.54,69.81,57.68,69.47,57.68z"/>
	</g>
	<g>
		<path class="st1" d="M69.47,98.98c-0.68,0-1.23-0.55-1.23-1.23v-41.3c0-0.68,0.55-1.23,1.23-1.23s1.23,0.55,1.23,1.23v41.3
			C70.7,98.43,70.15,98.98,69.47,98.98z"/>
	</g>
	<g>
		<path class="st1" d="M57.53,46.76c-0.53,0-1.02-0.35-1.18-0.88l-1.61-5.49c-0.19-0.65,0.18-1.33,0.83-1.52
			c0.65-0.19,1.33,0.18,1.52,0.83l1.61,5.49c0.19,0.65-0.18,1.33-0.83,1.52C57.76,46.74,57.64,46.76,57.53,46.76z"/>
	</g>
	<g>
		<path class="st1" d="M57.53,98.98c-0.68,0-1.23-0.55-1.23-1.23V45.53c0-0.68,0.55-1.23,1.23-1.23c0.68,0,1.23,0.55,1.23,1.23
			v52.22C58.75,98.43,58.21,98.98,57.53,98.98z"/>
	</g>
</g>
</svg>
