<?xml version="1.0" encoding="utf-8"?>
<!-- Generator: Adobe Illustrator 23.1.1, SVG Export Plug-In . SVG Version: 6.00 Build 0)  -->
<svg version="1.1" id="Capa_1" xmlns="http://www.w3.org/2000/svg" xmlns:xlink="http://www.w3.org/1999/xlink" x="0px" y="0px"
	 viewBox="0 0 125 113" style="enable-background:new 0 0 125 113;" xml:space="preserve">
<style type="text/css">
	.st0{fill:#3BC9FF;}
</style>
<g>
	<g>
		<g>
			<g>
				<path class="st0" d="M62.04,97.97c-6.76,0-13.27-2.46-18.33-6.92c-0.22-0.19-0.3-0.51-0.19-0.78c0.1-0.28,0.37-0.46,0.66-0.46
					H79.9c0.29,0,0.56,0.18,0.66,0.46c0.1,0.27,0.03,0.59-0.19,0.78C75.31,95.51,68.8,97.97,62.04,97.97z M46.17,91.22
					c4.55,3.45,10.12,5.33,15.88,5.33c5.76,0,11.32-1.88,15.88-5.33H46.17z"/>
			</g>
			<g>
				<path class="st0" d="M79.9,91.22H44.19c-0.17,0-0.34-0.06-0.47-0.18c-5.96-5.25-9.38-12.82-9.38-20.77
					c0-0.39,0.32-0.71,0.71-0.71h54c0.39,0,0.71,0.32,0.71,0.71c0,7.94-3.42,15.51-9.38,20.77C80.24,91.16,80.07,91.22,79.9,91.22z
					 M44.46,89.81h35.18c5.36-4.82,8.5-11.63,8.69-18.82H35.76C35.95,78.17,39.1,84.99,44.46,89.81z"/>
			</g>
			<g>
				<path class="st0" d="M89.04,70.98h-54c-0.39,0-0.71-0.32-0.71-0.71c0-7.94,3.42-15.51,9.38-20.77c0.13-0.11,0.3-0.18,0.47-0.18
					H79.9c0.17,0,0.34,0.06,0.47,0.18c5.96,5.26,9.38,12.82,9.38,20.77C89.75,70.67,89.43,70.98,89.04,70.98z M35.76,69.57h52.57
					c-0.19-7.19-3.33-14-8.69-18.82H44.46C39.1,55.57,35.95,62.38,35.76,69.57z"/>
			</g>
			<g>
				<path class="st0" d="M79.9,50.75H44.19c-0.29,0-0.56-0.18-0.66-0.46c-0.1-0.28-0.03-0.59,0.19-0.78
					c5.06-4.47,11.56-6.92,18.33-6.92c6.76,0,13.27,2.46,18.32,6.92c0.22,0.19,0.3,0.51,0.19,0.78
					C80.46,50.57,80.2,50.75,79.9,50.75z M46.17,49.33h31.75C73.37,45.88,67.8,44,62.04,44C56.28,44,50.72,45.88,46.17,49.33z"/>
			</g>
			<g>
				<path class="st0" d="M62.04,97.97c-5.24,0-8.07-14.27-8.07-27.69c0-13.42,2.83-27.69,8.07-27.69c5.24,0,8.07,14.27,8.07,27.69
					C70.11,83.7,67.29,97.97,62.04,97.97z M62.04,44c-3.15,0-6.66,10.79-6.66,26.28c0,15.48,3.51,26.28,6.66,26.28
					c3.15,0,6.65-10.79,6.65-26.28C68.7,54.79,65.19,44,62.04,44z"/>
			</g>
			<g>
				<path class="st0" d="M79.9,50.75H44.18c-0.39,0-0.71-0.32-0.71-0.71c0-0.39,0.32-0.71,0.71-0.71H79.9
					c0.39,0,0.71,0.32,0.71,0.71C80.61,50.43,80.29,50.75,79.9,50.75z"/>
			</g>
			<g>
				<path class="st0" d="M89.04,70.98h-54c-0.39,0-0.71-0.32-0.71-0.71c0-0.39,0.32-0.71,0.71-0.71h54c0.39,0,0.71,0.32,0.71,0.71
					C89.75,70.67,89.43,70.98,89.04,70.98z"/>
			</g>
			<g>
				<path class="st0" d="M79.9,91.22H44.18c-0.39,0-0.71-0.32-0.71-0.71c0-0.39,0.32-0.71,0.71-0.71H79.9
					c0.39,0,0.71,0.32,0.71,0.71C80.61,90.9,80.29,91.22,79.9,91.22z"/>
			</g>
			<g>
				<path class="st0" d="M45.53,61.33c-0.39,0-0.71-0.32-0.71-0.71V39.88c0-0.39,0.32-0.71,0.71-0.71c0.39,0,0.71,0.32,0.71,0.71
					v20.74C46.24,61.01,45.93,61.33,45.53,61.33z"/>
			</g>
			<g>
				<path class="st0" d="M45.53,40.59c-3.23,0-5.85-2.55-5.85-5.69c0-3.14,2.62-5.69,5.85-5.69c3.23,0,5.86,2.55,5.86,5.69
					C51.39,38.04,48.76,40.59,45.53,40.59z M45.53,30.63c-2.45,0-4.44,1.92-4.44,4.27c0,2.36,1.99,4.27,4.44,4.27
					c2.45,0,4.44-1.92,4.44-4.27C49.98,32.54,47.98,30.63,45.53,30.63z"/>
			</g>
			<g>
				<path class="st0" d="M62.04,47.38c-0.39,0-0.71-0.32-0.71-0.71V25.93c0-0.39,0.32-0.71,0.71-0.71s0.71,0.32,0.71,0.71v20.74
					C62.75,47.06,62.44,47.38,62.04,47.38z"/>
			</g>
			<g>
				<path class="st0" d="M62.04,26.64c-3.23,0-5.85-2.55-5.85-5.68c0-3.14,2.63-5.69,5.85-5.69c3.23,0,5.85,2.55,5.85,5.69
					C67.9,24.09,65.27,26.64,62.04,26.64z M62.04,16.68c-2.45,0-4.44,1.92-4.44,4.27c0,2.35,1.99,4.27,4.44,4.27
					c2.45,0,4.44-1.91,4.44-4.27C66.48,18.6,64.49,16.68,62.04,16.68z"/>
			</g>
			<g>
				<path class="st0" d="M77.34,61.66c-0.39,0-0.71-0.32-0.71-0.71V40.22c0-0.39,0.32-0.71,0.71-0.71c0.39,0,0.71,0.32,0.71,0.71
					v20.74C78.05,61.35,77.73,61.66,77.34,61.66z"/>
			</g>
			<g>
				<path class="st0" d="M77.34,40.93c-3.23,0-5.85-2.55-5.85-5.69c0-3.14,2.63-5.69,5.85-5.69s5.85,2.55,5.85,5.69
					C83.2,38.37,80.57,40.93,77.34,40.93z M77.34,30.96c-2.45,0-4.44,1.92-4.44,4.27c0,2.36,1.99,4.27,4.44,4.27
					c2.45,0,4.44-1.92,4.44-4.27C81.78,32.88,79.79,30.96,77.34,30.96z"/>
			</g>
		</g>
	</g>
</g>
</svg>
