<?xml version="1.0" encoding="utf-8"?>
<!-- Generator: Adobe Illustrator 23.1.1, SVG Export Plug-In . SVG Version: 6.00 Build 0)  -->
<svg version="1.1" id="Capa_1" xmlns="http://www.w3.org/2000/svg" xmlns:xlink="http://www.w3.org/1999/xlink" x="0px" y="0px"
	 viewBox="0 0 125 113" style="enable-background:new 0 0 125 113;" xml:space="preserve">
<style type="text/css">
	.st0{fill:#74CBF3;stroke:#28348A;stroke-width:1.368;stroke-miterlimit:10;}
	.st1{fill:#FFFFFF;stroke:#28348A;stroke-width:1.368;stroke-linecap:round;stroke-linejoin:round;stroke-miterlimit:10;}
	.st2{fill:none;stroke:#28348A;stroke-width:1.368;stroke-miterlimit:10;}
	.st3{fill:none;stroke:#28348A;stroke-width:2.052;stroke-miterlimit:10;}
</style>
<g>
	<g>
		<path class="st0" d="M109.92,74.86c0,2.77-2.24,5.01-5.01,5.01H19.17c-2.77,0-5.01-2.24-5.01-5.01v-54.4
			c0-2.77,2.24-5.02,5.01-5.02h85.74c2.77,0,5.01,2.25,5.01,5.02V74.86z"/>
		<rect x="19.84" y="21.27" class="st1" width="84.42" height="52.78"/>
		<rect x="52.99" y="79.88" class="st0" width="18.1" height="13.57"/>
		<path class="st1" d="M77.05,93.45h-6.16h-8.85h-8.85h-6.16c0,0-3.91,0-4.32,4.34h19.32h19.32C80.96,93.45,77.05,93.45,77.05,93.45
			z"/>
	</g>
	<polyline class="st2" points="25.74,42.53 25.74,68.59 48.9,68.59 	"/>
	<g>
		<path class="st3" d="M78.53,47.87c0-0.5-0.03-0.99-0.07-1.48l3.3-0.87l-1.48-5.66l-3.37,0.88c-0.71-1.48-1.63-2.83-2.73-4.03
			l2.16-2.8l-4.63-3.57l-2.19,2.84c-1.42-0.72-2.95-1.25-4.56-1.53v-3.6h-5.85v3.6c-1.53,0.27-2.99,0.76-4.35,1.43l-2.15-2.87
			l-4.68,3.51l2.12,2.83c-0.81,0.86-1.53,1.79-2.14,2.8l-3.28-1.21l-2.02,5.49l3.22,1.19c-0.19,0.99-0.29,2.01-0.29,3.06
			c0,0.36,0.01,0.72,0.04,1.08l-3.27,0.86l1.48,5.66l3.2-0.84c0.69,1.54,1.62,2.96,2.73,4.21l-1.99,2.58l4.63,3.57l1.96-2.54
			c1.48,0.79,3.09,1.35,4.79,1.65v3.19h5.85v-3.19c1.62-0.29,3.16-0.82,4.58-1.54l1.92,2.57l4.68-3.5l-1.95-2.6
			c0.83-0.9,1.55-1.89,2.16-2.96l3.09,1.13l2.02-5.49l-3.15-1.16C78.45,49.67,78.53,48.78,78.53,47.87z M62.04,58.89
			c-6.2,0-11.23-5.03-11.23-11.23s5.03-11.23,11.23-11.23s11.23,5.03,11.23,11.23S68.24,58.89,62.04,58.89z"/>
	</g>
</g>
</svg>
