<?xml version="1.0" encoding="utf-8"?>
<!-- Generator: Adobe Illustrator 23.1.1, SVG Export Plug-In . SVG Version: 6.00 Build 0)  -->
<svg version="1.1" id="Capa_1" xmlns="http://www.w3.org/2000/svg" xmlns:xlink="http://www.w3.org/1999/xlink" x="0px" y="0px"
	 viewBox="0 0 78 93" style="enable-background:new 0 0 78 93;" xml:space="preserve">
<style type="text/css">
	.st0{fill:url(#SVGID_1_);}
	.st1{fill:url(#SVGID_2_);}
	.st2{fill:url(#SVGID_3_);}
	.st3{fill:url(#SVGID_4_);}
	.st4{fill:url(#SVGID_5_);}
	.st5{fill:url(#SVGID_6_);}
	.st6{fill:url(#SVGID_7_);}
	.st7{fill:url(#SVGID_8_);}
	.st8{fill:url(#SVGID_9_);}
</style>
<g id="migrating">
	<linearGradient id="SVGID_1_" gradientUnits="userSpaceOnUse" x1="3.0557" y1="46.8091" x2="75.0316" y2="46.8091">
		<stop  offset="0" style="stop-color:#047CFF"/>
		<stop  offset="1" style="stop-color:#7F5EFF"/>
	</linearGradient>
	<path class="st0" d="M65.43,36.01h-1.06c4.64-8.03,1.9-18.29-6.13-22.94c-2.56-1.48-5.46-2.26-8.41-2.26
		c-7.43,0.03-13.97,4.92-16.09,12.04c-5.27-5.03-13.63-4.83-18.66,0.44c-3.23,3.39-4.43,8.23-3.14,12.73
		c-5.01,0.37-8.9,4.54-8.9,9.57c0,2.38,0.89,4.67,2.5,6.43c-0.06,0.25-0.09,0.51-0.1,0.77V75.6H4.4c-0.66,0-1.2,0.54-1.19,1.21
		c0,0.07,0.01,0.13,0.02,0.2l0.55,3.07c0,0.04,0.01,0.09,0.02,0.13c0.46,1.53,1.86,2.58,3.45,2.59h41.99c1.6-0.01,3-1.06,3.45-2.59
		c0.01-0.04,0.02-0.09,0.02-0.13L53.27,77c0.11-0.65-0.33-1.27-0.98-1.39c-0.07-0.01-0.13-0.02-0.2-0.02h-1.06V61.2h1.2
		c0.55,0,1.03-0.38,1.16-0.91l0.2-0.8l0.71,0.43c0.47,0.28,1.07,0.21,1.46-0.18l3.39-3.39c0.29-0.3,0.41-0.73,0.31-1.14h5.95
		c5.3,0,9.6-4.3,9.6-9.6S70.73,36.01,65.43,36.01L65.43,36.01z M50.38,79.58c-0.17,0.49-0.63,0.81-1.14,0.82H7.25
		c-0.51,0-0.97-0.33-1.14-0.82L5.84,78h17.61c0,0.66,0.54,1.2,1.2,1.2h7.2c0.66,0,1.2-0.54,1.2-1.2h17.61L50.38,79.58z M39.96,53.97
		l0.8,0.2l-0.43,0.71c-0.28,0.47-0.21,1.07,0.18,1.46l3.39,3.39c0.39,0.39,0.99,0.46,1.46,0.18l0.71-0.43l0.2,0.8
		c0.13,0.54,0.61,0.91,1.16,0.91h1.2v14.4H31.85c-0.66,0-1.2,0.54-1.2,1.2h-4.8c0-0.66-0.54-1.2-1.2-1.2H7.85V52.81
		c0-0.19,0.05-0.37,0.13-0.54c0.2-0.41,0.61-0.66,1.07-0.66h29.99v1.2C39.04,53.36,39.42,53.84,39.96,53.97z M58.24,51.87
		l-1.46,0.36c-0.37,0.09-0.67,0.36-0.82,0.71c-0.15,0.35-0.12,0.75,0.07,1.08l0.78,1.3l-2.06,2.06l-1.3-0.78
		c-0.33-0.19-0.73-0.22-1.08-0.07c-0.35,0.15-0.61,0.45-0.71,0.82l-0.36,1.46h-2.93l-0.36-1.46c-0.09-0.37-0.36-0.67-0.71-0.82
		c-0.35-0.15-0.75-0.12-1.08,0.07l-1.3,0.78l-2.06-2.06l0.78-1.3c0.19-0.33,0.22-0.73,0.07-1.08c-0.15-0.35-0.45-0.61-0.82-0.71
		l-1.46-0.36v-2.93l1.46-0.36c0.37-0.09,0.67-0.36,0.82-0.71c0.15-0.35,0.12-0.75-0.07-1.08l-0.78-1.3l2.06-2.06l1.3,0.77
		c0.33,0.2,0.73,0.23,1.08,0.08c0.35-0.15,0.61-0.45,0.71-0.82l0.36-1.46h2.93l0.36,1.46c0.09,0.37,0.36,0.67,0.71,0.82
		c0.35,0.15,0.75,0.12,1.08-0.08l1.3-0.77l2.06,2.06l-0.78,1.3c-0.19,0.33-0.22,0.73-0.07,1.08c0.15,0.35,0.45,0.61,0.82,0.71
		l1.46,0.36L58.24,51.87z M65.43,52.81h-4.8v-4.8c0-0.55-0.38-1.03-0.91-1.16l-0.8-0.2l0.43-0.71c0.28-0.47,0.21-1.07-0.18-1.46
		l-3.39-3.39c-0.39-0.39-0.99-0.46-1.46-0.18l-0.71,0.43l-0.2-0.8c-0.13-0.54-0.61-0.91-1.16-0.91h-4.8c-0.55,0-1.03,0.38-1.16,0.91
		l-0.2,0.8l-0.71-0.43c-0.47-0.28-1.07-0.21-1.46,0.18l-3.39,3.39c-0.39,0.39-0.46,0.99-0.18,1.46l0.43,0.71l-0.8,0.2
		c-0.54,0.13-0.91,0.61-0.91,1.16v1.2H9.05c-0.77,0-1.53,0.25-2.15,0.72c-2.39-3.17-1.76-7.67,1.4-10.06
		c1.25-0.94,2.78-1.45,4.34-1.45h1.01c0.4,0,0.78-0.2,1.01-0.54c0.22-0.34,0.25-0.77,0.1-1.14c-0.61-1.36-0.92-2.83-0.91-4.32
		c0-5.96,4.84-10.8,10.8-10.79c3.49,0,6.77,1.69,8.79,4.53c0.28,0.4,0.78,0.59,1.26,0.47c0.47-0.12,0.83-0.51,0.9-1
		c1.09-7.87,8.36-13.36,16.23-12.27c7.12,0.99,12.41,7.08,12.41,14.26c0.01,3.21-1.07,6.34-3.07,8.85c-0.41,0.52-0.32,1.27,0.2,1.68
		c0.21,0.17,0.48,0.26,0.75,0.26h3.32c3.98,0,7.2,3.22,7.2,7.2S69.41,52.81,65.43,52.81z"/>
	<linearGradient id="SVGID_2_" gradientUnits="userSpaceOnUse" x1="49.8401" y1="21.6176" x2="61.836" y2="21.6176">
		<stop  offset="0" style="stop-color:#047CFF"/>
		<stop  offset="1" style="stop-color:#7F5EFF"/>
	</linearGradient>
	<path class="st1" d="M49.84,15.62v2.4c5.3,0.01,9.59,4.3,9.6,9.6h2.4C61.83,20.99,56.46,15.63,49.84,15.62z"/>
	<linearGradient id="SVGID_3_" gradientUnits="userSpaceOnUse" x1="16.2513" y1="28.2154" x2="24.6485" y2="28.2154">
		<stop  offset="0" style="stop-color:#047CFF"/>
		<stop  offset="1" style="stop-color:#7F5EFF"/>
	</linearGradient>
	<path class="st2" d="M16.25,32.41h2.4c0-3.31,2.69-5.99,6-6v-2.4C20.01,24.02,16.26,27.78,16.25,32.41z"/>
	<linearGradient id="SVGID_4_" gradientUnits="userSpaceOnUse" x1="45.0417" y1="50.4079" x2="54.6384" y2="50.4079">
		<stop  offset="0" style="stop-color:#047CFF"/>
		<stop  offset="1" style="stop-color:#7F5EFF"/>
	</linearGradient>
	<path class="st3" d="M49.84,45.61c-2.65,0-4.8,2.15-4.8,4.8s2.15,4.8,4.8,4.8s4.8-2.15,4.8-4.8S52.49,45.61,49.84,45.61z
		 M49.84,52.81c-1.33,0-2.4-1.07-2.4-2.4s1.07-2.4,2.4-2.4s2.4,1.07,2.4,2.4S51.17,52.81,49.84,52.81z"/>
	<linearGradient id="SVGID_5_" gradientUnits="userSpaceOnUse" x1="27.0477" y1="45.6096" x2="29.4469" y2="45.6096">
		<stop  offset="0" style="stop-color:#047CFF"/>
		<stop  offset="1" style="stop-color:#7F5EFF"/>
	</linearGradient>
	<rect x="27.05" y="44.41" class="st4" width="2.4" height="2.4"/>
	<linearGradient id="SVGID_6_" gradientUnits="userSpaceOnUse" x1="27.0477" y1="36.6126" x2="51.0397" y2="36.6126">
		<stop  offset="0" style="stop-color:#047CFF"/>
		<stop  offset="1" style="stop-color:#7F5EFF"/>
	</linearGradient>
	<path class="st5" d="M49.84,31.21H28.25c-0.66,0-1.2,0.54-1.2,1.2v9.6h2.4v-8.4h19.19v3.6h2.4v-4.8
		C51.04,31.75,50.5,31.21,49.84,31.21z"/>
	<linearGradient id="SVGID_7_" gradientUnits="userSpaceOnUse" x1="11.447" y1="63.6035" x2="45.0417" y2="63.6035">
		<stop  offset="0" style="stop-color:#047CFF"/>
		<stop  offset="1" style="stop-color:#7F5EFF"/>
	</linearGradient>
	<path class="st6" d="M40.24,63.6h-0.09c0.06-0.4,0.09-0.8,0.09-1.2c-0.01-4.64-3.76-8.39-8.4-8.4c-2.5,0.01-4.86,1.2-6.36,3.2
		c-1.01-0.51-2.11-0.78-3.24-0.8c-3.97,0-7.19,3.22-7.2,7.2v0.15c-2.57,0.66-4.11,3.28-3.45,5.84c0.55,2.12,2.46,3.61,4.65,3.6
		h23.99c2.65,0,4.8-2.15,4.8-4.8C45.04,65.75,42.89,63.6,40.24,63.6z M40.24,70.8H16.25c-1.33,0-2.4-1.07-2.4-2.4s1.07-2.4,2.4-2.4
		c0.66,0,1.2-0.54,1.2-1.2v-1.2c0-2.65,2.15-4.8,4.8-4.8c1.04,0.04,2.06,0.38,2.91,0.98c0.54,0.38,1.29,0.25,1.67-0.29
		c0.02-0.02,0.03-0.04,0.04-0.07c1-1.82,2.89-2.98,4.97-3.02c3.3-0.01,5.99,2.66,6,5.96c0,0.69-0.12,1.38-0.35,2.03
		c-0.22,0.62,0.11,1.31,0.73,1.53c0.13,0.05,0.26,0.07,0.4,0.07h1.62c1.33,0,2.4,1.07,2.4,2.4S41.57,70.8,40.24,70.8z"/>
	<linearGradient id="SVGID_8_" gradientUnits="userSpaceOnUse" x1="53.4388" y1="69.6015" x2="55.838" y2="69.6015">
		<stop  offset="0" style="stop-color:#047CFF"/>
		<stop  offset="1" style="stop-color:#7F5EFF"/>
	</linearGradient>
	<rect x="53.44" y="68.4" class="st7" width="2.4" height="2.4"/>
	<linearGradient id="SVGID_9_" gradientUnits="userSpaceOnUse" x1="58.2372" y1="64.2033" x2="65.4348" y2="64.2033">
		<stop  offset="0" style="stop-color:#047CFF"/>
		<stop  offset="1" style="stop-color:#7F5EFF"/>
	</linearGradient>
	<path class="st8" d="M63.04,68.4h-4.8v2.4h6c0.66,0,1.2-0.54,1.2-1.2v-12h-2.4V68.4z"/>
</g>
</svg>
