<?xml version="1.0" encoding="utf-8"?>
<!-- Generator: Adobe Illustrator 23.1.1, SVG Export Plug-In . SVG Version: 6.00 Build 0)  -->
<svg version="1.1" id="Capa_1" xmlns="http://www.w3.org/2000/svg" xmlns:xlink="http://www.w3.org/1999/xlink" x="0px" y="0px"
	 viewBox="0 0 70 73" style="enable-background:new 0 0 70 73;" xml:space="preserve">
<style type="text/css">
	.st0{fill:#3BC9FF;}
</style>
<g>
	<g>
		<g>
			<g>
				<path class="st0" d="M52.08,56.16H40.4c-0.26,0-0.47-0.21-0.47-0.47c0-0.26,0.21-0.47,0.47-0.47h11.68
					c0.93,0,1.77-0.55,2.15-1.41c0.1-0.24,0.38-0.34,0.62-0.24c0.24,0.1,0.34,0.38,0.24,0.62C54.55,55.39,53.37,56.16,52.08,56.16z
					 M37.91,56.16H22.97c-0.26,0-0.47-0.21-0.47-0.47c0-0.26,0.21-0.47,0.47-0.47h14.94c0.26,0,0.47,0.21,0.47,0.47
					C38.38,55.95,38.17,56.16,37.91,56.16z M20.48,56.16h-0.47c-1.81,0-3.28-1.47-3.28-3.28V42.84c0-0.26,0.21-0.47,0.47-0.47
					c0.26,0,0.47,0.21,0.47,0.47v10.04c0,1.3,1.05,2.35,2.35,2.35h0.47c0.26,0,0.47,0.21,0.47,0.47
					C20.95,55.95,20.74,56.16,20.48,56.16z M54.89,52.02c-0.26,0-0.47-0.21-0.47-0.47V36.62c0-0.26,0.21-0.47,0.47-0.47
					c0.26,0,0.47,0.21,0.47,0.47v14.94C55.35,51.81,55.15,52.02,54.89,52.02z M17.2,40.81c-0.26,0-0.47-0.21-0.47-0.47V25.41
					c0-0.26,0.21-0.47,0.47-0.47c0.26,0,0.47,0.21,0.47,0.47v14.94C17.67,40.6,17.46,40.81,17.2,40.81z M54.89,34.59
					c-0.26,0-0.47-0.21-0.47-0.47V20.82c0-0.45-0.13-0.9-0.38-1.28c-0.14-0.22-0.08-0.5,0.13-0.65c0.22-0.14,0.5-0.08,0.65,0.13
					c0.35,0.53,0.54,1.15,0.54,1.79v13.31C55.35,34.39,55.15,34.59,54.89,34.59z M17.2,23.39c-0.26,0-0.47-0.21-0.47-0.47v-2.1
					c0-1.81,1.47-3.28,3.28-3.28h14.94c0.26,0,0.47,0.21,0.47,0.47c0,0.26-0.21,0.47-0.47,0.47H20.02c-1.3,0-2.35,1.05-2.35,2.34
					v2.1C17.67,23.18,17.46,23.39,17.2,23.39z M52.38,18.49c-0.02,0-0.03,0-0.05,0c-0.08-0.01-0.17-0.01-0.25-0.01H37.44
					c-0.26,0-0.47-0.21-0.47-0.47c0-0.26,0.21-0.47,0.47-0.47h14.64c0.12,0,0.23,0.01,0.35,0.02c0.26,0.03,0.44,0.26,0.42,0.51
					C52.81,18.31,52.61,18.49,52.38,18.49z"/>
			</g>
			<g>
				<path class="st0" d="M50.06,51.33H38.93c-0.26,0-0.47-0.21-0.47-0.47c0-0.26,0.21-0.47,0.47-0.47H49.6v-3.33
					c0-0.26,0.21-0.47,0.47-0.47c0.26,0,0.47,0.21,0.47,0.47v3.8C50.53,51.12,50.32,51.33,50.06,51.33z M36.44,51.33H22.03
					c-0.26,0-0.47-0.21-0.47-0.47v-0.53c0-0.26,0.21-0.47,0.47-0.47c0.26,0,0.47,0.21,0.47,0.47v0.06h13.94
					c0.26,0,0.47,0.21,0.47,0.47C36.9,51.12,36.69,51.33,36.44,51.33z M22.03,48.32c-0.26,0-0.47-0.21-0.47-0.47V32.91
					c0-0.26,0.21-0.47,0.47-0.47c0.26,0,0.47,0.21,0.47,0.47v14.94C22.49,48.11,22.29,48.32,22.03,48.32z M50.06,45.05
					c-0.26,0-0.47-0.21-0.47-0.47V29.64c0-0.26,0.21-0.47,0.47-0.47c0.26,0,0.47,0.21,0.47,0.47v14.94
					C50.53,44.84,50.32,45.05,50.06,45.05z M22.03,30.89c-0.26,0-0.47-0.21-0.47-0.47v-7.59c0-0.26,0.21-0.47,0.47-0.47h14.94
					c0.26,0,0.47,0.21,0.47,0.47c0,0.26-0.21,0.47-0.47,0.47H22.49v7.13C22.49,30.68,22.29,30.89,22.03,30.89z M50.06,27.62
					c-0.26,0-0.47-0.21-0.47-0.47V23.3H39.45c-0.26,0-0.47-0.21-0.47-0.47c0-0.26,0.21-0.47,0.47-0.47h10.61
					c0.26,0,0.47,0.21,0.47,0.47v4.32C50.53,27.41,50.32,27.62,50.06,27.62z"/>
			</g>
			<g>
				<path class="st0" d="M20.02,18.47c-0.26,0-0.47-0.21-0.47-0.47v-5.37c0-0.26,0.21-0.47,0.47-0.47c0.26,0,0.47,0.21,0.47,0.47
					v5.37C20.48,18.26,20.27,18.47,20.02,18.47z"/>
			</g>
			<g>
				<path class="st0" d="M60.25,21.28h-5.37c-0.26,0-0.47-0.21-0.47-0.47s0.21-0.47,0.47-0.47h5.37c0.26,0,0.47,0.21,0.47,0.47
					S60.51,21.28,60.25,21.28z"/>
			</g>
			<g>
				<path class="st0" d="M52.07,61.53c-0.26,0-0.47-0.21-0.47-0.47V55.7c0-0.26,0.21-0.47,0.47-0.47c0.26,0,0.47,0.21,0.47,0.47
					v5.37C52.54,61.32,52.33,61.53,52.07,61.53z"/>
			</g>
			<g>
				<path class="st0" d="M24.02,18.47c-0.26,0-0.47-0.21-0.47-0.47v-5.37c0-0.26,0.21-0.47,0.47-0.47c0.26,0,0.47,0.21,0.47,0.47
					v5.37C24.49,18.26,24.28,18.47,24.02,18.47z"/>
			</g>
			<g>
				<path class="st0" d="M60.25,25.3h-5.37c-0.26,0-0.47-0.21-0.47-0.47c0-0.26,0.21-0.47,0.47-0.47h5.37
					c0.26,0,0.47,0.21,0.47,0.47C60.72,25.09,60.51,25.3,60.25,25.3z"/>
			</g>
			<g>
				<path class="st0" d="M48.07,61.53c-0.26,0-0.47-0.21-0.47-0.47V55.7c0-0.26,0.21-0.47,0.47-0.47c0.26,0,0.47,0.21,0.47,0.47
					v5.37C48.53,61.32,48.32,61.53,48.07,61.53z"/>
			</g>
			<g>
				<path class="st0" d="M28.03,18.47c-0.26,0-0.47-0.21-0.47-0.47v-5.37c0-0.26,0.21-0.47,0.47-0.47s0.47,0.21,0.47,0.47v5.37
					C28.49,18.26,28.29,18.47,28.03,18.47z"/>
			</g>
			<g>
				<path class="st0" d="M60.25,29.3h-5.37c-0.26,0-0.47-0.21-0.47-0.47c0-0.26,0.21-0.47,0.47-0.47h5.37
					c0.26,0,0.47,0.21,0.47,0.47C60.72,29.09,60.51,29.3,60.25,29.3z"/>
			</g>
			<g>
				<path class="st0" d="M44.06,61.53c-0.26,0-0.47-0.21-0.47-0.47V55.7c0-0.26,0.21-0.47,0.47-0.47c0.26,0,0.47,0.21,0.47,0.47
					v5.37C44.52,61.32,44.32,61.53,44.06,61.53z"/>
			</g>
			<g>
				<path class="st0" d="M32.04,18.47c-0.26,0-0.47-0.21-0.47-0.47v-5.37c0-0.26,0.21-0.47,0.47-0.47c0.26,0,0.47,0.21,0.47,0.47
					v5.37C32.5,18.26,32.29,18.47,32.04,18.47z"/>
			</g>
			<g>
				<path class="st0" d="M60.25,33.31h-5.37c-0.26,0-0.47-0.21-0.47-0.47c0-0.26,0.21-0.47,0.47-0.47h5.37
					c0.26,0,0.47,0.21,0.47,0.47C60.72,33.1,60.51,33.31,60.25,33.31z"/>
			</g>
			<g>
				<path class="st0" d="M40.05,61.53c-0.26,0-0.47-0.21-0.47-0.47V55.7c0-0.26,0.21-0.47,0.47-0.47c0.26,0,0.47,0.21,0.47,0.47
					v5.37C40.52,61.32,40.31,61.53,40.05,61.53z"/>
			</g>
			<g>
				<path class="st0" d="M36.05,18.47c-0.26,0-0.47-0.21-0.47-0.47v-5.37c0-0.26,0.21-0.47,0.47-0.47c0.26,0,0.47,0.21,0.47,0.47
					v5.37C36.51,18.26,36.3,18.47,36.05,18.47z"/>
			</g>
			<g>
				<path class="st0" d="M60.25,37.32h-5.37c-0.26,0-0.47-0.21-0.47-0.47c0-0.26,0.21-0.47,0.47-0.47h5.37
					c0.26,0,0.47,0.21,0.47,0.47C60.72,37.11,60.51,37.32,60.25,37.32z"/>
			</g>
			<g>
				<path class="st0" d="M36.05,61.53c-0.26,0-0.47-0.21-0.47-0.47V55.7c0-0.26,0.21-0.47,0.47-0.47c0.26,0,0.47,0.21,0.47,0.47
					v5.37C36.51,61.32,36.3,61.53,36.05,61.53z"/>
			</g>
			<g>
				<path class="st0" d="M40.05,18.47c-0.26,0-0.47-0.21-0.47-0.47v-5.37c0-0.26,0.21-0.47,0.47-0.47c0.26,0,0.47,0.21,0.47,0.47
					v5.37C40.52,18.26,40.31,18.47,40.05,18.47z"/>
			</g>
			<g>
				<path class="st0" d="M60.25,41.32h-5.37c-0.26,0-0.47-0.21-0.47-0.47c0-0.26,0.21-0.47,0.47-0.47h5.37
					c0.26,0,0.47,0.21,0.47,0.47C60.72,41.11,60.51,41.32,60.25,41.32z"/>
			</g>
			<g>
				<path class="st0" d="M32.04,61.53c-0.26,0-0.47-0.21-0.47-0.47V55.7c0-0.26,0.21-0.47,0.47-0.47c0.26,0,0.47,0.21,0.47,0.47
					v5.37C32.5,61.32,32.29,61.53,32.04,61.53z"/>
			</g>
			<g>
				<path class="st0" d="M44.06,18.47c-0.26,0-0.47-0.21-0.47-0.47v-5.37c0-0.26,0.21-0.47,0.47-0.47c0.26,0,0.47,0.21,0.47,0.47
					v5.37C44.52,18.26,44.32,18.47,44.06,18.47z"/>
			</g>
			<g>
				<path class="st0" d="M60.25,45.33h-5.37c-0.26,0-0.47-0.21-0.47-0.47c0-0.26,0.21-0.47,0.47-0.47h5.37
					c0.26,0,0.47,0.21,0.47,0.47C60.72,45.12,60.51,45.33,60.25,45.33z"/>
			</g>
			<g>
				<path class="st0" d="M28.03,61.53c-0.26,0-0.47-0.21-0.47-0.47V55.7c0-0.26,0.21-0.47,0.47-0.47s0.47,0.21,0.47,0.47v5.37
					C28.49,61.32,28.29,61.53,28.03,61.53z"/>
			</g>
			<g>
				<path class="st0" d="M48.07,18.47c-0.26,0-0.47-0.21-0.47-0.47v-5.37c0-0.26,0.21-0.47,0.47-0.47c0.26,0,0.47,0.21,0.47,0.47
					v5.37C48.53,18.26,48.32,18.47,48.07,18.47z"/>
			</g>
			<g>
				<path class="st0" d="M60.25,49.34h-5.37c-0.26,0-0.47-0.21-0.47-0.47c0-0.26,0.21-0.47,0.47-0.47h5.37
					c0.26,0,0.47,0.21,0.47,0.47C60.72,49.13,60.51,49.34,60.25,49.34z"/>
			</g>
			<g>
				<path class="st0" d="M24.03,61.53c-0.26,0-0.47-0.21-0.47-0.47V55.7c0-0.26,0.21-0.47,0.47-0.47c0.26,0,0.47,0.21,0.47,0.47
					v5.37C24.49,61.32,24.28,61.53,24.03,61.53z"/>
			</g>
			<g>
				<path class="st0" d="M52.07,18.47c-0.26,0-0.47-0.21-0.47-0.47v-5.37c0-0.26,0.21-0.47,0.47-0.47c0.26,0,0.47,0.21,0.47,0.47
					v5.37C52.54,18.26,52.33,18.47,52.07,18.47z"/>
			</g>
			<g>
				<path class="st0" d="M60.25,53.35h-5.37c-0.26,0-0.47-0.21-0.47-0.47c0-0.26,0.21-0.47,0.47-0.47h5.37
					c0.26,0,0.47,0.21,0.47,0.47C60.72,53.14,60.51,53.35,60.25,53.35z"/>
			</g>
			<g>
				<path class="st0" d="M20.02,61.53c-0.26,0-0.47-0.21-0.47-0.47V55.7c0-0.26,0.21-0.47,0.47-0.47c0.26,0,0.47,0.21,0.47,0.47
					v5.37C20.48,61.32,20.27,61.53,20.02,61.53z"/>
			</g>
			<g>
				<path class="st0" d="M17.2,53.35h-5.37c-0.26,0-0.47-0.21-0.47-0.47c0-0.26,0.21-0.47,0.47-0.47h5.37
					c0.26,0,0.47,0.21,0.47,0.47C17.67,53.14,17.46,53.35,17.2,53.35z"/>
			</g>
			<g>
				<path class="st0" d="M17.2,49.34h-5.37c-0.26,0-0.47-0.21-0.47-0.47c0-0.26,0.21-0.47,0.47-0.47h5.37
					c0.26,0,0.47,0.21,0.47,0.47C17.67,49.13,17.46,49.34,17.2,49.34z"/>
			</g>
			<g>
				<path class="st0" d="M17.2,45.33h-5.37c-0.26,0-0.47-0.21-0.47-0.47c0-0.26,0.21-0.47,0.47-0.47h5.37
					c0.26,0,0.47,0.21,0.47,0.47C17.67,45.12,17.46,45.33,17.2,45.33z"/>
			</g>
			<g>
				<path class="st0" d="M17.2,41.32h-5.37c-0.26,0-0.47-0.21-0.47-0.47c0-0.26,0.21-0.47,0.47-0.47h5.37
					c0.26,0,0.47,0.21,0.47,0.47C17.67,41.11,17.46,41.32,17.2,41.32z"/>
			</g>
			<g>
				<path class="st0" d="M17.2,37.32h-5.37c-0.26,0-0.47-0.21-0.47-0.47c0-0.26,0.21-0.47,0.47-0.47h5.37
					c0.26,0,0.47,0.21,0.47,0.47C17.67,37.11,17.46,37.32,17.2,37.32z"/>
			</g>
			<g>
				<path class="st0" d="M17.2,33.31h-5.37c-0.26,0-0.47-0.21-0.47-0.47c0-0.26,0.21-0.47,0.47-0.47h5.37
					c0.26,0,0.47,0.21,0.47,0.47C17.67,33.1,17.46,33.31,17.2,33.31z"/>
			</g>
			<g>
				<path class="st0" d="M17.2,29.3h-5.37c-0.26,0-0.47-0.21-0.47-0.47c0-0.26,0.21-0.47,0.47-0.47h5.37c0.26,0,0.47,0.21,0.47,0.47
					C17.67,29.09,17.46,29.3,17.2,29.3z"/>
			</g>
			<g>
				<path class="st0" d="M17.2,25.3h-5.37c-0.26,0-0.47-0.21-0.47-0.47c0-0.26,0.21-0.47,0.47-0.47h5.37c0.26,0,0.47,0.21,0.47,0.47
					C17.67,25.09,17.46,25.3,17.2,25.3z"/>
			</g>
			<g>
				<path class="st0" d="M17.2,21.28h-5.37c-0.26,0-0.47-0.21-0.47-0.47s0.21-0.47,0.47-0.47h5.37c0.26,0,0.47,0.21,0.47,0.47
					S17.46,21.28,17.2,21.28z"/>
			</g>
			<g>
				<path class="st0" d="M45.16,27.53c-0.26,0-0.47-0.21-0.47-0.47v-4.23c0-0.26,0.21-0.47,0.47-0.47c0.26,0,0.47,0.21,0.47,0.47
					v4.23C45.63,27.32,45.42,27.53,45.16,27.53z"/>
			</g>
			<g>
				<path class="st0" d="M36.05,30.41c-0.26,0-0.47-0.21-0.47-0.47v-7.11c0-0.26,0.21-0.47,0.47-0.47c0.26,0,0.47,0.21,0.47,0.47
					v7.11C36.51,30.2,36.3,30.41,36.05,30.41z"/>
			</g>
			<g>
				<path class="st0" d="M32.04,51.33c-0.26,0-0.47-0.21-0.47-0.47v-7.98c0-0.26,0.21-0.47,0.47-0.47c0.26,0,0.47,0.21,0.47,0.47
					v7.98C32.5,51.12,32.29,51.33,32.04,51.33z"/>
			</g>
			<g>
				<path class="st0" d="M40.05,51.33c-0.26,0-0.47-0.21-0.47-0.47v-7.98c0-0.26,0.21-0.47,0.47-0.47c0.26,0,0.47,0.21,0.47,0.47
					v7.98C40.52,51.12,40.31,51.33,40.05,51.33z"/>
			</g>
			<g>
				<path class="st0" d="M24.03,51.33c-0.26,0-0.47-0.21-0.47-0.47v-9.05c0-0.08,0.02-0.15,0.06-0.22l2.49-4.66
					c0.12-0.23,0.4-0.31,0.63-0.19c0.23,0.12,0.31,0.4,0.19,0.63l-2.44,4.55v8.94C24.49,51.12,24.28,51.33,24.03,51.33z"/>
			</g>
			<g>
				<path class="st0" d="M48.07,51.33c-0.26,0-0.47-0.21-0.47-0.47v-8.94l-2.45-4.55c-0.12-0.23-0.04-0.51,0.19-0.63
					c0.23-0.12,0.51-0.04,0.63,0.19l2.5,4.66c0.04,0.07,0.06,0.14,0.06,0.22v9.05C48.53,51.12,48.32,51.33,48.07,51.33z"/>
			</g>
			<g>
				<path class="st0" d="M36.05,34.3c-1.33,0-2.41-1.08-2.41-2.41c0-1.33,1.08-2.41,2.41-2.41c1.33,0,2.41,1.08,2.41,2.41
					C38.46,33.22,37.37,34.3,36.05,34.3z M36.05,30.41c-0.82,0-1.48,0.66-1.48,1.48c0,0.81,0.66,1.48,1.48,1.48
					c0.81,0,1.48-0.66,1.48-1.48C37.52,31.07,36.86,30.41,36.05,30.41z"/>
			</g>
			<g>
				<path class="st0" d="M26.92,31.41c-1.33,0-2.42-1.08-2.42-2.41c0-1.33,1.08-2.41,2.42-2.41c1.33,0,2.41,1.08,2.41,2.41
					C29.33,30.33,28.25,31.41,26.92,31.41z M26.92,27.53c-0.82,0-1.48,0.66-1.48,1.48c0,0.81,0.66,1.48,1.48,1.48
					c0.81,0,1.47-0.66,1.47-1.48C28.4,28.19,27.74,27.53,26.92,27.53z"/>
			</g>
			<g>
				<path class="st0" d="M45.16,31.41c-1.33,0-2.41-1.08-2.41-2.41c0-1.33,1.08-2.41,2.41-2.41c1.33,0,2.42,1.08,2.42,2.41
					C47.58,30.33,46.5,31.41,45.16,31.41z M45.16,27.53c-0.81,0-1.47,0.66-1.47,1.48c0,0.81,0.66,1.48,1.47,1.48
					c0.82,0,1.48-0.66,1.48-1.48C46.65,28.19,45.98,27.53,45.16,27.53z"/>
			</g>
			<g>
				<path class="st0" d="M40.05,43.35c-1.33,0-2.41-1.08-2.41-2.41c0-1.33,1.08-2.42,2.41-2.42c1.33,0,2.42,1.08,2.42,2.42
					C42.46,42.27,41.38,43.35,40.05,43.35z M40.05,39.46c-0.81,0-1.47,0.66-1.47,1.48c0,0.81,0.66,1.48,1.47,1.48
					c0.82,0,1.48-0.66,1.48-1.48C41.53,40.13,40.87,39.46,40.05,39.46z"/>
			</g>
			<g>
				<path class="st0" d="M27.44,37.85c-1.33,0-2.41-1.08-2.41-2.41c0-1.33,1.08-2.42,2.41-2.42c1.33,0,2.41,1.08,2.41,2.42
					C29.85,36.77,28.77,37.85,27.44,37.85z M27.44,33.96c-0.82,0-1.48,0.66-1.48,1.48c0,0.81,0.66,1.48,1.48,1.48
					c0.81,0,1.48-0.66,1.48-1.48C28.92,34.63,28.26,33.96,27.44,33.96z"/>
			</g>
			<g>
				<path class="st0" d="M44.64,37.85c-1.33,0-2.41-1.08-2.41-2.41c0-1.33,1.08-2.42,2.41-2.42c1.33,0,2.41,1.08,2.41,2.42
					C47.06,36.77,45.97,37.85,44.64,37.85z M44.64,33.96c-0.81,0-1.48,0.66-1.48,1.48c0,0.81,0.66,1.48,1.48,1.48
					c0.82,0,1.48-0.66,1.48-1.48C46.12,34.63,45.46,33.96,44.64,33.96z"/>
			</g>
			<g>
				<path class="st0" d="M32.04,43.35c-1.33,0-2.41-1.08-2.41-2.41c0-1.33,1.08-2.42,2.41-2.42c1.33,0,2.41,1.08,2.41,2.42
					C34.45,42.27,33.37,43.35,32.04,43.35z M32.04,39.46c-0.82,0-1.48,0.66-1.48,1.48c0,0.81,0.66,1.48,1.48,1.48
					c0.81,0,1.48-0.66,1.48-1.48C33.51,40.13,32.85,39.46,32.04,39.46z"/>
			</g>
			<g>
				<path class="st0" d="M26.92,27.53c-0.26,0-0.47-0.21-0.47-0.47v-4.23c0-0.26,0.21-0.47,0.47-0.47c0.26,0,0.47,0.21,0.47,0.47
					v4.23C27.39,27.32,27.18,27.53,26.92,27.53z"/>
			</g>
		</g>
	</g>
</g>
</svg>
