<?xml version="1.0" encoding="utf-8"?>
<!-- Generator: Adobe Illustrator 23.1.1, SVG Export Plug-In . SVG Version: 6.00 Build 0)  -->
<svg version="1.1" id="Capa_1" xmlns="http://www.w3.org/2000/svg" xmlns:xlink="http://www.w3.org/1999/xlink" x="0px" y="0px"
	 viewBox="0 0 115 107" style="enable-background:new 0 0 115 107;" xml:space="preserve">
<style type="text/css">
	.st0{fill:url(#SVGID_1_);}
	.st1{fill:url(#SVGID_2_);}
	.st2{fill:url(#SVGID_3_);}
	.st3{fill:url(#SVGID_4_);}
	.st4{fill:url(#SVGID_5_);}
	.st5{fill:url(#SVGID_6_);}
	.st6{fill:url(#SVGID_7_);}
</style>
<g>
	<linearGradient id="SVGID_1_" gradientUnits="userSpaceOnUse" x1="27.9429" y1="27.8559" x2="36.1519" y2="27.8559">
		<stop  offset="0" style="stop-color:#047CFF"/>
		<stop  offset="1" style="stop-color:#7F5EFF"/>
	</linearGradient>
	<path class="st0" d="M32.05,23.75c-2.26,0-4.1,1.84-4.1,4.1s1.84,4.1,4.1,4.1s4.1-1.84,4.1-4.1S34.31,23.75,32.05,23.75z
		 M32.05,29.22c-0.76,0-1.37-0.61-1.37-1.37c0-0.75,0.61-1.37,1.37-1.37c0.76,0,1.37,0.61,1.37,1.37
		C33.42,28.61,32.8,29.22,32.05,29.22z"/>
	<linearGradient id="SVGID_2_" gradientUnits="userSpaceOnUse" x1="20.6068" y1="27.8559" x2="43.488" y2="27.8559">
		<stop  offset="0" style="stop-color:#047CFF"/>
		<stop  offset="1" style="stop-color:#7F5EFF"/>
	</linearGradient>
	<path class="st1" d="M43.49,25.93l-4.08-7.11l-3.28,1.93v-3.84h-8.16l0.02,3.84l-3.31-1.93l-4.08,7.11l3.33,1.91l-3.33,1.94
		l4.08,7.11l3.21-1.97l0.08,0.05v3.83h8.16l-0.01-3.83l3.29,1.92l4.08-7.11l-3.31-1.92L43.49,25.93z M38.78,30.21l0.98,0.57
		l-1.35,2.36l-0.92-0.54c-0.77-0.45-1.72-0.49-2.58-0.07l-0.17,0.08c-0.83,0.49-1.35,1.39-1.35,2.35v1.11H30.7v-1.11
		c0-0.96-0.52-1.86-1.35-2.35l-0.12-0.07c-0.83-0.44-1.82-0.42-2.63,0.05l-0.93,0.54l-1.35-2.36l0.98-0.57
		c0.83-0.48,1.35-1.38,1.34-2.36c0-0.96-0.51-1.86-1.34-2.35l-0.98-0.57l1.35-2.35l0.92,0.54c0.84,0.49,1.89,0.49,2.74-0.01
		c0.83-0.49,1.35-1.39,1.35-2.35v-1.11h2.69v1.11c0,0.96,0.52,1.86,1.36,2.36c0.85,0.5,1.89,0.5,2.73,0.01l0.93-0.54l1.35,2.36
		l-0.98,0.57c-0.83,0.48-1.35,1.38-1.34,2.36C37.44,28.82,37.95,29.72,38.78,30.21L38.78,30.21z"/>
	<linearGradient id="SVGID_3_" gradientUnits="userSpaceOnUse" x1="15.6294" y1="53.8511" x2="100.4557" y2="53.8511">
		<stop  offset="0" style="stop-color:#047CFF"/>
		<stop  offset="1" style="stop-color:#7F5EFF"/>
	</linearGradient>
	<path class="st2" d="M84.04,63.43c-4.03,0-7.73,1.47-10.59,3.89l-3.85-3.85c2.18-2.61,3.49-5.97,3.49-9.62
		c0-3.66-1.31-7.01-3.49-9.62l3.85-3.85c2.86,2.42,6.56,3.89,10.59,3.89c9.05,0,16.42-7.36,16.42-16.42s-7.36-16.42-16.42-16.42
		S67.62,18.8,67.62,27.86c0,4.03,1.47,7.73,3.89,10.59l-3.85,3.85c-2.61-2.18-5.97-3.49-9.62-3.49s-7.01,1.31-9.62,3.49l-3.85-3.85
		c2.42-2.86,3.89-6.55,3.89-10.59c0-9.05-7.36-16.42-16.42-16.42S15.63,18.8,15.63,27.86s7.36,16.42,16.42,16.42
		c4.03,0,7.73-1.47,10.59-3.89l3.85,3.85c-2.18,2.61-3.49,5.97-3.49,9.62c0,3.66,1.31,7.01,3.49,9.62l-3.85,3.85
		c-2.86-2.42-6.56-3.89-10.59-3.89c-9.05,0-16.42,7.36-16.42,16.42s7.36,16.42,16.42,16.42s16.42-7.36,16.42-16.42
		c0-4.03-1.47-7.73-3.89-10.59l3.85-3.85c2.61,2.18,5.97,3.49,9.62,3.49c3.66,0,7.01-1.31,9.62-3.49l3.85,3.85
		c-2.42,2.86-3.89,6.55-3.89,10.59c0,9.05,7.36,16.42,16.42,16.42s16.42-7.36,16.42-16.42S93.09,63.43,84.04,63.43z M53.94,53.85
		c0-0.92,0.12-1.83,0.31-2.74h7.6c0.19,0.9,0.3,1.82,0.3,2.74c0,0.92-0.12,1.83-0.31,2.74h-7.6C54.06,55.68,53.94,54.77,53.94,53.85
		z M70.36,53.85c0,0.94-0.12,1.86-0.32,2.74h-5.4c0.16-0.9,0.25-1.82,0.25-2.74s-0.09-1.84-0.25-2.74h5.4
		C70.24,52,70.36,52.91,70.36,53.85z M63.95,48.38c-0.83-2.58-2.05-4.86-3.07-6.5c3.59,0.85,6.57,3.27,8.17,6.5H63.95z M58.04,42.53
		c0.88,1.33,2.12,3.43,3.01,5.85h-6.02C55.92,45.97,57.16,43.86,58.04,42.53z M52.13,48.38h-5.11c1.61-3.23,4.59-5.65,8.17-6.5
		C54.19,43.52,52.96,45.8,52.13,48.38z M61.05,59.32c-0.89,2.41-2.13,4.51-3.01,5.85c-0.88-1.33-2.12-3.43-3.01-5.85H61.05z
		 M55.2,65.82c-3.59-0.85-6.57-3.27-8.17-6.5h5.11C52.96,61.9,54.19,64.19,55.2,65.82z M63.95,59.32h5.11
		c-1.61,3.23-4.59,5.65-8.17,6.5C61.9,64.19,63.12,61.9,63.95,59.32L63.95,59.32z M84.04,14.17c7.54,0,13.68,6.14,13.68,13.68
		s-6.14,13.68-13.68,13.68c-7.54,0-13.68-6.14-13.68-13.68S76.49,14.17,84.04,14.17z M32.05,41.54c-7.54,0-13.68-6.14-13.68-13.68
		s6.14-13.68,13.68-13.68s13.68,6.14,13.68,13.68S39.59,41.54,32.05,41.54z M46.05,51.11h5.4c-0.16,0.9-0.25,1.82-0.25,2.74
		s0.09,1.84,0.25,2.74h-5.4c-0.2-0.88-0.32-1.8-0.32-2.74C45.73,52.91,45.85,52,46.05,51.11z M32.05,93.53
		c-7.54,0-13.68-6.14-13.68-13.68s6.14-13.68,13.68-13.68s13.68,6.14,13.68,13.68S39.59,93.53,32.05,93.53z M84.04,93.53
		c-7.54,0-13.68-6.14-13.68-13.68s6.14-13.68,13.68-13.68c7.54,0,13.68,6.14,13.68,13.68S91.58,93.53,84.04,93.53z"/>
	<linearGradient id="SVGID_4_" gradientUnits="userSpaceOnUse" x1="22.4702" y1="79.8462" x2="41.6245" y2="79.8462">
		<stop  offset="0" style="stop-color:#047CFF"/>
		<stop  offset="1" style="stop-color:#7F5EFF"/>
	</linearGradient>
	<path class="st3" d="M38.89,85.32h-2.74V74.37h-2.74v10.95h-2.74v-8.21h-2.74v8.21h-2.74v-5.47h-2.74v8.21h19.15V71.64h-2.74V85.32
		z"/>
	<linearGradient id="SVGID_5_" gradientUnits="userSpaceOnUse" x1="73.0924" y1="27.8559" x2="94.9831" y2="27.8559">
		<stop  offset="0" style="stop-color:#047CFF"/>
		<stop  offset="1" style="stop-color:#7F5EFF"/>
	</linearGradient>
	<path class="st4" d="M78.57,36.06h8.21c4.53,0,8.21-3.68,8.21-8.21s-3.68-8.21-8.21-8.21c-3.56,0-6.62,2.24-7.74,5.49
		c-0.15-0.01-0.31-0.02-0.47-0.02c-3.02,0-5.47,2.45-5.47,5.47S75.55,36.06,78.57,36.06z M78.57,27.86c0.34,0,0.66,0.06,0.96,0.18
		l1.58,0.63l0.27-1.68c0.43-2.66,2.69-4.59,5.39-4.59c3.02,0,5.47,2.45,5.47,5.47s-2.45,5.47-5.47,5.47h-8.21
		c-1.51,0-2.74-1.23-2.74-2.74C75.83,29.08,77.06,27.86,78.57,27.86z"/>
	<linearGradient id="SVGID_6_" gradientUnits="userSpaceOnUse" x1="79.9332" y1="78.4781" x2="88.1422" y2="78.4781">
		<stop  offset="0" style="stop-color:#047CFF"/>
		<stop  offset="1" style="stop-color:#7F5EFF"/>
	</linearGradient>
	<path class="st5" d="M84.04,74.37c-2.26,0-4.1,1.84-4.1,4.1s1.84,4.1,4.1,4.1s4.1-1.84,4.1-4.1S86.3,74.37,84.04,74.37z
		 M84.04,79.85c-0.76,0-1.37-0.61-1.37-1.37c0-0.75,0.61-1.37,1.37-1.37s1.37,0.61,1.37,1.37C85.41,79.23,84.79,79.85,84.04,79.85z"
		/>
	<linearGradient id="SVGID_7_" gradientUnits="userSpaceOnUse" x1="74.4606" y1="79.8462" x2="93.6149" y2="79.8462">
		<stop  offset="0" style="stop-color:#047CFF"/>
		<stop  offset="1" style="stop-color:#7F5EFF"/>
	</linearGradient>
	<path class="st6" d="M84.04,68.9c-5.28,0-9.58,4.3-9.58,9.58c0,4.95,5.73,12.31,9.58,12.31c3.85,0,9.58-7.36,9.58-12.31
		C93.61,73.2,89.32,68.9,84.04,68.9z M84.04,88.06c-1.78,0-6.84-5.54-6.84-9.58c0-3.77,3.07-6.84,6.84-6.84
		c3.77,0,6.84,3.07,6.84,6.84C90.88,82.52,85.82,88.06,84.04,88.06z"/>
</g>
</svg>
