<?xml version="1.0" encoding="utf-8"?>
<!-- Generator: Adobe Illustrator 23.1.1, SVG Export Plug-In . SVG Version: 6.00 Build 0)  -->
<svg version="1.1" id="Capa_1" xmlns="http://www.w3.org/2000/svg" xmlns:xlink="http://www.w3.org/1999/xlink" x="0px" y="0px"
	 viewBox="0 0 98 92" style="enable-background:new 0 0 98 92;" xml:space="preserve">
<style type="text/css">
	.st0{fill:#3BC9FF;}
</style>
<g>
	<g>
		<g>
			<path class="st0" d="M46.49,49.44c-0.33,0-0.61-0.25-0.64-0.59l-1.49-19.39c-0.03-0.35,0.24-0.66,0.59-0.68
				c0.35-0.03,0.66,0.24,0.68,0.59l1.49,19.39c0.03,0.35-0.24,0.66-0.59,0.68C46.53,49.44,46.51,49.44,46.49,49.44z"/>
		</g>
		<g>
			<path class="st0" d="M51.59,49.44c-0.02,0-0.03,0-0.05,0c-0.35-0.03-0.61-0.33-0.59-0.68l1.49-19.39
				c0.03-0.35,0.33-0.61,0.68-0.59c0.35,0.03,0.61,0.33,0.59,0.68l-1.49,19.39C52.2,49.19,51.92,49.44,51.59,49.44z"/>
		</g>
		<g>
			<path class="st0" d="M40.54,28.56c-0.13,0-0.26-0.04-0.38-0.12c-0.28-0.21-0.35-0.61-0.14-0.89l4.25-5.83
				c0.21-0.29,0.61-0.35,0.89-0.14c0.28,0.21,0.35,0.61,0.14,0.89l-4.25,5.84C40.93,28.47,40.74,28.56,40.54,28.56z"/>
		</g>
		<g>
			<path class="st0" d="M49.04,28.56c-0.2,0-0.39-0.09-0.52-0.26l-4.25-5.84c-0.21-0.28-0.14-0.68,0.14-0.89
				c0.29-0.21,0.68-0.14,0.89,0.14l4.25,5.83c0.21,0.29,0.14,0.68-0.14,0.89C49.3,28.52,49.17,28.56,49.04,28.56z"/>
		</g>
		<g>
			<path class="st0" d="M57.54,28.56c-0.2,0-0.39-0.09-0.52-0.26l-4.25-5.84c-0.21-0.28-0.14-0.68,0.14-0.89
				c0.28-0.21,0.68-0.14,0.89,0.14l4.25,5.83c0.21,0.29,0.14,0.68-0.14,0.89C57.81,28.52,57.67,28.56,57.54,28.56z"/>
		</g>
		<g>
			<path class="st0" d="M49.04,28.56c-0.13,0-0.26-0.04-0.37-0.12c-0.29-0.21-0.35-0.61-0.14-0.89l4.25-5.83
				c0.21-0.29,0.61-0.35,0.89-0.14c0.28,0.21,0.35,0.61,0.14,0.89l-4.25,5.84C49.43,28.47,49.24,28.56,49.04,28.56z"/>
		</g>
		<g>
			<path class="st0" d="M49.04,58.62c-2.61,0-4.73-2.12-4.73-4.73c0-0.13,0-0.25,0.01-0.37c0.03-0.33,0.3-0.58,0.64-0.58h8.17
				c0.33,0,0.61,0.25,0.63,0.59c0.01,0.12,0.01,0.23,0.01,0.37C53.77,56.5,51.65,58.62,49.04,58.62z M45.6,54.21
				c0.16,1.76,1.65,3.14,3.44,3.14c1.8,0,3.28-1.38,3.44-3.14H45.6z"/>
		</g>
		<g>
			<path class="st0" d="M80.46,70.87H17.63c-0.35,0-0.64-0.29-0.64-0.64V28.1c0-0.17,0.07-0.33,0.19-0.45
				c0.12-0.12,0.28-0.19,0.45-0.19l0,0l17.15,0.02c0.35,0,0.63,0.27,0.64,0.62c0.12,4.04,1.44,6.01,2.97,8.3
				c1.72,2.58,3.67,5.49,4.13,11.85c0.19,0.11,0.32,0.31,0.33,0.54c0.01,0.32-0.21,0.59-0.52,0.65v1.12h0.85
				c0.34,0,0.63,0.27,0.64,0.62c0.01,0.32-0.21,0.59-0.51,0.65v1.12H54.8v-1.12c-0.3-0.06-0.53-0.33-0.52-0.65
				c0.01-0.34,0.29-0.62,0.64-0.62h0.85v-1.12c-0.3-0.06-0.53-0.33-0.52-0.65c0.01-0.23,0.14-0.43,0.32-0.53
				c0.46-6.36,2.41-9.27,4.13-11.85c1.53-2.28,2.84-4.25,2.96-8.28c0.01-0.34,0.29-0.62,0.64-0.62h0l17.15,0.01
				c0.35,0,0.64,0.29,0.64,0.64v42.08C81.09,70.58,80.81,70.87,80.46,70.87z M18.27,69.59h61.56v-40.8l-15.9-0.01
				c-0.25,3.99-1.66,6.1-3.15,8.33c-1.75,2.61-3.55,5.31-3.94,11.56c0.14,0.19,0.22,0.43,0.22,0.69v1.29c0,0.58-0.42,1.06-0.97,1.16
				v1.22c0,0.65-0.53,1.18-1.19,1.18h-11.7c-0.65,0-1.18-0.53-1.18-1.18v-1.22c-0.55-0.1-0.97-0.58-0.97-1.16v-1.29
				c0-0.25,0.08-0.49,0.22-0.68c-0.39-6.25-2.19-8.95-3.94-11.57c-1.49-2.24-2.91-4.35-3.15-8.35l-15.9-0.02V69.59z"/>
		</g>
		<g>
			<path class="st0" d="M81.81,78.63H16.28c-2.49,0-4.52-2.03-4.52-4.52v-2.78c0-0.96,0.78-1.74,1.74-1.74h71.1
				c0.96,0,1.74,0.78,1.74,1.74v2.78C86.33,76.6,84.3,78.63,81.81,78.63z M13.49,70.87c-0.26,0-0.46,0.21-0.46,0.47v2.78
				c0,1.79,1.46,3.24,3.24,3.24h65.53c1.79,0,3.25-1.45,3.25-3.24v-2.78c0-0.26-0.21-0.47-0.46-0.47H13.49z"/>
		</g>
		<g>
			<path class="st0" d="M49.04,76.97c-1.58,0-2.86-1.28-2.86-2.86c0-1.58,1.28-2.86,2.86-2.86c1.58,0,2.86,1.28,2.86,2.86
				C51.91,75.69,50.62,76.97,49.04,76.97z M49.04,72.52c-0.88,0-1.59,0.71-1.59,1.59c0,0.87,0.71,1.59,1.59,1.59
				s1.59-0.71,1.59-1.59C50.63,73.24,49.92,72.52,49.04,72.52z"/>
		</g>
		<g>
			<path class="st0" d="M56.18,49.44H41.9c-0.34,0-0.62-0.26-0.64-0.6c-0.37-6.37-2.19-9.1-3.95-11.73
				c-1.64-2.45-3.19-4.77-3.19-9.6c0-8.22,6.69-14.9,14.91-14.9c8.22,0,14.91,6.69,14.91,14.9c0,4.83-1.55,7.14-3.19,9.6
				c-1.76,2.64-3.58,5.36-3.95,11.74C56.8,49.18,56.52,49.44,56.18,49.44z M42.5,48.17h13.09c0.47-6.31,2.41-9.2,4.12-11.77
				c1.6-2.39,2.97-4.45,2.97-8.89c0-7.51-6.12-13.63-13.64-13.63c-7.52,0-13.64,6.11-13.64,13.63c0,4.44,1.38,6.5,2.97,8.89
				C40.09,38.97,42.03,41.87,42.5,48.17z"/>
		</g>
		<g>
			<path class="st0" d="M55.86,51.83H42.22c-0.65,0-1.18-0.53-1.18-1.18v-1.29c0-0.65,0.53-1.19,1.18-1.19h13.64
				c0.65,0,1.18,0.53,1.18,1.19v1.29C57.05,51.3,56.52,51.83,55.86,51.83z M42.31,50.55h13.46v-1.11H42.31V50.55z"/>
		</g>
		<g>
			<path class="st0" d="M54.89,54.21h-11.7c-0.65,0-1.18-0.53-1.18-1.18v-1.29c0-0.65,0.53-1.19,1.18-1.19h11.7
				c0.65,0,1.19,0.53,1.19,1.19v1.29C56.08,53.68,55.55,54.21,54.89,54.21z M43.29,52.94H54.8v-1.11H43.29V52.94z"/>
		</g>
		<g>
			<path class="st0" d="M49.04,58.62c-2.61,0-4.73-2.12-4.73-4.73c0-0.13,0-0.25,0.01-0.37c0.03-0.33,0.3-0.58,0.64-0.58h8.17
				c0.33,0,0.61,0.25,0.63,0.59c0.01,0.12,0.01,0.23,0.01,0.37C53.77,56.5,51.65,58.62,49.04,58.62z M45.6,54.21
				c0.16,1.76,1.65,3.14,3.44,3.14c1.8,0,3.28-1.38,3.44-3.14H45.6z"/>
		</g>
	</g>
</g>
</svg>
