<?xml version="1.0" encoding="utf-8"?>
<!-- Generator: Adobe Illustrator 23.1.1, SVG Export Plug-In . SVG Version: 6.00 Build 0)  -->
<svg version="1.1" id="Capa_1" xmlns="http://www.w3.org/2000/svg" xmlns:xlink="http://www.w3.org/1999/xlink" x="0px" y="0px"
	 viewBox="0 0 89 93" style="enable-background:new 0 0 89 93;" xml:space="preserve">
<style type="text/css">
	.st0{fill:url(#SVGID_1_);}
	.st1{fill:url(#SVGID_2_);}
	.st2{fill:url(#SVGID_3_);}
	.st3{fill:url(#SVGID_4_);}
	.st4{fill:url(#SVGID_5_);}
	.st5{fill:url(#SVGID_6_);}
	.st6{fill:url(#SVGID_7_);}
	.st7{fill:url(#SVGID_8_);}
	.st8{fill:url(#SVGID_9_);}
</style>
<g>
	<g>
		<linearGradient id="SVGID_1_" gradientUnits="userSpaceOnUse" x1="49.4095" y1="34.5022" x2="66.7547" y2="34.5022">
			<stop  offset="0" style="stop-color:#047CFF"/>
			<stop  offset="1" style="stop-color:#7F5EFF"/>
		</linearGradient>
		<path class="st0" d="M63.17,48.75V30.02h3.58l-8.08-9.77h-1.19l-8.08,9.77h3.58v18.73H63.17z M58.08,22.53l4.61,5.58h-1.43v18.73
			H54.9V28.11h-1.43L58.08,22.53z"/>
		<linearGradient id="SVGID_2_" gradientUnits="userSpaceOnUse" x1="36.4243" y1="39.3029" x2="46.603" y2="39.3029">
			<stop  offset="0" style="stop-color:#047CFF"/>
			<stop  offset="1" style="stop-color:#7F5EFF"/>
		</linearGradient>
		<path class="st1" d="M36.42,29.85v18.9H46.6v-18.9H36.42z M44.69,46.84h-6.36V31.76h6.36V46.84z"/>
		<linearGradient id="SVGID_3_" gradientUnits="userSpaceOnUse" x1="22.4048" y1="40.7743" x2="32.5836" y2="40.7743">
			<stop  offset="0" style="stop-color:#047CFF"/>
			<stop  offset="1" style="stop-color:#7F5EFF"/>
		</linearGradient>
		<path class="st2" d="M22.4,48.75h10.18V32.79H22.4V48.75z M24.32,34.71h6.36v12.14h-6.36V34.71z"/>
		<linearGradient id="SVGID_4_" gradientUnits="userSpaceOnUse" x1="11.4155" y1="40.0811" x2="76.6697" y2="40.0811">
			<stop  offset="0" style="stop-color:#047CFF"/>
			<stop  offset="1" style="stop-color:#7F5EFF"/>
		</linearGradient>
		<path class="st3" d="M72.52,14.28H27.48v1.91h45.04c1.23,0,2.24,1,2.24,2.24v34.89H63.35v1.91h11.41v6.5c0,1.23-1,2.24-2.24,2.24
			H15.57c-1.23,0-2.24-1-2.24-2.24v-6.5h48.11v-1.91H13.33V18.43c0-1.23,1-2.24,2.24-2.24h10v-1.91h-10c-2.29,0-4.15,1.86-4.15,4.15
			v43.3c0,2.29,1.86,4.15,4.15,4.15h56.95c2.29,0,4.15-1.86,4.15-4.15v-43.3C76.67,16.14,74.81,14.28,72.52,14.28L72.52,14.28z"/>
		<linearGradient id="SVGID_5_" gradientUnits="userSpaceOnUse" x1="28.1881" y1="73.9501" x2="59.897" y2="73.9501">
			<stop  offset="0" style="stop-color:#047CFF"/>
			<stop  offset="1" style="stop-color:#7F5EFF"/>
		</linearGradient>
		<path class="st4" d="M52.68,68.56l-1.87,0.38l0.59,2.97H36.69l0.59-2.97l-1.87-0.38l-0.67,3.34h-6.55v7.43H59.9v-7.43h-6.55
			L52.68,68.56z M57.99,73.82v3.61H30.1v-3.61H57.99z"/>
	</g>
	<g>
		<linearGradient id="SVGID_6_" gradientUnits="userSpaceOnUse" x1="37.2877" y1="59.6028" x2="50.6699" y2="59.6028">
			<stop  offset="0" style="stop-color:#047CFF"/>
			<stop  offset="1" style="stop-color:#7F5EFF"/>
		</linearGradient>
		<path class="st5" d="M50.67,60.56h-1.91v-1.91h1.91V60.56z M44.93,60.56h-1.91v-1.91h1.91V60.56z M39.2,60.56h-1.91v-1.91h1.91
			V60.56z"/>
	</g>
	<g>
		<linearGradient id="SVGID_7_" gradientUnits="userSpaceOnUse" x1="57.1131" y1="40.7744" x2="59.0249" y2="40.7744">
			<stop  offset="0" style="stop-color:#047CFF"/>
			<stop  offset="1" style="stop-color:#7F5EFF"/>
		</linearGradient>
		<path class="st6" d="M57.11,39.82h1.91v1.91h-1.91V39.82z"/>
	</g>
	<g>
		<linearGradient id="SVGID_8_" gradientUnits="userSpaceOnUse" x1="40.5647" y1="40.7744" x2="42.4765" y2="40.7744">
			<stop  offset="0" style="stop-color:#047CFF"/>
			<stop  offset="1" style="stop-color:#7F5EFF"/>
		</linearGradient>
		<path class="st7" d="M40.56,39.82h1.91v1.91h-1.91V39.82z"/>
	</g>
	<g>
		<linearGradient id="SVGID_9_" gradientUnits="userSpaceOnUse" x1="26.5252" y1="40.7744" x2="28.437" y2="40.7744">
			<stop  offset="0" style="stop-color:#047CFF"/>
			<stop  offset="1" style="stop-color:#7F5EFF"/>
		</linearGradient>
		<path class="st8" d="M26.53,39.82h1.91v1.91h-1.91V39.82z"/>
	</g>
</g>
</svg>
