<?xml version="1.0" encoding="utf-8"?>
<!-- Generator: Adobe Illustrator 23.1.1, SVG Export Plug-In . SVG Version: 6.00 Build 0)  -->
<svg version="1.1" id="Capa_1" xmlns="http://www.w3.org/2000/svg" xmlns:xlink="http://www.w3.org/1999/xlink" x="0px" y="0px"
	 viewBox="0 0 78 93" style="enable-background:new 0 0 78 93;" xml:space="preserve">
<style type="text/css">
	.st0{fill:url(#SVGID_1_);}
	.st1{fill:url(#SVGID_2_);}
	.st2{fill:url(#SVGID_3_);}
	.st3{fill:url(#SVGID_4_);}
	.st4{fill:url(#SVGID_5_);}
	.st5{fill:url(#SVGID_6_);}
	.st6{fill:url(#SVGID_7_);}
	.st7{fill:url(#SVGID_8_);}
</style>
<g>
	<linearGradient id="SVGID_1_" gradientUnits="userSpaceOnUse" x1="13.4705" y1="34.2263" x2="17.7034" y2="34.2263">
		<stop  offset="0" style="stop-color:#047CFF"/>
		<stop  offset="1" style="stop-color:#7F5EFF"/>
	</linearGradient>
	<path class="st0" d="M13.47,33.17h4.23v2.12h-4.23V33.17z"/>
	<linearGradient id="SVGID_2_" gradientUnits="userSpaceOnUse" x1="19.8198" y1="34.2263" x2="28.2856" y2="34.2263">
		<stop  offset="0" style="stop-color:#047CFF"/>
		<stop  offset="1" style="stop-color:#7F5EFF"/>
	</linearGradient>
	<path class="st1" d="M19.82,33.17h8.47v2.12h-8.47V33.17z"/>
	<linearGradient id="SVGID_3_" gradientUnits="userSpaceOnUse" x1="13.4705" y1="38.4592" x2="28.2856" y2="38.4592">
		<stop  offset="0" style="stop-color:#047CFF"/>
		<stop  offset="1" style="stop-color:#7F5EFF"/>
	</linearGradient>
	<path class="st2" d="M13.47,37.4h14.82v2.12H13.47V37.4z"/>
	<linearGradient id="SVGID_4_" gradientUnits="userSpaceOnUse" x1="9.2376" y1="44.8085" x2="74.8476" y2="44.8085">
		<stop  offset="0" style="stop-color:#047CFF"/>
		<stop  offset="1" style="stop-color:#7F5EFF"/>
	</linearGradient>
	<path class="st3" d="M74.85,40.58c0-5.01-2.11-9.77-5.77-13.17l0.6-5.99l-11.76,1.07v-7.31c0-1.75-1.42-3.17-3.17-3.17H14.53
		c-1.75,0-3.17,1.42-3.17,3.17v13.76c-1.17,0-2.12,0.95-2.12,2.12v10.58c0,1.17,0.95,2.12,2.12,2.12v28.57
		c0,1.75,1.42,3.17,3.17,3.17h39.15c0,1.17,0.95,2.12,2.12,2.12h2.12c1.17,0,2.12-0.95,2.12-2.12V58.27
		C68.44,56.76,74.85,49.41,74.85,40.58L74.85,40.58z M62.15,50.93c-0.67,0.34-1.38,0.62-2.12,0.83V41.01l2.12-2.12V50.93z
		 M57.92,40.14v12.02c-0.35,0.03-0.7,0.05-1.06,0.05s-0.71-0.02-1.06-0.05V39.08l-6.35,6.35v4.12c-1.18-0.97-2.16-2.18-2.88-3.54
		l15.55-15.55l5.4,5.46c0.64,1.46,0.98,3.04,0.98,4.66c0,3.61-1.65,6.84-4.23,8.97V33.79L57.92,40.14z M53.68,51.77
		c-0.74-0.21-1.45-0.49-2.12-0.83V46.3l2.12-2.12V51.77z M40.98,40.58c0-8.61,6.9-15.63,15.45-15.85l2.2,2.22
		c-0.59-0.08-1.18-0.13-1.78-0.13c-7.59,0-13.76,6.17-13.76,13.76c0,1.75,0.34,3.42,0.94,4.97l-1.61,1.61
		C41.51,45.15,40.98,42.92,40.98,40.58L40.98,40.58z M45.22,40.58c0-6.42,5.22-11.64,11.64-11.64c1.13,0,2.24,0.17,3.31,0.49
		L45.7,43.88C45.39,42.83,45.22,41.73,45.22,40.58L45.22,40.58z M67.32,23.76l-0.81,8.13l-7.32-7.39L67.32,23.76z M14.53,14.12
		h40.21c0.58,0,1.06,0.48,1.06,1.06v7.46c-2.66,0.16-5.16,0.87-7.39,2.06H13.47v-9.52C13.47,14.6,13.94,14.12,14.53,14.12
		L14.53,14.12z M11.35,31.05H30.4l0,10.58h-6.35v3.88c0,0.3-0.45,0.46-0.64,0.21l-3.07-4.09h-8.99V31.05z M14.53,73.38
		c-0.58,0-1.06-0.47-1.06-1.06V43.75h5.82l2.43,3.24c0.46,0.62,1.2,0.99,1.98,0.99c1.36,0,2.47-1.11,2.47-2.47v-1.76h4.23
		c1.17,0,2.12-0.95,2.12-2.12V31.05c0-1.17-0.95-2.12-2.12-2.12H13.47v-2.12h31.82c-3.92,3.3-6.42,8.24-6.42,13.76
		c0,2.94,0.72,5.71,1.98,8.16l-7.27,7.27l-7.37-7.37l-11.33,10.2l1.42,1.57l9.84-8.85L33.58,59l8.37-8.37
		c2.67,3.95,6.87,6.76,11.73,7.64v15.11H14.53z M57.92,75.5H55.8V58.51c0.35,0.02,0.7,0.05,1.06,0.05s0.71-0.03,1.06-0.05V75.5z
		 M56.86,56.45c-5.62,0-10.55-2.94-13.37-7.35l1.54-1.54c2.4,4.05,6.8,6.78,11.83,6.78c7.59,0,13.76-6.17,13.76-13.76
		c0-2.61-0.74-5.13-2.12-7.32l0.31-3.1c2.51,2.87,3.92,6.56,3.92,10.42C72.73,49.33,65.61,56.45,56.86,56.45z"/>
	<linearGradient id="SVGID_5_" gradientUnits="userSpaceOnUse" x1="15.5869" y1="19.4111" x2="21.9363" y2="19.4111">
		<stop  offset="0" style="stop-color:#047CFF"/>
		<stop  offset="1" style="stop-color:#7F5EFF"/>
	</linearGradient>
	<path class="st4" d="M18.76,22.59c1.75,0,3.17-1.42,3.17-3.17s-1.42-3.17-3.17-3.17s-3.17,1.42-3.17,3.17S17.01,22.59,18.76,22.59z
		 M18.76,18.35c0.58,0,1.06,0.48,1.06,1.06s-0.47,1.06-1.06,1.06s-1.06-0.48-1.06-1.06S18.18,18.35,18.76,18.35z"/>
	<linearGradient id="SVGID_6_" gradientUnits="userSpaceOnUse" x1="24.0527" y1="19.4111" x2="30.4021" y2="19.4111">
		<stop  offset="0" style="stop-color:#047CFF"/>
		<stop  offset="1" style="stop-color:#7F5EFF"/>
	</linearGradient>
	<path class="st5" d="M27.23,22.59c1.75,0,3.17-1.42,3.17-3.17s-1.42-3.17-3.17-3.17s-3.17,1.42-3.17,3.17S25.48,22.59,27.23,22.59z
		 M27.23,18.35c0.58,0,1.06,0.48,1.06,1.06s-0.47,1.06-1.06,1.06s-1.06-0.48-1.06-1.06S26.64,18.35,27.23,18.35z"/>
	<linearGradient id="SVGID_7_" gradientUnits="userSpaceOnUse" x1="32.5185" y1="19.4111" x2="38.8679" y2="19.4111">
		<stop  offset="0" style="stop-color:#047CFF"/>
		<stop  offset="1" style="stop-color:#7F5EFF"/>
	</linearGradient>
	<path class="st6" d="M35.69,22.59c1.75,0,3.17-1.42,3.17-3.17s-1.42-3.17-3.17-3.17s-3.17,1.42-3.17,3.17S33.94,22.59,35.69,22.59z
		 M35.69,18.35c0.58,0,1.06,0.48,1.06,1.06s-0.47,1.06-1.06,1.06s-1.06-0.48-1.06-1.06S35.11,18.35,35.69,18.35z"/>
	<linearGradient id="SVGID_8_" gradientUnits="userSpaceOnUse" x1="15.5869" y1="61.5211" x2="51.5666" y2="61.5211">
		<stop  offset="0" style="stop-color:#047CFF"/>
		<stop  offset="1" style="stop-color:#7F5EFF"/>
	</linearGradient>
	<path class="st7" d="M49.45,67.03v-8.47h-2.12v8.47h-2.12V56.45H43.1v10.58h-2.12v-6.35h-6.35v6.35h-2.12v-6.79l-6.35-6.35v13.14
		h-2.12v-9.96l-6.35,6.35v3.61h-2.12v2.12h35.98v-2.12H49.45z M36.75,62.8h2.12v4.23h-2.12V62.8z M28.29,59l2.12,2.12v5.91h-2.12V59
		z M19.82,64.29l2.12-2.12v4.85h-2.12V64.29z"/>
</g>
</svg>
