<?xml version="1.0" encoding="utf-8"?>
<!-- Generator: Adobe Illustrator 23.1.1, SVG Export Plug-In . SVG Version: 6.00 Build 0)  -->
<svg version="1.1" id="Capa_1" xmlns="http://www.w3.org/2000/svg" xmlns:xlink="http://www.w3.org/1999/xlink" x="0px" y="0px"
	 viewBox="0 0 125 113" style="enable-background:new 0 0 125 113;" xml:space="preserve">
<style type="text/css">
	.st0{fill:#74CBF3;}
	.st1{fill:#28348A;}
</style>
<g>
	<g>
		<path class="st0" d="M42.39,48.22c-2.23,5.26,2.8,17.6,9.03,21.24c6.23,3.63,19.42,2.11,24.86-5.07
			c5.43-7.18,7.19-20.84,1.53-27.34C72.14,30.54,49.18,32.22,42.39,48.22z"/>
		<g>
			<path class="st1" d="M101.57,82.9H82.78c-0.46,0-0.83-0.37-0.83-0.83s0.37-0.83,0.83-0.83h18.79c0.46,0,0.83,0.37,0.83,0.83
				S102.03,82.9,101.57,82.9z"/>
		</g>
		<g>
			<path class="st1" d="M41.95,82.9H23.17c-0.46,0-0.83-0.37-0.83-0.83s0.37-0.83,0.83-0.83h18.78c0.46,0,0.83,0.37,0.83,0.83
				S42.41,82.9,41.95,82.9z"/>
		</g>
		<g>
			<path class="st1" d="M102.71,88.81H84.08c-0.46,0-0.83-0.37-0.83-0.83c0-0.46,0.37-0.83,0.83-0.83h18.63
				c1.07,0,1.94-0.87,1.94-1.94v-3.62c0-0.46,0.37-0.83,0.83-0.83c0.46,0,0.83,0.37,0.83,0.83v3.62
				C106.31,87.2,104.69,88.81,102.71,88.81z M79.65,88.81H53.05c-0.46,0-0.83-0.37-0.83-0.83c0-0.46,0.37-0.83,0.83-0.83h26.59
				c0.46,0,0.83,0.37,0.83,0.83C80.48,88.44,80.1,88.81,79.65,88.81z M48.62,88.81H22.03c-1.99,0-3.6-1.62-3.6-3.6v-0.83
				c0-0.46,0.37-0.83,0.83-0.83c0.46,0,0.83,0.37,0.83,0.83v0.83c0,1.07,0.87,1.94,1.94,1.94h26.59c0.46,0,0.83,0.37,0.83,0.83
				C49.45,88.44,49.08,88.81,48.62,88.81z M19.26,80.78c-0.46,0-0.83-0.37-0.83-0.83v-1.03c0-1.98,1.62-3.59,3.6-3.59h21.22
				c0.46,0,0.83,0.37,0.83,0.83s-0.37,0.83-0.83,0.83H22.03c-1.07,0-1.94,0.87-1.94,1.93v1.03C20.09,80.41,19.71,80.78,19.26,80.78z
				 M104.93,78.11c-0.25,0-0.51-0.12-0.67-0.34c-0.37-0.49-0.95-0.79-1.56-0.79c0,0,0,0,0,0h-24c-0.46,0-0.83-0.37-0.83-0.83
				s0.37-0.83,0.83-0.83h24c0,0,0,0,0,0c1.13,0,2.22,0.55,2.89,1.46c0.27,0.37,0.2,0.89-0.17,1.16
				C105.28,78.06,105.11,78.11,104.93,78.11z M74.27,76.98H47.68c-0.46,0-0.83-0.37-0.83-0.83s0.37-0.83,0.83-0.83h26.59
				c0.46,0,0.83,0.37,0.83,0.83S74.73,76.98,74.27,76.98z"/>
		</g>
		<g>
			<path class="st1" d="M72.8,88.81H51.93c-0.46,0-0.83-0.37-0.83-0.83v-7.35c0-0.46,0.37-0.83,0.83-0.83h18.05
				c0.46,0,0.83,0.37,0.83,0.83c0,0.46-0.37,0.83-0.83,0.83H52.76v5.69h19.2v-4.9c0-0.46,0.37-0.83,0.83-0.83s0.83,0.37,0.83,0.83
				v5.73C73.63,88.44,73.26,88.81,72.8,88.81z"/>
		</g>
		<g>
			<path class="st1" d="M96.47,76.98H69.88c-0.46,0-0.83-0.37-0.83-0.83s0.37-0.83,0.83-0.83h26.59c0.46,0,0.83,0.37,0.83,0.83
				S96.93,76.98,96.47,76.98z M65.44,76.98H38.85c-0.46,0-0.83-0.37-0.83-0.83s0.37-0.83,0.83-0.83h26.59
				c0.46,0,0.83,0.37,0.83,0.83S65.9,76.98,65.44,76.98z M34.42,76.98h-9.44c-0.46,0-0.83-0.37-0.83-0.83V59
				c0-0.46,0.37-0.83,0.83-0.83c0.46,0,0.83,0.37,0.83,0.83v16.32h8.61c0.46,0,0.83,0.37,0.83,0.83S34.88,76.98,34.42,76.98z
				 M99.75,75.83c-0.46,0-0.83-0.37-0.83-0.83V48.41c0-0.46,0.37-0.83,0.83-0.83s0.83,0.37,0.83,0.83V75
				C100.58,75.46,100.21,75.83,99.75,75.83z M24.98,55.4c-0.46,0-0.83-0.37-0.83-0.83v-26.1c0-0.2,0.01-0.4,0.04-0.6
				c0.06-0.46,0.48-0.78,0.93-0.72c0.45,0.06,0.78,0.48,0.72,0.93c-0.02,0.13-0.02,0.25-0.02,0.38v26.1
				C25.81,55.03,25.44,55.4,24.98,55.4z M99.75,44.81c-0.46,0-0.83-0.37-0.83-0.83V28.46c0-1.65-1.34-2.99-2.99-2.99h-5.09
				c-0.46,0-0.83-0.37-0.83-0.83c0-0.46,0.37-0.83,0.83-0.83h5.09c2.56,0,4.65,2.08,4.65,4.65v15.51
				C100.58,44.44,100.21,44.81,99.75,44.81z M27.74,25.63c-0.36,0-0.69-0.24-0.8-0.6c-0.13-0.44,0.13-0.9,0.57-1.03
				c0.42-0.12,0.85-0.18,1.28-0.18h26.6c0.46,0,0.83,0.37,0.83,0.83c0,0.46-0.37,0.83-0.83,0.83H28.79c-0.28,0-0.56,0.04-0.82,0.12
				C27.89,25.62,27.82,25.63,27.74,25.63z M86.42,25.48H59.82c-0.46,0-0.83-0.37-0.83-0.83c0-0.46,0.37-0.83,0.83-0.83h26.59
				c0.46,0,0.83,0.37,0.83,0.83C87.25,25.11,86.87,25.48,86.42,25.48z"/>
		</g>
		<g>
			<path class="st1" d="M95.04,76.98h-7.3c-0.46,0-0.83-0.37-0.83-0.83s0.37-0.83,0.83-0.83h6.47V56.86c0-0.46,0.37-0.83,0.83-0.83
				c0.46,0,0.83,0.37,0.83,0.83v19.3C95.87,76.61,95.5,76.98,95.04,76.98z M83.31,76.98H56.72c-0.46,0-0.83-0.37-0.83-0.83
				s0.37-0.83,0.83-0.83h26.59c0.46,0,0.83,0.37,0.83,0.83S83.77,76.98,83.31,76.98z M52.29,76.98h-22.6
				c-0.46,0-0.83-0.37-0.83-0.83v-3.99c0-0.46,0.37-0.83,0.83-0.83c0.46,0,0.83,0.37,0.83,0.83v3.16h21.77
				c0.46,0,0.83,0.37,0.83,0.83S52.75,76.98,52.29,76.98z M29.69,68.56c-0.46,0-0.83-0.37-0.83-0.83V41.13
				c0-0.46,0.37-0.83,0.83-0.83c0.46,0,0.83,0.37,0.83,0.83v26.59C30.52,68.19,30.15,68.56,29.69,68.56z M95.04,53.26
				c-0.46,0-0.83-0.37-0.83-0.83V29.97h-2.47c-0.46,0-0.83-0.37-0.83-0.83c0-0.46,0.37-0.83,0.83-0.83h3.3
				c0.46,0,0.83,0.37,0.83,0.83v23.29C95.87,52.88,95.5,53.26,95.04,53.26z M29.69,37.53c-0.46,0-0.83-0.37-0.83-0.83v-7.57
				c0-0.46,0.37-0.83,0.83-0.83h26.59c0.46,0,0.83,0.37,0.83,0.83c0,0.46-0.37,0.83-0.83,0.83H30.52v6.74
				C30.52,37.16,30.15,37.53,29.69,37.53z M87.31,29.97H60.71c-0.46,0-0.83-0.37-0.83-0.83c0-0.46,0.37-0.83,0.83-0.83h26.59
				c0.46,0,0.83,0.37,0.83,0.83C88.14,29.59,87.77,29.97,87.31,29.97z"/>
		</g>
		<g>
			<path class="st1" d="M37.2,45.29c-0.46,0-0.83-0.37-0.83-0.83v-6.84c0-0.46,0.37-0.83,0.83-0.83c0.46,0,0.83,0.37,0.83,0.83v6.84
				C38.04,44.92,37.66,45.29,37.2,45.29z"/>
		</g>
		<g>
			<path class="st1" d="M43.93,45.25c-2.32,0-4.2-1.89-4.2-4.2c0-2.31,1.89-4.2,4.2-4.2c2.31,0,4.2,1.88,4.2,4.2
				C48.12,43.36,46.24,45.25,43.93,45.25z M43.93,38.51c-1.4,0-2.54,1.14-2.54,2.53c0,1.4,1.14,2.54,2.54,2.54
				c1.4,0,2.53-1.14,2.53-2.54C46.46,39.64,45.33,38.51,43.93,38.51z"/>
		</g>
		<g>
			<path class="st1" d="M50.61,45.29c-0.46,0-0.83-0.37-0.83-0.83v-6.84c0-0.46,0.37-0.83,0.83-0.83c0.46,0,0.83,0.37,0.83,0.83
				v6.84C51.44,44.92,51.07,45.29,50.61,45.29z"/>
		</g>
		<g>
			<path class="st1" d="M57.34,45.25c-2.31,0-4.2-1.89-4.2-4.2c0-2.31,1.88-4.2,4.2-4.2c2.32,0,4.2,1.88,4.2,4.2
				C61.54,43.36,59.65,45.25,57.34,45.25z M57.34,38.51c-1.4,0-2.54,1.14-2.54,2.53c0,1.4,1.14,2.54,2.54,2.54
				c1.4,0,2.54-1.14,2.54-2.54C59.88,39.64,58.74,38.51,57.34,38.51z"/>
		</g>
		<g>
			<path class="st1" d="M64.03,45.29c-0.46,0-0.83-0.37-0.83-0.83v-6.84c0-0.46,0.37-0.83,0.83-0.83c0.46,0,0.83,0.37,0.83,0.83
				v6.84C64.86,44.92,64.49,45.29,64.03,45.29z"/>
		</g>
		<g>
			<path class="st1" d="M70.75,45.25c-2.31,0-4.2-1.89-4.2-4.2c0-2.31,1.88-4.2,4.2-4.2c2.32,0,4.2,1.88,4.2,4.2
				C74.95,43.36,73.06,45.25,70.75,45.25z M70.75,38.51c-1.4,0-2.54,1.14-2.54,2.53c0,1.4,1.14,2.54,2.54,2.54
				c1.4,0,2.54-1.14,2.54-2.54C73.29,39.64,72.15,38.51,70.75,38.51z"/>
		</g>
		<g>
			<path class="st1" d="M77.44,45.29c-0.46,0-0.83-0.37-0.83-0.83v-6.84c0-0.46,0.37-0.83,0.83-0.83c0.46,0,0.83,0.37,0.83,0.83
				v6.84C78.27,44.92,77.9,45.29,77.44,45.29z"/>
		</g>
		<g>
			<path class="st1" d="M84.16,45.25c-2.32,0-4.2-1.89-4.2-4.2c0-2.31,1.89-4.2,4.2-4.2c2.31,0,4.2,1.88,4.2,4.2
				C88.36,43.36,86.48,45.25,84.16,45.25z M84.16,38.51c-1.4,0-2.54,1.14-2.54,2.53c0,1.4,1.14,2.54,2.54,2.54
				c1.4,0,2.53-1.14,2.53-2.54C86.7,39.64,85.56,38.51,84.16,38.51z"/>
		</g>
		<g>
			<path class="st1" d="M87.53,56.89c-0.46,0-0.83-0.37-0.83-0.83v-6.83c0-0.46,0.37-0.83,0.83-0.83s0.83,0.37,0.83,0.83v6.83
				C88.36,56.52,87.99,56.89,87.53,56.89z"/>
		</g>
		<g>
			<path class="st1" d="M80.8,56.84c-2.31,0-4.2-1.89-4.2-4.2c0-2.31,1.88-4.2,4.2-4.2c2.32,0,4.2,1.88,4.2,4.2
				C85.01,54.96,83.12,56.84,80.8,56.84z M80.8,50.11c-1.4,0-2.53,1.14-2.53,2.53c0,1.4,1.14,2.54,2.53,2.54
				c1.4,0,2.54-1.14,2.54-2.54C83.34,51.24,82.2,50.11,80.8,50.11z"/>
		</g>
		<g>
			<path class="st1" d="M74.12,56.89c-0.46,0-0.83-0.37-0.83-0.83v-6.83c0-0.46,0.37-0.83,0.83-0.83c0.46,0,0.83,0.37,0.83,0.83
				v6.83C74.95,56.52,74.58,56.89,74.12,56.89z"/>
		</g>
		<g>
			<path class="st1" d="M67.39,56.84c-2.31,0-4.2-1.89-4.2-4.2c0-2.31,1.88-4.2,4.2-4.2s4.2,1.88,4.2,4.2
				C71.59,54.96,69.71,56.84,67.39,56.84z M67.39,50.11c-1.4,0-2.53,1.14-2.53,2.53c0,1.4,1.14,2.54,2.53,2.54
				c1.4,0,2.53-1.14,2.53-2.54C69.93,51.24,68.79,50.11,67.39,50.11z"/>
		</g>
		<g>
			<path class="st1" d="M60.71,56.89c-0.46,0-0.83-0.37-0.83-0.83v-6.83c0-0.46,0.37-0.83,0.83-0.83c0.46,0,0.83,0.37,0.83,0.83
				v6.83C61.54,56.52,61.17,56.89,60.71,56.89z"/>
		</g>
		<g>
			<path class="st1" d="M53.99,56.84c-2.32,0-4.2-1.89-4.2-4.2c0-2.31,1.89-4.2,4.2-4.2c2.31,0,4.2,1.88,4.2,4.2
				C58.18,54.96,56.3,56.84,53.99,56.84z M53.99,50.11c-1.4,0-2.54,1.14-2.54,2.53c0,1.4,1.14,2.54,2.54,2.54
				c1.4,0,2.54-1.14,2.54-2.54C56.52,51.24,55.38,50.11,53.99,50.11z"/>
		</g>
		<g>
			<path class="st1" d="M47.29,56.89c-0.46,0-0.83-0.37-0.83-0.83v-6.83c0-0.46,0.37-0.83,0.83-0.83s0.83,0.37,0.83,0.83v6.83
				C48.12,56.52,47.75,56.89,47.29,56.89z"/>
		</g>
		<g>
			<path class="st1" d="M40.58,56.84c-2.32,0-4.2-1.89-4.2-4.2c0-2.31,1.89-4.2,4.2-4.2c2.31,0,4.2,1.88,4.2,4.2
				C44.77,54.96,42.89,56.84,40.58,56.84z M40.58,50.11c-1.4,0-2.54,1.14-2.54,2.53c0,1.4,1.14,2.54,2.54,2.54
				c1.4,0,2.53-1.14,2.53-2.54C43.11,51.24,41.98,50.11,40.58,50.11z"/>
		</g>
		<g>
			<path class="st1" d="M37.2,68.49c-0.46,0-0.83-0.37-0.83-0.83v-6.83c0-0.46,0.37-0.83,0.83-0.83c0.46,0,0.83,0.37,0.83,0.83v6.83
				C38.04,68.12,37.66,68.49,37.2,68.49z"/>
		</g>
		<g>
			<path class="st1" d="M43.93,68.44c-2.32,0-4.2-1.88-4.2-4.2c0-2.32,1.89-4.21,4.2-4.21c2.31,0,4.2,1.89,4.2,4.21
				C48.12,66.56,46.24,68.44,43.93,68.44z M43.93,61.71c-1.4,0-2.54,1.14-2.54,2.54c0,1.4,1.14,2.53,2.54,2.53
				c1.4,0,2.53-1.14,2.53-2.53C46.46,62.85,45.33,61.71,43.93,61.71z"/>
		</g>
		<g>
			<path class="st1" d="M50.61,68.49c-0.46,0-0.83-0.37-0.83-0.83v-6.83c0-0.46,0.37-0.83,0.83-0.83c0.46,0,0.83,0.37,0.83,0.83
				v6.83C51.44,68.12,51.07,68.49,50.61,68.49z"/>
		</g>
		<g>
			<path class="st1" d="M57.34,68.44c-2.31,0-4.2-1.88-4.2-4.2c0-2.32,1.88-4.21,4.2-4.21c2.32,0,4.2,1.89,4.2,4.21
				C61.54,66.56,59.65,68.44,57.34,68.44z M57.34,61.71c-1.4,0-2.54,1.14-2.54,2.54c0,1.4,1.14,2.53,2.54,2.53
				c1.4,0,2.54-1.14,2.54-2.53C59.88,62.85,58.74,61.71,57.34,61.71z"/>
		</g>
		<g>
			<path class="st1" d="M64.03,68.49c-0.46,0-0.83-0.37-0.83-0.83v-6.83c0-0.46,0.37-0.83,0.83-0.83c0.46,0,0.83,0.37,0.83,0.83
				v6.83C64.86,68.12,64.49,68.49,64.03,68.49z"/>
		</g>
		<g>
			<path class="st1" d="M70.75,68.44c-2.31,0-4.2-1.88-4.2-4.2c0-2.32,1.88-4.21,4.2-4.21c2.32,0,4.2,1.89,4.2,4.21
				C74.95,66.56,73.06,68.44,70.75,68.44z M70.75,61.71c-1.4,0-2.54,1.14-2.54,2.54c0,1.4,1.14,2.53,2.54,2.53
				c1.4,0,2.54-1.14,2.54-2.53C73.29,62.85,72.15,61.71,70.75,61.71z"/>
		</g>
		<g>
			<path class="st1" d="M77.44,68.49c-0.46,0-0.83-0.37-0.83-0.83v-6.83c0-0.46,0.37-0.83,0.83-0.83c0.46,0,0.83,0.37,0.83,0.83
				v6.83C78.27,68.12,77.9,68.49,77.44,68.49z"/>
		</g>
		<g>
			<path class="st1" d="M84.16,68.44c-2.32,0-4.2-1.88-4.2-4.2c0-2.32,1.89-4.21,4.2-4.21c2.31,0,4.2,1.89,4.2,4.21
				C88.36,66.56,86.48,68.44,84.16,68.44z M84.16,61.71c-1.4,0-2.54,1.14-2.54,2.54c0,1.4,1.14,2.53,2.54,2.53
				c1.4,0,2.53-1.14,2.53-2.53C86.7,62.85,85.56,61.71,84.16,61.71z"/>
		</g>
	</g>
</g>
</svg>
