<?xml version="1.0" encoding="utf-8"?>
<!-- Generator: Adobe Illustrator 23.1.1, SVG Export Plug-In . SVG Version: 6.00 Build 0)  -->
<svg version="1.1" id="Capa_1" xmlns="http://www.w3.org/2000/svg" xmlns:xlink="http://www.w3.org/1999/xlink" x="0px" y="0px"
	 viewBox="0 0 70 73" style="enable-background:new 0 0 70 73;" xml:space="preserve">
<style type="text/css">
	.st0{fill:#3BC9FF;}
</style>
<g>
	<g>
		<g>
			<path class="st0" d="M33.37,59.17v-5.5c-2.85-0.05-5.8-1.04-7.52-2.4l1.18-3.65c1.77,1.31,4.32,2.34,7.07,2.34
				c3.49,0,5.85-2.23,5.85-5.34c0-3-1.92-4.85-5.55-6.48c-5.01-2.18-8.11-4.69-8.11-9.42c0-4.52,2.9-7.95,7.42-8.77v-5.5h3.05v5.28
				c2.95,0.11,4.96,0.98,6.39,1.91l-1.23,3.6c-1.03-0.65-3.05-1.85-6.19-1.85c-3.78,0-5.21,2.51-5.21,4.69
				c0,2.83,1.82,4.25,6.09,6.21c5.06,2.29,7.62,5.12,7.62,9.97c0,4.3-2.7,8.34-7.76,9.26v5.67H33.37z"/>
		</g>
	</g>
</g>
</svg>
