<?xml version="1.0" encoding="utf-8"?>
<!-- Generator: Adobe Illustrator 23.1.1, SVG Export Plug-In . SVG Version: 6.00 Build 0)  -->
<svg version="1.1" id="Capa_1" xmlns="http://www.w3.org/2000/svg" xmlns:xlink="http://www.w3.org/1999/xlink" x="0px" y="0px"
	 viewBox="0 0 59 51" style="enable-background:new 0 0 59 51;" xml:space="preserve">
<style type="text/css">
	.st0{fill:#3BC9FF;}
</style>
<g>
	<g>
		<g>
			<g>
				<path class="st0" d="M45.1,7.74H12.98c-0.95,0-1.72,0.77-1.72,1.72v21.45c0,0.95,0.77,1.72,1.72,1.72h16.45
					c0.33,0,0.59-0.27,0.59-0.59s-0.26-0.59-0.59-0.59H12.98c-0.29,0-0.53-0.24-0.53-0.53V9.45c0-0.29,0.24-0.53,0.53-0.53H45.1
					c0.29,0,0.53,0.24,0.53,0.53v13.64c0,0.33,0.26,0.59,0.59,0.59c0.33,0,0.59-0.27,0.59-0.59V9.45
					C46.82,8.51,46.05,7.74,45.1,7.74z"/>
			</g>
		</g>
		<g>
			<g>
				<path class="st0" d="M44.45,9.52H13.64c-0.33,0-0.59,0.27-0.59,0.59v20.14c0,0.33,0.26,0.59,0.59,0.59h16
					c0.33,0,0.59-0.27,0.59-0.59c0-0.33-0.26-0.59-0.59-0.59h-15.4V10.7h29.62v1.18c0,0.33,0.26,0.59,0.59,0.59
					c0.33,0,0.59-0.27,0.59-0.59v-1.78C45.04,9.78,44.77,9.52,44.45,9.52z"/>
			</g>
		</g>
		<g>
			<g>
				<path class="st0" d="M29.64,31.44h-2.37c-0.33,0-0.59,0.27-0.59,0.59v4.15c0,0.33,0.26,0.59,0.59,0.59h2.37
					c0.33,0,0.59-0.27,0.59-0.59v-4.15C30.23,31.7,29.96,31.44,29.64,31.44z M29.04,35.58h-1.18v-2.96h1.18V35.58z"/>
			</g>
		</g>
		<g>
			<g>
				<path class="st0" d="M29.64,35.58h-6.52c-0.33,0-0.59,0.27-0.59,0.59s0.26,0.59,0.59,0.59h6.52c0.33,0,0.59-0.27,0.59-0.59
					S29.96,35.58,29.64,35.58z"/>
			</g>
		</g>
		<g>
			<g>
				<path class="st0" d="M45.04,11.89H30.81c-0.98,0-1.77,0.79-1.77,1.77v28.45c0,0.98,0.79,1.77,1.77,1.77h14.23
					c0.98,0,1.77-0.79,1.77-1.77V13.66C46.82,12.68,46.02,11.89,45.04,11.89z M45.63,42.11c0,0.32-0.26,0.59-0.59,0.59H30.81
					c-0.32,0-0.59-0.26-0.59-0.59V13.66c0-0.32,0.26-0.59,0.59-0.59h14.23c0.32,0,0.59,0.26,0.59,0.59L45.63,42.11L45.63,42.11z"/>
			</g>
		</g>
		<g>
			<g>
				<path class="st0" d="M44.45,13.66H31.41c-0.33,0-0.59,0.27-0.59,0.59v23.11c0,0.33,0.26,0.59,0.59,0.59h13.03
					c0.33,0,0.59-0.27,0.59-0.59V14.26C45.04,13.93,44.77,13.66,44.45,13.66z M43.85,36.77H32V14.85h11.85V36.77z"/>
			</g>
		</g>
		<g>
			<g>
				<path class="st0" d="M37.93,38.55c-0.98,0-1.78,0.8-1.78,1.78c0,0.98,0.8,1.78,1.78,1.78c0.98,0,1.78-0.8,1.78-1.78
					C39.71,39.34,38.91,38.55,37.93,38.55z M37.93,40.92c-0.33,0-0.59-0.27-0.59-0.59c0-0.33,0.27-0.59,0.59-0.59
					s0.59,0.27,0.59,0.59C38.52,40.65,38.26,40.92,37.93,40.92z"/>
			</g>
		</g>
		<g>
			<g>
				<path class="st0" d="M35.39,16.21c-0.23-0.23-0.61-0.23-0.84,0l-1.48,1.48c-0.23,0.23-0.23,0.61,0,0.84
					c0.12,0.12,0.27,0.17,0.42,0.17s0.3-0.06,0.42-0.17l1.48-1.48C35.62,16.81,35.62,16.44,35.39,16.21z"/>
			</g>
		</g>
		<g>
			<g>
				<path class="st0" d="M37.76,16.21c-0.23-0.23-0.61-0.23-0.84,0l-3.26,3.26c-0.23,0.23-0.23,0.61,0,0.84
					c0.12,0.12,0.27,0.17,0.42,0.17c0.15,0,0.3-0.06,0.42-0.17l3.26-3.26C37.99,16.81,37.99,16.44,37.76,16.21z"/>
			</g>
		</g>
		<g>
			<g>
				<path class="st0" d="M18.2,12.65c-0.23-0.23-0.61-0.23-0.84,0l-1.48,1.48c-0.23,0.23-0.23,0.61,0,0.84
					c0.12,0.12,0.27,0.17,0.42,0.17s0.3-0.06,0.42-0.17l1.48-1.48C18.44,13.26,18.44,12.88,18.2,12.65z"/>
			</g>
		</g>
		<g>
			<g>
				<path class="st0" d="M20.57,12.65c-0.23-0.23-0.61-0.23-0.84,0l-3.26,3.26c-0.23,0.23-0.23,0.61,0,0.84
					c0.12,0.12,0.27,0.17,0.42,0.17s0.3-0.06,0.42-0.17l3.26-3.26C20.81,13.26,20.81,12.88,20.57,12.65z"/>
			</g>
		</g>
	</g>
</g>
</svg>
