<?xml version="1.0" encoding="utf-8"?>
<!-- Generator: Adobe Illustrator 23.1.1, SVG Export Plug-In . SVG Version: 6.00 Build 0)  -->
<svg version="1.1" id="Capa_1" xmlns="http://www.w3.org/2000/svg" xmlns:xlink="http://www.w3.org/1999/xlink" x="0px" y="0px"
	 viewBox="0 0 59 51" style="enable-background:new 0 0 59 51;" xml:space="preserve">
<style type="text/css">
	.st0{fill:#3BC9FF;}
</style>
<g>
	<g>
		<path class="st0" d="M1002.48,1004.87c0.33,0,0.59-0.27,0.59-0.59v-4.76c0-0.23-0.13-0.42-0.32-0.52l0-0.01l-17.24-8.92
			c-0.17-0.09-0.38-0.09-0.55,0l-17.24,8.92l0,0.01c-0.19,0.1-0.32,0.29-0.32,0.52v4.76c0,0.33,0.27,0.59,0.59,0.59h0.59v16.65H968
			c-0.33,0-0.59,0.27-0.59,0.59v2.97c0,0.33,0.27,0.59,0.59,0.59h34.48c0.33,0,0.59-0.27,0.59-0.59v-2.97
			c0-0.33-0.27-0.59-0.59-0.59h-0.59v-16.65H1002.48z M1001.89,1003.68h-33.29v-3.57h33.29V1003.68z M985.24,991.27l14.8,7.65h-29.6
			L985.24,991.27z M1001.89,1024.49h-33.29v-1.78h33.29V1024.49z M1000.7,1021.52h-30.92v-16.65h30.92V1021.52z"/>
		<path class="st0" d="M969.78,1001.31h1.19v1.19h-1.19V1001.31z"/>
		<path class="st0" d="M972.16,1001.31h1.19v1.19h-1.19V1001.31z"/>
		<path class="st0" d="M974.54,1001.31h1.19v1.19h-1.19V1001.31z"/>
		<path class="st0" d="M985.24,1001.31h15.46v1.19h-15.46V1001.31z"/>
		<path class="st0" d="M985.24,997.74c1.31,0,2.38-1.07,2.38-2.38c0-1.31-1.07-2.38-2.38-2.38c-1.31,0-2.38,1.07-2.38,2.38
			C982.86,996.67,983.93,997.74,985.24,997.74z M985.24,994.17c0.66,0,1.19,0.53,1.19,1.19c0,0.66-0.53,1.19-1.19,1.19
			c-0.66,0-1.19-0.53-1.19-1.19C984.05,994.71,984.58,994.17,985.24,994.17z"/>
		<path class="st0" d="M972.16,1019.74H990c0.33,0,0.59-0.27,0.59-0.59v-1.78h1.78c0.33,0,0.59-0.27,0.59-0.59v-2.38h1.19v0.59
			c0,0.23,0.13,0.44,0.34,0.54c0.08,0.04,0.17,0.06,0.25,0.06c0.14,0,0.27-0.05,0.38-0.14l3.57-2.97c0.14-0.11,0.21-0.28,0.21-0.46
			s-0.08-0.34-0.21-0.46l-3.57-2.97c-0.18-0.15-0.42-0.18-0.63-0.08c-0.21,0.1-0.34,0.31-0.34,0.54v0.59h-1.19v-2.38
			c0-0.33-0.27-0.59-0.59-0.59h-17.84c-0.33,0-0.59,0.27-0.59,0.59v1.78h-1.78c-0.33,0-0.59,0.27-0.59,0.59v9.51
			C971.56,1019.47,971.83,1019.74,972.16,1019.74L972.16,1019.74z M972.75,1016.85c0.83,0.22,1.48,0.87,1.7,1.7h-1.7V1016.85z
			 M978.05,1007.85h10.81c0.25,1.49,1.43,2.67,2.92,2.92v2.49c-1.49,0.25-2.67,1.43-2.92,2.92h-10.81
			c-0.25-1.49-1.43-2.67-2.92-2.92v-2.49C976.62,1010.51,977.8,1009.34,978.05,1007.85L978.05,1007.85z M975.13,1014.47
			c0.83,0.22,1.48,0.87,1.7,1.7h-1.7V1014.47z M975.24,1017.36h11.67c-0.21,0.37-0.36,0.77-0.43,1.19h-10.81
			C975.6,1018.12,975.45,1017.72,975.24,1017.36L975.24,1017.36z M973.94,1016.06c-0.36-0.21-0.76-0.36-1.19-0.43v-2.49
			c0.42-0.07,0.82-0.22,1.19-0.43V1016.06z M989.4,1018.55h-1.7c0.12-0.46,0.38-0.87,0.74-1.19h0.96V1018.55z M990.08,1016.17
			c0.22-0.83,0.87-1.48,1.7-1.7v1.7H990.08z M994.75,1010.82c0.3,0,0.55-0.23,0.59-0.52l2.05,1.71l-2.05,1.71
			c-0.04-0.29-0.29-0.52-0.59-0.52h-1.78v-2.38H994.75z M991.78,1009.55c-0.83-0.22-1.48-0.87-1.7-1.7h1.7V1009.55z M976.83,1007.85
			c-0.22,0.83-0.87,1.48-1.7,1.7v-1.7H976.83z M973.94,1010.22v0.96c-0.32,0.36-0.73,0.62-1.19,0.74v-1.7H973.94z"/>
		<path class="st0" d="M983.46,1014.39c1.31,0,2.38-1.07,2.38-2.38s-1.07-2.38-2.38-2.38c-1.31,0-2.38,1.07-2.38,2.38
			S982.14,1014.39,983.46,1014.39z M983.46,1010.82c0.66,0,1.19,0.53,1.19,1.19c0,0.66-0.53,1.19-1.19,1.19
			c-0.66,0-1.19-0.53-1.19-1.19C982.27,1011.35,982.8,1010.82,983.46,1010.82z"/>
	</g>
</g>
<path class="st0" d="M45.35,29.43c0.83-2.02,1.25-4.17,1.25-6.38c0-8.57-6.54-15.82-14.99-16.76v-2.6l-3.43,2.57
	c-8.6,0.79-15.31,8.13-15.31,16.79c0,0.7,0.05,1.4,0.14,2.1c-1.6,1.26-2.64,3.21-2.64,5.4c0,2.66,1.53,4.97,3.75,6.11v2.63
	c0,1.03,0.84,1.87,1.87,1.87h2.5c1.03,0,1.87-0.84,1.87-1.87v-2.23c2.78,1.86,6,2.86,9.37,2.86h7.2c1.26,1.52,3.17,2.5,5.3,2.5
	c3.79,0,6.87-3.08,6.87-6.87C49.1,32.88,47.57,30.57,45.35,29.43z M30.94,7.48c8.08,0.61,14.41,7.45,14.41,15.57
	c0,2.05-0.39,4.04-1.16,5.91c-0.62-0.19-1.28-0.29-1.96-0.29c-0.22,0-0.44,0.01-0.66,0.03c0.84-1.76,1.29-3.69,1.29-5.66
	c0-6.77-5.08-12.39-11.81-13.05l-0.69-0.07v1.25l-3.33-2.5l3.33-2.5v1.25L30.94,7.48z M35.39,34.92h-5.65c-2.19,0-4.3-0.6-6.15-1.73
	c0.34-0.82,0.53-1.71,0.53-2.65c0-0.21-0.01-0.42-0.03-0.62h12.53V17.43h-3.75v11.24h-1.25v-8.75h-3.75v8.75h-1.25v-6.25h-3.75v4.18
	c-1.13-1.6-2.91-2.7-4.96-2.9c-0.01-0.22-0.03-0.44-0.03-0.66c0-6.09,4.51-11.11,10.52-11.78l3.22,2.41v-2.35
	c5.74,0.9,9.99,5.83,9.99,11.72c0,2.12-0.57,4.2-1.64,6.01C37.47,29.93,35.63,32.2,35.39,34.92z M24.11,28.67v-5h1.25v5H24.11z
	 M30.36,28.67h-1.25v-7.5h1.25V28.67z M34.11,28.67v-9.99h1.25v9.99H34.11z M14.12,23.05c0-7.24,5.05-13.47,11.89-15.16l-1.06,0.79
	L27,10.22c-6.01,1.26-10.38,6.53-10.38,12.83c0,0.22,0.02,0.44,0.03,0.65c-0.88,0.08-1.71,0.32-2.47,0.7
	C14.14,23.95,14.12,23.5,14.12,23.05z M11.62,30.54c0-3.1,2.52-5.62,5.62-5.62s5.62,2.52,5.62,5.62c0,2.44-1.57,4.52-3.75,5.29
	v-4.16c0.2,0.07,0.4,0.11,0.62,0.11c1.03,0,1.87-0.84,1.87-1.87s-0.84-1.87-1.87-1.87c-0.81,0-1.5,0.52-1.76,1.25H16.5
	c-0.26-0.73-0.95-1.25-1.76-1.25c-1.03,0-1.87,0.84-1.87,1.87s0.84,1.87,1.87,1.87c0.22,0,0.43-0.04,0.62-0.11v4.16
	C13.19,35.06,11.62,32.99,11.62,30.54L11.62,30.54z M16.62,30.54h1.25v5.59c-0.21,0.02-0.41,0.04-0.62,0.04s-0.42-0.01-0.62-0.04
	V30.54z M19.11,29.92c0-0.34,0.28-0.62,0.62-0.62s0.62,0.28,0.62,0.62c0,0.34-0.28,0.62-0.62,0.62
	C19.4,30.54,19.11,30.26,19.11,29.92z M15.37,29.92c0,0.34-0.28,0.62-0.62,0.62c-0.34,0-0.62-0.28-0.62-0.62
	c0-0.34,0.28-0.62,0.62-0.62C15.09,29.29,15.37,29.57,15.37,29.92z M18.49,39.91h-2.5c-0.34,0-0.62-0.28-0.62-0.62v-2.14
	c0.6,0.17,1.22,0.27,1.87,0.27s1.28-0.1,1.87-0.27v2.14C19.11,39.63,18.83,39.91,18.49,39.91z M29.73,38.66
	c-3.06,0-5.98-0.88-8.51-2.53c0.7-0.5,1.3-1.12,1.77-1.84c2.03,1.22,4.35,1.87,6.74,1.87h5.65c0.08,0.89,0.34,1.74,0.73,2.5H29.73z
	 M39.15,40.24l0.19-1.52c0.18-1.45,1.42-2.55,2.89-2.55s2.71,1.1,2.89,2.55l0.19,1.52c-0.89,0.58-1.94,0.93-3.08,0.93
	S40.03,40.82,39.15,40.24z M40.98,33.67c0-0.69,0.56-1.25,1.25-1.25s1.25,0.56,1.25,1.25s-0.56,1.25-1.25,1.25
	S40.98,34.36,40.98,33.67z M46.44,39.25l-0.09-0.68c-0.18-1.43-1.07-2.61-2.29-3.22c0.41-0.44,0.66-1.03,0.66-1.68
	c0-1.38-1.12-2.5-2.5-2.5s-2.5,1.12-2.5,2.5c0,0.65,0.25,1.23,0.66,1.68c-1.22,0.6-2.11,1.79-2.29,3.22l-0.09,0.68
	c-0.87-0.99-1.41-2.29-1.41-3.71c0-3.1,2.52-5.62,5.62-5.62c3.1,0,5.62,2.52,5.62,5.62C47.85,36.96,47.32,38.26,46.44,39.25z"/>
</svg>
