<?xml version="1.0" encoding="utf-8"?>
<!-- Generator: Adobe Illustrator 23.1.1, SVG Export Plug-In . SVG Version: 6.00 Build 0)  -->
<svg version="1.1" id="Capa_1" xmlns="http://www.w3.org/2000/svg" xmlns:xlink="http://www.w3.org/1999/xlink" x="0px" y="0px"
	 viewBox="0 0 59 51" style="enable-background:new 0 0 59 51;" xml:space="preserve">
<style type="text/css">
	.st0{fill:#3BC9FF;}
</style>
<g>
	<path class="st0" d="M48.87,36.06c-0.18-0.87-0.7-1.62-1.45-2.1c-0.75-0.48-1.64-0.64-2.51-0.44l-4.03,0.92v-1.65
		c0.81-0.76,1.65-1.76,2.25-2.67c1.05-1.59,1.79-3.35,2.21-5.2c0.49-2.21,0.5-4.55,0.03-6.77c-0.09-0.41-0.49-0.67-0.9-0.58
		c-0.41,0.09-0.67,0.49-0.58,0.9c0.43,2.01,0.42,4.12-0.03,6.12c-0.38,1.68-1.05,3.26-2,4.7c-0.28,0.43-0.62,0.88-0.99,1.3v-8.38
		c0-0.42-0.34-0.76-0.76-0.76h-5.98v-8.07c0-0.42-0.34-0.75-0.75-0.76l-6.74-0.02c0,0,0,0,0,0c-0.2,0-0.39,0.08-0.53,0.22
		c-0.14,0.14-0.22,0.33-0.22,0.54v4.2h-5.98c-0.42,0-0.76,0.34-0.76,0.76v7.49h-1.68v-1.03c0-0.42-0.34-0.76-0.76-0.76h-0.78
		c-0.13-0.73-0.21-1.46-0.23-2.2c-0.04-1.79,0.24-3.55,0.84-5.21c0.14-0.39,0.3-0.78,0.48-1.15c0.18-0.38,0.01-0.83-0.37-1
		c-0.38-0.18-0.83-0.01-1,0.37c-0.19,0.42-0.37,0.84-0.53,1.27c-0.67,1.84-0.98,3.78-0.93,5.76c0.02,0.72,0.09,1.45,0.2,2.16H11
		c-0.42,0-0.76,0.34-0.76,0.76v13.29c0,0.42,0.34,0.76,0.76,0.76h5.72c0.42,0,0.76-0.34,0.76-0.76v-0.72h2.84l11.52,4.52
		c1.08,0.42,2.2,0.63,3.33,0.63c0.75,0,1.51-0.09,2.26-0.28l9.03-2.29C48.17,39.48,49.23,37.79,48.87,36.06z M39.36,22.97v11.81
		l-2.02,0.46c-0.22,0.05-0.44,0.09-0.66,0.12c-0.84,0.12-1.7,0.09-2.53-0.07c0,0-0.01,0-0.01,0v-1.15c0.58-0.86,0.77-1.95,0.47-2.94
		c-0.08-0.28-0.2-0.55-0.36-0.79c-0.03-0.06-0.07-0.11-0.11-0.16c0,0,0,0,0,0v-7.27L39.36,22.97L39.36,22.97z M27.4,14.12l5.22,0.02
		v14.9l-2.92-1.21l-2.3-0.95V14.12z M20.67,19.08h5.22v7.17l-0.94-0.39c-0.09-0.04-0.19-0.06-0.29-0.06h-4V19.08z M15.96,37.31
		h-4.21V25.53h3.57c0,0,0,0,0.01,0c0,0,0,0,0,0h0.63V37.31z M46.08,38.45l-9.03,2.29c-1.56,0.4-3.17,0.29-4.67-0.29l-11.65-4.57
		c-0.09-0.03-0.18-0.05-0.28-0.05h-2.99v-8.52h7.04l4.89,2.02l2.68,1.11c0.95,0.39,1.4,1.5,1.01,2.45c-0.08,0.19-0.17,0.37-0.3,0.53
		c-0.47,0.6-1.25,0.86-1.98,0.68c-0.01,0-0.01,0-0.02,0c-0.04-0.01-0.09-0.02-0.13-0.04l-5.09-1.96c-0.04-0.02-0.06-0.02-0.06-0.02
		c-0.39-0.15-0.83,0.04-0.98,0.43c-0.15,0.39,0.04,0.83,0.43,0.98c0,0,2.87,1.1,5.05,1.95c0.04,0.02,0.09,0.03,0.13,0.05l1.68,0.65
		c0.51,0.2,1.01,0.39,1.54,0.52c0.9,0.23,1.83,0.32,2.75,0.27c0.52-0.03,1.04-0.1,1.55-0.22l2.61-0.6c0,0,0.01,0,0.01,0l4.95-1.13
		c0.47-0.11,0.95-0.02,1.36,0.24c0.41,0.26,0.68,0.67,0.78,1.14C47.58,37.3,47.01,38.22,46.08,38.45z"/>
	<path class="st0" d="M19.9,11.08c0.18,0,0.36-0.06,0.51-0.19c1.35-1.22,2.96-2.19,4.66-2.81c1.84-0.67,3.86-0.96,5.84-0.83
		c1.42,0.09,2.8,0.4,4.12,0.9C35.42,8.29,35.85,8.1,36,7.71c0.15-0.39-0.05-0.83-0.44-0.98c-1.46-0.56-2.99-0.89-4.56-0.99
		c-2.19-0.14-4.42,0.17-6.45,0.92c-1.88,0.69-3.66,1.76-5.15,3.11c-0.31,0.28-0.33,0.76-0.05,1.07C19.49,11,19.7,11.08,19.9,11.08z"
		/>
	<path class="st0" d="M37.06,16.48c0.14,0.12,0.32,0.19,0.5,0.19c0.21,0,0.42-0.09,0.57-0.26l6.22-7.16
		c0.27-0.32,0.24-0.79-0.07-1.07c-0.32-0.27-0.79-0.24-1.07,0.07l-6.22,7.16C36.71,15.73,36.75,16.2,37.06,16.48z"/>
	<path class="st0" d="M42.64,13.25c-1.05,0-1.9,0.85-1.9,1.9s0.85,1.9,1.9,1.9c1.05,0,1.9-0.85,1.9-1.9
		C44.53,14.1,43.68,13.25,42.64,13.25z M42.64,15.53c-0.21,0-0.39-0.17-0.39-0.39c0-0.21,0.17-0.39,0.39-0.39
		c0.21,0,0.39,0.17,0.39,0.39C43.02,15.36,42.85,15.53,42.64,15.53z"/>
	<path class="st0" d="M38.44,11.56c1.05,0,1.9-0.85,1.9-1.9s-0.85-1.9-1.9-1.9c-1.05,0-1.9,0.85-1.9,1.9S37.39,11.56,38.44,11.56z
		 M38.44,9.28c0.21,0,0.39,0.17,0.39,0.39c0,0.21-0.17,0.39-0.39,0.39c-0.21,0-0.39-0.17-0.39-0.39
		C38.05,9.45,38.23,9.28,38.44,9.28z"/>
	<path class="st0" d="M17.22,12.86c0.12,0.29,0.42,0.48,0.73,0.47c0.31-0.02,0.59-0.23,0.68-0.52c0.1-0.3-0.01-0.64-0.26-0.83
		c-0.25-0.19-0.61-0.21-0.88-0.03C17.2,12.14,17.08,12.53,17.22,12.86z"/>
</g>
</svg>
