<?xml version="1.0" encoding="utf-8"?>
<!-- Generator: Adobe Illustrator 23.1.1, SVG Export Plug-In . SVG Version: 6.00 Build 0)  -->
<svg version="1.1" id="Capa_1" xmlns="http://www.w3.org/2000/svg" xmlns:xlink="http://www.w3.org/1999/xlink" x="0px" y="0px"
	 viewBox="0 0 59 51" style="enable-background:new 0 0 59 51;" xml:space="preserve">
<style type="text/css">
	.st0{fill:#3BC9FF;}
</style>
<g>
	<circle class="st0" cx="14.06" cy="12.77" r="0.73"/>
	<circle class="st0" cx="17.06" cy="12.77" r="0.73"/>
	<circle class="st0" cx="20.05" cy="12.77" r="0.73"/>
	<path class="st0" d="M45.57,10.04H12.51c-1.1,0-1.99,0.89-1.99,1.99v11.78c0,0.3,0.24,0.54,0.54,0.54c0.3,0,0.54-0.24,0.54-0.54
		v-8.3h34.87v2.52c0,0.3,0.24,0.54,0.54,0.54c0.3,0,0.54-0.24,0.54-0.54v-6C47.56,10.93,46.67,10.04,45.57,10.04z M11.61,14.42v-2.4
		c0-0.5,0.41-0.9,0.9-0.9h33.06c0.5,0,0.9,0.41,0.9,0.9v2.4H11.61z"/>
	<path class="st0" d="M47.02,20.01c-0.3,0-0.54,0.24-0.54,0.54v15.04c0,0.5-0.41,0.9-0.9,0.9H12.51c-0.5,0-0.9-0.41-0.9-0.9v-9.24
		c0-0.3-0.24-0.54-0.54-0.54c-0.3,0-0.54,0.24-0.54,0.54v9.24c0,1.1,0.89,1.99,1.99,1.99h33.06c1.1,0,1.99-0.89,1.99-1.99V20.55
		C47.56,20.25,47.32,20.01,47.02,20.01z"/>
	<path class="st0" d="M27.21,19.82h3.65c0.3,0,0.54-0.24,0.54-0.54c0-0.3-0.24-0.54-0.54-0.54h-3.65c-0.3,0-0.54,0.24-0.54,0.54
		C26.66,19.58,26.91,19.82,27.21,19.82z"/>
	<path class="st0" d="M31.4,21.47c0-0.3-0.24-0.54-0.54-0.54h-3.65c-0.3,0-0.54,0.24-0.54,0.54s0.24,0.54,0.54,0.54h3.65
		C31.16,22.01,31.4,21.77,31.4,21.47z"/>
	<path class="st0" d="M17.94,25.31c-0.3,0-0.54,0.24-0.54,0.54v2.16h-3.11c-0.3,0-0.54,0.24-0.54,0.54v5.85
		c0,0.3,0.24,0.54,0.54,0.54h7.31c0.3,0,0.54-0.24,0.54-0.54v-5.85c0-0.3-0.24-0.54-0.54-0.54h-3.11V26.4H28.5v1.62h-3.11
		c-0.3,0-0.54,0.24-0.54,0.54v5.85c0,0.3,0.24,0.54,0.54,0.54h7.31c0.3,0,0.54-0.24,0.54-0.54v-5.85c0-0.3-0.24-0.54-0.54-0.54
		h-3.11V26.4h10.02v1.62H36.5c-0.3,0-0.54,0.24-0.54,0.54v5.85c0,0.3,0.24,0.54,0.54,0.54h7.31c0.3,0,0.54-0.24,0.54-0.54v-5.85
		c0-0.3-0.24-0.54-0.54-0.54h-3.11v-2.16c0-0.3-0.24-0.54-0.54-0.54H29.59v-1.47h3.11c0.3,0,0.54-0.24,0.54-0.54v-5.85
		c0-0.3-0.24-0.54-0.54-0.54h-7.31c-0.3,0-0.54,0.24-0.54,0.54v5.85c0,0.3,0.24,0.54,0.54,0.54h3.11v1.47H17.94z M21.05,33.86h-6.22
		V29.1h6.22V33.86z M32.15,33.86h-6.22V29.1h6.22V33.86z M43.26,33.86h-6.22V29.1h6.22V33.86z M25.93,17.99h6.22v4.76h-6.22V17.99z"
		/>
	<path class="st0" d="M37.78,30.39c0,0.3,0.24,0.54,0.54,0.54h3.65c0.3,0,0.54-0.24,0.54-0.54c0-0.3-0.24-0.54-0.54-0.54h-3.65
		C38.02,29.84,37.78,30.09,37.78,30.39z"/>
	<path class="st0" d="M41.98,32.04h-3.65c-0.3,0-0.54,0.24-0.54,0.54c0,0.3,0.24,0.54,0.54,0.54h3.65c0.3,0,0.54-0.24,0.54-0.54
		C42.52,32.28,42.28,32.04,41.98,32.04z"/>
	<path class="st0" d="M26.67,30.39c0,0.3,0.24,0.54,0.54,0.54h3.65c0.3,0,0.54-0.24,0.54-0.54c0-0.3-0.24-0.54-0.54-0.54h-3.65
		C26.92,29.84,26.67,30.09,26.67,30.39z"/>
	<path class="st0" d="M30.87,32.04h-3.65c-0.3,0-0.54,0.24-0.54,0.54c0,0.3,0.24,0.54,0.54,0.54h3.65c0.3,0,0.54-0.24,0.54-0.54
		C31.41,32.28,31.17,32.04,30.87,32.04z"/>
	<path class="st0" d="M15.57,30.39c0,0.3,0.24,0.54,0.54,0.54h3.65c0.3,0,0.54-0.24,0.54-0.54c0-0.3-0.24-0.54-0.54-0.54h-3.65
		C15.81,29.84,15.57,30.09,15.57,30.39z"/>
	<path class="st0" d="M19.76,32.04h-3.65c-0.3,0-0.54,0.24-0.54,0.54c0,0.3,0.24,0.54,0.54,0.54h3.65c0.3,0,0.54-0.24,0.54-0.54
		C20.3,32.28,20.06,32.04,19.76,32.04z"/>
</g>
</svg>
