<?xml version="1.0" encoding="utf-8"?>
<!-- Generator: Adobe Illustrator 23.1.1, SVG Export Plug-In . SVG Version: 6.00 Build 0)  -->
<svg version="1.1" id="Capa_1" xmlns="http://www.w3.org/2000/svg" xmlns:xlink="http://www.w3.org/1999/xlink" x="0px" y="0px"
	 viewBox="0 0 59 51" style="enable-background:new 0 0 59 51;" xml:space="preserve">
<style type="text/css">
	.st0{fill:#3BC9FF;}
</style>
<g id="Outline">
	<path class="st0" d="M42.33,7.05h-4.2v1.2h4.2c0.66,0,1.2,0.54,1.2,1.2v27.6c0,0.66-0.54,1.2-1.2,1.2h-0.32
		c0.21-0.36,0.32-0.78,0.32-1.2v-23.4c0-0.16-0.06-0.31-0.18-0.42l-6-6c-0.11-0.11-0.27-0.18-0.42-0.18h-13.8
		c-1.32,0-2.4,1.08-2.4,2.4v16.8h1.2V9.45c0-0.66,0.54-1.2,1.2-1.2h13.2v3.6c0,1.32,1.08,2.4,2.4,2.4h3.6v22.8
		c0,0.66-0.54,1.2-1.2,1.2h-7.2v1.2h9.6c1.32,0,2.4-1.08,2.4-2.4V9.45C44.73,8.12,43.66,7.05,42.33,7.05z M36.33,11.85V9.1
		l3.95,3.95h-2.75C36.87,13.05,36.33,12.51,36.33,11.85z"/>
	<path class="st0" d="M29.13,10.65h4.8v1.2h-4.8V10.65z"/>
	<path class="st0" d="M29.13,13.05h4.8v1.2h-4.8V13.05z"/>
	<path class="st0" d="M29.13,15.45h10.2v1.2h-10.2V15.45z"/>
	<path class="st0" d="M29.13,17.85h10.2v1.2h-10.2V17.85z"/>
	<path class="st0" d="M32.13,27.45v1.2h1.8v1.2h-1.2v1.2h1.2v1.2h-1.2v1.2h6.6v-1.2h-4.2v-1.2h4.2v-1.2h-4.2v-1.2h4.2v-1.2h-4.2
		v-1.2h4.2v-1.2h-4.2v-1.2h4.2v-1.2h-4.2v-1.2h4.2v-1.2h-4.2h-1.2h-11.4v1.2h11.4v1.2h-11.4v1.2h11.4v1.2h-11.4v1.2h11.4v1.2H32.13z
		"/>
	<path class="st0" d="M32.73,34.65h6.6v1.2h-6.6V34.65z"/>
	<path class="st0" d="M22.53,15.45v0.4c0,1.03,0.78,1.88,1.8,1.99v1.21h1.2v-1.21c1.1-0.11,1.9-1.09,1.79-2.18
		c-0.08-0.78-0.61-1.45-1.35-1.7l-1.69-0.56c-0.42-0.14-0.64-0.59-0.5-1.01c0.11-0.32,0.41-0.54,0.75-0.54h0.81
		c0.44,0,0.79,0.36,0.8,0.8v0.4h1.2v-0.4c0-1.03-0.78-1.88-1.8-1.99V9.45h-1.2v1.21c-1.1,0.11-1.9,1.09-1.79,2.18
		c0.08,0.78,0.61,1.45,1.35,1.7l1.69,0.56c0.42,0.14,0.64,0.59,0.5,1.01c-0.11,0.32-0.41,0.54-0.75,0.54h-0.81
		c-0.44,0-0.79-0.36-0.8-0.8v-0.4L22.53,15.45z"/>
	<path class="st0" d="M28.53,27.45h-16.8c-1.66,0-3,1.34-3,3v0.6h1.2v-0.6c0-0.99,0.81-1.8,1.8-1.8h16.8c0.99,0,1.8,0.81,1.8,1.8
		v9.6c0,0.99-0.81,1.8-1.8,1.8h-16.8c-0.99,0-1.8-0.81-1.8-1.8v-7.8h-1.2v7.8c0,1.66,1.34,3,3,3h16.8c1.66,0,3-1.34,3-3v-9.6
		C31.53,28.79,30.19,27.45,28.53,27.45z"/>
	<path class="st0" d="M15.93,29.85h-3.6c-0.66,0-1.2,0.54-1.2,1.2v3.6c0,0.66,0.54,1.2,1.2,1.2h3.6c0.66,0,1.2-0.54,1.2-1.2v-3.6
		C17.13,30.38,16.6,29.85,15.93,29.85z M15.93,34.65h-3.6v-1.2h1.2v-1.2h-1.2v-1.2h3.6v1.2h-1.2v1.2h1.2L15.93,34.65L15.93,34.65z"
		/>
	<path class="st0" d="M21.33,38.25c0,1.32,1.08,2.4,2.4,2.4h3c1.33,0,2.4-1.07,2.4-2.4s-1.07-2.4-2.4-2.4h-3
		C22.41,35.85,21.34,36.92,21.33,38.25z M23.73,37.05h3c0.66,0,1.2,0.54,1.2,1.2s-0.54,1.2-1.2,1.2h-3c-0.66,0-1.2-0.54-1.2-1.2
		S23.07,37.05,23.73,37.05z"/>
	<path class="st0" d="M11.73,37.05h1.2v1.2h-1.2V37.05z"/>
	<path class="st0" d="M14.13,37.05h1.2v1.2h-1.2V37.05z"/>
	<path class="st0" d="M16.53,37.05h1.2v1.2h-1.2V37.05z"/>
	<path class="st0" d="M18.93,37.05h1.2v1.2h-1.2V37.05z"/>
	<path class="st0" d="M11.73,39.45h2.4v1.2h-2.4V39.45z"/>
	<path class="st0" d="M15.33,39.45h3.6v1.2h-3.6V39.45z"/>
	<path class="st0" d="M22.53,30.45h1.2v1.8h-1.2V30.45z"/>
	<path class="st0" d="M20.13,30.45h1.2v1.8h-1.2V30.45z"/>
	<path class="st0" d="M24.93,30.45h1.2v1.8h-1.2V30.45z"/>
	<path class="st0" d="M27.33,30.45h1.2v1.8h-1.2V30.45z"/>
	<path class="st0" d="M24.33,33.45h4.2v1.2h-4.2V33.45z"/>
</g>
</svg>
