<?xml version="1.0" encoding="utf-8"?>
<!-- Generator: Adobe Illustrator 23.1.1, SVG Export Plug-In . SVG Version: 6.00 Build 0)  -->
<svg version="1.1" id="Capa_1" xmlns="http://www.w3.org/2000/svg" xmlns:xlink="http://www.w3.org/1999/xlink" x="0px" y="0px"
	 viewBox="0 0 78 75" style="enable-background:new 0 0 78 75;" xml:space="preserve">
<style type="text/css">
	.st0{fill:#28348A;}
</style>
<g>
	<g>
		<g>
			<rect x="49.89" y="46.11" class="st0" width="4.98" height="1.66"/>
			<rect x="43.25" y="46.11" class="st0" width="4.98" height="1.66"/>
			<rect x="36.6" y="46.11" class="st0" width="4.98" height="1.66"/>
			<path class="st0" d="M63.17,30.17L46.73,13.73c-0.47-0.47-1.1-0.74-1.77-0.74h-0.01c-0.66,0-1.29,0.27-1.75,0.74L25.78,31.16
				h-9.11c-1.38,0-2.49,1.12-2.49,2.49v23.25c0,1.38,1.12,2.49,2.49,2.49h12.31l2.48,2.48c0.47,0.47,1.1,0.74,1.77,0.74h0.01
				c0.66,0,1.29-0.27,1.75-0.74l2.48-2.48h19.07c1.38,0,2.49-1.12,2.49-2.49V37.84l4.14-4.14c0.47-0.46,0.74-1.09,0.74-1.76
				C63.91,31.28,63.64,30.64,63.17,30.17z M52.6,21.95l-9.21,9.21h-7.05l12.74-12.74L52.6,21.95z M44.39,14.9
				c0.32-0.32,0.83-0.33,1.16-0.01c0,0,0.01,0.01,0.01,0.01l2.34,2.35L33.99,31.16h-5.86L44.39,14.9z M33.8,60.71
				c-0.15,0.16-0.36,0.25-0.58,0.25c-0.22,0-0.44-0.09-0.59-0.25l-1.3-1.31h3.79L33.8,60.71z M57.37,56.91
				c0,0.46-0.37,0.83-0.83,0.83H16.67c-0.46,0-0.83-0.37-0.83-0.83V45.28h41.53V56.91z M57.37,43.62H15.84v-4.98h41.53V43.62z
				 M57.37,36.98H15.84v-3.32c0-0.46,0.37-0.83,0.83-0.83h39.87c0.46,0,0.83,0.37,0.83,0.83V36.98z M61.99,32.52L61.99,32.52
				l-2.97,2.97v-1.83c0-1.38-1.12-2.49-2.49-2.49h-10.8l8.04-8.04l8.22,8.22c0.16,0.16,0.25,0.37,0.25,0.59
				C62.24,32.16,62.15,32.37,61.99,32.52z"/>
			<path class="st0" d="M22.14,56.1c0.12-0.1,0.23-0.22,0.34-0.34c1.1,1.28,2.99,1.52,4.37,0.56c0.89-0.63,1.43-1.65,1.44-2.74
				c0-1.83-1.49-3.32-3.32-3.32c-0.16,0-0.33,0.01-0.49,0.04l-0.02,0.01c-0.01,0-0.02,0-0.02,0c-0.76,0.13-1.45,0.52-1.95,1.1
				c-1.2-1.39-3.3-1.54-4.69-0.34c-1.39,1.2-1.54,3.3-0.34,4.69C18.66,57.15,20.76,57.3,22.14,56.1z M24.76,51.94
				c0.07-0.01,0.14-0.02,0.21-0.02c0.92,0,1.66,0.74,1.66,1.66c0,0.35-0.12,0.69-0.33,0.97c-0.03,0.04-0.05,0.08-0.09,0.13
				c-0.01,0.01-0.01,0.01-0.02,0.02c-0.31,0.35-0.76,0.54-1.23,0.54c-0.92-0.02-1.65-0.77-1.63-1.69
				C23.36,52.75,23.96,52.06,24.76,51.94z M19.99,51.93c0.92,0,1.66,0.74,1.66,1.66s-0.74,1.66-1.66,1.66
				c-0.92,0-1.66-0.74-1.66-1.66S19.07,51.93,19.99,51.93z"/>
		</g>
	</g>
</g>
</svg>
