<?xml version="1.0" encoding="utf-8"?>
<!-- Generator: Adobe Illustrator 23.1.1, SVG Export Plug-In . SVG Version: 6.00 Build 0)  -->
<svg version="1.1" id="Capa_1" xmlns="http://www.w3.org/2000/svg" xmlns:xlink="http://www.w3.org/1999/xlink" x="0px" y="0px"
	 viewBox="0 0 59 51" style="enable-background:new 0 0 59 51;" xml:space="preserve">
<style type="text/css">
	.st0{fill:#3BC9FF;}
</style>
<g>
	<g>
		<g>
			<g>
				<path class="st0" d="M44.29,30.62h-0.21c-0.65,0-1.28,0.2-1.81,0.59l-0.93,0.67c-0.57-0.78-1.49-1.26-2.48-1.26h-0.21
					c-0.65,0-1.28,0.2-1.81,0.59l-6.66,4.84h-2.49v1.36h8.36l7.01-5.1c0.3-0.22,0.65-0.33,1.01-0.33h0.21
					c0.95,0,1.72,0.77,1.72,1.72c0,0.46-0.18,0.89-0.5,1.22l-6.53,6.53c-0.9,0.9-2.09,1.39-3.36,1.39H22.05l-4.24,2.83l0.75,1.13
					l3.9-2.6h13.16c1.63,0,3.17-0.64,4.32-1.79l6.53-6.53c0.58-0.58,0.9-1.35,0.9-2.18C47.37,32,45.99,30.62,44.29,30.62z
					 M35.61,36.05h-3.12l5.15-3.74c0.3-0.22,0.65-0.33,1.01-0.33h0.21c0.55,0,1.05,0.28,1.37,0.71L35.61,36.05z"/>
			</g>
		</g>
		<g>
			<g>
				<path class="st0" d="M23.95,32.65h-6.64l-8.99,5.53l0.71,1.16l8.66-5.33h6.26c0.94,0,1.7,0.76,1.7,1.7c0,0.94-0.76,1.7-1.7,1.7
					h-5.09v1.36h5.09c1.68,0,3.05-1.37,3.05-3.05C27.01,34.02,25.64,32.65,23.95,32.65z"/>
			</g>
		</g>
		<g>
			<g>
				<path class="st0" d="M30.4,17.04h-2.71c-1.12,0-2.04-0.91-2.04-2.04s0.91-2.04,2.04-2.04h2.71c1.12,0,2.04,0.91,2.04,2.04h1.36
					c0-1.87-1.52-3.39-3.39-3.39h-0.68V8.9h-1.36v2.71h-0.68c-1.87,0-3.39,1.52-3.39,3.39s1.52,3.39,3.39,3.39h2.71
					c1.12,0,2.04,0.91,2.04,2.04s-0.91,2.04-2.04,2.04h-2.71c-1.12,0-2.04-0.91-2.04-2.04h-1.36c0,1.87,1.52,3.39,3.39,3.39h0.68
					v2.71h1.36v-2.71h0.68c1.87,0,3.39-1.52,3.39-3.39C33.79,18.57,32.27,17.04,30.4,17.04z"/>
			</g>
		</g>
		<g>
			<g>
				<rect x="14.11" y="25.87" class="st0" width="1.36" height="1.36"/>
			</g>
		</g>
		<g>
			<g>
				<rect x="14.11" y="28.58" class="st0" width="1.36" height="1.36"/>
			</g>
		</g>
		<g>
			<g>
				<rect x="15.47" y="27.22" class="st0" width="1.36" height="1.36"/>
			</g>
		</g>
		<g>
			<g>
				<rect x="12.75" y="27.22" class="st0" width="1.36" height="1.36"/>
			</g>
		</g>
		<g>
			<g>
				<rect x="9.36" y="6.18" class="st0" width="1.36" height="1.36"/>
			</g>
		</g>
		<g>
			<g>
				<rect x="9.36" y="8.9" class="st0" width="1.36" height="1.36"/>
			</g>
		</g>
		<g>
			<g>
				<rect x="10.72" y="7.54" class="st0" width="1.36" height="1.36"/>
			</g>
		</g>
		<g>
			<g>
				<rect x="8" y="7.54" class="st0" width="1.36" height="1.36"/>
			</g>
		</g>
		<g>
			<g>
				<rect x="47.37" y="15.01" class="st0" width="1.36" height="1.36"/>
			</g>
		</g>
		<g>
			<g>
				<rect x="47.37" y="17.72" class="st0" width="1.36" height="1.36"/>
			</g>
		</g>
		<g>
			<g>
				<rect x="48.72" y="16.36" class="st0" width="1.36" height="1.36"/>
			</g>
		</g>
		<g>
			<g>
				<rect x="46.01" y="16.36" class="st0" width="1.36" height="1.36"/>
			</g>
		</g>
		<g>
			<g>
				<path class="st0" d="M29.04,4.83c-7.11,0-12.89,5.78-12.89,12.89s5.78,12.89,12.89,12.89c3.18,0,6.23-1.17,8.6-3.28l-0.91-1.01
					c-2.12,1.89-4.85,2.94-7.69,2.94c-6.36,0-11.54-5.18-11.54-11.54S22.68,6.18,29.04,6.18s11.54,5.18,11.54,11.54
					c0,2.63-0.91,5.21-2.56,7.25l1.06,0.85c1.85-2.28,2.87-5.16,2.87-8.11C41.94,10.61,36.15,4.83,29.04,4.83z"/>
			</g>
		</g>
	</g>
</g>
</svg>
