<?xml version="1.0" encoding="utf-8"?>
<!-- Generator: Adobe Illustrator 23.1.1, SVG Export Plug-In . SVG Version: 6.00 Build 0)  -->
<svg version="1.1" id="Capa_1" xmlns="http://www.w3.org/2000/svg" xmlns:xlink="http://www.w3.org/1999/xlink" x="0px" y="0px"
	 viewBox="0 0 104 93" style="enable-background:new 0 0 104 93;" xml:space="preserve">
<style type="text/css">
	.st0{fill:url(#SVGID_1_);}
	.st1{fill:url(#SVGID_2_);}
	.st2{fill:url(#SVGID_3_);}
	.st3{fill:url(#SVGID_4_);}
	.st4{fill:url(#SVGID_5_);}
	.st5{fill:url(#SVGID_6_);}
</style>
<g>
	<g>
		<g>
			<linearGradient id="SVGID_1_" gradientUnits="userSpaceOnUse" x1="14.9753" y1="69.0491" x2="61.9296" y2="69.0491">
				<stop  offset="0" style="stop-color:#047CFF"/>
				<stop  offset="1" style="stop-color:#7F5EFF"/>
			</linearGradient>
			<path class="st0" d="M61.82,61.49c-0.38-1.41-1.68-2.37-3.14-2.32h-0.01l-26,2.42l-3.35-2.22c-0.2-0.13-0.44-0.21-0.68-0.21
				h-6.24c0-0.68-0.55-1.24-1.23-1.24c0,0,0,0,0,0h-4.94c-0.68,0-1.24,0.55-1.24,1.23c0,0,0,0,0,0v14.83c0,0.68,0.55,1.24,1.23,1.24
				c0,0,0,0,0,0h4.94c0.68,0,1.24-0.55,1.24-1.23c0,0,0,0,0,0h2.19l10.89,6.02c0.39,0.22,0.88,0.2,1.26-0.04l23.63-14.97
				C61.6,64.31,62.2,62.86,61.82,61.49z M19.92,72.76h-2.47V60.4h2.47V72.76z M59.08,62.9L36.03,77.5L25.5,71.67
				c-0.18-0.1-0.39-0.15-0.6-0.15h-2.51v-9.88h5.87l8.13,5.4c0.85,0.56,1.08,1.7,0.52,2.55c-0.02,0.03-0.04,0.06-0.06,0.09
				c-0.6,0.79-1.7,0.97-2.52,0.43l-5-3.32l-1.37,2.06l5,3.32c1.98,1.33,4.67,0.8,6-1.18c1.33-1.98,0.8-4.67-1.18-6
				c-0.01,0-0.01-0.01-0.02-0.01l-1.82-1.21l22.84-2.13c0.31-0.01,0.58,0.19,0.65,0.49C59.52,62.44,59.37,62.76,59.08,62.9z"/>
		</g>
	</g>
	<g>
		<g>
			<linearGradient id="SVGID_2_" gradientUnits="userSpaceOnUse" x1="69.3407" y1="27.0395" x2="79.2253" y2="27.0395">
				<stop  offset="0" style="stop-color:#047CFF"/>
				<stop  offset="1" style="stop-color:#7F5EFF"/>
			</linearGradient>
			<polygon class="st1" points="75.52,25.8 75.52,22.1 73.05,22.1 73.05,25.8 69.34,25.8 69.34,28.28 73.05,28.28 73.05,31.98 
				75.52,31.98 75.52,28.28 79.23,28.28 79.23,25.8 			"/>
		</g>
	</g>
	<g>
		<g>
			<linearGradient id="SVGID_3_" gradientUnits="userSpaceOnUse" x1="77.9897" y1="15.9193" x2="87.8743" y2="15.9193">
				<stop  offset="0" style="stop-color:#047CFF"/>
				<stop  offset="1" style="stop-color:#7F5EFF"/>
			</linearGradient>
			<polygon class="st2" points="84.17,14.68 84.17,10.98 81.7,10.98 81.7,14.68 77.99,14.68 77.99,17.15 81.7,17.15 81.7,20.86 
				84.17,20.86 84.17,17.15 87.87,17.15 87.87,14.68 			"/>
		</g>
	</g>
	<g>
		<g>
			<linearGradient id="SVGID_4_" gradientUnits="userSpaceOnUse" x1="79.2253" y1="36.9241" x2="89.1099" y2="36.9241">
				<stop  offset="0" style="stop-color:#047CFF"/>
				<stop  offset="1" style="stop-color:#7F5EFF"/>
			</linearGradient>
			<polygon class="st3" points="85.4,35.69 85.4,31.98 82.93,31.98 82.93,35.69 79.23,35.69 79.23,38.16 82.93,38.16 82.93,41.87 
				85.4,41.87 85.4,38.16 89.11,38.16 89.11,35.69 			"/>
		</g>
	</g>
	<g>
		<g>
			<linearGradient id="SVGID_5_" gradientUnits="userSpaceOnUse" x1="66.8695" y1="64.7246" x2="89.1099" y2="64.7246">
				<stop  offset="0" style="stop-color:#047CFF"/>
				<stop  offset="1" style="stop-color:#7F5EFF"/>
			</linearGradient>
			<path class="st4" d="M77.99,45.57c-6.34,0-11.12,2.66-11.12,6.18v25.48c0,3.72,4.88,6.64,11.12,6.64
				c6.24,0,11.12-2.92,11.12-6.64V51.75C89.11,48.23,84.33,45.57,77.99,45.57z M86.64,77.23c0,1.97-3.55,4.17-8.65,4.17
				c-5.1,0-8.65-2.2-8.65-4.17v-1.96c2.56,1.68,5.58,2.53,8.65,2.42c3.06,0.1,6.09-0.74,8.65-2.42V77.23z M86.64,71.06
				c0,1.97-3.55,4.17-8.65,4.17c-5.1,0-8.65-2.2-8.65-4.17V69.1c2.56,1.68,5.59,2.52,8.65,2.42c3.06,0.1,6.08-0.74,8.65-2.42V71.06z
				 M86.64,64.88c0,1.97-3.55,4.17-8.65,4.17c-5.1,0-8.65-2.2-8.65-4.17v-1.96c2.56,1.68,5.58,2.53,8.65,2.42
				c3.06,0.1,6.09-0.74,8.65-2.42V64.88z M86.64,58.7c0,1.97-3.55,4.17-8.65,4.17c-5.1,0-8.65-2.2-8.65-4.17v-1.96
				c2.56,1.68,5.59,2.52,8.65,2.42c3.06,0.1,6.08-0.74,8.65-2.42V58.7z M86.64,52.52c0,1.97-3.55,4.17-8.65,4.17
				c-5.1,0-8.65-2.2-8.65-4.17v-0.77c0-1.75,3.7-3.71,8.65-3.71c4.95,0,8.65,1.96,8.65,3.71V52.52z"/>
		</g>
	</g>
	<g>
		<g>
			<linearGradient id="SVGID_6_" gradientUnits="userSpaceOnUse" x1="14.9753" y1="27.6684" x2="60.6917" y2="27.6684">
				<stop  offset="0" style="stop-color:#047CFF"/>
				<stop  offset="1" style="stop-color:#7F5EFF"/>
			</linearGradient>
			<path class="st5" d="M59.75,15.92c1.37-1.52,1.24-3.87-0.29-5.23c-0.68-0.61-1.56-0.95-2.47-0.95H16.21
				c-0.68,0-1.24,0.55-1.24,1.23c0,0,0,0,0,0V25.8c0,0.68,0.55,1.24,1.23,1.24c0,0,0,0,0,0h13.68c-0.06,0.41-0.09,0.82-0.09,1.24
				c0.01,1.51,0.41,3,1.18,4.31c-2.41,4.12-1.02,9.42,3.1,11.83c4.12,2.41,9.42,1.02,11.83-3.1c1.58-2.7,1.58-6.03,0-8.73
				c0.77-1.31,1.18-2.79,1.18-4.31c0-0.41-0.03-0.83-0.09-1.24h9.98c2.05,0,3.71-1.66,3.71-3.7c0-0.91-0.34-1.79-0.95-2.47
				C61.01,19.46,61.01,17.33,59.75,15.92z M38.45,39.4c-0.77,0-1.24-0.4-1.24-0.62h-2.47c0.07,1.42,1.09,2.61,2.47,2.91v1.29
				c-2.87-0.59-4.94-3.12-4.94-6.05c0-2.93,2.07-5.46,4.94-6.05v1.29c-1.39,0.3-2.4,1.49-2.47,2.91c0,2.25,2.14,2.76,3.42,3.06
				c1.18,0.28,1.52,0.42,1.52,0.65C39.69,39,39.22,39.4,38.45,39.4z M44.5,38.16c-0.5,2.43-2.39,4.32-4.82,4.82v-1.29
				c1.39-0.3,2.4-1.49,2.47-2.91c0-2.26-2.15-2.76-3.43-3.06c-1.18-0.27-1.52-0.42-1.52-0.65c0-0.22,0.47-0.62,1.24-0.62
				s1.24,0.4,1.24,0.62h2.47c-0.07-1.42-1.09-2.61-2.47-2.91v-1.29C43.03,31.55,45.19,34.82,44.5,38.16z M37.22,28.28
				c0-0.68,0.55-1.24,1.24-1.24s1.24,0.55,1.24,1.24c0,0.03-0.01,0.06-0.02,0.1c-0.81-0.13-1.63-0.13-2.43,0
				C37.23,28.34,37.22,28.31,37.22,28.28z M56.98,17.15c0.68,0,1.24,0.55,1.24,1.24c0,0.68-0.55,1.24-1.24,1.24H42.16v2.47h14.83
				c0.68,0,1.24,0.55,1.24,1.24c0,0.68-0.55,1.24-1.24,1.24H45.43c-0.68,0-1.24,0.55-1.24,1.24c0,0.14,0.02,0.28,0.07,0.41
				c0.5,1.38,0.48,2.9-0.07,4.26c-0.64-0.57-1.36-1.05-2.14-1.41c0.06-0.26,0.1-0.53,0.1-0.8c0-2.05-1.66-3.71-3.71-3.71
				s-3.71,1.66-3.71,3.71c0,0.27,0.04,0.54,0.1,0.8c-0.78,0.36-1.5,0.83-2.14,1.41c-0.55-1.37-0.57-2.88-0.07-4.26
				c0.23-0.64-0.11-1.35-0.75-1.58c-0.13-0.05-0.27-0.07-0.41-0.07H17.45V12.21h39.54c0.68,0,1.24,0.55,1.24,1.24
				c0,0.68-0.55,1.24-1.24,1.24H42.16v2.47H56.98z"/>
		</g>
	</g>
</g>
</svg>
