<?xml version="1.0" encoding="utf-8"?>
<!-- Generator: Adobe Illustrator 23.1.1, SVG Export Plug-In . SVG Version: 6.00 Build 0)  -->
<svg version="1.1" id="Capa_1" xmlns="http://www.w3.org/2000/svg" xmlns:xlink="http://www.w3.org/1999/xlink" x="0px" y="0px"
	 viewBox="0 0 104 93" style="enable-background:new 0 0 104 93;" xml:space="preserve">
<style type="text/css">
	.st0{fill:url(#SVGID_1_);}
	.st1{fill:url(#SVGID_2_);}
	.st2{fill:url(#SVGID_3_);}
	.st3{fill:url(#SVGID_4_);}
	.st4{fill:url(#SVGID_5_);}
	.st5{fill:url(#SVGID_6_);}
	.st6{fill:url(#SVGID_7_);}
	.st7{fill:url(#SVGID_8_);}
	.st8{fill:url(#SVGID_9_);}
	.st9{fill:url(#SVGID_10_);}
	.st10{fill:url(#SVGID_11_);}
	.st11{fill:url(#SVGID_12_);}
	.st12{fill:url(#SVGID_13_);}
	.st13{fill:url(#SVGID_14_);}
	.st14{fill:url(#SVGID_15_);}
	.st15{fill:url(#SVGID_16_);}
	.st16{fill:url(#SVGID_17_);}
</style>
<g>
	<linearGradient id="SVGID_1_" gradientUnits="userSpaceOnUse" x1="15.569" y1="28.2509" x2="30.848" y2="28.2509">
		<stop  offset="0" style="stop-color:#047CFF"/>
		<stop  offset="1" style="stop-color:#7F5EFF"/>
	</linearGradient>
	<path class="st0" d="M16.79,29.47h12.84c0.67,0,1.22-0.55,1.22-1.22s-0.55-1.22-1.22-1.22H16.79c-0.67,0-1.22,0.55-1.22,1.22
		S16.11,29.47,16.79,29.47z"/>
	<linearGradient id="SVGID_2_" gradientUnits="userSpaceOnUse" x1="22.8985" y1="36.5493" x2="30.4076" y2="36.5493">
		<stop  offset="0" style="stop-color:#047CFF"/>
		<stop  offset="1" style="stop-color:#7F5EFF"/>
	</linearGradient>
	<path class="st1" d="M29.19,35.33h-5.07c-0.67,0-1.22,0.55-1.22,1.22c0,0.67,0.55,1.22,1.22,1.22h5.07c0.67,0,1.22-0.55,1.22-1.22
		C30.41,35.88,29.86,35.33,29.19,35.33z"/>
	<linearGradient id="SVGID_3_" gradientUnits="userSpaceOnUse" x1="10.475" y1="42.5587" x2="25.3341" y2="42.5587">
		<stop  offset="0" style="stop-color:#047CFF"/>
		<stop  offset="1" style="stop-color:#7F5EFF"/>
	</linearGradient>
	<path class="st2" d="M11.69,43.78h12.42c0.67,0,1.22-0.55,1.22-1.22s-0.55-1.22-1.22-1.22H11.69c-0.67,0-1.22,0.55-1.22,1.22
		S11.02,43.78,11.69,43.78z"/>
	<linearGradient id="SVGID_4_" gradientUnits="userSpaceOnUse" x1="15.569" y1="65.366" x2="30.848" y2="65.366">
		<stop  offset="0" style="stop-color:#047CFF"/>
		<stop  offset="1" style="stop-color:#7F5EFF"/>
	</linearGradient>
	<path class="st3" d="M30.85,65.37c0-0.67-0.55-1.22-1.22-1.22H16.79c-0.67,0-1.22,0.55-1.22,1.22s0.55,1.22,1.22,1.22h12.84
		C30.3,66.58,30.85,66.04,30.85,65.37z"/>
	<linearGradient id="SVGID_5_" gradientUnits="userSpaceOnUse" x1="22.8985" y1="57.0677" x2="30.4076" y2="57.0677">
		<stop  offset="0" style="stop-color:#047CFF"/>
		<stop  offset="1" style="stop-color:#7F5EFF"/>
	</linearGradient>
	<path class="st4" d="M29.19,55.85h-5.07c-0.67,0-1.22,0.55-1.22,1.22c0,0.67,0.55,1.22,1.22,1.22h5.07c0.67,0,1.22-0.55,1.22-1.22
		C30.41,56.4,29.86,55.85,29.19,55.85z"/>
	<linearGradient id="SVGID_6_" gradientUnits="userSpaceOnUse" x1="10.475" y1="51.0583" x2="25.3341" y2="51.0583">
		<stop  offset="0" style="stop-color:#047CFF"/>
		<stop  offset="1" style="stop-color:#7F5EFF"/>
	</linearGradient>
	<path class="st5" d="M25.33,51.06c0-0.67-0.55-1.22-1.22-1.22H11.69c-0.67,0-1.22,0.55-1.22,1.22c0,0.67,0.55,1.22,1.22,1.22h12.42
		C24.79,52.28,25.33,51.73,25.33,51.06z"/>
	<linearGradient id="SVGID_7_" gradientUnits="userSpaceOnUse" x1="61.1402" y1="30.0201" x2="63.5758" y2="30.0201">
		<stop  offset="0" style="stop-color:#047CFF"/>
		<stop  offset="1" style="stop-color:#7F5EFF"/>
	</linearGradient>
	<path class="st6" d="M62.36,32.17c0.67,0,1.22-0.55,1.22-1.22v-1.86c0-0.67-0.55-1.22-1.22-1.22s-1.22,0.55-1.22,1.22v1.86
		C61.14,31.62,61.69,32.17,62.36,32.17z"/>
	<linearGradient id="SVGID_8_" gradientUnits="userSpaceOnUse" x1="72.354" y1="34.9373" x2="76.104" y2="34.9373">
		<stop  offset="0" style="stop-color:#047CFF"/>
		<stop  offset="1" style="stop-color:#7F5EFF"/>
	</linearGradient>
	<path class="st7" d="M75.75,33.42c-0.48-0.48-1.25-0.48-1.72,0l-1.31,1.31c-0.48,0.48-0.48,1.25,0,1.72c0.48,0.48,1.25,0.48,1.72,0
		l1.31-1.31C76.22,34.67,76.22,33.89,75.75,33.42z"/>
	<linearGradient id="SVGID_9_" gradientUnits="userSpaceOnUse" x1="76.9992" y1="46.8085" x2="81.2934" y2="46.8085">
		<stop  offset="0" style="stop-color:#047CFF"/>
		<stop  offset="1" style="stop-color:#7F5EFF"/>
	</linearGradient>
	<path class="st8" d="M78.22,45.59c-0.67,0-1.22,0.55-1.22,1.22s0.55,1.22,1.22,1.22h1.86c0.67,0,1.22-0.55,1.22-1.22
		s-0.55-1.22-1.22-1.22H78.22z"/>
	<linearGradient id="SVGID_10_" gradientUnits="userSpaceOnUse" x1="72.354" y1="58.6796" x2="76.1041" y2="58.6796">
		<stop  offset="0" style="stop-color:#047CFF"/>
		<stop  offset="1" style="stop-color:#7F5EFF"/>
	</linearGradient>
	<path class="st9" d="M74.43,57.16c-0.48-0.48-1.25-0.48-1.72,0c-0.48,0.48-0.48,1.25,0,1.72l1.31,1.31c0.48,0.48,1.25,0.48,1.72,0
		c0.48-0.48,0.48-1.25,0-1.72L74.43,57.16z"/>
	<linearGradient id="SVGID_11_" gradientUnits="userSpaceOnUse" x1="61.1402" y1="63.5968" x2="63.5758" y2="63.5968">
		<stop  offset="0" style="stop-color:#047CFF"/>
		<stop  offset="1" style="stop-color:#7F5EFF"/>
	</linearGradient>
	<path class="st10" d="M61.14,62.67v1.86c0,0.67,0.55,1.22,1.22,1.22s1.22-0.55,1.22-1.22v-1.86c0-0.67-0.55-1.22-1.22-1.22
		S61.14,61.99,61.14,62.67z"/>
	<linearGradient id="SVGID_12_" gradientUnits="userSpaceOnUse" x1="48.6116" y1="58.6796" x2="52.3616" y2="58.6796">
		<stop  offset="0" style="stop-color:#047CFF"/>
		<stop  offset="1" style="stop-color:#7F5EFF"/>
	</linearGradient>
	<path class="st11" d="M50.28,57.16l-1.31,1.31c-0.48,0.48-0.48,1.25,0,1.72c0.48,0.48,1.25,0.48,1.72,0L52,58.88
		c0.48-0.48,0.48-1.25,0-1.72C51.53,56.69,50.76,56.69,50.28,57.16z"/>
	<linearGradient id="SVGID_13_" gradientUnits="userSpaceOnUse" x1="43.4223" y1="46.8085" x2="47.7168" y2="46.8085">
		<stop  offset="0" style="stop-color:#047CFF"/>
		<stop  offset="1" style="stop-color:#7F5EFF"/>
	</linearGradient>
	<path class="st12" d="M44.64,45.59c-0.67,0-1.22,0.55-1.22,1.22s0.55,1.22,1.22,1.22h1.86c0.67,0,1.22-0.55,1.22-1.22
		s-0.55-1.22-1.22-1.22H44.64z"/>
	<linearGradient id="SVGID_14_" gradientUnits="userSpaceOnUse" x1="48.6118" y1="34.9373" x2="52.3617" y2="34.9373">
		<stop  offset="0" style="stop-color:#047CFF"/>
		<stop  offset="1" style="stop-color:#7F5EFF"/>
	</linearGradient>
	<path class="st13" d="M52.01,34.73l-1.31-1.31c-0.48-0.48-1.25-0.48-1.72,0c-0.48,0.48-0.48,1.25,0,1.72l1.31,1.31
		c0.48,0.48,1.25,0.48,1.72,0C52.48,35.98,52.48,35.21,52.01,34.73z"/>
	<linearGradient id="SVGID_15_" gradientUnits="userSpaceOnUse" x1="61.1402" y1="41.6788" x2="68.9065" y2="41.6788">
		<stop  offset="0" style="stop-color:#047CFF"/>
		<stop  offset="1" style="stop-color:#7F5EFF"/>
	</linearGradient>
	<path class="st14" d="M68.91,46.81c0-0.67-0.55-1.22-1.22-1.22h-4.11v-9.04c0-0.67-0.55-1.22-1.22-1.22s-1.22,0.55-1.22,1.22v10.26
		c0,0.67,0.55,1.22,1.22,1.22h5.33C68.36,48.03,68.91,47.48,68.91,46.81z"/>
	<linearGradient id="SVGID_16_" gradientUnits="userSpaceOnUse" x1="38.0778" y1="46.8086" x2="86.5935" y2="46.8086">
		<stop  offset="0" style="stop-color:#047CFF"/>
		<stop  offset="1" style="stop-color:#7F5EFF"/>
	</linearGradient>
	<path class="st15" d="M85.45,46.61c0.67-0.04,1.18-0.62,1.14-1.29c-0.77-12.78-11.42-22.79-24.23-22.79
		c-13.39,0-24.28,10.89-24.28,24.28c0,13.39,10.89,24.28,24.28,24.28c11.99,0,22.23-8.79,24.01-20.65c0.1-0.67-0.36-1.29-1.02-1.39
		c-0.66-0.1-1.29,0.36-1.39,1.02c-1.6,10.65-10.8,18.57-21.6,18.57c-12.05,0-21.84-9.8-21.84-21.84s9.8-21.84,21.84-21.84
		c11.53,0,21.11,9.01,21.8,20.5C84.2,46.14,84.78,46.65,85.45,46.61L85.45,46.61z"/>
	<linearGradient id="SVGID_17_" gradientUnits="userSpaceOnUse" x1="27.31" y1="46.8085" x2="93.6101" y2="46.8085">
		<stop  offset="0" style="stop-color:#047CFF"/>
		<stop  offset="1" style="stop-color:#7F5EFF"/>
	</linearGradient>
	<path class="st16" d="M62.36,15.56c-4.28,0-8.48,0.89-12.34,2.55H28.53c-0.67,0-1.22,0.55-1.22,1.22s0.55,1.22,1.22,1.22h16.91
		c-2.29,1.47-4.39,3.25-6.25,5.29c-0.45,0.5-0.41,1.27,0.09,1.72c0.5,0.45,1.27,0.41,1.72-0.09c5.46-6.02,13.24-9.48,21.36-9.48
		c15.89,0,28.82,12.93,28.82,28.82c0,15.89-12.93,28.82-28.82,28.82c-15.89,0-28.82-12.93-28.82-28.82c0-5.56,1.59-10.96,4.6-15.62
		c0.37-0.56,0.2-1.32-0.36-1.68c-0.56-0.36-1.32-0.2-1.68,0.36c-3.26,5.05-4.99,10.91-4.99,16.94c0,11,5.72,20.7,14.34,26.27H28.53
		c-0.67,0-1.22,0.55-1.22,1.22c0,0.67,0.55,1.22,1.22,1.22H50c3.79,1.64,7.97,2.55,12.36,2.55c17.23,0,31.25-14.02,31.25-31.25
		S79.59,15.56,62.36,15.56z"/>
</g>
</svg>
