<?xml version="1.0" encoding="utf-8"?>
<!-- Generator: Adobe Illustrator 23.1.1, SVG Export Plug-In . SVG Version: 6.00 Build 0)  -->
<svg version="1.1" id="Capa_1" xmlns="http://www.w3.org/2000/svg" xmlns:xlink="http://www.w3.org/1999/xlink" x="0px" y="0px"
	 viewBox="0 0 59 51" style="enable-background:new 0 0 59 51;" xml:space="preserve">
<style type="text/css">
	.st0{fill:#3BC9FF;}
</style>
<g>
	<g>
		<path class="st0" d="M21.57,21.42h2.72c0.7,0,1.27-0.57,1.27-1.27v-7.31c0-0.12-0.05-0.25-0.14-0.34l-3.71-3.71
			c-0.09-0.09-0.21-0.14-0.34-0.14h-4.74c-0.7,0-1.27,0.57-1.27,1.27v10.22c0,0.7,0.57,1.27,1.27,1.27h2.7
			c0.27,0,0.48-0.22,0.48-0.48s-0.22-0.48-0.48-0.48h-2.7c-0.17,0-0.31-0.14-0.31-0.31V9.92c0-0.17,0.14-0.31,0.31-0.31h4.26v2.44
			c0,0.7,0.57,1.27,1.27,1.27h2.44v6.83c0,0.17-0.14,0.31-0.31,0.31h-2.72c-0.27,0-0.48,0.22-0.48,0.48S21.31,21.42,21.57,21.42
			L21.57,21.42z M22.17,12.36c-0.17,0-0.31-0.14-0.31-0.31v-1.76c0.3,0.3,1.77,1.77,2.07,2.07H22.17z"/>
		<path class="st0" d="M17.89,14.37h-0.12c-0.27,0-0.48,0.22-0.48,0.48c0,0.27,0.22,0.48,0.48,0.48h0.12c0.27,0,0.48-0.22,0.48-0.48
			C18.37,14.58,18.16,14.37,17.89,14.37z"/>
		<path class="st0" d="M17.89,16.25h-0.12c-0.27,0-0.48,0.22-0.48,0.48c0,0.27,0.22,0.48,0.48,0.48h0.12c0.27,0,0.48-0.22,0.48-0.48
			S18.16,16.25,17.89,16.25z"/>
		<path class="st0" d="M17.89,18.13h-0.12c-0.27,0-0.48,0.22-0.48,0.48s0.22,0.48,0.48,0.48h0.12c0.27,0,0.48-0.22,0.48-0.48
			S18.16,18.13,17.89,18.13z"/>
		<path class="st0" d="M19.78,15.33h3.36c0.27,0,0.48-0.22,0.48-0.48c0-0.27-0.22-0.48-0.48-0.48h-3.36c-0.27,0-0.48,0.22-0.48,0.48
			C19.3,15.11,19.52,15.33,19.78,15.33z"/>
		<path class="st0" d="M19.78,17.21h3.36c0.27,0,0.48-0.22,0.48-0.48s-0.22-0.48-0.48-0.48h-3.36c-0.27,0-0.48,0.22-0.48,0.48
			C19.3,17,19.52,17.21,19.78,17.21z"/>
		<path class="st0" d="M19.78,19.09h3.36c0.27,0,0.48-0.22,0.48-0.48s-0.22-0.48-0.48-0.48h-3.36c-0.27,0-0.48,0.22-0.48,0.48
			S19.52,19.09,19.78,19.09z"/>
		<path class="st0" d="M44.11,20.15v-7.31c0-0.12-0.05-0.25-0.14-0.34l-3.71-3.71c-0.09-0.08-0.21-0.14-0.34-0.14h-4.74
			c-0.7,0-1.27,0.57-1.27,1.27v10.22c0,0.7,0.57,1.27,1.27,1.27h7.66C43.54,21.42,44.11,20.85,44.11,20.15L44.11,20.15z M40.4,10.29
			l2.07,2.07h-1.76c-0.17,0-0.31-0.14-0.31-0.31L40.4,10.29L40.4,10.29z M34.87,20.15V9.92c0-0.17,0.14-0.31,0.31-0.31h4.26v2.44
			c0,0.7,0.57,1.27,1.27,1.27h2.44v6.83c0,0.17-0.14,0.31-0.31,0.31h-7.66C35.01,20.46,34.87,20.32,34.87,20.15L34.87,20.15z"/>
		<path class="st0" d="M36.44,14.37h-0.12c-0.27,0-0.48,0.22-0.48,0.48c0,0.27,0.22,0.48,0.48,0.48h0.12c0.27,0,0.48-0.22,0.48-0.48
			C36.92,14.58,36.71,14.37,36.44,14.37z"/>
		<path class="st0" d="M36.44,16.25h-0.12c-0.27,0-0.48,0.22-0.48,0.48c0,0.27,0.22,0.48,0.48,0.48h0.12c0.27,0,0.48-0.22,0.48-0.48
			S36.71,16.25,36.44,16.25z"/>
		<path class="st0" d="M36.44,18.13h-0.12c-0.27,0-0.48,0.22-0.48,0.48s0.22,0.48,0.48,0.48h0.12c0.27,0,0.48-0.22,0.48-0.48
			S36.71,18.13,36.44,18.13z"/>
		<path class="st0" d="M41.69,14.37h-3.36c-0.27,0-0.48,0.22-0.48,0.48c0,0.27,0.22,0.48,0.48,0.48h3.36c0.27,0,0.48-0.22,0.48-0.48
			C42.17,14.58,41.96,14.37,41.69,14.37z"/>
		<path class="st0" d="M41.69,16.25h-3.36c-0.27,0-0.48,0.22-0.48,0.48c0,0.27,0.22,0.48,0.48,0.48h3.36c0.27,0,0.48-0.22,0.48-0.48
			S41.96,16.25,41.69,16.25z"/>
		<path class="st0" d="M41.69,18.13h-3.36c-0.27,0-0.48,0.22-0.48,0.48s0.22,0.48,0.48,0.48h3.36c0.27,0,0.48-0.22,0.48-0.48
			S41.96,18.13,41.69,18.13z"/>
		<path class="st0" d="M36.44,34.39h-0.12c-0.27,0-0.48,0.22-0.48,0.48s0.22,0.48,0.48,0.48h0.12c0.27,0,0.48-0.22,0.48-0.48
			S36.71,34.39,36.44,34.39z"/>
		<path class="st0" d="M36.44,36.27h-0.12c-0.27,0-0.48,0.22-0.48,0.48s0.22,0.48,0.48,0.48h0.12c0.27,0,0.48-0.22,0.48-0.48
			S36.71,36.27,36.44,36.27z"/>
		<path class="st0" d="M36.44,38.15h-0.12c-0.27,0-0.48,0.22-0.48,0.48s0.22,0.48,0.48,0.48h0.12c0.27,0,0.48-0.22,0.48-0.48
			S36.71,38.15,36.44,38.15z"/>
		<path class="st0" d="M41.69,34.39h-3.36c-0.27,0-0.48,0.22-0.48,0.48s0.22,0.48,0.48,0.48h3.36c0.27,0,0.48-0.22,0.48-0.48
			S41.96,34.39,41.69,34.39z"/>
		<path class="st0" d="M41.69,36.27h-3.36c-0.27,0-0.48,0.22-0.48,0.48s0.22,0.48,0.48,0.48h3.36c0.27,0,0.48-0.22,0.48-0.48
			S41.96,36.27,41.69,36.27z"/>
		<path class="st0" d="M41.69,38.15h-3.36c-0.27,0-0.48,0.22-0.48,0.48s0.22,0.48,0.48,0.48h3.36c0.27,0,0.48-0.22,0.48-0.48
			S41.96,38.15,41.69,38.15z"/>
		<path class="st0" d="M15.35,40.17c0,0.7,0.57,1.27,1.27,1.27h7.66c0.7,0,1.27-0.57,1.27-1.27v-7.31c0-0.12-0.05-0.25-0.14-0.34
			l-3.71-3.71c-0.09-0.09-0.21-0.14-0.34-0.14h-4.74c-0.7,0-1.27,0.57-1.27,1.27V40.17z M21.85,30.31l2.07,2.07h-1.76
			c-0.17,0-0.31-0.14-0.31-0.31L21.85,30.31L21.85,30.31z M16.32,29.95c0-0.17,0.14-0.31,0.31-0.31h4.26v2.44
			c0,0.7,0.57,1.27,1.27,1.27h2.44v6.83c0,0.17-0.14,0.31-0.31,0.31h-7.66c-0.17,0-0.31-0.14-0.31-0.31L16.32,29.95z"/>
		<path class="st0" d="M17.78,35.35h0.12c0.27,0,0.48-0.22,0.48-0.48s-0.22-0.48-0.48-0.48h-0.12c-0.27,0-0.48,0.22-0.48,0.48
			S17.51,35.35,17.78,35.35z"/>
		<path class="st0" d="M17.78,37.23h0.12c0.27,0,0.48-0.22,0.48-0.48s-0.22-0.48-0.48-0.48h-0.12c-0.27,0-0.48,0.22-0.48,0.48
			S17.51,37.23,17.78,37.23z"/>
		<path class="st0" d="M17.78,39.12h0.12c0.27,0,0.48-0.22,0.48-0.48s-0.22-0.48-0.48-0.48h-0.12c-0.27,0-0.48,0.22-0.48,0.48
			S17.51,39.12,17.78,39.12z"/>
		<path class="st0" d="M19.78,35.35h3.36c0.27,0,0.48-0.22,0.48-0.48s-0.22-0.48-0.48-0.48h-3.36c-0.27,0-0.48,0.22-0.48,0.48
			S19.52,35.35,19.78,35.35z"/>
		<path class="st0" d="M19.78,37.23h3.36c0.27,0,0.48-0.22,0.48-0.48s-0.22-0.48-0.48-0.48h-3.36c-0.27,0-0.48,0.22-0.48,0.48
			S19.52,37.23,19.78,37.23z"/>
		<path class="st0" d="M19.78,39.12h3.36c0.27,0,0.48-0.22,0.48-0.48s-0.22-0.48-0.48-0.48h-3.36c-0.27,0-0.48,0.22-0.48,0.48
			S19.52,39.12,19.78,39.12z"/>
		<path class="st0" d="M39.09,22.26c-0.27,0-0.48,0.22-0.48,0.48v1.54h-0.94c-0.59,0-0.95,0.67-0.61,1.16l1.42,2.07
			c0.29,0.43,0.93,0.43,1.22,0c0,0,0,0,0,0l1.42-2.07c0.34-0.49-0.02-1.16-0.61-1.16h-0.94v-1.54
			C39.57,22.47,39.36,22.26,39.09,22.26L39.09,22.26z M40.1,25.24l-1,1.46l-1-1.46H40.1z"/>
		<path class="st0" d="M30.12,17.07l2.07-1.42c0.43-0.29,0.43-0.93,0-1.22L30.12,13c-0.49-0.34-1.16,0.02-1.16,0.61v0.94h-1.54
			c-0.27,0-0.48,0.22-0.48,0.48c0,0.27,0.22,0.48,0.48,0.48h1.54v0.94C28.97,17.06,29.64,17.4,30.12,17.07z M29.93,14.03l1.46,1
			l-1.46,1V14.03z"/>
		<path class="st0" d="M27.27,35.67l2.07,1.42c0.23,0.16,0.52,0.17,0.76,0.04c0.24-0.13,0.4-0.38,0.4-0.65v-0.94h1.54
			c0.27,0,0.48-0.22,0.48-0.48s-0.22-0.48-0.48-0.48H30.5v-0.94c0-0.59-0.67-0.95-1.16-0.61l-2.07,1.42v0
			C26.84,34.74,26.84,35.37,27.27,35.67L27.27,35.67z M29.54,34.05v2.01l-1.46-1L29.54,34.05z"/>
		<path class="st0" d="M33.91,40.17c0,0.7,0.57,1.27,1.27,1.27h7.66c0.7,0,1.27-0.57,1.27-1.27v-2.3c0-0.27-0.22-0.48-0.48-0.48
			s-0.48,0.22-0.48,0.48v2.3c0,0.17-0.14,0.31-0.31,0.31h-7.66c-0.17,0-0.31-0.14-0.31-0.31V29.95c0-0.17,0.14-0.31,0.31-0.31h4.26
			v2.44c0,0.7,0.57,1.27,1.27,1.27h2.44v2.29c0,0.27,0.22,0.48,0.48,0.48s0.48-0.22,0.48-0.48v-2.77c0-0.12-0.05-0.25-0.14-0.34
			l-3.71-3.71c-0.09-0.09-0.21-0.14-0.34-0.14h-4.74c-0.7,0-1.27,0.57-1.27,1.27V40.17z M40.4,30.31c0.3,0.3,1.77,1.77,2.07,2.07
			h-1.76c-0.17,0-0.31-0.14-0.31-0.31L40.4,30.31L40.4,30.31z"/>
	</g>
</g>
</svg>
