<?xml version="1.0" encoding="utf-8"?>
<!-- Generator: Adobe Illustrator 23.1.1, SVG Export Plug-In . SVG Version: 6.00 Build 0)  -->
<svg version="1.1" id="Capa_1" xmlns="http://www.w3.org/2000/svg" xmlns:xlink="http://www.w3.org/1999/xlink" x="0px" y="0px"
	 viewBox="0 0 59 51" style="enable-background:new 0 0 59 51;" xml:space="preserve">
<style type="text/css">
	.st0{fill:#3BC9FF;}
</style>
<g>
	<g>
		<path class="st0" d="M13.19,29.95h6.74v-1.23h-6.74c-0.34,0-0.61-0.27-0.61-0.61V10.95c0-0.34,0.27-0.61,0.61-0.61h6.74V9.11
			h-6.74c-1.02,0-1.84,0.82-1.84,1.84v17.16C11.35,29.13,12.17,29.95,13.19,29.95z"/>
		<path class="st0" d="M18.09,11.56h1.84v1.23h-1.84V11.56z"/>
		<path class="st0" d="M13.8,14.63h1.23v1.84H13.8V14.63z"/>
		<path class="st0" d="M16.25,14.63h1.23v1.84h-1.23V14.63z"/>
		<path class="st0" d="M18.7,14.63h1.23v1.84H18.7V14.63z"/>
		<path class="st0" d="M15.64,11.56h1.23v1.23h-1.23V11.56z"/>
		<path class="st0" d="M16.25,26.89h3.68v-1.23h-3.68c-0.34,0-0.61-0.27-0.61-0.61s0.27-0.61,0.61-0.61h3.68v-1.23h-3.68
			c-1.02,0-1.84,0.82-1.84,1.84S15.24,26.89,16.25,26.89z"/>
		<path class="st0" d="M46.28,9.11h-6.74v1.23h6.74c0.34,0,0.61,0.27,0.61,0.61v17.16c0,0.34-0.27,0.61-0.61,0.61h-6.74v1.23h6.74
			c1.02,0,1.84-0.82,1.84-1.84V10.95C48.12,9.94,47.3,9.11,46.28,9.11z"/>
		<path class="st0" d="M39.54,11.56h4.29v1.23h-4.29V11.56z"/>
		<path class="st0" d="M44.44,14.63h1.23v1.84h-1.23V14.63z"/>
		<path class="st0" d="M41.99,14.63h1.23v1.84h-1.23V14.63z"/>
		<path class="st0" d="M39.54,14.63h1.23v1.84h-1.23V14.63z"/>
		<path class="st0" d="M39.54,23.21v1.23h3.68c0.34,0,0.61,0.27,0.61,0.61s-0.27,0.61-0.61,0.61h-3.68v1.23h3.68
			c1.02,0,1.84-0.82,1.84-1.84s-0.82-1.84-1.84-1.84H39.54z"/>
		<g>
			<path class="st0" d="M36.48,6.66H22.99c-1.02,0-1.84,0.82-1.84,1.84v22.06c0,1.02,0.82,1.84,1.84,1.84h3.68v-1.23h-3.68
				c-0.34,0-0.61-0.27-0.61-0.61V8.5c0-0.34,0.27-0.61,0.61-0.61h13.48c0.34,0,0.61,0.27,0.61,0.61v22.06
				c0,0.34-0.27,0.61-0.61,0.61H32.8v1.23h3.68c1.02,0,1.84-0.82,1.84-1.84V8.5C38.31,7.49,37.49,6.66,36.48,6.66z"/>
			<path class="st0" d="M26.06,9.73h1.23v1.23h-1.23V9.73z"/>
			<path class="st0" d="M28.51,9.73h4.9v1.23h-4.9V9.73z"/>
			<path class="st0" d="M24.22,12.79h1.23v2.45h-1.23V12.79z"/>
			<path class="st0" d="M26.67,12.79h1.23v2.45h-1.23V12.79z"/>
			<path class="st0" d="M29.12,12.79h1.23v2.45h-1.23V12.79z"/>
			<path class="st0" d="M31.57,12.79h1.23v2.45h-1.23V12.79z"/>
			<path class="st0" d="M34.02,12.79h1.23v2.45h-1.23V12.79z"/>
			<path class="st0" d="M29.12,17.08h4.29v1.23h-4.29V17.08z"/>
			<path class="st0" d="M27.9,28.11h3.68c1.02,0,1.84-0.82,1.84-1.84s-0.82-1.84-1.84-1.84H27.9c-1.02,0-1.84,0.82-1.84,1.84
				S26.88,28.11,27.9,28.11z M27.9,25.66h3.68c0.34,0,0.61,0.27,0.61,0.61s-0.27,0.61-0.61,0.61H27.9c-0.34,0-0.61-0.27-0.61-0.61
				S27.56,25.66,27.9,25.66z"/>
			<path class="st0" d="M38.93,42.82v-6.68c0.01-0.91-0.63-1.71-1.53-1.88c-0.53-0.09-1.08,0.06-1.49,0.41
				c-0.01,0.01-0.02,0.02-0.04,0.03c-0.7-0.63-1.75-0.63-2.45,0c-0.51-0.43-1.2-0.57-1.84-0.36v-3.1c0.01-0.91-0.63-1.71-1.53-1.88
				c-0.53-0.09-1.08,0.06-1.49,0.41c-0.41,0.35-0.65,0.86-0.65,1.41v7.5l-1.63-0.98c-0.5-0.3-1.11-0.32-1.63-0.06l-0.1,0.05
				c-0.53,0.27-0.88,0.79-0.93,1.38c-0.05,0.59,0.22,1.17,0.7,1.51l3.84,2.74c0.1,0.07,0.23,0.11,0.36,0.11h9.81
				C38.65,43.43,38.93,43.16,38.93,42.82z M37.7,42.21h-9l-3.68-2.63c-0.13-0.1-0.21-0.25-0.2-0.42c0.01-0.16,0.11-0.31,0.26-0.38
				l0.1-0.05c0.14-0.07,0.31-0.07,0.45,0.02l2.55,1.53c0.19,0.11,0.43,0.12,0.62,0.01c0.19-0.11,0.31-0.31,0.31-0.53v-8.58
				c0-0.18,0.08-0.35,0.22-0.47c0.14-0.12,0.32-0.17,0.5-0.13c0.31,0.07,0.52,0.35,0.51,0.67v4.84c0,0.34,0.27,0.61,0.61,0.61
				s0.61-0.27,0.61-0.61s0.27-0.61,0.61-0.61c0.34,0,0.61,0.27,0.61,0.61s0.27,0.61,0.61,0.61s0.61-0.27,0.61-0.61
				s0.27-0.61,0.61-0.61c0.34,0,0.61,0.27,0.61,0.61s0.27,0.61,0.61,0.61s0.61-0.27,0.61-0.61c0-0.18,0.08-0.35,0.22-0.47
				c0.14-0.12,0.32-0.17,0.5-0.13c0.31,0.07,0.52,0.35,0.51,0.67V42.21z"/>
			<path class="st0" d="M26.06,17.08h1.84v1.23h-1.84V17.08z"/>
			<path class="st0" d="M26.06,19.53h7.35v1.23h-7.35V19.53z"/>
			<path class="st0" d="M27.28,21.98h4.9v1.23h-4.9V21.98z"/>
		</g>
		<path class="st0" d="M16.25,18.31h3.68v1.23h-3.68V18.31z"/>
		<path class="st0" d="M17.48,20.76h2.45v1.23h-2.45V20.76z"/>
		<path class="st0" d="M39.54,18.31h3.06v1.23h-3.06V18.31z"/>
		<path class="st0" d="M39.54,20.76h1.84v1.23h-1.84V20.76z"/>
	</g>
</g>
</svg>
