<?xml version="1.0" encoding="utf-8"?>
<!-- Generator: Adobe Illustrator 23.1.1, SVG Export Plug-In . SVG Version: 6.00 Build 0)  -->
<svg version="1.1" id="Capa_1" xmlns="http://www.w3.org/2000/svg" xmlns:xlink="http://www.w3.org/1999/xlink" x="0px" y="0px"
	 viewBox="0 0 78 75" style="enable-background:new 0 0 78 75;" xml:space="preserve">
<style type="text/css">
	.st0{fill:#28348A;}
</style>
<g id="internet_banking-bank-money-report-grow">
	<path class="st0" d="M33.81,27.28c-1.94,0-3.51,1.57-3.51,3.51s1.57,3.51,3.51,3.51s3.51-1.57,3.51-3.51S35.75,27.28,33.81,27.28z
		 M33.81,32.54c-0.97,0-1.76-0.79-1.76-1.75c0-0.97,0.79-1.76,1.76-1.76c0.97,0,1.75,0.79,1.75,1.76
		C35.56,31.76,34.78,32.54,33.81,32.54z"/>
	<path class="st0" d="M33.81,50.97c-0.48,0-0.88-0.39-0.88-0.88h-1.75c0,1.11,0.71,2.1,1.75,2.47v1.04h1.76v-1.04
		c1.37-0.48,2.09-1.98,1.6-3.35c-0.37-1.05-1.37-1.76-2.48-1.75c-0.48,0-0.88-0.39-0.88-0.88s0.39-0.88,0.88-0.88
		c0.48,0,0.88,0.39,0.88,0.88h1.76c0-1.11-0.71-2.1-1.76-2.47v-1.04h-1.76v1.04c-1.37,0.48-2.09,1.98-1.6,3.35
		c0.37,1.05,1.37,1.76,2.48,1.75c0.48,0,0.88,0.39,0.88,0.88C34.69,50.58,34.29,50.97,33.81,50.97z"/>
	<path class="st0" d="M64.52,11.48H39.95c-0.48,0-0.88,0.39-0.88,0.88v13.13l-4.76-3.32c-0.3-0.21-0.7-0.21-1,0L13.13,36.21
		c-0.4,0.28-0.49,0.82-0.22,1.22c0.16,0.23,0.43,0.37,0.72,0.38h0.88v2.63c0,0.48,0.39,0.88,0.88,0.88h1.76v14.04h-1.76
		c-0.48,0-0.88,0.39-0.88,0.88v2.63h-0.88c-0.48,0-0.88,0.39-0.88,0.88v3.51c0,0.48,0.39,0.88,0.88,0.88h40.37
		c0.48,0,0.88-0.39,0.88-0.88v-3.51c0-0.48-0.39-0.88-0.88-0.88h-0.88v-2.63c0-0.48-0.39-0.88-0.88-0.88h-1.76V41.32h1.76
		c0.48,0,0.88-0.39,0.88-0.88v-2.63h0.88c0.48,0,0.88-0.39,0.88-0.88c0-0.29-0.14-0.55-0.38-0.72l-7.79-5.42h17.82
		c0.48,0,0.88-0.39,0.88-0.88V12.36C65.4,11.88,65.01,11.48,64.52,11.48z M53.11,60.62v1.75H14.5v-1.75H53.11z M51.36,57.11v1.76
		h-35.1v-1.76H51.36z M24.09,41.32h4.48c-3.88,2.87-4.69,8.34-1.82,12.22c0.51,0.69,1.13,1.31,1.82,1.82h-4.48
		c-0.39-2.69-2.5-4.8-5.19-5.19v-3.65C21.58,46.12,23.7,44.01,24.09,41.32z M18.89,44.74v-3.42h3.42
		C21.96,43.04,20.61,44.39,18.89,44.74z M48.73,46.51v3.65c-2.69,0.39-4.8,2.5-5.19,5.19h-4.48c3.88-2.87,4.69-8.34,1.82-12.22
		c-0.51-0.69-1.13-1.31-1.82-1.82h4.48C43.92,44.01,46.04,46.12,48.73,46.51L48.73,46.51z M45.3,41.32h3.42v3.42
		C47,44.39,45.66,43.04,45.3,41.32z M48.73,51.94v3.42H45.3C45.66,53.64,47,52.29,48.73,51.94z M40.83,48.34
		c0,3.88-3.14,7.02-7.02,7.02s-7.02-3.14-7.02-7.02s3.14-7.02,7.02-7.02C37.68,41.32,40.82,44.46,40.83,48.34z M22.31,55.36h-3.42
		v-3.42C20.61,52.29,21.96,53.64,22.31,55.36z M51.36,39.56h-35.1v-1.76h35.1V39.56z M51.19,36.05h-5.1V34.3h-1.76v1.75h-1.76V34.3
		h-1.75v1.75h-1.76V34.3h-1.76v1.75H30.3V34.3h-1.75v1.75h-1.75V34.3h-1.76v1.75h-1.75V34.3h-1.76v1.75h-5.1l17.38-12.09l5.26,3.66
		v2.29c0,0.48,0.39,0.88,0.88,0.88h3.68L51.19,36.05z M63.64,29.03H40.83V13.24h22.81V29.03z"/>
	<path class="st0" d="M43.46,27.28h3.51c0.48,0,0.88-0.39,0.88-0.88v-6.14c0-0.48-0.39-0.88-0.88-0.88h-3.51
		c-0.48,0-0.88,0.39-0.88,0.88v6.14C42.58,26.89,42.98,27.28,43.46,27.28z M44.34,21.14h1.76v4.39h-1.76V21.14z"/>
	<path class="st0" d="M50.48,27.28h3.51c0.48,0,0.88-0.39,0.88-0.88v-8.77c0-0.48-0.39-0.88-0.88-0.88h-3.51
		c-0.48,0-0.88,0.39-0.88,0.88v8.77C49.6,26.89,50,27.28,50.48,27.28z M51.36,18.5h1.76v7.02h-1.76V18.5z"/>
	<path class="st0" d="M57.5,27.28h3.51c0.48,0,0.88-0.39,0.88-0.88V15.87c0-0.48-0.39-0.88-0.88-0.88H57.5
		c-0.48,0-0.88,0.39-0.88,0.88V26.4C56.62,26.89,57.02,27.28,57.5,27.28z M58.38,16.75h1.75v8.77h-1.75V16.75z"/>
	<path class="st0" d="M12.75,11.48h3.51v1.76h-3.51V11.48z"/>
	<path class="st0" d="M18.01,11.48h8.78v1.76h-8.78V11.48z"/>
	<path class="st0" d="M12.75,16.75h3.51v1.76h-3.51V16.75z"/>
	<path class="st0" d="M18.01,16.75h8.78v1.76h-8.78V16.75z"/>
	<path class="st0" d="M12.75,22.01h3.51v1.76h-3.51V22.01z"/>
	<path class="st0" d="M18.01,22.01h8.78v1.76h-8.78V22.01z"/>
	<path class="st0" d="M65.22,46.93l-5.26-7.02c-0.32-0.39-0.9-0.44-1.29-0.12c-0.04,0.04-0.08,0.07-0.12,0.12l-5.26,7.02
		c-0.2,0.27-0.23,0.62-0.08,0.92c0.14,0.3,0.45,0.49,0.78,0.48h1.76v6.14c0,0.48,0.39,0.88,0.88,0.88h5.26
		c0.48,0,0.88-0.39,0.88-0.88v-6.14h1.76c0.33,0,0.64-0.18,0.78-0.48C65.45,47.56,65.42,47.2,65.22,46.93z M61.89,46.58
		c-0.48,0-0.88,0.39-0.88,0.88v6.14H57.5v-6.14c0-0.48-0.39-0.88-0.88-0.88h-0.88l3.51-4.68l3.51,4.68H61.89z"/>
</g>
</svg>
