<?xml version="1.0" encoding="utf-8"?>
<!-- Generator: Adobe Illustrator 23.1.1, SVG Export Plug-In . SVG Version: 6.00 Build 0)  -->
<svg version="1.1" id="Capa_1" xmlns="http://www.w3.org/2000/svg" xmlns:xlink="http://www.w3.org/1999/xlink" x="0px" y="0px"
	 viewBox="0 0 78 75" style="enable-background:new 0 0 78 75;" xml:space="preserve">
<style type="text/css">
	.st0{fill:#28348A;}
</style>
<g>
	<g>
		<path class="st0" d="M23.73,24.94c2.47,0,4.46-2,4.46-4.46c0-2.46-2-4.46-4.46-4.46c-2.46,0-4.46,2-4.46,4.46
			C19.27,22.94,21.27,24.93,23.73,24.94z M23.73,17.74c1.51,0,2.73,1.22,2.73,2.73c0,1.51-1.22,2.73-2.73,2.73
			c-1.51,0-2.73-1.22-2.73-2.73C21,18.97,22.22,17.75,23.73,17.74z"/>
		<path class="st0" d="M62.57,49.27l-0.33-8.74l1.63-2.24l-1.98-3.63l0.4-1.22l3.73-1.78v-3.62l-3.73-1.78l-0.4-1.22l1.98-3.63
			l-2.13-2.93l-4.06,0.76l-1.04-0.76l-0.54-4.1l-3.44-1.12l-2.84,3h-1.28l-2.84-3l-3.44,1.12l-0.17,1.28l-12.03-0.72l-0.81-0.81
			l-0.22-1.82l-3.25-1.35l-1.45,1.13h-1.17l-1.45-1.13l-3.25,1.35l-0.22,1.82l-0.83,0.83l-1.82,0.22l-1.35,3.25l1.13,1.45v1.18
			l-1.13,1.44l1.07,2.59l-1.19,15.32c-0.03,0.2-0.04,0.39-0.05,0.59v0.03h-0.01v0.07c0,1.76,0.88,3.4,2.36,4.35
			c1.47,0.96,3.33,1.11,4.94,0.39l5.12-2.14c-0.83,2.34,0.13,4.95,2.28,6.19l-7.92,2.55c-2.62,0.52-4.41,2.94-4.15,5.6
			c0.26,2.66,2.49,4.68,5.16,4.69h0.05l31.89-1.67l0.49,1.17l2.75,0.56l2.24-2.17l0.57-0.19l3.09,0.4l1.87-2.1l-0.76-3.02l0.12-0.59
			l1.89-2.48L65.15,50L62.57,49.27z M43.82,15.69l1.36-0.44l2.6,2.75h2.77l2.6-2.75l1.36,0.44l0.49,3.75l2.24,1.63l3.72-0.69
			l0.84,1.16l-1.81,3.33l0.86,2.64l3.42,1.63v1.43l-3.42,1.63l-0.86,2.64l1.81,3.33l-0.84,1.16l-3.72-0.69l-2.24,1.63L54.52,44
			l-1.36,0.44l-2.6-2.75h-2.77l-2.6,2.75L43.82,44l-0.49-3.75l-2.24-1.63l-3.72,0.69l-0.84-1.16l1.81-3.33l-0.86-2.64l-3.42-1.63
			v-1.43l3.42-1.63l0.86-2.64l-1.81-3.33l0.84-1.16l3.72,0.69l2.24-1.63L43.82,15.69z M16.22,18.17l0.57-1.39l1.41-0.17l1.67-1.67
			l0.17-1.41l1.39-0.57l1.12,0.87h2.37l1.11-0.87l1.39,0.57l0.17,1.41l1.67,1.67l1.41,0.17l0.57,1.39l-0.87,1.12v2.37l0.87,1.12
			l-0.57,1.39l-1.41,0.17l-1.67,1.67l-0.17,1.41L26.03,28l-1.12-0.87h-2.36L21.43,28l-1.39-0.57l-0.17-1.41l-1.67-1.68l-1.41-0.17
			l-0.57-1.39l0.87-1.12v-2.36L16.22,18.17z M15.79,41.12l0.01-0.14c0.17-1.78,1.75-3.1,3.54-2.94c1.79,0.16,3.11,1.72,2.98,3.51
			c-0.14,1.79-1.69,3.13-3.48,3.01C17.05,44.45,15.69,42.91,15.79,41.12z M31.37,41.97c1.91,0,3.46,1.55,3.46,3.46
			c0,1.91-1.55,3.46-3.46,3.46c-1.91,0-3.46-1.55-3.46-3.46C27.91,43.52,29.46,41.97,31.37,41.97z M18.38,57.56
			c0-1.35,0.79-2.57,2.01-3.13l0.84-0.27c1.28-0.23,2.59,0.28,3.37,1.33c0.78,1.04,0.92,2.43,0.34,3.6
			c-0.57,1.17-1.76,1.92-3.06,1.94h-0.04C19.93,61.02,18.38,59.47,18.38,57.56z M25.9,60.81c0.94-1.17,1.33-2.69,1.07-4.17
			c-0.27-1.48-1.16-2.77-2.45-3.54l8.46-2.72c1.83-0.57,3.19-2.1,3.55-3.98s-0.34-3.81-1.82-5.01c-1.49-1.21-3.51-1.5-5.28-0.76
			l-5.26,2.19c0.76-2.16,0.01-4.57-1.84-5.91c-1.85-1.35-4.37-1.32-6.2,0.07l0.87-11.05l0.42,0.05l0.83,0.83l0.22,1.82l3.25,1.34
			l1.45-1.13h1.18l1.45,1.13l3.24-1.34l0.22-1.82l0.83-0.83l1.82-0.22l1.34-3.25l-1.13-1.45v-1.18l1.13-1.45l-0.67-1.61l9.29,0.55
			l-0.14,1.1l-1.04,0.75l-4.06-0.76l-2.13,2.93l1.98,3.63l-0.4,1.22l-3.73,1.78v3.62l3.73,1.78l0.4,1.22l-1.98,3.63l2.13,2.93
			l4.06-0.76l1.04,0.75l0.54,4.1l3.44,1.12l2.84-3h1.28l2.84,3l3.44-1.12l0.54-4.1l1.04-0.76l2.85,0.53l0.21,5.42l-0.22-0.53
			l-2.75-0.57l-2.24,2.17l-0.57,0.19l-3.09-0.4l-1.87,2.1l0.76,3.02l-0.12,0.59l-1.89,2.48l0.89,2.67l3,0.85l0.45,0.4v0.01
			L25.9,60.81z M62.53,54.41l-0.28,1.36l0.63,2.52l-0.65,0.73l-2.57-0.33l-1.32,0.44l-1.86,1.81l-0.96-0.2l-1-2.4l-1.04-0.92
			l-2.5-0.71l-0.31-0.93l1.57-2.06l0.28-1.36l-0.63-2.52l0.65-0.73l2.57,0.33L56.44,49l1.86-1.81l0.96,0.2l1,2.4l1.04,0.92l2.5,0.71
			l0.31,0.93L62.53,54.41z"/>
		<path class="st0" d="M20.98,41.11c0,0.96-0.78,1.73-1.73,1.73s-1.73-0.78-1.73-1.73c0-0.96,0.78-1.73,1.73-1.73
			S20.98,40.15,20.98,41.11z"/>
		<path class="st0" d="M33.11,45.44c0,0.96-0.78,1.73-1.73,1.73c-0.96,0-1.73-0.78-1.73-1.73c0-0.96,0.78-1.73,1.73-1.73
			C32.33,43.7,33.11,44.48,33.11,45.44z"/>
		<path class="st0" d="M23.58,57.56c0,0.96-0.78,1.73-1.73,1.73s-1.73-0.78-1.73-1.73c0-0.96,0.78-1.73,1.73-1.73
			S23.58,56.6,23.58,57.56z"/>
		<path class="st0" d="M57.35,49.77c-2.39,0-4.33,1.94-4.33,4.33s1.94,4.33,4.33,4.33c2.39,0,4.33-1.94,4.33-4.33
			C61.68,51.71,59.74,49.77,57.35,49.77z M57.35,56.69c-1.43,0-2.6-1.16-2.6-2.6s1.16-2.6,2.6-2.6s2.6,1.16,2.6,2.6
			S58.79,56.69,57.35,56.69z"/>
		<path class="st0" d="M48.69,38.51c4.78,0,8.66-3.88,8.66-8.66s-3.88-8.66-8.66-8.66s-8.66,3.88-8.66,8.66
			C40.04,34.63,43.91,38.5,48.69,38.51z M48.69,22.92c3.83,0,6.93,3.1,6.93,6.93s-3.1,6.93-6.93,6.93c-3.83,0-6.93-3.1-6.93-6.93
			C41.77,26.02,44.87,22.93,48.69,22.92z"/>
		<path class="st0" d="M48.69,35.04c2.87,0,5.2-2.33,5.2-5.2s-2.33-5.2-5.2-5.2c-2.87,0-5.2,2.33-5.2,5.2
			C43.5,32.72,45.83,35.04,48.69,35.04z M48.69,26.38c1.91,0,3.46,1.55,3.46,3.46s-1.55,3.46-3.46,3.46c-1.91,0-3.46-1.55-3.46-3.46
			S46.78,26.38,48.69,26.38z"/>
		<path class="st0" d="M60.82,13.39c0,1.43,1.16,2.6,2.6,2.6s2.6-1.16,2.6-2.6s-1.16-2.6-2.6-2.6S60.82,11.96,60.82,13.39z
			 M64.28,13.39c0,0.48-0.39,0.87-0.87,0.87s-0.87-0.39-0.87-0.87s0.39-0.87,0.87-0.87S64.28,12.92,64.28,13.39z"/>
		<path class="st0" d="M38.3,12.53c0,0.96-0.78,1.73-1.73,1.73c-0.96,0-1.73-0.78-1.73-1.73s0.78-1.73,1.73-1.73
			C37.53,10.8,38.3,11.57,38.3,12.53z"/>
	</g>
</g>
</svg>
