<?xml version="1.0" encoding="utf-8"?>
<!-- Generator: Adobe Illustrator 23.1.1, SVG Export Plug-In . SVG Version: 6.00 Build 0)  -->
<svg version="1.1" id="Capa_1" xmlns="http://www.w3.org/2000/svg" xmlns:xlink="http://www.w3.org/1999/xlink" x="0px" y="0px"
	 viewBox="0 0 59 51" style="enable-background:new 0 0 59 51;" xml:space="preserve">
<style type="text/css">
	.st0{fill:#3BC9FF;}
</style>
<g id="fingerprint_lock">
	<path class="st0" d="M31.06,39.17c-1.56,0.75-3.27,1.14-5,1.13c-0.22,0-0.41-0.01-0.6-0.02c-0.29-0.01-0.54,0.21-0.55,0.5
		c-0.01,0.14,0.04,0.27,0.14,0.38c0.09,0.11,0.22,0.17,0.36,0.17c0.22,0.01,0.44,0.02,0.65,0.02c1.89,0.01,3.75-0.42,5.45-1.24
		c0.18-0.09,0.3-0.27,0.3-0.47c0-0.08-0.02-0.16-0.05-0.23C31.63,39.16,31.32,39.05,31.06,39.17z"/>
	<path class="st0" d="M23.56,40.03c-1.89-0.42-3.64-1.3-5.09-2.58c-0.22-0.18-0.55-0.16-0.74,0.05c-0.19,0.21-0.17,0.54,0.04,0.74
		c0,0,0,0,0.01,0c1.59,1.39,3.5,2.35,5.56,2.81c0.04,0.01,0.07,0.01,0.11,0.01c0.25,0,0.46-0.17,0.51-0.41
		c0.01-0.04,0.01-0.08,0.01-0.12C23.97,40.3,23.8,40.08,23.56,40.03z"/>
	<path class="st0" d="M14,29.53L14,29.53c0.29-0.01,0.51-0.24,0.51-0.52V29l-0.02,0.01L14.51,29v-6.02c0-0.29-0.24-0.52-0.52-0.52
		c-0.29,0-0.52,0.24-0.52,0.52v6.04c0.01,0.28,0.24,0.51,0.52,0.51L14,29.53z"/>
	<path class="st0" d="M14.71,30.91c-0.06-0.28-0.33-0.47-0.61-0.42c-0.28,0.05-0.47,0.32-0.42,0.61c0,0,0,0.01,0,0.01
		c0.39,2.07,1.3,4.01,2.64,5.64c0.1,0.12,0.25,0.19,0.4,0.19c0.12,0,0.24-0.04,0.33-0.12c0.12-0.1,0.19-0.25,0.19-0.4
		c0-0.12-0.04-0.24-0.12-0.33C15.9,34.59,15.07,32.81,14.71,30.91z"/>
	<path class="st0" d="M14.01,21.5h0.06c0.27,0,0.49-0.2,0.52-0.46c0.24-1.91,0.95-3.74,2.08-5.31c0.17-0.23,0.12-0.56-0.11-0.73
		c0,0,0,0,0,0c-0.24-0.16-0.56-0.11-0.73,0.12c-1.23,1.71-2.01,3.7-2.27,5.8c0,0.02-0.01,0.05-0.01,0.07
		C13.55,21.24,13.75,21.46,14.01,21.5z"/>
	<path class="st0" d="M24.72,10.99c0.44-0.05,0.89-0.08,1.34-0.08c1.48,0,2.94,0.28,4.32,0.83c0.27,0.11,0.57-0.02,0.68-0.29
		c0.11-0.26-0.01-0.56-0.27-0.68c-0.01,0-0.01,0-0.02-0.01c-1.95-0.79-4.08-1.07-6.17-0.83c-0.26,0.03-0.46,0.25-0.47,0.51
		c0,0.02,0,0.05,0.01,0.07C24.17,10.81,24.43,11.02,24.72,10.99C24.72,10.99,24.72,10.99,24.72,10.99L24.72,10.99z"/>
	<path class="st0" d="M17.55,14.41c0.14,0,0.27-0.05,0.37-0.15c1.37-1.36,3.06-2.36,4.91-2.9c0.28-0.08,0.44-0.37,0.36-0.65l0,0
		c-0.08-0.28-0.37-0.44-0.65-0.36c-2.02,0.59-3.87,1.68-5.36,3.16c-0.1,0.1-0.16,0.23-0.16,0.37c0,0.14,0.06,0.27,0.15,0.37
		C17.28,14.36,17.41,14.42,17.55,14.41z"/>
	<path class="st0" d="M32.09,12.61c0.78,0.47,1.49,1.04,2.13,1.69c0.72,0.72,1.34,1.53,1.85,2.4c0.09,0.16,0.27,0.26,0.46,0.26
		c0.24,0,0.45-0.16,0.5-0.39c0.04-0.13,0.02-0.28-0.05-0.39c-0.55-0.96-1.23-1.84-2.01-2.63c-0.7-0.7-1.49-1.32-2.33-1.84
		c-0.25-0.14-0.56-0.07-0.72,0.17c-0.05,0.08-0.08,0.18-0.08,0.27C31.84,12.34,31.94,12.51,32.09,12.61z"/>
	<path class="st0" d="M36.89,18.44c0.48,1.28,0.72,2.65,0.72,4.02v1.74c0,0.29,0.24,0.52,0.52,0.52c0.29,0,0.52-0.24,0.52-0.52
		v-1.74c0-1.5-0.26-2.98-0.79-4.38c-0.1-0.27-0.4-0.4-0.67-0.31c-0.21,0.07-0.34,0.27-0.34,0.49
		C36.86,18.32,36.87,18.38,36.89,18.44z"/>
	<path class="st0" d="M18.64,36.18c0.23,0.23,0.47,0.45,0.71,0.65c0.01,0.01,0.02,0.01,0.02,0.02l0.01,0.01
		c0.09,0.07,0.21,0.11,0.33,0.12c0.16,0,0.3-0.07,0.4-0.19c0.08-0.09,0.12-0.21,0.12-0.33c0-0.16-0.07-0.3-0.18-0.4
		c0,0-0.01,0-0.01-0.01l-0.02-0.02c-0.22-0.18-0.44-0.38-0.64-0.59c-1.2-1.19-2.06-2.69-2.48-4.33c-0.05-0.29-0.32-0.48-0.61-0.43
		s-0.48,0.32-0.43,0.61c0,0.03,0.01,0.05,0.02,0.08C16.36,33.19,17.31,34.85,18.64,36.18L18.64,36.18z"/>
	<path class="st0" d="M36.04,24.64c0.29,0,0.52-0.24,0.52-0.52v-1.66c0-1.63-0.37-3.23-1.1-4.68c-0.13-0.25-0.44-0.36-0.7-0.24
		c-0.18,0.09-0.29,0.27-0.29,0.46c0,0.08,0.01,0.17,0.05,0.24c0.66,1.31,1,2.75,0.99,4.22v1.66C35.51,24.41,35.75,24.64,36.04,24.64
		L36.04,24.64z"/>
	<path class="st0" d="M32.74,15.78c0.25,0.25,0.49,0.52,0.71,0.8c0.18,0.23,0.51,0.27,0.74,0.08c0.23-0.18,0.27-0.51,0.08-0.74
		c0,0,0-0.01-0.01-0.01c-0.25-0.31-0.51-0.6-0.79-0.88c-1.27-1.28-2.85-2.2-4.59-2.69c-0.01-0.01-0.02-0.01-0.03-0.01h-0.01
		c-0.28-0.07-0.56,0.09-0.64,0.37c-0.01,0.05-0.02,0.09-0.02,0.14c0,0.23,0.16,0.44,0.38,0.5C30.16,13.78,31.59,14.62,32.74,15.78z"
		/>
	<path class="st0" d="M26.63,13.02c0.29,0.02,0.54-0.2,0.56-0.49c0,0,0,0,0,0c0-0.14-0.04-0.27-0.13-0.38
		c-0.09-0.11-0.22-0.17-0.36-0.17c-2.21-0.14-4.41,0.43-6.28,1.63c-0.15,0.1-0.24,0.26-0.24,0.44c0,0.1,0.03,0.2,0.08,0.28
		c0.1,0.15,0.26,0.24,0.44,0.24c0.1,0,0.2-0.03,0.28-0.08c1.52-0.97,3.28-1.48,5.08-1.48C26.24,13.01,26.43,13.01,26.63,13.02z"/>
	<path class="st0" d="M20.98,37.36c-0.13,0.26-0.03,0.57,0.22,0.71c1.5,0.78,3.17,1.19,4.86,1.19c0.52,0,1.03-0.04,1.54-0.12
		c0.26-0.04,0.45-0.26,0.45-0.51c0-0.03,0-0.05-0.01-0.08c-0.04-0.28-0.31-0.48-0.59-0.44c-0.46,0.07-0.93,0.1-1.39,0.1
		c-1.52,0-3.02-0.36-4.37-1.07C21.43,37.01,21.12,37.11,20.98,37.36L20.98,37.36z"/>
	<path class="st0" d="M15.56,28.76c0,0.14,0.01,0.28,0.01,0.44c0.01,0.28,0.24,0.5,0.52,0.5c0.01,0,0.02-0.01,0.03-0.01
		c0.28-0.01,0.5-0.24,0.5-0.51v-0.03c-0.01-0.14-0.01-0.27-0.01-0.39V22.9c0-0.29-0.24-0.52-0.52-0.52c-0.29,0-0.52,0.24-0.52,0.52
		V28.76z"/>
	<path class="st0" d="M18.7,14.97L18.7,14.97c-1.59,1.56-2.64,3.57-3,5.76c-0.01,0.03-0.01,0.06-0.01,0.09
		c0,0.25,0.19,0.47,0.44,0.51c0.03,0,0.06,0.01,0.08,0.01c0.26,0,0.48-0.18,0.52-0.44c0.32-1.97,1.27-3.79,2.69-5.19
		c0.1-0.1,0.16-0.23,0.16-0.37c0-0.29-0.23-0.53-0.52-0.53C18.93,14.82,18.8,14.88,18.7,14.97L18.7,14.97z"/>
	<path class="st0" d="M18.09,19.81c-0.02,0.05-0.02,0.11-0.03,0.17c0,0.23,0.15,0.43,0.36,0.5c0.05,0.02,0.11,0.03,0.16,0.03
		c0.23,0,0.43-0.15,0.5-0.36c0.67-1.99,2.15-3.6,4.07-4.44c0.27-0.11,0.39-0.42,0.28-0.69c-0.12-0.26-0.43-0.38-0.69-0.27
		C20.54,15.69,18.84,17.53,18.09,19.81L18.09,19.81z"/>
	<path class="st0" d="M22.93,35.41c-1.9-0.9-3.32-2.56-3.92-4.57c-0.08-0.28-0.37-0.43-0.65-0.36c-0.28,0.08-0.44,0.37-0.36,0.64
		c0,0,0,0,0,0.01c0.68,2.3,2.31,4.2,4.48,5.23c0.07,0.03,0.14,0.05,0.22,0.05c0.2,0,0.39-0.12,0.48-0.3
		c0.03-0.07,0.05-0.15,0.05-0.23C23.23,35.68,23.11,35.49,22.93,35.41L22.93,35.41z"/>
	<path class="st0" d="M18.21,21.62c-0.29-0.01-0.53,0.22-0.55,0.5c-0.01,0.12-0.01,0.23-0.01,0.33v6.34c0,0.29,0.24,0.52,0.52,0.52
		c0,0,0,0,0,0h0.01c0.29,0,0.52-0.24,0.52-0.52c0,0,0,0,0,0v-6.34c0-0.09,0-0.19,0.01-0.29C18.73,21.88,18.5,21.63,18.21,21.62
		C18.21,21.62,18.21,21.62,18.21,21.62z"/>
	<path class="st0" d="M31.25,17.07c0.15,0,0.29-0.07,0.39-0.18c0.19-0.22,0.17-0.54-0.04-0.73l-0.01-0.01
		c-1.8-1.58-4.2-2.32-6.58-2.03c-0.26,0.03-0.46,0.25-0.46,0.52c0,0.02,0,0.05,0.01,0.07c0.04,0.29,0.3,0.49,0.58,0.46
		c0.3-0.04,0.61-0.06,0.91-0.06c1.78,0,3.51,0.65,4.85,1.83C31,17.02,31.13,17.07,31.25,17.07L31.25,17.07z"/>
	<path class="st0" d="M33.94,25.15c0.29,0,0.52-0.24,0.52-0.52v-2.17c0-1.59-0.45-3.16-1.31-4.5c-0.01-0.01-0.01-0.02-0.02-0.03
		l-0.01-0.01c-0.16-0.23-0.48-0.3-0.72-0.15c-0.15,0.1-0.24,0.26-0.24,0.44c0,0.1,0.03,0.2,0.08,0.28v0.01
		c0.01,0.01,0.01,0.02,0.02,0.02c0.75,1.18,1.15,2.54,1.14,3.94v2.17C33.41,24.91,33.65,25.15,33.94,25.15L33.94,25.15z"/>
	<path class="st0" d="M20.29,24.37c-0.29,0-0.52,0.24-0.52,0.52v3.86c0,0.82,0.16,1.63,0.47,2.39c0.08,0.2,0.28,0.32,0.49,0.33
		c0.29,0,0.52-0.23,0.52-0.52c0-0.07-0.01-0.14-0.04-0.2c-0.26-0.63-0.39-1.31-0.39-1.99V24.9C20.81,24.61,20.58,24.37,20.29,24.37z
		"/>
	<path class="st0" d="M31.84,26.83c0.29,0,0.52-0.24,0.52-0.52v-3.85c0-0.82-0.16-1.64-0.47-2.4c-0.11-0.27-0.42-0.39-0.69-0.28
		c-0.2,0.08-0.32,0.27-0.33,0.48c0,0.07,0.01,0.14,0.04,0.2c0.26,0.64,0.4,1.32,0.39,2.01v3.85C31.31,26.59,31.55,26.83,31.84,26.83
		z"/>
	<path class="st0" d="M23.17,18.07c0.12-0.08,0.2-0.2,0.23-0.34c0.03-0.14,0-0.28-0.07-0.39c-0.17-0.24-0.49-0.3-0.73-0.15
		c-1.77,1.16-2.83,3.14-2.83,5.26v0.44c0.01,0.29,0.25,0.52,0.54,0.51s0.52-0.25,0.51-0.54l0,0v-0.4
		C20.81,20.69,21.7,19.04,23.17,18.07L23.17,18.07z"/>
	<path class="st0" d="M26.06,35.06c0.48,0,0.95-0.05,1.41-0.16l0.02-0.01h0.01c0.24-0.06,0.4-0.27,0.4-0.51c0-0.04,0-0.08-0.01-0.12
		c-0.07-0.28-0.35-0.46-0.63-0.39c-0.39,0.09-0.79,0.14-1.19,0.14c-1.39,0-2.73-0.55-3.71-1.54c-0.06-0.05-0.11-0.1-0.16-0.16
		c-0.2-0.21-0.53-0.22-0.75-0.03c-0.21,0.2-0.22,0.53-0.03,0.74c0.06,0.07,0.13,0.14,0.19,0.2C22.78,34.4,24.39,35.06,26.06,35.06
		L26.06,35.06z"/>
	<path class="st0" d="M30.66,18.93c0.21-0.2,0.23-0.53,0.03-0.74c-0.05-0.06-0.12-0.12-0.17-0.18L30.52,18
		c-1.18-1.18-2.79-1.85-4.46-1.84c-0.48,0-0.97,0.06-1.44,0.16c-0.24,0.05-0.41,0.27-0.41,0.51c0,0.04,0.01,0.08,0.02,0.12
		c0.07,0.28,0.35,0.46,0.63,0.39c0.39-0.09,0.8-0.14,1.2-0.14c1.39,0,2.73,0.55,3.71,1.54c0.05,0.05,0.1,0.1,0.15,0.16
		c0.1,0.11,0.24,0.17,0.39,0.17C30.44,19.07,30.57,19.02,30.66,18.93L30.66,18.93z"/>
	<path class="st0" d="M29.21,22.44c0,0.29,0.24,0.52,0.52,0.52h0.01c0.14,0,0.27-0.06,0.37-0.16c0.1-0.1,0.15-0.23,0.15-0.36V22.4
		c-0.03-2.3-1.9-4.14-4.2-4.14c-0.36,0-0.71,0.05-1.06,0.13c-0.28,0.07-0.45,0.36-0.38,0.64c0.07,0.28,0.36,0.45,0.64,0.38
		c0.26-0.07,0.53-0.1,0.79-0.1C27.79,19.31,29.19,20.71,29.21,22.44z"/>
	<path class="st0" d="M26.06,32.96c0.36,0,0.73-0.05,1.08-0.14c0.14-0.03,0.25-0.12,0.32-0.24c0.15-0.25,0.06-0.57-0.19-0.72
		c-0.12-0.07-0.26-0.09-0.4-0.05c-0.26,0.07-0.54,0.1-0.81,0.1c-1.72-0.01-3.12-1.39-3.15-3.11v-0.04c0-0.29-0.24-0.52-0.52-0.52
		c-0.29,0-0.52,0.24-0.52,0.52v0.05C21.9,31.1,23.76,32.95,26.06,32.96z"/>
	<path class="st0" d="M22.88,19.72c-0.66,0.76-1.02,1.73-1.02,2.74v4.07c0,0.29,0.24,0.52,0.52,0.52c0.29,0,0.52-0.24,0.52-0.52
		v-4.07c0-0.75,0.27-1.48,0.76-2.06c0.08-0.09,0.13-0.22,0.13-0.34c0-0.15-0.07-0.3-0.18-0.4C23.4,19.48,23.07,19.5,22.88,19.72z"/>
	<path class="st0" d="M28.16,22.46c0-1.16-0.94-2.1-2.1-2.1c-0.86,0-1.64,0.53-1.95,1.33c-0.09,0.27,0.06,0.57,0.33,0.66
		c0.25,0.08,0.53-0.03,0.64-0.27l0.01-0.01c0.16-0.4,0.54-0.67,0.98-0.67c0.58,0,1.05,0.47,1.05,1.05v1.26
		c0,0.29,0.24,0.52,0.52,0.52c0.29,0,0.52-0.24,0.52-0.52L28.16,22.46z"/>
	<path class="st0" d="M24.49,23.21c-0.29,0-0.52,0.24-0.52,0.52v5.02c0,0.27,0.05,0.53,0.15,0.78c0.08,0.2,0.27,0.33,0.49,0.33
		c0.07,0,0.13-0.01,0.19-0.04c0.27-0.11,0.4-0.41,0.29-0.68c0,0,0,0,0,0c-0.05-0.12-0.07-0.26-0.07-0.39v-5.02
		C25.01,23.45,24.78,23.21,24.49,23.21L24.49,23.21z"/>
	<path class="st0" d="M28.16,25.59c0-0.29-0.24-0.52-0.52-0.52c-0.29,0-0.52,0.24-0.52,0.52v3.17c0,0.56-0.44,1.03-1.01,1.05h-0.04
		c-0.29,0-0.52,0.23-0.52,0.51c0,0,0,0.01,0,0.01c0,0.29,0.23,0.52,0.51,0.52c0,0,0.01,0,0.01,0h0.03c1.15-0.02,2.07-0.95,2.07-2.1
		V25.59z"/>
	<path class="st0" d="M38.24,25.7c-0.03-0.01-0.07-0.02-0.1-0.02c-0.01,0-0.01,0-0.01,0c-0.69-0.1-1.38-0.1-2.07,0
		c0,0-0.01,0-0.01,0c-0.03,0-0.07,0.01-0.1,0.02c-0.75,0.11-1.48,0.33-2.17,0.65c-0.03,0.01-0.06,0.03-0.09,0.04
		c-0.82,0.39-1.56,0.92-2.2,1.57c-0.01,0.01-0.02,0.02-0.03,0.03c-0.53,0.54-0.97,1.15-1.33,1.82c0.09-0.34,0.14-0.7,0.14-1.05
		v-4.09c0-0.29-0.24-0.52-0.52-0.52c-0.29,0-0.52,0.24-0.52,0.52v4.09c0,0.75-0.27,1.47-0.75,2.04c-0.19,0.22-0.16,0.55,0.06,0.74
		c0,0,0,0,0,0c0.1,0.08,0.22,0.13,0.34,0.13c0.15,0,0.3-0.07,0.4-0.18c0.14-0.16,0.26-0.34,0.37-0.52c-0.22,0.64-0.35,1.3-0.39,1.97
		c-0.1,0.07-0.2,0.15-0.3,0.22c-0.12,0.08-0.2,0.19-0.23,0.33c-0.03,0.14,0,0.28,0.07,0.39c0.1,0.15,0.26,0.24,0.44,0.24h0.01
		c0.03,0.4,0.09,0.79,0.19,1.18c-1.04,0.54-2.19,0.82-3.37,0.82c-0.39,0-0.78-0.03-1.16-0.09c-0.28-0.05-0.55,0.15-0.6,0.43
		c0,0,0,0,0,0.01c-0.02,0.14,0.01,0.28,0.09,0.39c0.08,0.11,0.2,0.19,0.34,0.21h0.01c1.71,0.27,3.45,0.01,5-0.75
		c0.12,0.33,0.27,0.64,0.43,0.95c-0.27,0.13-0.54,0.25-0.81,0.35c-0.13,0.05-0.24,0.15-0.29,0.28c-0.06,0.13-0.06,0.27-0.01,0.4
		c0.08,0.2,0.27,0.34,0.49,0.34c0.06,0,0.13-0.01,0.19-0.03c0.35-0.13,0.68-0.29,1.01-0.46c2.57,3.5,7.49,4.26,11,1.69
		c3.5-2.57,4.26-7.49,1.69-11C42.19,27.13,40.32,26.01,38.24,25.7L38.24,25.7z M37.09,40.31c-3.77,0-6.82-3.06-6.82-6.82
		s3.06-6.82,6.82-6.82c3.77,0,6.82,3.06,6.82,6.82C43.91,37.25,40.85,40.3,37.09,40.31z"/>
	<path class="st0" d="M39.71,31.38v-1.57c0-0.87-0.71-1.57-1.57-1.57h-2.1c-0.87,0-1.57,0.71-1.57,1.57v1.57
		c-0.87,0-1.57,0.71-1.57,1.57v4.2c0,0.87,0.71,1.57,1.57,1.57h5.25c0.87,0,1.57-0.71,1.57-1.57v-4.2
		C41.29,32.09,40.58,31.38,39.71,31.38z M35.51,29.81c0-0.29,0.24-0.52,0.52-0.52h2.1c0.29,0,0.52,0.24,0.52,0.52v1.57h-3.15V29.81z
		 M40.24,37.16c0,0.29-0.24,0.52-0.52,0.52h-5.25c-0.29,0-0.52-0.24-0.52-0.52v-4.2c0-0.29,0.24-0.52,0.52-0.52h5.25
		c0.29,0,0.52,0.24,0.52,0.52V37.16z"/>
	<path class="st0" d="M37.09,32.96c-0.87,0-1.57,0.7-1.57,1.57c0,0.67,0.42,1.26,1.05,1.49v1.15h1.05v-1.15
		c0.82-0.29,1.25-1.19,0.96-2C38.35,33.38,37.75,32.96,37.09,32.96z M37.09,35.06c-0.29,0-0.52-0.24-0.52-0.52
		c0-0.29,0.24-0.52,0.52-0.52c0.29,0,0.52,0.24,0.52,0.52C37.61,34.82,37.38,35.06,37.09,35.06z"/>
	<path class="st0" d="M43.91,14.06h1.05v1.05h-1.05V14.06z"/>
	<path class="st0" d="M43.39,16.16c-0.87,0-1.57,0.71-1.57,1.57s0.71,1.57,1.57,1.57c0.87,0,1.57-0.71,1.57-1.57
		S44.26,16.16,43.39,16.16z M43.39,18.26c-0.29,0-0.52-0.24-0.52-0.52c0-0.29,0.24-0.52,0.52-0.52c0.29,0,0.52,0.24,0.52,0.52
		C43.91,18.02,43.68,18.26,43.39,18.26z"/>
	<path class="st0" d="M41.81,11.96h3.15v1.05h-3.15V11.96z"/>
	<path class="st0" d="M41.81,9.86h1.05v1.05h-1.05V9.86z"/>
	<path class="st0" d="M43.91,9.86h1.05v1.05h-1.05V9.86z"/>
	<path class="st0" d="M41.81,14.06h1.05v1.05h-1.05V14.06z"/>
	<path class="st0" d="M43.91,22.46h1.05v1.05h-1.05V22.46z"/>
	<path class="st0" d="M41.81,20.36h3.15v1.05h-3.15V20.36z"/>
	<path class="st0" d="M41.81,24.56h3.15v1.05h-3.15V24.56z"/>
	<path class="st0" d="M41.81,22.46h1.05v1.05h-1.05V22.46z"/>
</g>
</svg>
