<?xml version="1.0" encoding="utf-8"?>
<!-- Generator: Adobe Illustrator 23.1.1, SVG Export Plug-In . SVG Version: 6.00 Build 0)  -->
<svg version="1.1" id="Capa_1" xmlns="http://www.w3.org/2000/svg" xmlns:xlink="http://www.w3.org/1999/xlink" x="0px" y="0px"
	 viewBox="0 0 59 51" style="enable-background:new 0 0 59 51;" xml:space="preserve">
<style type="text/css">
	.st0{fill:#3BC9FF;}
</style>
<g>
	<g>
		<path class="st0" d="M46.1,18.96l-8.48-3.28c1.53-4.35-0.76-9.13-5.11-10.66s-9.13,0.76-10.66,5.11c-0.63,1.8-0.63,3.75,0,5.55
			l-8.48,3.28c-0.35,0.14-0.58,0.47-0.58,0.85v19.67c0,0.38,0.23,0.71,0.58,0.85l16.03,6.21c0.11,0.04,0.22,0.06,0.33,0.06
			c0.11,0,0.22-0.03,0.33-0.07l0,0.01l16.03-6.21c0.35-0.14,0.58-0.47,0.58-0.85V19.81C46.68,19.44,46.45,19.1,46.1,18.96
			L46.1,18.96z M43.24,19.81l-2.96,1.15l-4.9-1.89c0.56-0.51,1.05-1.1,1.45-1.75L43.24,19.81z M33.58,20.34l4.17,1.6l-2.35,0.91
			l-4.32-1.69C31.95,21.02,32.8,20.74,33.58,20.34z M36.42,24.41l3.06-1.19v3.8l-0.51-0.33c-0.37-0.24-0.86-0.18-1.16,0.14
			l-1.39,1.47V24.41z M29.73,6.39c3.61,0,6.53,2.92,6.53,6.53s-2.92,6.53-6.53,6.53s-6.53-2.92-6.53-6.53l0,0
			C23.21,9.32,26.13,6.4,29.73,6.39z M23.17,18.07l-1.22-0.48l0.7-0.27C22.8,17.58,22.98,17.83,23.17,18.07L23.17,18.07z
			 M19.43,18.57l13.45,5.26l-3.15,1.22l-13.51-5.24L19.43,18.57z M14.62,38.86V21.14l14.21,5.51v17.71L14.62,38.86z M30.65,44.36
			V26.65l3.95-1.53v5.48c0,0.37,0.23,0.71,0.58,0.85c0.11,0.04,0.22,0.06,0.34,0.06c0.25,0,0.49-0.1,0.66-0.29l2.44-2.59l1.28,0.83
			c0.42,0.27,0.99,0.15,1.26-0.27c0.1-0.15,0.15-0.32,0.15-0.49v-6.19l3.54-1.37v17.71L30.65,44.36z"/>
		<path class="st0" d="M28.11,15.61c0.35,0.29,0.86,0.29,1.2-0.02l4.42-3.98c0.39-0.32,0.44-0.9,0.11-1.29
			c-0.32-0.39-0.9-0.44-1.29-0.11c-0.02,0.01-0.03,0.03-0.05,0.04l-3.83,3.45l-1.75-1.48c-0.38-0.33-0.96-0.28-1.29,0.11
			c-0.33,0.38-0.28,0.96,0.11,1.29L28.11,15.61z"/>
	</g>
</g>
</svg>
