<?xml version="1.0" encoding="utf-8"?>
<!-- Generator: Adobe Illustrator 23.1.1, SVG Export Plug-In . SVG Version: 6.00 Build 0)  -->
<svg version="1.1" id="Capa_1" xmlns="http://www.w3.org/2000/svg" xmlns:xlink="http://www.w3.org/1999/xlink" x="0px" y="0px"
	 viewBox="0 0 59 51" style="enable-background:new 0 0 59 51;" xml:space="preserve">
<style type="text/css">
	.st0{fill:#3BC9FF;}
</style>
<g>
	<g>
		<g>
			<g>
				<rect x="37.07" y="28.67" class="st0" width="3.37" height="1.12"/>
				<rect x="32.58" y="28.67" class="st0" width="3.37" height="1.12"/>
				<rect x="28.08" y="28.67" class="st0" width="3.37" height="1.12"/>
				<path class="st0" d="M46.06,17.88L34.94,6.76c-0.32-0.32-0.75-0.5-1.19-0.5h-0.01c-0.45,0-0.87,0.18-1.18,0.5L20.76,18.55H14.6
					c-0.93,0-1.69,0.75-1.69,1.69v15.73c0,0.93,0.75,1.69,1.69,1.69h8.32l1.68,1.68c0.32,0.32,0.75,0.5,1.19,0.5h0
					c0.45,0,0.87-0.18,1.19-0.5l1.68-1.68h12.9c0.93,0,1.69-0.75,1.69-1.69v-12.9l2.8-2.8c0.32-0.31,0.5-0.74,0.5-1.19
					C46.55,18.63,46.38,18.2,46.06,17.88z M38.91,12.32l-6.23,6.23h-4.77l8.62-8.62L38.91,12.32z M33.35,7.55
					c0.21-0.22,0.56-0.22,0.78-0.01c0,0,0.01,0.01,0.01,0.01l1.59,1.59l-9.41,9.41h-3.97L33.35,7.55z M26.19,38.54
					c-0.1,0.11-0.24,0.17-0.39,0.17c-0.15,0-0.29-0.06-0.4-0.17l-0.88-0.89h2.56L26.19,38.54z M42.13,35.97
					c0,0.31-0.25,0.56-0.56,0.56H14.6c-0.31,0-0.56-0.25-0.56-0.56V28.1h28.09V35.97z M42.13,26.98H14.04v-3.37h28.09V26.98z
					 M42.13,22.49H14.04v-2.25c0-0.31,0.25-0.56,0.56-0.56h26.97c0.31,0,0.56,0.25,0.56,0.56V22.49z M45.26,19.47L45.26,19.47
					l-2.01,2.01v-1.24c0-0.93-0.75-1.69-1.69-1.69h-7.3l5.44-5.44l5.56,5.56c0.11,0.11,0.17,0.25,0.17,0.4
					C45.43,19.22,45.37,19.37,45.26,19.47z"/>
				<path class="st0" d="M18.3,35.42c0.08-0.07,0.16-0.15,0.23-0.23c0.74,0.87,2.02,1.03,2.96,0.38c0.61-0.42,0.97-1.11,0.98-1.85
					c0-1.24-1.01-2.25-2.25-2.25c-0.11,0-0.22,0.01-0.33,0.03l-0.01,0c-0.01,0-0.01,0-0.02,0c-0.51,0.09-0.98,0.35-1.32,0.75
					c-0.81-0.94-2.23-1.04-3.17-0.23c-0.94,0.81-1.04,2.23-0.23,3.17C15.94,36.13,17.36,36.24,18.3,35.42z M20.08,32.61
					c0.05-0.01,0.09-0.01,0.14-0.01c0.62,0,1.12,0.5,1.12,1.12c0,0.24-0.08,0.47-0.22,0.66c-0.02,0.03-0.04,0.06-0.06,0.08
					c0,0-0.01,0.01-0.01,0.01c-0.21,0.23-0.51,0.37-0.83,0.37c-0.62-0.01-1.11-0.52-1.1-1.14C19.12,33.15,19.53,32.69,20.08,32.61z
					 M16.85,32.6c0.62,0,1.12,0.5,1.12,1.12s-0.5,1.12-1.12,1.12c-0.62,0-1.12-0.5-1.12-1.12S16.23,32.6,16.85,32.6z"/>
			</g>
		</g>
	</g>
</g>
</svg>
