<?xml version="1.0" encoding="utf-8"?>
<!-- Generator: Adobe Illustrator 23.1.1, SVG Export Plug-In . SVG Version: 6.00 Build 0)  -->
<svg version="1.1" id="Capa_1" xmlns="http://www.w3.org/2000/svg" xmlns:xlink="http://www.w3.org/1999/xlink" x="0px" y="0px"
	 viewBox="0 0 104 93" style="enable-background:new 0 0 104 93;" xml:space="preserve">
<style type="text/css">
	.st0{fill:url(#SVGID_1_);}
	.st1{fill:url(#SVGID_2_);}
	.st2{fill:url(#SVGID_3_);}
	.st3{fill:url(#SVGID_4_);}
	.st4{fill:url(#SVGID_5_);}
	.st5{fill:url(#SVGID_6_);}
	.st6{fill:url(#SVGID_7_);}
	.st7{fill:url(#SVGID_8_);}
	.st8{fill:url(#SVGID_9_);}
	.st9{fill:url(#SVGID_10_);}
	.st10{fill:url(#SVGID_11_);}
	.st11{fill:url(#SVGID_12_);}
	.st12{fill:url(#SVGID_13_);}
</style>
<g>
	<linearGradient id="SVGID_1_" gradientUnits="userSpaceOnUse" x1="49.7441" y1="81.898" x2="55.3585" y2="81.898">
		<stop  offset="0" style="stop-color:#047CFF"/>
		<stop  offset="1" style="stop-color:#7F5EFF"/>
	</linearGradient>
	<path class="st0" d="M49.74,80.49h5.61v2.81h-5.61V80.49z"/>
	<linearGradient id="SVGID_2_" gradientUnits="userSpaceOnUse" x1="49.7441" y1="41.1942" x2="55.3585" y2="41.1942">
		<stop  offset="0" style="stop-color:#047CFF"/>
		<stop  offset="1" style="stop-color:#7F5EFF"/>
	</linearGradient>
	<path class="st1" d="M49.74,39.79h5.61v2.81h-5.61V39.79z"/>
	<linearGradient id="SVGID_3_" gradientUnits="userSpaceOnUse" x1="10.4319" y1="46.8085" x2="94.6864" y2="46.8085">
		<stop  offset="0" style="stop-color:#047CFF"/>
		<stop  offset="1" style="stop-color:#7F5EFF"/>
	</linearGradient>
	<path class="st2" d="M90.45,25.75h-1.4v-2.81h-2.81v2.81h-3.93c-3.37-4.77-7.86-8.56-12.91-11.37V8.91c0-2.39-1.82-4.21-4.21-4.21
		H39.92c-2.39,0-4.21,1.82-4.21,4.21v5.47c-6.18,3.23-11.23,8.14-14.74,14.18c-6.18,0.42-10.81,5.75-10.53,11.93
		c0.28,3.79,2.39,7.16,5.75,9.12c0.28,3.37,0.98,6.74,2.11,9.83c-3.79,2.53-4.91,7.72-2.25,11.65c0.28,0.42,0.7,0.84,0.98,1.26
		l6.04,6.04l4.63-4.63c2.39,2.25,5.05,4.07,8,5.61v5.33c0,2.39,1.82,4.21,4.21,4.21h25.26c2.39,0,4.21-1.82,4.21-4.21v-5.47
		c2.11-1.12,3.93-2.25,5.75-3.79c4.21,4.63,11.23,4.91,15.86,0.7s4.91-11.23,0.7-15.86c-1.12-1.26-2.67-2.25-4.21-2.95
		c0.84-2.95,1.4-6.04,1.54-9.12h1.4c2.39,0,4.21-1.82,4.21-4.21V29.97C94.66,27.58,92.83,25.75,90.45,25.75L90.45,25.75z
		 M91.85,29.97v1.4H75.01v-1.4c0-0.84,0.56-1.4,1.4-1.4h14.04C91.29,28.56,91.85,29.12,91.85,29.97z M38.52,8.91
		c0-0.84,0.56-1.4,1.4-1.4h25.26c0.84,0,1.4,0.56,1.4,1.4v14.04c0,0.84-0.56,1.4-1.4,1.4H56.2L52.55,28l-3.65-3.65h-8.98
		c-0.84,0-1.4-0.56-1.4-1.4L38.52,8.91z M13.25,39.79c0-4.63,3.79-8.42,8.42-8.42s8.42,3.79,8.42,8.42s-3.79,8.42-8.42,8.42
		S13.25,44.42,13.25,39.79z M23.08,74.32l-3.93-3.93c-2.11-2.11-2.11-5.61,0-7.86c0.98-0.98,2.39-1.68,3.93-1.68h0.14
		c3.09,0,5.47,2.53,5.47,5.47c0,1.4-0.56,2.95-1.68,3.93L23.08,74.32z M66.59,74.88H38.52V38.39c0-0.84,0.56-1.4,1.4-1.4h25.26
		c0.84,0,1.4,0.56,1.4,1.4V74.88z M65.18,86.11H39.92c-0.84,0-1.4-0.56-1.4-1.4v-7.02h28.07v7.02
		C66.59,85.55,66.03,86.11,65.18,86.11z M91.85,67.86c0,4.63-3.79,8.42-8.42,8.42c-4.63,0-8.42-3.79-8.42-8.42s3.79-8.42,8.42-8.42
		C88.06,59.44,91.85,63.23,91.85,67.86z M84.69,56.77c-6.18-0.7-11.79,3.65-12.49,9.83c-0.28,2.25,0.14,4.63,1.26,6.6
		c-1.26,0.98-2.67,1.97-4.07,2.81V38.39c0-2.39-1.82-4.21-4.21-4.21H39.92c-2.39,0-4.21,1.82-4.21,4.21V76
		c-2.11-1.26-4.21-2.81-6.04-4.49c2.81-3.65,2.25-8.84-1.4-11.65c-1.4-1.12-3.23-1.82-5.19-1.82h-0.14c-0.7,0-1.4,0.14-2.11,0.28
		c-0.84-2.39-1.54-5.05-1.82-7.58c6.04,1.4,12.07-2.39,13.47-8.42c1.4-6.04-2.39-12.07-8.42-13.47h-0.14
		c2.95-4.63,6.88-8.42,11.65-11.23v5.33c0,2.39,1.82,4.21,4.21,4.21h7.86l4.77,4.77l4.77-4.77h8c2.39,0,4.21-1.82,4.21-4.21v-5.33
		c3.65,2.11,6.88,4.91,9.4,8.14h-2.39c-2.39,0-4.21,1.82-4.21,4.21V44c0,2.39,1.82,4.21,4.21,4.21h9.83
		C86.1,51.16,85.54,53.97,84.69,56.77L84.69,56.77z M90.45,45.4H76.41c-0.84,0-1.4-0.56-1.4-1.4v-9.83h16.84V44
		C91.85,44.84,91.29,45.4,90.45,45.4z"/>
	<linearGradient id="SVGID_4_" gradientUnits="userSpaceOnUse" x1="20.269" y1="38.9485" x2="26.7255" y2="38.9485">
		<stop  offset="0" style="stop-color:#047CFF"/>
		<stop  offset="1" style="stop-color:#7F5EFF"/>
	</linearGradient>
	<path class="st3" d="M26.73,41.47l-3.65-2.39v-4.91h-2.81v6.32l4.77,3.23L26.73,41.47z"/>
	<linearGradient id="SVGID_5_" gradientUnits="userSpaceOnUse" x1="79.2193" y1="39.7906" x2="82.0264" y2="39.7906">
		<stop  offset="0" style="stop-color:#047CFF"/>
		<stop  offset="1" style="stop-color:#7F5EFF"/>
	</linearGradient>
	<path class="st4" d="M79.22,36.98h2.81v5.61h-2.81V36.98z"/>
	<linearGradient id="SVGID_6_" gradientUnits="userSpaceOnUse" x1="84.8336" y1="39.7906" x2="87.6408" y2="39.7906">
		<stop  offset="0" style="stop-color:#047CFF"/>
		<stop  offset="1" style="stop-color:#7F5EFF"/>
	</linearGradient>
	<path class="st5" d="M84.83,36.98h2.81v5.61h-2.81V36.98z"/>
	<linearGradient id="SVGID_7_" gradientUnits="userSpaceOnUse" x1="17.4619" y1="81.898" x2="28.6905" y2="81.898">
		<stop  offset="0" style="stop-color:#047CFF"/>
		<stop  offset="1" style="stop-color:#7F5EFF"/>
	</linearGradient>
	<path class="st6" d="M17.46,80.49h11.23v2.81H17.46V80.49z"/>
	<linearGradient id="SVGID_8_" gradientUnits="userSpaceOnUse" x1="46.937" y1="13.1226" x2="63.7799" y2="13.1226">
		<stop  offset="0" style="stop-color:#047CFF"/>
		<stop  offset="1" style="stop-color:#7F5EFF"/>
	</linearGradient>
	<path class="st7" d="M46.94,11.72h16.84v2.81H46.94V11.72z"/>
	<linearGradient id="SVGID_9_" gradientUnits="userSpaceOnUse" x1="46.937" y1="20.1405" x2="63.7799" y2="20.1405">
		<stop  offset="0" style="stop-color:#047CFF"/>
		<stop  offset="1" style="stop-color:#7F5EFF"/>
	</linearGradient>
	<path class="st8" d="M46.94,18.74h16.84v2.81H46.94V18.74z"/>
	<linearGradient id="SVGID_10_" gradientUnits="userSpaceOnUse" x1="82.0264" y1="65.055" x2="84.8336" y2="65.055">
		<stop  offset="0" style="stop-color:#047CFF"/>
		<stop  offset="1" style="stop-color:#7F5EFF"/>
	</linearGradient>
	<path class="st9" d="M82.03,62.25h2.81v5.61h-2.81V62.25z"/>
	<linearGradient id="SVGID_11_" gradientUnits="userSpaceOnUse" x1="82.0264" y1="72.0729" x2="84.8336" y2="72.0729">
		<stop  offset="0" style="stop-color:#047CFF"/>
		<stop  offset="1" style="stop-color:#7F5EFF"/>
	</linearGradient>
	<path class="st10" d="M82.03,70.67h2.81v2.81h-2.81V70.67z"/>
	<linearGradient id="SVGID_12_" gradientUnits="userSpaceOnUse" x1="41.3227" y1="13.1226" x2="44.1298" y2="13.1226">
		<stop  offset="0" style="stop-color:#047CFF"/>
		<stop  offset="1" style="stop-color:#7F5EFF"/>
	</linearGradient>
	<path class="st11" d="M41.32,11.72h2.81v2.81h-2.81V11.72z"/>
	<linearGradient id="SVGID_13_" gradientUnits="userSpaceOnUse" x1="41.3227" y1="20.1405" x2="44.1298" y2="20.1405">
		<stop  offset="0" style="stop-color:#047CFF"/>
		<stop  offset="1" style="stop-color:#7F5EFF"/>
	</linearGradient>
	<path class="st12" d="M41.32,18.74h2.81v2.81h-2.81V18.74z"/>
</g>
</svg>
