<?xml version="1.0" encoding="utf-8"?>
<!-- Generator: Adobe Illustrator 23.1.1, SVG Export Plug-In . SVG Version: 6.00 Build 0)  -->
<svg version="1.1" id="Capa_1" xmlns="http://www.w3.org/2000/svg" xmlns:xlink="http://www.w3.org/1999/xlink" x="0px" y="0px"
	 viewBox="0 0 59 51" style="enable-background:new 0 0 59 51;" xml:space="preserve">
<style type="text/css">
	.st0{fill:#3BC9FF;}
</style>
<g>
	<g>
		<path class="st0" d="M1002.48,1004.87c0.33,0,0.59-0.27,0.59-0.59v-4.76c0-0.23-0.13-0.42-0.32-0.52l0-0.01l-17.24-8.92
			c-0.17-0.09-0.38-0.09-0.55,0l-17.24,8.92l0,0.01c-0.19,0.1-0.32,0.29-0.32,0.52v4.76c0,0.33,0.27,0.59,0.59,0.59h0.59v16.65H968
			c-0.33,0-0.59,0.27-0.59,0.59v2.97c0,0.33,0.27,0.59,0.59,0.59h34.48c0.33,0,0.59-0.27,0.59-0.59v-2.97
			c0-0.33-0.27-0.59-0.59-0.59h-0.59v-16.65H1002.48z M1001.89,1003.68h-33.29v-3.57h33.29V1003.68z M985.24,991.27l14.8,7.65h-29.6
			L985.24,991.27z M1001.89,1024.49h-33.29v-1.78h33.29V1024.49z M1000.7,1021.52h-30.92v-16.65h30.92V1021.52z"/>
		<path class="st0" d="M969.78,1001.31h1.19v1.19h-1.19V1001.31z"/>
		<path class="st0" d="M972.16,1001.31h1.19v1.19h-1.19V1001.31z"/>
		<path class="st0" d="M974.54,1001.31h1.19v1.19h-1.19V1001.31z"/>
		<path class="st0" d="M985.24,1001.31h15.46v1.19h-15.46V1001.31z"/>
		<path class="st0" d="M985.24,997.74c1.31,0,2.38-1.07,2.38-2.38c0-1.31-1.07-2.38-2.38-2.38c-1.31,0-2.38,1.07-2.38,2.38
			C982.86,996.67,983.93,997.74,985.24,997.74z M985.24,994.17c0.66,0,1.19,0.53,1.19,1.19c0,0.66-0.53,1.19-1.19,1.19
			c-0.66,0-1.19-0.53-1.19-1.19C984.05,994.71,984.58,994.17,985.24,994.17z"/>
		<path class="st0" d="M972.16,1019.74H990c0.33,0,0.59-0.27,0.59-0.59v-1.78h1.78c0.33,0,0.59-0.27,0.59-0.59v-2.38h1.19v0.59
			c0,0.23,0.13,0.44,0.34,0.54c0.08,0.04,0.17,0.06,0.25,0.06c0.14,0,0.27-0.05,0.38-0.14l3.57-2.97c0.14-0.11,0.21-0.28,0.21-0.46
			s-0.08-0.34-0.21-0.46l-3.57-2.97c-0.18-0.15-0.42-0.18-0.63-0.08c-0.21,0.1-0.34,0.31-0.34,0.54v0.59h-1.19v-2.38
			c0-0.33-0.27-0.59-0.59-0.59h-17.84c-0.33,0-0.59,0.27-0.59,0.59v1.78h-1.78c-0.33,0-0.59,0.27-0.59,0.59v9.51
			C971.56,1019.47,971.83,1019.74,972.16,1019.74L972.16,1019.74z M972.75,1016.85c0.83,0.22,1.48,0.87,1.7,1.7h-1.7V1016.85z
			 M978.05,1007.85h10.81c0.25,1.49,1.43,2.67,2.92,2.92v2.49c-1.49,0.25-2.67,1.43-2.92,2.92h-10.81
			c-0.25-1.49-1.43-2.67-2.92-2.92v-2.49C976.62,1010.51,977.8,1009.34,978.05,1007.85L978.05,1007.85z M975.13,1014.47
			c0.83,0.22,1.48,0.87,1.7,1.7h-1.7V1014.47z M975.24,1017.36h11.67c-0.21,0.37-0.36,0.77-0.43,1.19h-10.81
			C975.6,1018.12,975.45,1017.72,975.24,1017.36L975.24,1017.36z M973.94,1016.06c-0.36-0.21-0.76-0.36-1.19-0.43v-2.49
			c0.42-0.07,0.82-0.22,1.19-0.43V1016.06z M989.4,1018.55h-1.7c0.12-0.46,0.38-0.87,0.74-1.19h0.96V1018.55z M990.08,1016.17
			c0.22-0.83,0.87-1.48,1.7-1.7v1.7H990.08z M994.75,1010.82c0.3,0,0.55-0.23,0.59-0.52l2.05,1.71l-2.05,1.71
			c-0.04-0.29-0.29-0.52-0.59-0.52h-1.78v-2.38H994.75z M991.78,1009.55c-0.83-0.22-1.48-0.87-1.7-1.7h1.7V1009.55z M976.83,1007.85
			c-0.22,0.83-0.87,1.48-1.7,1.7v-1.7H976.83z M973.94,1010.22v0.96c-0.32,0.36-0.73,0.62-1.19,0.74v-1.7H973.94z"/>
		<path class="st0" d="M983.46,1014.39c1.31,0,2.38-1.07,2.38-2.38s-1.07-2.38-2.38-2.38c-1.31,0-2.38,1.07-2.38,2.38
			S982.14,1014.39,983.46,1014.39z M983.46,1010.82c0.66,0,1.19,0.53,1.19,1.19c0,0.66-0.53,1.19-1.19,1.19
			c-0.66,0-1.19-0.53-1.19-1.19C982.27,1011.35,982.8,1010.82,983.46,1010.82z"/>
	</g>
</g>
<g>
	<g>
		<path class="st0" d="M46.98,22.09c0.33,0,0.59-0.27,0.59-0.59v-4.76c0-0.23-0.13-0.42-0.32-0.52l0-0.01L30.01,7.29
			c-0.17-0.09-0.38-0.09-0.55,0l-17.24,8.92l0,0.01c-0.19,0.1-0.32,0.29-0.32,0.52v4.76c0,0.33,0.27,0.59,0.59,0.59h0.59v16.65
			h-0.59c-0.33,0-0.59,0.27-0.59,0.59v2.97c0,0.33,0.27,0.59,0.59,0.59h34.48c0.33,0,0.59-0.27,0.59-0.59v-2.97
			c0-0.33-0.27-0.59-0.59-0.59h-0.59V22.09H46.98z M46.38,20.9H13.09v-3.57h33.29V20.9z M29.73,8.49l14.8,7.65h-29.6L29.73,8.49z
			 M46.38,41.71H13.09v-1.78h33.29V41.71z M45.19,38.73H14.28V22.09h30.92V38.73z"/>
		<path class="st0" d="M14.28,18.52h1.19v1.19h-1.19V18.52z"/>
		<path class="st0" d="M16.65,18.52h1.19v1.19h-1.19V18.52z"/>
		<path class="st0" d="M19.03,18.52h1.19v1.19h-1.19V18.52z"/>
		<path class="st0" d="M29.73,18.52h15.46v1.19H29.73V18.52z"/>
		<path class="st0" d="M29.73,14.95c1.31,0,2.38-1.07,2.38-2.38s-1.07-2.38-2.38-2.38c-1.31,0-2.38,1.07-2.38,2.38
			S28.42,14.95,29.73,14.95z M29.73,11.38c0.66,0,1.19,0.53,1.19,1.19c0,0.66-0.53,1.19-1.19,1.19c-0.66,0-1.19-0.53-1.19-1.19
			C28.54,11.92,29.08,11.38,29.73,11.38z"/>
		<path class="st0" d="M16.65,36.95h17.84c0.33,0,0.59-0.27,0.59-0.59v-1.78h1.78c0.33,0,0.59-0.27,0.59-0.59V31.6h1.19v0.59
			c0,0.23,0.13,0.44,0.34,0.54c0.08,0.04,0.17,0.06,0.25,0.06c0.14,0,0.27-0.05,0.38-0.14l3.57-2.97c0.14-0.11,0.21-0.28,0.21-0.46
			s-0.08-0.34-0.21-0.46l-3.57-2.97c-0.18-0.15-0.42-0.18-0.63-0.08c-0.21,0.1-0.34,0.31-0.34,0.54v0.59h-1.19v-2.38
			c0-0.33-0.27-0.59-0.59-0.59H19.03c-0.33,0-0.59,0.27-0.59,0.59v1.78h-1.78c-0.33,0-0.59,0.27-0.59,0.59v9.51
			C16.06,36.68,16.33,36.95,16.65,36.95L16.65,36.95z M17.25,34.06c0.83,0.22,1.48,0.87,1.7,1.7h-1.7V34.06z M22.55,25.06h10.81
			c0.25,1.49,1.43,2.67,2.92,2.92v2.49c-1.49,0.25-2.67,1.43-2.92,2.92H22.55c-0.25-1.49-1.43-2.67-2.92-2.92v-2.49
			C21.12,27.73,22.29,26.55,22.55,25.06L22.55,25.06z M19.63,31.68c0.83,0.22,1.48,0.87,1.7,1.7h-1.7V31.68z M19.74,34.57h11.67
			c-0.21,0.37-0.36,0.77-0.43,1.19H20.17C20.1,35.33,19.95,34.93,19.74,34.57L19.74,34.57z M18.44,33.27
			c-0.36-0.21-0.76-0.36-1.19-0.43v-2.49c0.42-0.07,0.82-0.22,1.19-0.43V33.27z M33.9,35.76h-1.7c0.12-0.46,0.38-0.87,0.74-1.19
			h0.96V35.76z M34.57,33.38c0.22-0.83,0.87-1.48,1.7-1.7v1.7H34.57z M39.25,28.03c0.3,0,0.55-0.23,0.59-0.52l2.05,1.71l-2.05,1.71
			c-0.04-0.29-0.29-0.52-0.59-0.52h-1.78v-2.38H39.25z M36.27,26.76c-0.83-0.22-1.48-0.87-1.7-1.7h1.7V26.76z M21.33,25.06
			c-0.22,0.83-0.87,1.48-1.7,1.7v-1.7H21.33z M18.44,27.44v0.96c-0.32,0.36-0.73,0.62-1.19,0.74v-1.7H18.44z"/>
		<path class="st0" d="M27.95,31.6c1.31,0,2.38-1.07,2.38-2.38s-1.07-2.38-2.38-2.38s-2.38,1.07-2.38,2.38S26.64,31.6,27.95,31.6z
			 M27.95,28.03c0.66,0,1.19,0.53,1.19,1.19s-0.53,1.19-1.19,1.19s-1.19-0.53-1.19-1.19S27.29,28.03,27.95,28.03z"/>
	</g>
</g>
</svg>
