<?xml version="1.0" encoding="utf-8"?>
<!-- Generator: Adobe Illustrator 13.0.0, SVG Export Plug-In . SVG Version: 6.00 Build 14948)  -->
<!DOCTYPE svg PUBLIC "-//W3C//DTD SVG 1.1//EN" "http://www.w3.org/Graphics/SVG/1.1/DTD/svg11.dtd">
<svg version="1.1" id="Layer_1" xmlns="http://www.w3.org/2000/svg" xmlns:xlink="http://www.w3.org/1999/xlink" x="0px" y="0px"
	 width="493.328px" height="102.771px" viewBox="0 0 493.328 102.771" enable-background="new 0 0 493.328 102.771"
	 xml:space="preserve">
<polygon fill="#020C51" points="350.336,43.813 350.336,18.48 345.484,18.48 345.484,14.532 359.384,14.532 359.384,18.48 
	354.531,18.48 354.531,43.813 "/>
<polygon fill="#020C51" points="365.06,43.813 365.06,14.532 377.562,14.532 377.562,18.48 369.253,18.48 369.253,27.076 
	376.491,27.076 376.491,31.023 369.253,31.023 369.253,39.619 377.562,39.619 377.562,43.813 "/>
<path fill="#020C51" d="M397.424,35.465v1.81c0,0.903-0.171,1.762-0.514,2.57c-0.344,0.808-0.815,1.528-1.419,2.159
	c-0.604,0.63-1.311,1.131-2.118,1.501c-0.809,0.37-1.679,0.555-2.611,0.555c-0.795,0-1.604-0.109-2.426-0.329
	c-0.823-0.22-1.563-0.603-2.222-1.151c-0.657-0.548-1.2-1.254-1.624-2.118c-0.426-0.864-0.639-1.967-0.639-3.311V21.029
	c0-0.959,0.165-1.85,0.494-2.673c0.329-0.821,0.795-1.535,1.397-2.138s1.322-1.076,2.158-1.419s1.762-0.514,2.776-0.514
	c1.974,0,3.578,0.644,4.812,1.933c0.604,0.63,1.075,1.377,1.419,2.241c0.343,0.864,0.514,1.803,0.514,2.816v1.646h-4.194v-1.398
	c0-0.822-0.233-1.537-0.698-2.139c-0.467-0.604-1.098-0.905-1.893-0.905c-1.042,0-1.734,0.322-2.077,0.966
	c-0.343,0.645-0.514,1.461-0.514,2.448v14.969c0,0.851,0.186,1.563,0.555,2.139c0.37,0.577,1.034,0.864,1.995,0.864
	c0.272,0,0.567-0.048,0.886-0.145c0.313-0.095,0.607-0.253,0.883-0.473c0.246-0.22,0.453-0.521,0.617-0.905
	c0.164-0.384,0.246-0.863,0.246-1.439v-1.438H397.424L397.424,35.465z"/>
<polygon fill="#020C51" points="404.663,43.813 404.663,14.532 408.858,14.532 408.858,27.076 414.039,27.076 414.039,14.532 
	418.235,14.532 418.235,43.813 414.039,43.813 414.039,30.777 408.858,30.777 408.858,43.813 "/>
<path fill="#020C51" d="M360.041,66.312h-4.194v-0.945c0-0.959-0.227-1.789-0.678-2.487c-0.453-0.699-1.215-1.05-2.283-1.05
	c-0.574,0-1.042,0.109-1.398,0.329c-0.355,0.221-0.645,0.493-0.863,0.822c-0.22,0.356-0.369,0.762-0.451,1.213
	c-0.082,0.452-0.123,0.926-0.123,1.419c0,0.575,0.021,1.057,0.062,1.439c0.041,0.385,0.145,0.726,0.31,1.027
	c0.163,0.303,0.402,0.562,0.72,0.781c0.313,0.221,0.746,0.438,1.295,0.658l3.208,1.275c0.932,0.354,1.686,0.773,2.261,1.254
	c0.578,0.479,1.029,1.035,1.358,1.666c0.302,0.658,0.507,1.404,0.616,2.241c0.108,0.835,0.165,1.788,0.165,2.856
	c0,1.233-0.124,2.378-0.37,3.434c-0.247,1.057-0.646,1.954-1.191,2.693c-0.578,0.769-1.332,1.371-2.264,1.811
	c-0.934,0.438-2.069,0.657-3.413,0.657c-1.016,0-1.961-0.179-2.838-0.533c-0.878-0.356-1.631-0.852-2.263-1.48
	c-0.631-0.631-1.131-1.364-1.501-2.201c-0.369-0.835-0.555-1.747-0.555-2.733v-1.562h4.193v1.316c0,0.767,0.228,1.46,0.68,2.075
	c0.452,0.617,1.213,0.927,2.282,0.927c0.713,0,1.268-0.104,1.666-0.309c0.396-0.206,0.705-0.502,0.926-0.886
	c0.218-0.383,0.349-0.843,0.39-1.377c0.041-0.535,0.062-1.131,0.062-1.789c0-0.768-0.027-1.397-0.082-1.892
	c-0.056-0.494-0.164-0.893-0.328-1.193c-0.193-0.301-0.447-0.547-0.762-0.74c-0.315-0.189-0.734-0.396-1.254-0.615l-3.002-1.233
	c-1.811-0.741-3.022-1.721-3.641-2.94c-0.618-1.221-0.925-2.748-0.925-4.586c0-1.096,0.149-2.139,0.451-3.126
	c0.302-0.985,0.755-1.837,1.356-2.549c0.576-0.712,1.31-1.28,2.2-1.707c0.892-0.425,1.953-0.638,3.188-0.638
	c1.041,0,1.994,0.191,2.857,0.576s1.61,0.892,2.241,1.521c1.26,1.316,1.893,2.825,1.893,4.523v2.058H360.041z"/>
<polygon fill="#020C51" points="366.991,87.162 366.991,57.881 379.493,57.881 379.493,61.829 371.186,61.829 371.186,70.425 
	378.423,70.425 378.423,74.372 371.186,74.372 371.186,82.967 379.493,82.967 379.493,87.162 "/>
<path fill="#020C51" d="M386.032,87.161v-29.28h6.744c4.937,0,7.402,2.864,7.402,8.595c0,1.729-0.268,3.194-0.802,4.4
	c-0.534,1.207-1.476,2.18-2.817,2.92l4.524,13.365h-4.441l-3.907-12.502h-2.509v12.502H386.032z M390.227,61.828v9.131h2.386
	c0.74,0,1.33-0.104,1.77-0.311c0.438-0.205,0.78-0.5,1.026-0.884c0.221-0.383,0.37-0.855,0.453-1.419
	c0.082-0.562,0.123-1.212,0.123-1.953c0-0.74-0.041-1.391-0.123-1.953c-0.083-0.562-0.247-1.049-0.494-1.46
	c-0.521-0.768-1.508-1.151-2.961-1.151H390.227z"/>
<polygon fill="#020C51" points="421.605,57.881 415.6,87.162 411.899,87.162 405.937,57.881 410.375,57.881 413.707,78.319 
	413.791,78.319 417.163,57.881 "/>
<rect x="428.061" y="57.881" fill="#020C51" width="4.194" height="29.281"/>
<path fill="#020C51" d="M453.477,78.813v1.81c0,0.903-0.172,1.763-0.514,2.569c-0.344,0.811-0.815,1.529-1.418,2.16
	c-0.604,0.63-1.312,1.13-2.119,1.501c-0.81,0.37-1.68,0.555-2.611,0.555c-0.795,0-1.604-0.108-2.426-0.328
	c-0.823-0.221-1.563-0.604-2.223-1.151c-0.656-0.549-1.198-1.254-1.622-2.118c-0.427-0.864-0.64-1.967-0.64-3.311v-16.12
	c0-0.96,0.165-1.853,0.494-2.674s0.794-1.535,1.397-2.14c0.603-0.602,1.321-1.075,2.158-1.419c0.837-0.343,1.763-0.514,2.776-0.514
	c1.974,0,3.578,0.645,4.812,1.933c0.603,0.632,1.074,1.377,1.418,2.242c0.342,0.863,0.514,1.802,0.514,2.816v1.646h-4.194v-1.397
	c0-0.822-0.232-1.535-0.698-2.14c-0.467-0.603-1.098-0.904-1.893-0.904c-1.042,0-1.734,0.321-2.077,0.967
	c-0.344,0.645-0.514,1.46-0.514,2.447v14.97c0,0.85,0.185,1.562,0.555,2.138s1.034,0.864,1.995,0.864
	c0.273,0,0.568-0.048,0.885-0.146c0.314-0.096,0.608-0.253,0.885-0.473c0.246-0.219,0.452-0.521,0.615-0.905
	c0.165-0.384,0.247-0.863,0.247-1.438v-1.439L453.477,78.813L453.477,78.813z"/>
<polygon fill="#020C51" points="460.716,87.162 460.716,57.881 473.218,57.881 473.218,61.829 464.91,61.829 464.91,70.425 
	472.148,70.425 472.148,74.372 464.91,74.372 464.91,82.967 473.218,82.967 473.218,87.162 "/>
<path fill="#020C51" d="M493.328,66.312h-4.194v-0.945c0-0.959-0.227-1.789-0.68-2.487c-0.451-0.699-1.214-1.05-2.281-1.05
	c-0.575,0-1.042,0.109-1.398,0.329c-0.356,0.221-0.645,0.493-0.864,0.822c-0.219,0.356-0.369,0.762-0.451,1.213
	c-0.082,0.452-0.123,0.926-0.123,1.419c0,0.575,0.021,1.057,0.062,1.439c0.042,0.385,0.144,0.726,0.31,1.027
	c0.163,0.303,0.403,0.562,0.72,0.781c0.313,0.221,0.747,0.438,1.295,0.658l3.209,1.275c0.931,0.354,1.686,0.773,2.261,1.254
	c0.577,0.479,1.029,1.035,1.357,1.666c0.301,0.658,0.508,1.404,0.617,2.241c0.108,0.835,0.164,1.788,0.164,2.856
	c0,1.233-0.123,2.378-0.369,3.434c-0.248,1.057-0.646,1.954-1.192,2.693c-0.577,0.769-1.332,1.371-2.263,1.811
	c-0.934,0.438-2.07,0.657-3.414,0.657c-1.015,0-1.96-0.179-2.837-0.533c-0.879-0.356-1.632-0.852-2.264-1.48
	c-0.63-0.631-1.131-1.364-1.501-2.201c-0.37-0.835-0.555-1.747-0.555-2.733v-1.562h4.194v1.316c0,0.767,0.227,1.46,0.68,2.075
	c0.451,0.617,1.212,0.927,2.281,0.927c0.713,0,1.268-0.104,1.666-0.309c0.396-0.206,0.706-0.502,0.926-0.886
	c0.219-0.383,0.349-0.843,0.39-1.377c0.042-0.535,0.062-1.131,0.062-1.789c0-0.768-0.027-1.397-0.083-1.892
	s-0.164-0.893-0.328-1.193c-0.192-0.301-0.446-0.547-0.762-0.74c-0.314-0.189-0.733-0.396-1.253-0.615l-3.004-1.233
	c-1.81-0.741-3.021-1.721-3.64-2.94c-0.617-1.221-0.925-2.748-0.925-4.586c0-1.096,0.15-2.139,0.452-3.126
	c0.302-0.985,0.753-1.837,1.355-2.549c0.576-0.712,1.311-1.28,2.2-1.707c0.893-0.425,1.954-0.638,3.188-0.638
	c1.04,0,1.993,0.191,2.856,0.576c0.864,0.385,1.609,0.892,2.241,1.521c1.261,1.316,1.893,2.825,1.893,4.523L493.328,66.312
	L493.328,66.312z"/>
<path fill="#020C51" d="M121.643,31.098c0-2.965,0.519-5.588,1.553-7.864s2.413-4.173,4.139-5.691
	c1.656-1.448,3.535-2.551,5.64-3.311c2.104-0.759,4.224-1.139,6.364-1.139c2.137,0,4.259,0.38,6.364,1.139
	c2.104,0.76,4.018,1.862,5.742,3.311c1.657,1.519,3.002,3.415,4.036,5.691c1.035,2.276,1.553,4.899,1.553,7.864v38.91
	c0,3.104-0.518,5.76-1.553,7.968c-1.034,2.208-2.379,4.035-4.036,5.483c-1.725,1.519-3.639,2.657-5.742,3.415
	c-2.105,0.759-4.228,1.139-6.364,1.139c-2.141,0-4.26-0.38-6.364-1.139c-2.104-0.758-3.983-1.896-5.64-3.415
	c-1.726-1.448-3.104-3.275-4.139-5.483s-1.553-4.864-1.553-7.968V31.098z M132.198,70.008c0,2.553,0.707,4.433,2.122,5.64
	c1.412,1.207,3.086,1.811,5.019,1.811c1.931,0,3.604-0.604,5.019-1.811c1.413-1.207,2.121-3.087,2.121-5.64v-38.91
	c0-2.55-0.708-4.432-2.121-5.64c-1.414-1.206-3.088-1.811-5.019-1.811c-1.933,0-3.606,0.604-5.019,1.811
	c-1.415,1.208-2.122,3.09-2.122,5.64V70.008z"/>
<polygon fill="#020C51" points="174.107,87.392 174.107,13.713 184.25,13.713 197.806,52.726 198.011,52.726 211.464,13.713 
	221.709,13.713 221.709,87.392 211.153,87.392 211.153,42.584 210.946,42.584 200.495,74.251 195.217,74.251 184.87,42.584 
	184.663,42.584 184.663,87.392 "/>
<path fill="#020C51" d="M239.403,87.392V13.714h15.419c3.38,0,6.262,0.518,8.641,1.552c2.381,1.035,4.329,2.415,5.848,4.14
	c1.518,1.726,2.604,3.709,3.26,5.95c0.654,2.242,0.982,4.571,0.982,6.985v2.691c0,2.001-0.156,3.69-0.466,5.068
	c-0.312,1.381-0.776,2.588-1.397,3.623c-1.173,1.933-2.966,3.587-5.38,4.967c2.483,1.174,4.311,2.897,5.484,5.175
	c1.173,2.275,1.759,5.38,1.759,9.312v4.139c0,6.486-1.569,11.452-4.708,14.901c-3.14,3.45-8.159,5.174-15.056,5.174H239.403z
	 M249.958,23.647V43.93h4.761c3.519,0,5.88-0.88,7.088-2.639c1.206-1.759,1.812-4.328,1.812-7.71c0-3.312-0.673-5.795-2.019-7.45
	c-1.345-1.656-3.775-2.484-7.295-2.484H249.958z M249.958,53.244v23.593h4.554c2.137,0,3.811-0.312,5.02-0.932
	c1.205-0.619,2.12-1.481,2.741-2.587c0.621-1.103,1-2.413,1.14-3.933c0.137-1.517,0.206-3.173,0.206-4.967
	c0-1.863-0.104-3.483-0.312-4.864c-0.206-1.379-0.62-2.552-1.241-3.518c-0.689-0.967-1.622-1.672-2.795-2.122
	c-1.173-0.447-2.725-0.672-4.655-0.672L249.958,53.244L249.958,53.244z"/>
<path fill="#020C51" d="M325.395,13.714v57.121c0,2.416-0.431,4.641-1.293,6.675c-0.863,2.035-2.087,3.846-3.674,5.433
	c-1.587,1.588-3.415,2.828-5.483,3.727c-2.07,0.895-4.278,1.344-6.624,1.344s-4.537-0.449-6.571-1.344
	c-2.034-0.897-3.846-2.139-5.433-3.727c-1.587-1.587-2.828-3.396-3.725-5.433c-0.897-2.034-1.346-4.259-1.346-6.675V13.714h10.556
	V69.8c0,2.623,0.62,4.554,1.862,5.795c1.241,1.242,2.793,1.863,4.655,1.863c1.863,0,3.415-0.621,4.657-1.863
	c1.241-1.241,1.862-3.172,1.862-5.795V13.714H325.395z"/>
<g>
	<g>
		<path fill="#020C51" d="M98.733,30.593c-2.586-6.123-6.292-11.616-11.012-16.337C83,9.538,77.507,5.831,71.384,3.242
			c-6.329-2.681-13.059-4.037-19.999-4.037c-6.938,0-13.67,1.357-20,4.037c-6.121,2.589-11.617,6.296-16.337,11.014
			C10.326,18.977,6.62,24.47,4.034,30.593c-2.681,6.331-4.037,13.06-4.037,20c0,6.942,1.357,13.668,4.037,19.998
			c2.586,6.122,6.293,11.618,11.015,16.34c4.72,4.719,10.216,8.427,16.336,11.014c6.331,2.678,13.062,4.033,20,4.033
			c6.941,0,13.671-1.355,20-4.033c6.123-2.587,11.616-6.295,16.338-11.014c4.721-4.722,8.426-10.217,11.011-16.34
			c2.68-6.332,4.037-13.056,4.037-19.998C102.77,43.653,101.413,36.924,98.733,30.593z M75.877,60.923H62.731l-2.469,2.467v5.403
			h3.369c2.405,0,4.374,1.967,4.374,4.375c0,2.402-1.969,4.376-4.374,4.376h-24.49c-2.404,0-4.373-1.975-4.373-4.376
			c0-2.407,1.968-4.375,4.373-4.375h5.686V63.39l-2.47-2.467H26.892c-4.808,0-8.745-3.935-8.745-8.748
			c0-4.525,3.485-8.277,7.902-8.704c-0.018-0.243-0.03-0.493-0.03-0.742c0-4.83,3.916-8.747,8.748-8.747
			c0.7,0,1.38,0.086,2.036,0.24c1.969-6.175,7.751-10.646,14.582-10.646c6.818,0,12.591,4.457,14.572,10.613
			c3.923,0.864,6.857,4.358,6.857,8.54c0,0.237-0.01,0.47-0.027,0.701h3.089c4.812,0,8.748,3.936,8.748,8.746
			C84.624,56.988,80.688,60.923,75.877,60.923z"/>
	</g>
</g>
<path fill="#020C51" d="M57.552,50.206h1.995v4.969l-5.083,5.082c-0.246,0.244-0.384,0.58-0.384,0.928v10.85
	c0,0.722,0.587,1.308,1.312,1.308c0.724,0,1.312-0.585,1.312-1.308V61.728l5.083-5.083c0.247-0.246,0.387-0.579,0.387-0.931v-5.509
	h2.316V43.66h-6.938V50.206z"/>
<path fill="#020C51" d="M52.493,36.176v-0.047l-4.138,7.401h2.929v10.729c0,0.824,0.588,1.489,1.312,1.489s1.312-0.667,1.312-1.489
	V43.531h3.15L52.493,36.176z"/>
<path fill="#020C51" d="M45.523,54.955v-7.808c1.409-0.508,2.411-1.79,2.411-3.294c0-1.949-1.68-3.53-3.752-3.53
	s-3.751,1.581-3.751,3.53c0,1.524,1.029,2.82,2.467,3.314v8.334c0,0.346,0.138,0.681,0.385,0.924l5.082,5.083v8.027
	c0,0.726,0.589,1.313,1.312,1.313c0.724,0,1.312-0.589,1.312-1.313v-8.571c0-0.348-0.137-0.678-0.384-0.928L45.523,54.955z"/>
<g>
	<g>
		<path fill="#FFFFFF" d="M75.774,43.403h-3.089c0.018-0.23,0.027-0.463,0.027-0.701c0-4.182-2.935-7.676-6.857-8.539
			c-1.981-6.157-7.754-10.614-14.572-10.614c-6.831,0-12.613,4.473-14.582,10.647c-0.656-0.154-1.336-0.24-2.036-0.24
			c-4.832,0-8.748,3.916-8.748,8.746c0,0.25,0.013,0.5,0.03,0.742c-4.417,0.428-7.902,4.18-7.902,8.705
			c0,4.812,3.938,8.748,8.745,8.748h15.465l2.47,2.467v5.402h-5.686c-2.405,0-4.373,1.969-4.373,4.375
			c0,2.403,1.969,4.378,4.373,4.378h24.49c2.405,0,4.374-1.975,4.374-4.378c0-2.408-1.969-4.375-4.374-4.375h-3.369v-5.402
			l2.469-2.467h13.146c4.812,0,8.747-3.936,8.748-8.748C84.522,47.338,80.586,43.403,75.774,43.403z M50.886,69.51
			c0,0.725-0.589,1.312-1.312,1.312c-0.723,0-1.312-0.588-1.312-1.312v-8.027l-5.082-5.084c-0.247-0.242-0.385-0.578-0.385-0.924
			v-8.334c-1.438-0.494-2.467-1.789-2.467-3.314c0-1.949,1.679-3.529,3.751-3.529s3.752,1.58,3.752,3.529
			c0,1.504-1.002,2.787-2.411,3.295v7.807l5.082,5.082c0.247,0.25,0.384,0.58,0.384,0.928V69.51z M53.805,54.233
			c0,0.822-0.589,1.488-1.312,1.488s-1.312-0.664-1.312-1.488V43.504h-2.929l4.138-7.402v0.047l4.565,7.355h-3.15V54.233z
			 M64.388,50.178h-2.316v5.51c0,0.352-0.14,0.684-0.387,0.93l-5.083,5.084v10.307c0,0.723-0.588,1.307-1.312,1.307
			c-0.726,0-1.312-0.586-1.312-1.307v-10.85c0-0.348,0.138-0.684,0.384-0.928l5.083-5.082V50.18h-1.995v-6.547h6.938V50.178z"/>
	</g>
</g>
</svg>
