<?xml version="1.0" encoding="utf-8"?>
<!-- Generator: Adobe Illustrator 13.0.0, SVG Export Plug-In . SVG Version: 6.00 Build 14948)  -->
<!DOCTYPE svg PUBLIC "-//W3C//DTD SVG 1.1//EN" "http://www.w3.org/Graphics/SVG/1.1/DTD/svg11.dtd">
<svg version="1.1" xmlns="http://www.w3.org/2000/svg" xmlns:xlink="http://www.w3.org/1999/xlink" x="0px" y="0px" width="800px"
	 height="800px" viewBox="0 0 800 800" enable-background="new 0 0 800 800" xml:space="preserve">
<g id="BACKGROUND" opacity="0.6">
	<linearGradient id="SVGID_1_" gradientUnits="userSpaceOnUse" x1="4.882812e-04" y1="4.882812e-04" x2="800.0007" y2="800.0007">
		<stop  offset="0" style="stop-color:#FFFFFF"/>
		<stop  offset="1" style="stop-color:#E5E5E5"/>
	</linearGradient>
	<rect opacity="0.8" fill="url(#SVGID_1_)" width="800" height="800"/>
</g>
<g id="OBJECTS">
	<g>
		<g>
			<path fill="#3D86B7" d="M272.224,181.127c-39.66,0-71.809,32.148-71.809,71.804c0,39.657,32.149,71.814,71.809,71.814
				c39.662,0,71.81-32.157,71.81-71.814C344.034,213.275,311.886,181.127,272.224,181.127z M290.52,252.942h-12.625
				c0,19.043,0,42.528,0,42.528h-17.01c0,0,0-23.249,0-42.528h-8.507v-17.015h8.434v-7.685c0-6.959,3.313-17.829,17.902-17.829
				l13.144,0.058v14.566c0,0-7.993,0-9.546,0c-1.548,0-3.759,0.774-3.759,4.087v6.802h13.521L290.52,252.942z"/>
		</g>
	</g>
	<path id="XMLID_1_" fill="#FFFFFF" d="M278.571,235.959v-6.802c0-3.313,2.211-4.087,3.76-4.087c1.553,0,9.547,0,9.547,0v-14.566
		l-13.145-0.058c-14.589,0-17.902,10.87-17.902,17.829v7.685h-8.434v17.015h8.507c0,19.279,0,42.529,0,42.529h17.01
		c0,0,0-23.485,0-42.529h12.625l1.553-17.015H278.571z"/>
</g>
</svg>
