<?xml version="1.0" encoding="utf-8"?>
<!-- Generator: Adobe Illustrator 13.0.0, SVG Export Plug-In . SVG Version: 6.00 Build 14948)  -->
<!DOCTYPE svg PUBLIC "-//W3C//DTD SVG 1.1//EN" "http://www.w3.org/Graphics/SVG/1.1/DTD/svg11.dtd">
<svg version="1.1" id="Layer_1" xmlns="http://www.w3.org/2000/svg" xmlns:xlink="http://www.w3.org/1999/xlink" x="0px" y="0px"
	 width="192.559px" height="63.523px" viewBox="0 0 192.559 63.523" enable-background="new 0 0 192.559 63.523"
	 xml:space="preserve">
<g>
	<path fill="#1B3A50" d="M73.984,31.057V10.219c0-6.342,3.341-9.966,9.457-9.966c6.115,0,9.457,3.624,9.457,9.966v20.838
		c0,6.342-3.341,9.966-9.457,9.966C77.325,41.023,73.984,37.399,73.984,31.057z M86.668,31.454V9.823
		c0-2.832-1.246-3.907-3.228-3.907s-3.228,1.076-3.228,3.907v21.631c0,2.831,1.246,3.907,3.228,3.907S86.668,34.285,86.668,31.454z"
		/>
	<path fill="#1B3A50" d="M105.015,0.819h8.89l3.964,28.369h0.113l3.964-28.369h8.891v39.638h-5.89V10.446h-0.113l-4.529,30.011
		h-5.21l-4.53-30.011h-0.113v30.011h-5.436V0.819z"/>
	<path fill="#1B3A50" d="M143.408,0.819h9.4c6.455,0,9.229,3.001,9.229,9.117v1.585c0,4.077-1.245,6.625-4.021,7.758v0.113
		c3.341,1.132,4.644,4.077,4.644,8.267v3.397c0,6.116-3.228,9.4-9.456,9.4h-9.797V0.819z M152.072,16.958
		c2.321,0,3.737-1.019,3.737-4.19v-2.208c0-2.831-0.963-4.077-3.171-4.077h-3.001v10.476H152.072z M153.205,34.794
		c2.095,0,3.228-0.962,3.228-3.907v-3.454c0-3.681-1.189-4.813-4.021-4.813h-2.774v12.174H153.205z"/>
	<path fill="#1B3A50" d="M173.986,31.057V0.819h6.229V31.51c0,2.831,1.188,3.85,3.171,3.85c1.981,0,3.171-1.019,3.171-3.85V0.819
		h6.002v30.238c0,6.342-3.171,9.966-9.286,9.966S173.986,37.399,173.986,31.057z"/>
</g>
<g>
	<path fill="#1B3A50" d="M77.517,48.878h-2.237v-1.945h6.615v1.945h-2.237v11.673h-2.14V48.878z"/>
	<path fill="#1B3A50" d="M85.322,46.933h5.836v1.945h-3.697v3.599h2.938v1.946h-2.938v4.183h3.697v1.945h-5.836V46.933z"/>
	<path fill="#1B3A50" d="M94.644,57.399v-7.315c0-2.102,1.089-3.347,3.151-3.347c2.062,0,3.152,1.245,3.152,3.347v1.439h-2.023
		v-1.575c0-0.896-0.428-1.265-1.07-1.265s-1.07,0.369-1.07,1.265v7.606c0,0.895,0.428,1.245,1.07,1.245s1.07-0.351,1.07-1.245
		v-2.082h2.023v1.927c0,2.101-1.089,3.346-3.152,3.346C95.733,60.745,94.644,59.5,94.644,57.399z"/>
	<path fill="#1B3A50" d="M104.627,46.933h2.14v5.544h2.296v-5.544h2.14v13.618h-2.14v-6.128h-2.296v6.128h-2.14V46.933z"/>
	<path fill="#1B3A50" d="M120.333,57.321v-0.778h2.023v0.934c0,0.973,0.428,1.323,1.109,1.323c0.681,0,1.108-0.351,1.108-1.361
		c0-1.129-0.428-1.849-1.828-3.074c-1.79-1.576-2.374-2.685-2.374-4.241c0-2.141,1.109-3.386,3.19-3.386
		c2.082,0,3.113,1.245,3.113,3.425v0.563h-2.023v-0.7c0-0.973-0.39-1.342-1.07-1.342s-1.069,0.369-1.069,1.303
		c0,0.992,0.447,1.713,1.848,2.938c1.79,1.575,2.354,2.665,2.354,4.357c0,2.218-1.129,3.463-3.229,3.463
		C121.383,60.745,120.333,59.5,120.333,57.321z"/>
	<path fill="#1B3A50" d="M130.336,46.933h5.836v1.945h-3.696v3.599h2.938v1.946h-2.938v4.183h3.696v1.945h-5.836V46.933z"/>
	<path fill="#1B3A50" d="M139.794,46.933h3.171c2.218,0,3.171,1.031,3.171,3.132v0.837c0,1.4-0.447,2.296-1.4,2.685v0.039
		c1.07,0.33,1.42,1.342,1.42,2.879v2.394c0,0.661,0.02,1.147,0.233,1.653h-2.179c-0.116-0.351-0.194-0.564-0.194-1.673v-2.49
		c0-1.265-0.37-1.674-1.343-1.674h-0.739v5.837h-2.14V46.933z M142.712,52.769c0.798,0,1.284-0.35,1.284-1.439v-1.051
		c0-0.973-0.331-1.4-1.09-1.4h-0.973v3.891H142.712z"/>
	<path fill="#1B3A50" d="M149.389,46.933h2.159l1.401,10.563h0.039l1.4-10.563h1.965l-2.062,13.618h-2.84L149.389,46.933z"/>
	<path fill="#1B3A50" d="M159.782,46.933h2.14v13.618h-2.14V46.933z"/>
	<path fill="#1B3A50" d="M165.775,57.399v-7.315c0-2.102,1.09-3.347,3.152-3.347c2.062,0,3.151,1.245,3.151,3.347v1.439h-2.023
		v-1.575c0-0.896-0.428-1.265-1.07-1.265c-0.642,0-1.069,0.369-1.069,1.265v7.606c0,0.895,0.428,1.245,1.069,1.245
		c0.643,0,1.07-0.351,1.07-1.245v-2.082h2.023v1.927c0,2.101-1.09,3.346-3.151,3.346C166.865,60.745,165.775,59.5,165.775,57.399z"
		/>
	<path fill="#1B3A50" d="M175.759,46.933h5.836v1.945h-3.696v3.599h2.938v1.946h-2.938v4.183h3.696v1.945h-5.836V46.933z"/>
	<path fill="#1B3A50" d="M184.886,57.321v-0.778h2.023v0.934c0,0.973,0.428,1.323,1.109,1.323c0.681,0,1.108-0.351,1.108-1.361
		c0-1.129-0.428-1.849-1.828-3.074c-1.79-1.576-2.374-2.685-2.374-4.241c0-2.141,1.109-3.386,3.19-3.386
		c2.082,0,3.113,1.245,3.113,3.425v0.563h-2.023v-0.7c0-0.973-0.389-1.342-1.07-1.342c-0.681,0-1.069,0.369-1.069,1.303
		c0,0.992,0.447,1.713,1.848,2.938c1.79,1.575,2.354,2.665,2.354,4.357c0,2.218-1.129,3.463-3.229,3.463
		C185.937,60.745,184.886,59.5,184.886,57.321z"/>
</g>
<path fill="#1B3A50" d="M31.76,0C14.218,0,0,14.219,0,31.761s14.218,31.763,31.76,31.763c17.542,0,31.76-14.221,31.76-31.763
	S49.302,0,31.76,0z M52.871,52.872c-2.743,2.74-5.935,4.894-9.492,6.397c-3.677,1.557-7.587,2.346-11.619,2.346
	c-4.031,0-7.941-0.789-11.619-2.346c-3.557-1.504-6.749-3.657-9.491-6.397c-2.743-2.745-4.896-5.937-6.399-9.493
	C2.694,39.7,1.906,35.794,1.906,31.761c0-4.032,0.788-7.941,2.345-11.619c1.503-3.557,3.656-6.749,6.399-9.491
	s5.935-4.895,9.491-6.398c3.678-1.557,7.588-2.346,11.619-2.346c4.032,0,7.942,0.789,11.619,2.346
	c3.557,1.504,6.749,3.656,9.492,6.398c2.742,2.742,4.896,5.935,6.397,9.491c1.557,3.678,2.346,7.587,2.346,11.619
	c0,4.033-0.789,7.939-2.346,11.618C57.767,46.936,55.613,50.127,52.871,52.872z M31.76,3.686c-15.481,0-28.075,12.595-28.075,28.075
	c0,15.481,12.594,28.074,28.075,28.074c15.48,0,28.074-12.593,28.074-28.074C59.834,16.28,47.24,3.686,31.76,3.686z M49.545,38.621
	h-9.544l-1.793,1.792v3.924h2.447c1.746,0,3.176,1.43,3.176,3.177c0,1.745-1.431,3.179-3.176,3.179H22.868
	c-1.746,0-3.176-1.434-3.176-3.179c0-1.747,1.43-3.177,3.176-3.177h4.127v-3.924l-1.792-1.792h-11.23
	c-3.492,0-6.351-2.857-6.351-6.353c0-3.285,2.531-6.012,5.738-6.32c-0.012-0.179-0.022-0.359-0.022-0.541
	c0-3.506,2.844-6.353,6.354-6.353c0.508,0,1.002,0.064,1.478,0.176c1.431-4.484,5.63-7.73,10.589-7.73
	c4.951,0,9.144,3.234,10.582,7.707c2.849,0.627,4.981,3.164,4.981,6.2c0,0.174-0.007,0.342-0.021,0.51h2.243
	c3.496,0,6.354,2.858,6.354,6.352C55.899,35.764,53.041,38.621,49.545,38.621z M36.239,30.839h1.448v3.607l-3.691,3.691
	c-0.18,0.178-0.278,0.422-0.278,0.674v7.878c0,0.524,0.426,0.951,0.953,0.951c0.526,0,0.953-0.427,0.953-0.951v-7.484l3.692-3.688
	c0.179-0.18,0.28-0.423,0.28-0.678v-4h1.683v-4.754h-5.039V30.839z M32.563,20.648v-0.033l-3.004,5.374h2.126v7.793
	c0,0.598,0.427,1.082,0.953,1.082c0.526,0,0.953-0.484,0.953-1.082v-7.793h2.288L32.563,20.648z M27.503,34.287v-5.674
	c1.022-0.369,1.75-1.296,1.75-2.388c0-1.416-1.219-2.565-2.724-2.565c-1.504,0-2.724,1.149-2.724,2.565
	c0,1.106,0.749,2.041,1.792,2.4v6.059c0,0.25,0.099,0.494,0.279,0.671l3.691,3.691v5.829c0,0.528,0.427,0.954,0.953,0.954
	c0.526,0,0.953-0.426,0.953-0.954v-6.224c0-0.253-0.099-0.493-0.278-0.673L27.503,34.287z"/>
<path fill="#FFFFFF" d="M49.565,25.925h-2.243c0.013-0.168,0.021-0.336,0.021-0.51c0-3.035-2.132-5.572-4.981-6.199
	c-1.438-4.473-5.631-7.707-10.582-7.707c-4.959,0-9.159,3.246-10.589,7.73c-0.476-0.111-0.97-0.176-1.478-0.176
	c-3.51,0-6.354,2.846-6.354,6.352c0,0.182,0.01,0.363,0.022,0.541c-3.207,0.309-5.738,3.036-5.738,6.321
	c0,3.494,2.859,6.352,6.351,6.352h11.23l1.792,1.793v3.924h-4.127c-1.746,0-3.176,1.43-3.176,3.176s1.43,3.18,3.176,3.18h17.786
	c1.746,0,3.176-1.434,3.176-3.18s-1.431-3.176-3.176-3.176h-2.447v-3.924l1.793-1.793h9.544c3.496,0,6.354-2.857,6.354-6.352
	S53.061,25.925,49.565,25.925z M31.493,44.885c0,0.527-0.427,0.953-0.953,0.953c-0.525,0-0.953-0.426-0.953-0.953v-5.83
	l-3.691-3.691c-0.18-0.176-0.279-0.42-0.279-0.67v-6.059c-1.043-0.359-1.792-1.295-1.792-2.401c0-1.416,1.22-2.564,2.724-2.564
	c1.505,0,2.724,1.148,2.724,2.564c0,1.093-0.728,2.019-1.75,2.388v5.674l3.691,3.693c0.18,0.18,0.278,0.42,0.278,0.672V44.885z
	 M33.612,33.791c0,0.598-0.427,1.082-0.953,1.082c-0.526,0-0.953-0.484-0.953-1.082v-7.794H29.58l3.004-5.373v0.033l3.316,5.34
	h-2.288V33.791z M41.298,30.848h-1.683v4c0,0.254-0.101,0.498-0.28,0.678l-3.692,3.688v7.484c0,0.525-0.427,0.951-0.953,0.951
	c-0.526,0-0.953-0.426-0.953-0.951V38.82c0-0.252,0.099-0.496,0.278-0.674l3.691-3.691v-3.607h-1.448v-4.755h5.039V30.848z"/>
</svg>
