<?xml version="1.0" encoding="utf-8"?>
<!-- Generator: Adobe Illustrator 13.0.0, SVG Export Plug-In . SVG Version: 6.00 Build 14948)  -->
<!DOCTYPE svg PUBLIC "-//W3C//DTD SVG 1.1//EN" "http://www.w3.org/Graphics/SVG/1.1/DTD/svg11.dtd">
<svg version="1.1" xmlns="http://www.w3.org/2000/svg" xmlns:xlink="http://www.w3.org/1999/xlink" x="0px" y="0px" width="1000px"
	 height="1000px" viewBox="0 0 1000 1000" enable-background="new 0 0 1000 1000" xml:space="preserve">
<g id="Layer_3">
</g>
<g id="Layer_2">
	<path fill="#FFFFFF" d="M639.078,373.487c0,3.175-0.075,6.35-0.226,9.475c0.025,0.425,0.025,0.875,0.025,1.3
		c0,105.699-85.7,191.4-191.4,191.4c-0.725,0-1.45,0-2.175-0.025c-38.476-0.426-74.225-12.199-104.05-32.176
		c57.725,5.525,93.6-27.299,93.6-27.299c-49.35-3.275-63.475-49.55-63.475-49.55c13.125,4.675,29.675-1.25,29.675-1.25
		c-58.425-18.125-55-68.125-55-68.125c14.15,9.7,29.7,7.925,29.7,7.925c-48.325-46.675-18.4-91.675-18.4-91.675
		c62.675,73.725,136.825,73.625,145.326,73.375c-1.275-3.95-2.201-8.05-2.775-12.25c-1.45-8.325-1.726-20.075,3.524-32.75
		c9.65-26.5,35.075-45.425,64.9-45.425c21.6,0,40.875,9.925,53.55,25.45c1.4,1,2.2,1.6,2.2,1.6c1.35,0,2.925-0.3,4.649-0.875
		c12.9-4.15,33.7-21.95,33.7-21.95l-26.675,46.15l39.375-11.65L639.078,373.487z"/>
	<g>
		<g>
			<path fill="#3D86B7" d="M508.201,186.065h-0.008c-138.069,0-249.996,111.928-249.996,249.996v0.008
				c0,138.069,111.927,249.996,249.996,249.996h0.008c138.069,0,249.996-111.927,249.996-249.996v-0.008
				C758.197,297.993,646.271,186.065,508.201,186.065z M639.085,373.503c0,3.175-0.075,6.35-0.226,9.475
				c0.025,0.425,0.025,0.875,0.025,1.3c0,105.699-85.7,191.399-191.4,191.399c-0.725,0-1.45,0-2.175-0.024
				c-38.476-0.426-74.225-12.2-104.05-32.176c57.725,5.525,93.6-27.299,93.6-27.299c-49.35-3.275-63.475-49.551-63.475-49.551
				c13.125,4.675,29.675-1.25,29.675-1.25c-58.425-18.125-55-68.125-55-68.125c14.15,9.7,29.7,7.925,29.7,7.925
				c-48.325-46.675-18.4-91.675-18.4-91.675c62.675,73.725,136.825,73.625,145.326,73.375c-1.275-3.95-2.201-8.05-2.776-12.25
				c-1.45-8.325-1.725-20.075,3.525-32.75c9.65-26.5,35.075-45.425,64.9-45.425c21.6,0,40.875,9.925,53.55,25.45
				c1.4,1,2.2,1.6,2.2,1.6c1.35,0,2.925-0.3,4.649-0.875c12.9-4.15,33.7-21.95,33.7-21.95l-26.675,46.15l39.375-11.65
				L639.085,373.503z"/>
		</g>
	</g>
</g>
</svg>
