<?xml version="1.0" encoding="utf-8"?>
<!-- Generator: Adobe Illustrator 19.0.0, SVG Export Plug-In . SVG Version: 6.00 Build 0)  -->
<svg version="1.1" id="Capa_1" xmlns="http://www.w3.org/2000/svg" xmlns:xlink="http://www.w3.org/1999/xlink" x="0px" y="0px"
	 viewBox="121.4 61.1 143.6 143.6" style="enable-background:new 121.4 61.1 143.6 143.6;" xml:space="preserve">
<style type="text/css">
	.st0{fill:#3D86B7;}
	.st1{fill:#FFFFFF;}
</style>
<g id="OBJECTS">
	<g>
		<g>
			<path class="st0" d="M193.2,61.1c-39.7,0-71.8,32.1-71.8,71.8c0,39.7,32.1,71.8,71.8,71.8c39.7,0,71.8-32.2,71.8-71.8
				C265,93.3,232.9,61.1,193.2,61.1z M211.5,132.9h-12.6c0,19,0,42.5,0,42.5h-17c0,0,0-23.2,0-42.5h-8.5v-17h8.4v-7.7
				c0-7,3.3-17.8,17.9-17.8l13.1,0.1V105c0,0-8,0-9.5,0c-1.5,0-3.8,0.8-3.8,4.1v6.8h13.5L211.5,132.9z"/>
		</g>
	</g>
	<path id="XMLID_1_" class="st1" d="M199.6,116v-6.8c0-3.3,2.2-4.1,3.8-4.1c1.6,0,9.5,0,9.5,0V90.5l-13.1-0.1
		c-14.6,0-17.9,10.9-17.9,17.8v7.7h-8.4v17h8.5c0,19.3,0,42.5,0,42.5h17c0,0,0-23.5,0-42.5h12.6l1.6-17L199.6,116L199.6,116z"/>
</g>
</svg>
