<?xml version="1.0" encoding="utf-8"?>
<!-- Generator: Adobe Illustrator 19.0.0, SVG Export Plug-In . SVG Version: 6.00 Build 0)  -->
<svg version="1.1" id="Capa_1" xmlns="http://www.w3.org/2000/svg" xmlns:xlink="http://www.w3.org/1999/xlink" x="0px" y="0px"
	 viewBox="278.2 -33.9 500 500" style="enable-background:new 278.2 -33.9 500 500;" xml:space="preserve">
<style type="text/css">
	.st0{fill:#FFFFFF;}
	.st1{fill:#3D86B7;}
</style>
<g id="Layer_3">
</g>
<g id="Layer_2">
	<path class="st0" d="M659.1,153.5c0,3.2-0.1,6.4-0.2,9.5c0,0.4,0,0.9,0,1.3c0,105.7-85.7,191.4-191.4,191.4c-0.7,0-1.5,0-2.2,0
		c-38.5-0.4-74.2-12.2-104.1-32.2c57.7,5.5,93.6-27.3,93.6-27.3c-49.4-3.3-63.5-49.5-63.5-49.5c13.1,4.7,29.7-1.3,29.7-1.3
		c-58.4-18.1-55-68.1-55-68.1c14.1,9.7,29.7,7.9,29.7,7.9c-48.3-46.7-18.4-91.7-18.4-91.7c62.7,73.7,136.8,73.6,145.3,73.4
		c-1.3-4-2.2-8-2.8-12.3c-1.5-8.3-1.7-20.1,3.5-32.8c9.7-26.5,35.1-45.4,64.9-45.4c21.6,0,40.9,9.9,53.5,25.5c1.4,1,2.2,1.6,2.2,1.6
		c1.3,0,2.9-0.3,4.6-0.9c12.9-4.1,33.7-22,33.7-22l-26.7,46.1l39.4-11.6L659.1,153.5z"/>
	<g>
		<g>
			<path class="st1" d="M528.2-33.9L528.2-33.9c-138.1,0-250,111.9-250,250v0c0,138.1,111.9,250,250,250h0
				c138.1,0,250-111.9,250-250v0C778.2,78,666.3-33.9,528.2-33.9z M659.1,153.5c0,3.2-0.1,6.4-0.2,9.5c0,0.4,0,0.9,0,1.3
				c0,105.7-85.7,191.4-191.4,191.4c-0.7,0-1.5,0-2.2,0c-38.5-0.4-74.2-12.2-104.1-32.2c57.7,5.5,93.6-27.3,93.6-27.3
				c-49.4-3.3-63.5-49.6-63.5-49.6c13.1,4.7,29.7-1.3,29.7-1.3c-58.4-18.1-55-68.1-55-68.1c14.1,9.7,29.7,7.9,29.7,7.9
				c-48.3-46.7-18.4-91.7-18.4-91.7c62.7,73.7,136.8,73.6,145.3,73.4c-1.3-4-2.2-8-2.8-12.3c-1.5-8.3-1.7-20.1,3.5-32.8
				c9.6-26.5,35.1-45.4,64.9-45.4c21.6,0,40.9,9.9,53.5,25.5c1.4,1,2.2,1.6,2.2,1.6c1.3,0,2.9-0.3,4.6-0.9c12.9-4.1,33.7-22,33.7-22
				l-26.7,46.1l39.4-11.6L659.1,153.5z"/>
		</g>
	</g>
</g>
</svg>
